<svg width="88" height="59" viewBox="0 0 88 59" fill="none" xmlns="http://www.w3.org/2000/svg">
<path fill-rule="evenodd" clip-rule="evenodd" d="M64 9.18488L72 4.09397V25.5233L64 20.0687V9.18488ZM61 8.9104V20.333V22.8615H52V7.86146H61V7.90432V8.9104ZM71.1578 1.07398L63.5428 5.91991C63.0901 5.27956 62.3439 4.86146 61.5 4.86146H51.5C50.1193 4.86146 49 5.98075 49 7.36146V10.8615H1.5H0V12.3615V57.4227V58.9227H1.5H63.713H65.213V57.4227V24.5267L71.0917 28.5349C72.7512 29.6664 75 28.4779 75 26.4693V21.6621C79.6944 18.1931 79.7379 11.0763 75 7.56774V3.18313C75 1.2104 72.8221 0.0148749 71.1578 1.07398ZM75 12.1645V17.0628C75.7146 15.5202 75.7177 13.7111 75 12.1645ZM3 13.8615H49V16.9025C48.8627 16.8721 48.7201 16.8561 48.5737 16.8561C47.4878 16.8561 46.6075 17.7364 46.6075 18.8223C46.6075 19.9081 47.4878 20.7884 48.5737 20.7884C48.7201 20.7884 48.8627 20.7724 49 20.742V21.666H3V13.8615ZM51.5 25.8615C50.5973 25.8615 49.8064 25.3831 49.3669 24.666H3V55.9227H62.213V25.7583C61.987 25.8254 61.7477 25.8615 61.5 25.8615H51.5ZM43.4614 18.8223C43.4614 19.9081 42.5812 20.7884 41.4953 20.7884C40.4094 20.7884 39.5292 19.9081 39.5292 18.8223C39.5292 17.7364 40.4094 16.8561 41.4953 16.8561C42.5812 16.8561 43.4614 17.7364 43.4614 18.8223ZM85.8893 21.1083C85.577 21.8756 84.7018 22.2444 83.9345 21.9321L80.4345 20.5074C79.6673 20.1951 79.2984 19.3199 79.6108 18.5526C79.9231 17.7853 80.7983 17.4165 81.5656 17.7288L85.0655 19.1535C85.8328 19.4658 86.2016 20.341 85.8893 21.1083ZM85.7385 16.4266C86.5667 16.4481 87.2555 15.7943 87.2771 14.9661C87.2986 14.138 86.6447 13.4492 85.8166 13.4276L82.0391 13.3293C81.2109 13.3078 80.5221 13.9616 80.5006 14.7898C80.479 15.6179 81.1329 16.3067 81.961 16.3283L85.7385 16.4266ZM85.2533 7.349C85.7439 8.0165 85.6006 8.95536 84.9331 9.44601L81.8883 11.684C81.2208 12.1747 80.282 12.0313 79.7913 11.3638C79.3007 10.6963 79.4441 9.75744 80.1116 9.2668L83.1563 7.02877C83.8238 6.53813 84.7627 6.6815 85.2533 7.349ZM21.3417 47H24.3417V50V51V54H21.3417V51V50V47ZM30.3417 44H27.3417V47V51V54H30.3417V51V47V44ZM33.3417 41H36.3417V44V51V54H33.3417V51V44V41ZM42.3417 38H39.3417V41V51V54H42.3417V51V41V38ZM35.4054 30.5167L36.1319 30.7265L38.3638 31.3708L20.8944 40.1055L20 40.5527L20.8944 42.3416L21.7889 41.8944L39.5693 33.0042L38.7077 35.4999L38.461 36.2147L39.8905 36.7082L40.1373 35.9934L41.6621 31.5764C41.7298 31.3805 41.714 31.1654 41.6185 30.9814C41.523 30.7974 41.3562 30.6607 41.1571 30.6032L36.5514 29.2735L35.8249 29.0637L35.4054 30.5167Z" fill="url(#paint0_linear_974_75)"/>
<defs>
<linearGradient id="paint0_linear_974_75" x1="-1.14315" y1="32.8753" x2="79.986" y2="32.8753" gradientUnits="userSpaceOnUse">
<stop stop-color="#3BA1F0"/>
<stop offset="1" stop-color="#7260DF"/>
</linearGradient>
</defs>
</svg>
