<svg width="52" height="38" viewBox="0 0 52 38" fill="none" xmlns="http://www.w3.org/2000/svg">
<rect x="1.55884" y="1.56055" width="48.9668" height="34.8789" stroke="url(#paint0_linear_1163_11)" stroke-width="2"/>
<path fill-rule="evenodd" clip-rule="evenodd" d="M32.6786 8.84511V7.02344L31.1417 8.00145L24.4039 12.2892V11.6059H23.4039H14.3768H13.3768V12.6059V26.1464V27.1464H14.3768H23.4039H24.4039V26.1464V25.4062L31.1152 29.9821L32.6786 31.048V29.1559V8.84511ZM22.4038 13.6059V14.1109V23.514V24.0425L22.4039 24.0426V25.1464H15.3768V13.6059H22.4038ZM24.4039 22.9856L30.6786 27.2638V10.6668L24.4039 14.6598V22.9856Z" fill="url(#paint1_linear_1163_11)"/>
<path d="M37.0168 22.2259L39.6496 23.2976" stroke="url(#paint2_linear_1163_11)" stroke-width="2" stroke-linecap="square"/>
<path d="M37.7691 18.9988L40.6107 19.0727" stroke="url(#paint3_linear_1163_11)" stroke-width="2" stroke-linecap="square"/>
<path d="M37.0167 15.7244L39.3071 14.0409" stroke="url(#paint4_linear_1163_11)" stroke-width="2" stroke-linecap="square"/>
<defs>
<linearGradient id="paint0_linear_1163_11" x1="-0.108721" y1="20.9466" x2="47.2676" y2="20.9466" gradientUnits="userSpaceOnUse">
<stop stop-color="#3BA1F0"/>
<stop offset="1" stop-color="#7260DF"/>
</linearGradient>
<linearGradient id="paint1_linear_1163_11" x1="13.124" y1="20.3039" x2="31.066" y2="20.3039" gradientUnits="userSpaceOnUse">
<stop stop-color="#3BA1F0"/>
<stop offset="1" stop-color="#7260DF"/>
</linearGradient>
<linearGradient id="paint2_linear_1163_11" x1="37.7504" y1="21.8247" x2="38.6467" y2="23.6027" gradientUnits="userSpaceOnUse">
<stop stop-color="#3BA1F0"/>
<stop offset="1" stop-color="#7260DF"/>
</linearGradient>
<linearGradient id="paint3_linear_1163_11" x1="38.314" y1="18.3645" x2="39.7799" y2="19.7121" gradientUnits="userSpaceOnUse">
<stop stop-color="#3BA1F0"/>
<stop offset="1" stop-color="#7260DF"/>
</linearGradient>
<linearGradient id="paint4_linear_1163_11" x1="37.0584" y1="14.8893" x2="39.0426" y2="15.0553" gradientUnits="userSpaceOnUse">
<stop stop-color="#3BA1F0"/>
<stop offset="1" stop-color="#7260DF"/>
</linearGradient>
</defs>
</svg>
