<svg width="330" height="215" viewBox="0 0 681 365" fill="none" xmlns="http://www.w3.org/2000/svg">
<path d="M136.549 10.3855H145.369C147.749 10.3855 149.649 11.0155 151.069 12.2755C152.489 13.5155 153.199 15.2455 153.199 17.4655C153.199 19.7455 152.489 21.4955 151.069 22.7155C149.669 23.9355 147.769 24.5455 145.369 24.5455H141.109V31.3555H136.549V10.3855ZM144.709 20.7355C147.289 20.7355 148.579 19.6455 148.579 17.4655C148.579 16.2455 148.229 15.3955 147.529 14.9155C146.849 14.4355 145.909 14.1955 144.709 14.1955H141.109V20.7355H144.709ZM155.299 9.18547H159.829V31.3555H155.299V9.18547ZM168.345 31.8055C166.585 31.8055 165.145 31.3655 164.025 30.4855C162.925 29.5855 162.375 28.3655 162.375 26.8255C162.375 25.2255 162.905 23.9855 163.965 23.1055C165.025 22.2055 166.525 21.7555 168.465 21.7555C169.325 21.7555 170.145 21.8455 170.925 22.0255C171.705 22.2055 172.395 22.4555 172.995 22.7755V22.4155C172.995 21.5155 172.675 20.8555 172.035 20.4355C171.395 20.0155 170.415 19.8055 169.095 19.8055C167.335 19.8055 165.715 20.1355 164.235 20.7955V17.4955C164.875 17.2155 165.705 16.9855 166.725 16.8055C167.745 16.6055 168.765 16.5055 169.785 16.5055C172.385 16.5055 174.325 17.0455 175.605 18.1255C176.885 19.1855 177.525 20.6755 177.525 22.5955V31.3555H173.265V30.0355C172.045 31.2155 170.405 31.8055 168.345 31.8055ZM169.575 28.8055C170.315 28.8055 170.985 28.6655 171.585 28.3855C172.185 28.1055 172.655 27.7155 172.995 27.2155V25.7755C171.975 25.0955 170.855 24.7555 169.635 24.7555C168.795 24.7555 168.145 24.9355 167.685 25.2955C167.245 25.6355 167.025 26.1455 167.025 26.8255C167.025 27.4655 167.245 27.9555 167.685 28.2955C168.125 28.6355 168.755 28.8055 169.575 28.8055ZM185.792 31.8055C184.112 31.8055 182.832 31.3455 181.952 30.4255C181.092 29.4855 180.662 28.1855 180.662 26.5255V20.2255H178.562V16.9555H180.662V12.6355H185.192V16.9555H188.582V20.2255H185.192V25.9255C185.192 26.7655 185.352 27.3755 185.672 27.7555C185.992 28.1155 186.562 28.2955 187.382 28.2955C188.042 28.2955 188.672 28.1355 189.272 27.8155V31.2055C188.352 31.6055 187.192 31.8055 185.792 31.8055ZM196.294 31.8055C194.534 31.8055 193.094 31.3655 191.974 30.4855C190.874 29.5855 190.324 28.3655 190.324 26.8255C190.324 25.2255 190.854 23.9855 191.914 23.1055C192.974 22.2055 194.474 21.7555 196.414 21.7555C197.274 21.7555 198.094 21.8455 198.874 22.0255C199.654 22.2055 200.344 22.4555 200.944 22.7755V22.4155C200.944 21.5155 200.624 20.8555 199.984 20.4355C199.344 20.0155 198.364 19.8055 197.044 19.8055C195.284 19.8055 193.664 20.1355 192.184 20.7955V17.4955C192.824 17.2155 193.654 16.9855 194.674 16.8055C195.694 16.6055 196.714 16.5055 197.734 16.5055C200.334 16.5055 202.274 17.0455 203.554 18.1255C204.834 19.1855 205.474 20.6755 205.474 22.5955V31.3555H201.214V30.0355C199.994 31.2155 198.354 31.8055 196.294 31.8055ZM197.524 28.8055C198.264 28.8055 198.934 28.6655 199.534 28.3855C200.134 28.1055 200.604 27.7155 200.944 27.2155V25.7755C199.924 25.0955 198.804 24.7555 197.584 24.7555C196.744 24.7555 196.094 24.9355 195.634 25.2955C195.194 25.6355 194.974 26.1455 194.974 26.8255C194.974 27.4655 195.194 27.9555 195.634 28.2955C196.074 28.6355 196.704 28.8055 197.524 28.8055ZM209.343 20.2255H207.273V16.9555H209.343V14.8255C209.343 12.9655 209.913 11.5355 211.053 10.5355C212.193 9.53547 213.673 9.03547 215.493 9.03547C216.533 9.03547 217.433 9.19547 218.193 9.51547V13.1455C217.613 12.8855 217.003 12.7555 216.363 12.7555C215.523 12.7555 214.893 12.9455 214.473 13.3255C214.073 13.7055 213.873 14.3255 213.873 15.1855V16.9555H217.293V20.2255H213.873V31.3555H209.343V20.2255ZM226.563 31.8055C224.823 31.8055 223.293 31.4955 221.973 30.8755C220.673 30.2355 219.663 29.3455 218.943 28.2055C218.243 27.0455 217.893 25.6955 217.893 24.1555C217.893 22.6555 218.243 21.3255 218.943 20.1655C219.663 19.0055 220.673 18.1055 221.973 17.4655C223.293 16.8255 224.823 16.5055 226.563 16.5055C228.283 16.5055 229.793 16.8255 231.093 17.4655C232.413 18.1055 233.423 19.0055 234.123 20.1655C234.843 21.3255 235.203 22.6555 235.203 24.1555C235.203 25.6955 234.843 27.0455 234.123 28.2055C233.423 29.3455 232.423 30.2355 231.123 30.8755C229.823 31.4955 228.303 31.8055 226.563 31.8055ZM226.563 28.2655C227.783 28.2655 228.753 27.8955 229.473 27.1555C230.193 26.3955 230.553 25.3955 230.553 24.1555C230.553 22.8755 230.193 21.8755 229.473 21.1555C228.773 20.4155 227.803 20.0455 226.563 20.0455C225.323 20.0455 224.343 20.4155 223.623 21.1555C222.903 21.8755 222.543 22.8755 222.543 24.1555C222.543 25.3955 222.903 26.3955 223.623 27.1555C224.363 27.8955 225.343 28.2655 226.563 28.2655ZM237.741 16.9555H242.121V19.0255C242.701 18.3255 243.511 17.7955 244.551 17.4355C245.591 17.0555 246.771 16.8655 248.091 16.8655V20.3155C246.711 20.3155 245.491 20.5255 244.431 20.9455C243.391 21.3655 242.671 22.0055 242.271 22.8655V31.3555H237.741V16.9555ZM250.016 16.9555H254.246V18.6955C254.866 17.9955 255.586 17.4555 256.406 17.0755C257.226 16.6955 258.076 16.5055 258.956 16.5055C260.056 16.5055 260.936 16.6855 261.596 17.0455C262.256 17.3855 262.776 17.8955 263.156 18.5755C263.776 17.9155 264.526 17.4055 265.406 17.0455C266.306 16.6855 267.196 16.5055 268.076 16.5055C269.916 16.5055 271.226 16.9755 272.006 17.9155C272.806 18.8555 273.206 20.2155 273.206 21.9955V31.3555H268.886V22.6255C268.886 21.7055 268.706 21.0455 268.346 20.6455C267.986 20.2455 267.406 20.0455 266.606 20.0455C265.486 20.0455 264.586 20.4855 263.906 21.3655C263.946 22.0055 263.966 22.5255 263.966 22.9255V31.3555H259.616V22.4755C259.616 21.5955 259.456 20.9755 259.136 20.6155C258.836 20.2355 258.306 20.0455 257.546 20.0455C256.366 20.0455 255.316 20.7155 254.396 22.0555V31.3555H250.016V16.9555ZM281.138 31.8055C279.378 31.8055 277.938 31.3655 276.818 30.4855C275.718 29.5855 275.168 28.3655 275.168 26.8255C275.168 25.2255 275.698 23.9855 276.758 23.1055C277.818 22.2055 279.318 21.7555 281.258 21.7555C282.118 21.7555 282.938 21.8455 283.718 22.0255C284.498 22.2055 285.188 22.4555 285.788 22.7755V22.4155C285.788 21.5155 285.468 20.8555 284.828 20.4355C284.188 20.0155 283.208 19.8055 281.888 19.8055C280.128 19.8055 278.508 20.1355 277.028 20.7955V17.4955C277.668 17.2155 278.498 16.9855 279.518 16.8055C280.538 16.6055 281.558 16.5055 282.578 16.5055C285.178 16.5055 287.118 17.0455 288.398 18.1255C289.678 19.1855 290.318 20.6755 290.318 22.5955V31.3555H286.058V30.0355C284.838 31.2155 283.198 31.8055 281.138 31.8055ZM282.368 28.8055C283.108 28.8055 283.778 28.6655 284.378 28.3855C284.978 28.1055 285.448 27.7155 285.788 27.2155V25.7755C284.768 25.0955 283.648 24.7555 282.428 24.7555C281.588 24.7555 280.938 24.9355 280.478 25.2955C280.038 25.6355 279.818 26.1455 279.818 26.8255C279.818 27.4655 280.038 27.9555 280.478 28.2955C280.918 28.6355 281.548 28.8055 282.368 28.8055Z" fill="white"/>
<path opacity="0.7" d="M136.289 44.3677H145.509V46.0877H138.329V50.5477H143.689V52.1677H138.329V58.3477H136.289V44.3677ZM148.753 58.6477C147.593 58.6477 146.659 58.3543 145.953 57.7677C145.259 57.1677 144.913 56.361 144.913 55.3477C144.913 54.281 145.246 53.461 145.913 52.8877C146.593 52.301 147.553 52.0077 148.793 52.0077C150.113 52.0077 151.233 52.2743 152.153 52.8077V52.3077C152.153 51.5477 151.919 50.9877 151.453 50.6277C150.999 50.2543 150.279 50.0677 149.293 50.0677C148.706 50.0677 148.133 50.1277 147.573 50.2477C147.026 50.3543 146.533 50.5077 146.093 50.7077V49.0677C146.493 48.881 147.013 48.7343 147.653 48.6277C148.293 48.5077 148.913 48.4477 149.513 48.4477C151.099 48.4477 152.273 48.801 153.033 49.5077C153.806 50.201 154.193 51.1677 154.193 52.4077V58.3477H152.293V57.2677C151.879 57.721 151.386 58.0677 150.813 58.3077C150.253 58.5343 149.566 58.6477 148.753 58.6477ZM149.253 57.1077C149.893 57.1077 150.473 56.981 150.993 56.7277C151.513 56.4743 151.899 56.121 152.153 55.6677V54.3677C151.286 53.8077 150.319 53.5277 149.253 53.5277C148.479 53.5277 147.899 53.681 147.513 53.9877C147.139 54.281 146.953 54.7343 146.953 55.3477C146.953 56.521 147.719 57.1077 149.253 57.1077ZM161.369 58.6477C160.302 58.6477 159.355 58.4477 158.529 58.0477C157.702 57.6477 157.055 57.0677 156.589 56.3077C156.135 55.5343 155.909 54.621 155.909 53.5677C155.909 52.5143 156.135 51.6077 156.589 50.8477C157.055 50.0743 157.702 49.481 158.529 49.0677C159.369 48.6543 160.329 48.4477 161.409 48.4477C162.875 48.4477 164.049 48.7343 164.929 49.3077V50.9677C164.062 50.3677 162.955 50.0677 161.609 50.0677C160.515 50.0677 159.629 50.3677 158.949 50.9677C158.282 51.5543 157.949 52.421 157.949 53.5677C157.949 54.7143 158.282 55.581 158.949 56.1677C159.615 56.7543 160.489 57.0477 161.569 57.0477C162.915 57.0477 164.075 56.7277 165.049 56.0877V57.7277C164.582 58.0477 164.049 58.281 163.449 58.4277C162.862 58.5743 162.169 58.6477 161.369 58.6477ZM172.526 58.6477C170.753 58.6477 169.36 58.2077 168.346 57.3277C167.346 56.4343 166.846 55.181 166.846 53.5677C166.846 51.9943 167.293 50.7477 168.186 49.8277C169.093 48.9077 170.38 48.4477 172.046 48.4477C173.153 48.4477 174.093 48.661 174.866 49.0877C175.64 49.501 176.22 50.081 176.606 50.8277C177.006 51.561 177.206 52.401 177.206 53.3477V54.3477H168.766C168.833 55.2543 169.213 55.9343 169.906 56.3877C170.613 56.8277 171.566 57.0477 172.766 57.0477C173.38 57.0477 174 56.9943 174.626 56.8877C175.253 56.7677 175.806 56.6143 176.286 56.4277V58.0477C175.86 58.221 175.293 58.361 174.586 58.4677C173.893 58.5877 173.206 58.6477 172.526 58.6477ZM175.306 52.9277C175.28 52.021 174.98 51.321 174.406 50.8277C173.846 50.321 173.046 50.0677 172.006 50.0677C170.993 50.0677 170.206 50.3277 169.646 50.8477C169.086 51.3677 168.793 52.061 168.766 52.9277H175.306ZM185.374 58.6477C184.508 58.6477 183.754 58.5143 183.114 58.2477C182.488 57.9677 181.908 57.5343 181.374 56.9477V58.3477H179.414V43.5677H181.434V50.0277C181.874 49.5077 182.441 49.1143 183.134 48.8477C183.828 48.581 184.574 48.4477 185.374 48.4477C186.334 48.4477 187.194 48.6677 187.954 49.1077C188.728 49.5343 189.328 50.1343 189.754 50.9077C190.194 51.681 190.414 52.5677 190.414 53.5677C190.414 54.581 190.194 55.4743 189.754 56.2477C189.328 57.0077 188.728 57.601 187.954 58.0277C187.194 58.441 186.334 58.6477 185.374 58.6477ZM184.914 57.0477C185.568 57.0477 186.154 56.9077 186.674 56.6277C187.208 56.3343 187.621 55.921 187.914 55.3877C188.221 54.8543 188.374 54.2477 188.374 53.5677C188.374 52.8877 188.221 52.281 187.914 51.7477C187.621 51.2143 187.208 50.801 186.674 50.5077C186.154 50.2143 185.568 50.0677 184.914 50.0677C184.101 50.0677 183.374 50.2877 182.734 50.7277C182.094 51.1677 181.661 51.7543 181.434 52.4877V54.6477C181.688 55.381 182.121 55.9677 182.734 56.4077C183.361 56.8343 184.088 57.0477 184.914 57.0477ZM197.17 58.6477C196.09 58.6477 195.136 58.4477 194.31 58.0477C193.496 57.6343 192.856 57.0477 192.39 56.2877C191.936 55.5143 191.71 54.6077 191.71 53.5677C191.71 52.541 191.936 51.641 192.39 50.8677C192.843 50.0943 193.483 49.501 194.31 49.0877C195.136 48.661 196.09 48.4477 197.17 48.4477C198.25 48.4477 199.203 48.661 200.03 49.0877C200.856 49.501 201.496 50.0943 201.95 50.8677C202.416 51.641 202.65 52.541 202.65 53.5677C202.65 54.6077 202.416 55.5143 201.95 56.2877C201.496 57.0477 200.856 57.6343 200.03 58.0477C199.203 58.4477 198.25 58.6477 197.17 58.6477ZM197.17 57.0477C198.21 57.0477 199.036 56.7277 199.65 56.0877C200.263 55.4477 200.57 54.6077 200.57 53.5677C200.57 52.4877 200.263 51.6343 199.65 51.0077C199.036 50.381 198.21 50.0677 197.17 50.0677C196.13 50.0677 195.303 50.381 194.69 51.0077C194.076 51.6343 193.77 52.4877 193.77 53.5677C193.77 54.6077 194.076 55.4477 194.69 56.0877C195.303 56.7277 196.13 57.0477 197.17 57.0477ZM209.396 58.6477C208.316 58.6477 207.363 58.4477 206.536 58.0477C205.723 57.6343 205.083 57.0477 204.616 56.2877C204.163 55.5143 203.936 54.6077 203.936 53.5677C203.936 52.541 204.163 51.641 204.616 50.8677C205.069 50.0943 205.709 49.501 206.536 49.0877C207.363 48.661 208.316 48.4477 209.396 48.4477C210.476 48.4477 211.429 48.661 212.256 49.0877C213.083 49.501 213.723 50.0943 214.176 50.8677C214.643 51.641 214.876 52.541 214.876 53.5677C214.876 54.6077 214.643 55.5143 214.176 56.2877C213.723 57.0477 213.083 57.6343 212.256 58.0477C211.429 58.4477 210.476 58.6477 209.396 58.6477ZM209.396 57.0477C210.436 57.0477 211.263 56.7277 211.876 56.0877C212.489 55.4477 212.796 54.6077 212.796 53.5677C212.796 52.4877 212.489 51.6343 211.876 51.0077C211.263 50.381 210.436 50.0677 209.396 50.0677C208.356 50.0677 207.529 50.381 206.916 51.0077C206.303 51.6343 205.996 52.4877 205.996 53.5677C205.996 54.6077 206.303 55.4477 206.916 56.0877C207.529 56.7277 208.356 57.0477 209.396 57.0477ZM217.071 43.5677H219.091V58.3477H217.071V43.5677ZM219.111 53.4877L223.531 48.7477H225.991L221.551 53.4877L226.451 58.3477H223.991L219.111 53.4877ZM228.779 57.2877H230.899L228.999 61.3077H227.159L228.779 57.2877ZM240.508 44.3677H242.568V58.3477H240.508V44.3677ZM245.176 48.7477H247.136V50.1277C247.589 49.5543 248.143 49.1343 248.796 48.8677C249.463 48.5877 250.156 48.4477 250.876 48.4477C252.156 48.4477 253.109 48.7877 253.736 49.4677C254.363 50.1477 254.676 51.061 254.676 52.2077V58.3477H252.656V52.4077C252.656 50.8477 251.909 50.0677 250.416 50.0677C249.776 50.0677 249.176 50.221 248.616 50.5277C248.069 50.821 247.596 51.2743 247.196 51.8877V58.3477H245.176V48.7477ZM260.708 58.6477C260.041 58.6477 259.335 58.561 258.588 58.3877C257.841 58.2277 257.255 58.0077 256.828 57.7277V56.0077C257.348 56.3143 257.948 56.5677 258.628 56.7677C259.308 56.9543 259.968 57.0477 260.608 57.0477C261.328 57.0477 261.855 56.961 262.188 56.7877C262.521 56.6143 262.688 56.3343 262.688 55.9477C262.688 55.6543 262.608 55.421 262.448 55.2477C262.301 55.061 262.041 54.8943 261.668 54.7477C261.308 54.601 260.761 54.4277 260.028 54.2277C259.241 54.001 258.615 53.7743 258.148 53.5477C257.695 53.3077 257.348 53.0077 257.108 52.6477C256.881 52.2877 256.768 51.821 256.768 51.2477C256.768 50.3277 257.128 49.6343 257.848 49.1677C258.581 48.6877 259.561 48.4477 260.788 48.4477C261.428 48.4477 262.055 48.5077 262.668 48.6277C263.281 48.7477 263.775 48.9143 264.148 49.1277V50.8077C263.761 50.581 263.281 50.401 262.708 50.2677C262.148 50.1343 261.575 50.0677 260.988 50.0677C260.281 50.0677 259.741 50.1543 259.368 50.3277C258.995 50.501 258.808 50.8077 258.808 51.2477C258.808 51.5277 258.888 51.7543 259.048 51.9277C259.208 52.101 259.461 52.2543 259.808 52.3877C260.168 52.5077 260.735 52.6677 261.508 52.8677C262.721 53.201 263.561 53.5943 264.028 54.0477C264.508 54.501 264.748 55.1277 264.748 55.9277C264.748 56.7543 264.408 57.4143 263.728 57.9077C263.048 58.401 262.041 58.6477 260.708 58.6477ZM270.36 58.6477C269.387 58.6477 268.634 58.3677 268.1 57.8077C267.58 57.2477 267.32 56.4543 267.32 55.4277V50.3077H265.86V48.7477H267.32V45.8677H269.36V48.7477H271.72V50.3077H269.36V55.2877C269.36 55.9277 269.48 56.381 269.72 56.6477C269.974 56.9143 270.427 57.0477 271.08 57.0477C271.467 57.0477 271.854 56.961 272.24 56.7877V58.3877C271.734 58.561 271.107 58.6477 270.36 58.6477ZM277.288 58.6477C276.128 58.6477 275.195 58.3543 274.488 57.7677C273.795 57.1677 273.448 56.361 273.448 55.3477C273.448 54.281 273.781 53.461 274.448 52.8877C275.128 52.301 276.088 52.0077 277.328 52.0077C278.648 52.0077 279.768 52.2743 280.688 52.8077V52.3077C280.688 51.5477 280.455 50.9877 279.988 50.6277C279.535 50.2543 278.815 50.0677 277.828 50.0677C277.241 50.0677 276.668 50.1277 276.108 50.2477C275.561 50.3543 275.068 50.5077 274.628 50.7077V49.0677C275.028 48.881 275.548 48.7343 276.188 48.6277C276.828 48.5077 277.448 48.4477 278.048 48.4477C279.635 48.4477 280.808 48.801 281.568 49.5077C282.341 50.201 282.728 51.1677 282.728 52.4077V58.3477H280.828V57.2677C280.415 57.721 279.921 58.0677 279.348 58.3077C278.788 58.5343 278.101 58.6477 277.288 58.6477ZM277.788 57.1077C278.428 57.1077 279.008 56.981 279.528 56.7277C280.048 56.4743 280.435 56.121 280.688 55.6677V54.3677C279.821 53.8077 278.855 53.5277 277.788 53.5277C277.015 53.5277 276.435 53.681 276.048 53.9877C275.675 54.281 275.488 54.7343 275.488 55.3477C275.488 56.521 276.255 57.1077 277.788 57.1077ZM290.255 62.9477C289.601 62.9477 288.961 62.8943 288.335 62.7877C287.721 62.681 287.201 62.5277 286.775 62.3277V60.6677C287.775 61.121 288.935 61.3477 290.255 61.3477C291.495 61.3477 292.395 61.0743 292.955 60.5277C293.528 59.9943 293.815 59.181 293.815 58.0877V57.0677C292.935 58.121 291.641 58.6477 289.935 58.6477C288.961 58.6477 288.088 58.4343 287.315 58.0077C286.541 57.581 285.935 56.981 285.495 56.2077C285.055 55.4343 284.835 54.5477 284.835 53.5477C284.835 52.5343 285.048 51.6477 285.475 50.8877C285.915 50.1143 286.515 49.5143 287.275 49.0877C288.048 48.661 288.915 48.4477 289.875 48.4477C290.768 48.4477 291.521 48.581 292.135 48.8477C292.761 49.101 293.341 49.5277 293.875 50.1277V48.7477H295.835V57.8677C295.835 59.5077 295.375 60.761 294.455 61.6277C293.548 62.5077 292.148 62.9477 290.255 62.9477ZM290.335 57.0477C291.161 57.0477 291.888 56.8277 292.515 56.3877C293.155 55.9477 293.588 55.361 293.815 54.6277V52.4677C293.561 51.721 293.121 51.1343 292.495 50.7077C291.881 50.281 291.161 50.0677 290.335 50.0677C289.681 50.0677 289.088 50.2143 288.555 50.5077C288.035 50.7877 287.621 51.1943 287.315 51.7277C287.021 52.261 286.875 52.8677 286.875 53.5477C286.875 54.241 287.021 54.8543 287.315 55.3877C287.621 55.9077 288.035 56.3143 288.555 56.6077C289.088 56.901 289.681 57.0477 290.335 57.0477ZM298.438 48.7477H300.398V50.4677C300.798 49.881 301.358 49.4477 302.078 49.1677C302.811 48.8877 303.658 48.7477 304.618 48.7477V50.3277C303.591 50.3277 302.711 50.4943 301.978 50.8277C301.244 51.161 300.738 51.6877 300.458 52.4077V58.3477H298.438V48.7477ZM308.968 58.6477C307.808 58.6477 306.874 58.3543 306.168 57.7677C305.474 57.1677 305.128 56.361 305.128 55.3477C305.128 54.281 305.461 53.461 306.128 52.8877C306.808 52.301 307.768 52.0077 309.008 52.0077C310.328 52.0077 311.448 52.2743 312.368 52.8077V52.3077C312.368 51.5477 312.134 50.9877 311.668 50.6277C311.214 50.2543 310.494 50.0677 309.508 50.0677C308.921 50.0677 308.348 50.1277 307.788 50.2477C307.241 50.3543 306.748 50.5077 306.308 50.7077V49.0677C306.708 48.881 307.228 48.7343 307.868 48.6277C308.508 48.5077 309.128 48.4477 309.728 48.4477C311.314 48.4477 312.488 48.801 313.248 49.5077C314.021 50.201 314.408 51.1677 314.408 52.4077V58.3477H312.508V57.2677C312.094 57.721 311.601 58.0677 311.028 58.3077C310.468 58.5343 309.781 58.6477 308.968 58.6477ZM309.468 57.1077C310.108 57.1077 310.688 56.981 311.208 56.7277C311.728 56.4743 312.114 56.121 312.368 55.6677V54.3677C311.501 53.8077 310.534 53.5277 309.468 53.5277C308.694 53.5277 308.114 53.681 307.728 53.9877C307.354 54.281 307.168 54.7343 307.168 55.3477C307.168 56.521 307.934 57.1077 309.468 57.1077ZM316.914 48.7477H318.834V50.1277C319.288 49.5677 319.801 49.1477 320.374 48.8677C320.948 48.5877 321.541 48.4477 322.154 48.4477C322.928 48.4477 323.541 48.581 323.994 48.8477C324.448 49.101 324.781 49.4943 324.994 50.0277C325.421 49.5077 325.941 49.1143 326.554 48.8477C327.181 48.581 327.808 48.4477 328.434 48.4477C329.608 48.4477 330.454 48.7477 330.974 49.3477C331.494 49.9343 331.754 50.8077 331.754 51.9677V58.3477H329.794V52.2277C329.794 51.441 329.648 50.8877 329.354 50.5677C329.061 50.2343 328.561 50.0677 327.854 50.0677C326.841 50.0677 326.014 50.5077 325.374 51.3877C325.401 51.5877 325.414 51.9143 325.414 52.3677V58.3477H323.454V52.2277C323.454 51.441 323.321 50.8877 323.054 50.5677C322.788 50.2343 322.308 50.0677 321.614 50.0677C320.601 50.0677 319.694 50.641 318.894 51.7877V58.3477H316.914V48.7477ZM335.478 57.2877H337.598L335.698 61.3077H333.858L335.478 57.2877ZM354.207 58.6477C352.767 58.6477 351.487 58.3477 350.367 57.7477C349.247 57.1477 348.374 56.301 347.747 55.2077C347.121 54.101 346.807 52.821 346.807 51.3677C346.807 49.9143 347.121 48.6343 347.747 47.5277C348.374 46.421 349.247 45.5677 350.367 44.9677C351.487 44.3677 352.767 44.0677 354.207 44.0677C356.141 44.0677 357.747 44.5477 359.027 45.5077V47.4677C357.867 46.4543 356.321 45.9477 354.387 45.9477C353.334 45.9477 352.387 46.1677 351.547 46.6077C350.707 47.0477 350.047 47.681 349.567 48.5077C349.101 49.321 348.867 50.2743 348.867 51.3677C348.867 52.461 349.101 53.421 349.567 54.2477C350.034 55.0743 350.681 55.7077 351.507 56.1477C352.334 56.5877 353.267 56.8077 354.307 56.8077C355.521 56.8077 356.514 56.561 357.287 56.0677V52.4077H354.627V50.7477H359.327V57.1477C358.701 57.6677 357.961 58.0477 357.107 58.2877C356.267 58.5277 355.301 58.6477 354.207 58.6477ZM366.584 58.6477C365.504 58.6477 364.55 58.4477 363.724 58.0477C362.91 57.6343 362.27 57.0477 361.804 56.2877C361.35 55.5143 361.124 54.6077 361.124 53.5677C361.124 52.541 361.35 51.641 361.804 50.8677C362.257 50.0943 362.897 49.501 363.724 49.0877C364.55 48.661 365.504 48.4477 366.584 48.4477C367.664 48.4477 368.617 48.661 369.444 49.0877C370.27 49.501 370.91 50.0943 371.364 50.8677C371.83 51.641 372.064 52.541 372.064 53.5677C372.064 54.6077 371.83 55.5143 371.364 56.2877C370.91 57.0477 370.27 57.6343 369.444 58.0477C368.617 58.4477 367.664 58.6477 366.584 58.6477ZM366.584 57.0477C367.624 57.0477 368.45 56.7277 369.064 56.0877C369.677 55.4477 369.984 54.6077 369.984 53.5677C369.984 52.4877 369.677 51.6343 369.064 51.0077C368.45 50.381 367.624 50.0677 366.584 50.0677C365.544 50.0677 364.717 50.381 364.104 51.0077C363.49 51.6343 363.184 52.4877 363.184 53.5677C363.184 54.6077 363.49 55.4477 364.104 56.0877C364.717 56.7277 365.544 57.0477 366.584 57.0477ZM378.81 58.6477C377.73 58.6477 376.777 58.4477 375.95 58.0477C375.137 57.6343 374.497 57.0477 374.03 56.2877C373.577 55.5143 373.35 54.6077 373.35 53.5677C373.35 52.541 373.577 51.641 374.03 50.8677C374.484 50.0943 375.124 49.501 375.95 49.0877C376.777 48.661 377.73 48.4477 378.81 48.4477C379.89 48.4477 380.844 48.661 381.67 49.0877C382.497 49.501 383.137 50.0943 383.59 50.8677C384.057 51.641 384.29 52.541 384.29 53.5677C384.29 54.6077 384.057 55.5143 383.59 56.2877C383.137 57.0477 382.497 57.6343 381.67 58.0477C380.844 58.4477 379.89 58.6477 378.81 58.6477ZM378.81 57.0477C379.85 57.0477 380.677 56.7277 381.29 56.0877C381.904 55.4477 382.21 54.6077 382.21 53.5677C382.21 52.4877 381.904 51.6343 381.29 51.0077C380.677 50.381 379.85 50.0677 378.81 50.0677C377.77 50.0677 376.944 50.381 376.33 51.0077C375.717 51.6343 375.41 52.4877 375.41 53.5677C375.41 54.6077 375.717 55.4477 376.33 56.0877C376.944 56.7277 377.77 57.0477 378.81 57.0477ZM391.505 62.9477C390.851 62.9477 390.211 62.8943 389.585 62.7877C388.971 62.681 388.451 62.5277 388.025 62.3277V60.6677C389.025 61.121 390.185 61.3477 391.505 61.3477C392.745 61.3477 393.645 61.0743 394.205 60.5277C394.778 59.9943 395.065 59.181 395.065 58.0877V57.0677C394.185 58.121 392.891 58.6477 391.185 58.6477C390.211 58.6477 389.338 58.4343 388.565 58.0077C387.791 57.581 387.185 56.981 386.745 56.2077C386.305 55.4343 386.085 54.5477 386.085 53.5477C386.085 52.5343 386.298 51.6477 386.725 50.8877C387.165 50.1143 387.765 49.5143 388.525 49.0877C389.298 48.661 390.165 48.4477 391.125 48.4477C392.018 48.4477 392.771 48.581 393.385 48.8477C394.011 49.101 394.591 49.5277 395.125 50.1277V48.7477H397.085V57.8677C397.085 59.5077 396.625 60.761 395.705 61.6277C394.798 62.5077 393.398 62.9477 391.505 62.9477ZM391.585 57.0477C392.411 57.0477 393.138 56.8277 393.765 56.3877C394.405 55.9477 394.838 55.361 395.065 54.6277V52.4677C394.811 51.721 394.371 51.1343 393.745 50.7077C393.131 50.281 392.411 50.0677 391.585 50.0677C390.931 50.0677 390.338 50.2143 389.805 50.5077C389.285 50.7877 388.871 51.1943 388.565 51.7277C388.271 52.261 388.125 52.8677 388.125 53.5477C388.125 54.241 388.271 54.8543 388.565 55.3877C388.871 55.9077 389.285 56.3143 389.805 56.6077C390.338 56.901 390.931 57.0477 391.585 57.0477ZM399.688 43.5677H401.708V58.3477H399.688V43.5677ZM409.597 58.6477C407.823 58.6477 406.43 58.2077 405.417 57.3277C404.417 56.4343 403.917 55.181 403.917 53.5677C403.917 51.9943 404.363 50.7477 405.257 49.8277C406.163 48.9077 407.45 48.4477 409.117 48.4477C410.223 48.4477 411.163 48.661 411.937 49.0877C412.71 49.501 413.29 50.081 413.677 50.8277C414.077 51.561 414.277 52.401 414.277 53.3477V54.3477H405.837C405.903 55.2543 406.283 55.9343 406.977 56.3877C407.683 56.8277 408.637 57.0477 409.837 57.0477C410.45 57.0477 411.07 56.9943 411.697 56.8877C412.323 56.7677 412.877 56.6143 413.357 56.4277V58.0477C412.93 58.221 412.363 58.361 411.657 58.4677C410.963 58.5877 410.277 58.6477 409.597 58.6477ZM412.377 52.9277C412.35 52.021 412.05 51.321 411.477 50.8277C410.917 50.321 410.117 50.0677 409.077 50.0677C408.063 50.0677 407.277 50.3277 406.717 50.8477C406.157 51.3677 405.863 52.061 405.837 52.9277H412.377ZM417.705 57.2877H419.825L417.925 61.3077H416.085L417.705 57.2877ZM434.114 53.0477L429.034 44.3677H431.214L435.114 51.1077L439.074 44.3677H441.234L436.094 53.0477V58.3477H434.114V53.0477ZM445.607 58.6477C444.527 58.6477 443.574 58.4477 442.747 58.0477C441.934 57.6343 441.294 57.0477 440.827 56.2877C440.374 55.5143 440.147 54.6077 440.147 53.5677C440.147 52.541 440.374 51.641 440.827 50.8677C441.28 50.0943 441.92 49.501 442.747 49.0877C443.574 48.661 444.527 48.4477 445.607 48.4477C446.687 48.4477 447.64 48.661 448.467 49.0877C449.294 49.501 449.934 50.0943 450.387 50.8677C450.854 51.641 451.087 52.541 451.087 53.5677C451.087 54.6077 450.854 55.5143 450.387 56.2877C449.934 57.0477 449.294 57.6343 448.467 58.0477C447.64 58.4477 446.687 58.6477 445.607 58.6477ZM445.607 57.0477C446.647 57.0477 447.474 56.7277 448.087 56.0877C448.7 55.4477 449.007 54.6077 449.007 53.5677C449.007 52.4877 448.7 51.6343 448.087 51.0077C447.474 50.381 446.647 50.0677 445.607 50.0677C444.567 50.0677 443.74 50.381 443.127 51.0077C442.514 51.6343 442.207 52.4877 442.207 53.5677C442.207 54.6077 442.514 55.4477 443.127 56.0877C443.74 56.7277 444.567 57.0477 445.607 57.0477ZM457.101 58.6477C455.808 58.6477 454.828 58.301 454.161 57.6077C453.508 56.9143 453.181 55.9877 453.181 54.8277V48.7477H455.201V54.7477C455.201 56.281 455.968 57.0477 457.501 57.0477C458.848 57.0477 459.901 56.441 460.661 55.2277V48.7477H462.681V58.3477H460.721V56.9877C460.268 57.561 459.728 57.981 459.101 58.2477C458.488 58.5143 457.821 58.6477 457.101 58.6477ZM468.974 58.6477C468 58.6477 467.247 58.3677 466.714 57.8077C466.194 57.2477 465.934 56.4543 465.934 55.4277V50.3077H464.474V48.7477H465.934V45.8677H467.974V48.7477H470.334V50.3077H467.974V55.2877C467.974 55.9277 468.094 56.381 468.334 56.6477C468.587 56.9143 469.04 57.0477 469.694 57.0477C470.08 57.0477 470.467 56.961 470.854 56.7877V58.3877C470.347 58.561 469.72 58.6477 468.974 58.6477ZM476.476 58.6477C475.183 58.6477 474.203 58.301 473.536 57.6077C472.883 56.9143 472.556 55.9877 472.556 54.8277V48.7477H474.576V54.7477C474.576 56.281 475.343 57.0477 476.876 57.0477C478.223 57.0477 479.276 56.441 480.036 55.2277V48.7477H482.056V58.3477H480.096V56.9877C479.643 57.561 479.103 57.981 478.476 58.2477C477.863 58.5143 477.196 58.6477 476.476 58.6477ZM490.609 58.6477C489.742 58.6477 488.989 58.5143 488.349 58.2477C487.722 57.9677 487.142 57.5343 486.609 56.9477V58.3477H484.649V43.5677H486.669V50.0277C487.109 49.5077 487.675 49.1143 488.369 48.8477C489.062 48.581 489.809 48.4477 490.609 48.4477C491.569 48.4477 492.429 48.6677 493.189 49.1077C493.962 49.5343 494.562 50.1343 494.989 50.9077C495.429 51.681 495.649 52.5677 495.649 53.5677C495.649 54.581 495.429 55.4743 494.989 56.2477C494.562 57.0077 493.962 57.601 493.189 58.0277C492.429 58.441 491.569 58.6477 490.609 58.6477ZM490.149 57.0477C490.802 57.0477 491.389 56.9077 491.909 56.6277C492.442 56.3343 492.855 55.921 493.149 55.3877C493.455 54.8543 493.609 54.2477 493.609 53.5677C493.609 52.8877 493.455 52.281 493.149 51.7477C492.855 51.2143 492.442 50.801 491.909 50.5077C491.389 50.2143 490.802 50.0677 490.149 50.0677C489.335 50.0677 488.609 50.2877 487.969 50.7277C487.329 51.1677 486.895 51.7543 486.669 52.4877V54.6477C486.922 55.381 487.355 55.9677 487.969 56.4077C488.595 56.8343 489.322 57.0477 490.149 57.0477ZM503.132 58.6477C501.358 58.6477 499.965 58.2077 498.952 57.3277C497.952 56.4343 497.452 55.181 497.452 53.5677C497.452 51.9943 497.898 50.7477 498.792 49.8277C499.698 48.9077 500.985 48.4477 502.652 48.4477C503.758 48.4477 504.698 48.661 505.472 49.0877C506.245 49.501 506.825 50.081 507.212 50.8277C507.612 51.561 507.812 52.401 507.812 53.3477V54.3477H499.372C499.438 55.2543 499.818 55.9343 500.512 56.3877C501.218 56.8277 502.172 57.0477 503.372 57.0477C503.985 57.0477 504.605 56.9943 505.232 56.8877C505.858 56.7677 506.412 56.6143 506.892 56.4277V58.0477C506.465 58.221 505.898 58.361 505.192 58.4677C504.498 58.5877 503.812 58.6477 503.132 58.6477ZM505.912 52.9277C505.885 52.021 505.585 51.321 505.012 50.8277C504.452 50.321 503.652 50.0677 502.612 50.0677C501.598 50.0677 500.812 50.3277 500.252 50.8477C499.692 51.3677 499.398 52.061 499.372 52.9277H505.912ZM511.24 57.2877H513.36L511.46 61.3077H509.62L511.24 57.2877ZM136.289 74.3677H138.329V86.6477H145.409V88.3477H136.289V74.3677ZM148.387 76.8677C148.054 76.8677 147.774 76.7543 147.547 76.5277C147.321 76.301 147.207 76.021 147.207 75.6877C147.207 75.3543 147.321 75.0743 147.547 74.8477C147.774 74.621 148.054 74.5077 148.387 74.5077C148.734 74.5077 149.021 74.621 149.247 74.8477C149.487 75.0743 149.607 75.3543 149.607 75.6877C149.607 76.021 149.487 76.301 149.247 76.5277C149.021 76.7543 148.734 76.8677 148.387 76.8677ZM147.367 78.7477H149.427V88.3477H147.367V78.7477ZM152.207 78.7477H154.167V80.1277C154.621 79.5543 155.174 79.1343 155.827 78.8677C156.494 78.5877 157.187 78.4477 157.907 78.4477C159.187 78.4477 160.141 78.7877 160.767 79.4677C161.394 80.1477 161.707 81.061 161.707 82.2077V88.3477H159.687V82.4077C159.687 80.8477 158.941 80.0677 157.447 80.0677C156.807 80.0677 156.207 80.221 155.647 80.5277C155.101 80.821 154.627 81.2743 154.227 81.8877V88.3477H152.207V78.7477ZM164.199 73.5677H166.219V88.3477H164.199V73.5677ZM166.239 83.4877L170.659 78.7477H173.119L168.679 83.4877L173.579 88.3477H171.119L166.239 83.4877ZM180.866 88.6477C179.093 88.6477 177.699 88.2077 176.686 87.3277C175.686 86.4343 175.186 85.181 175.186 83.5677C175.186 81.9943 175.633 80.7477 176.526 79.8277C177.433 78.9077 178.719 78.4477 180.386 78.4477C181.493 78.4477 182.433 78.661 183.206 79.0877C183.979 79.501 184.559 80.081 184.946 80.8277C185.346 81.561 185.546 82.401 185.546 83.3477V84.3477H177.106C177.173 85.2543 177.553 85.9343 178.246 86.3877C178.953 86.8277 179.906 87.0477 181.106 87.0477C181.719 87.0477 182.339 86.9943 182.966 86.8877C183.593 86.7677 184.146 86.6143 184.626 86.4277V88.0477C184.199 88.221 183.633 88.361 182.926 88.4677C182.233 88.5877 181.546 88.6477 180.866 88.6477ZM183.646 82.9277C183.619 82.021 183.319 81.321 182.746 80.8277C182.186 80.321 181.386 80.0677 180.346 80.0677C179.333 80.0677 178.546 80.3277 177.986 80.8477C177.426 81.3677 177.133 82.061 177.106 82.9277H183.646ZM192.394 88.6477C191.434 88.6477 190.567 88.441 189.794 88.0277C189.034 87.601 188.434 87.0077 187.994 86.2477C187.567 85.4743 187.354 84.581 187.354 83.5677C187.354 82.5677 187.567 81.681 187.994 80.9077C188.434 80.1343 189.034 79.5343 189.794 79.1077C190.567 78.6677 191.434 78.4477 192.394 78.4477C194.127 78.4477 195.441 78.9743 196.334 80.0277V73.5677H198.354V88.3477H196.394V86.9477C195.861 87.5343 195.274 87.9677 194.634 88.2477C194.007 88.5143 193.261 88.6477 192.394 88.6477ZM192.854 87.0477C193.681 87.0477 194.401 86.8343 195.014 86.4077C195.641 85.9677 196.081 85.381 196.334 84.6477V82.4877C196.107 81.7543 195.674 81.1677 195.034 80.7277C194.407 80.2877 193.681 80.0677 192.854 80.0677C192.201 80.0677 191.607 80.2143 191.074 80.5077C190.554 80.801 190.141 81.2143 189.834 81.7477C189.541 82.281 189.394 82.8877 189.394 83.5677C189.394 84.2477 189.541 84.8543 189.834 85.3877C190.141 85.921 190.554 86.3343 191.074 86.6277C191.607 86.9077 192.201 87.0477 192.854 87.0477ZM200.957 74.3677H203.017V88.3477H200.957V74.3677ZM205.625 78.7477H207.585V80.1277C208.039 79.5543 208.592 79.1343 209.245 78.8677C209.912 78.5877 210.605 78.4477 211.325 78.4477C212.605 78.4477 213.559 78.7877 214.185 79.4677C214.812 80.1477 215.125 81.061 215.125 82.2077V88.3477H213.105V82.4077C213.105 80.8477 212.359 80.0677 210.865 80.0677C210.225 80.0677 209.625 80.221 209.065 80.5277C208.519 80.821 208.045 81.2743 207.645 81.8877V88.3477H205.625V78.7477ZM218.837 87.2877H220.957L219.057 91.3077H217.217L218.837 87.2877ZM234.107 76.0877H229.767V74.3677H240.507V76.0877H236.167V88.3477H234.107V76.0877ZM242.977 76.8677C242.644 76.8677 242.364 76.7543 242.137 76.5277C241.91 76.301 241.797 76.021 241.797 75.6877C241.797 75.3543 241.91 75.0743 242.137 74.8477C242.364 74.621 242.644 74.5077 242.977 74.5077C243.324 74.5077 243.61 74.621 243.837 74.8477C244.077 75.0743 244.197 75.3543 244.197 75.6877C244.197 76.021 244.077 76.301 243.837 76.5277C243.61 76.7543 243.324 76.8677 242.977 76.8677ZM241.957 78.7477H244.017V88.3477H241.957V78.7477ZM246.797 73.5677H248.817V88.3477H246.797V73.5677ZM248.837 83.4877L253.257 78.7477H255.717L251.277 83.4877L256.177 88.3477H253.717L248.837 83.4877ZM261.376 88.6477C260.403 88.6477 259.649 88.3677 259.116 87.8077C258.596 87.2477 258.336 86.4543 258.336 85.4277V80.3077H256.876V78.7477H258.336V75.8677H260.376V78.7477H262.736V80.3077H260.376V85.2877C260.376 85.9277 260.496 86.381 260.736 86.6477C260.989 86.9143 261.443 87.0477 262.096 87.0477C262.483 87.0477 262.869 86.961 263.256 86.7877V88.3877C262.749 88.561 262.123 88.6477 261.376 88.6477ZM270.119 88.6477C269.039 88.6477 268.085 88.4477 267.259 88.0477C266.445 87.6343 265.805 87.0477 265.339 86.2877C264.885 85.5143 264.659 84.6077 264.659 83.5677C264.659 82.541 264.885 81.641 265.339 80.8677C265.792 80.0943 266.432 79.501 267.259 79.0877C268.085 78.661 269.039 78.4477 270.119 78.4477C271.199 78.4477 272.152 78.661 272.979 79.0877C273.805 79.501 274.445 80.0943 274.899 80.8677C275.365 81.641 275.599 82.541 275.599 83.5677C275.599 84.6077 275.365 85.5143 274.899 86.2877C274.445 87.0477 273.805 87.6343 272.979 88.0477C272.152 88.4477 271.199 88.6477 270.119 88.6477ZM270.119 87.0477C271.159 87.0477 271.985 86.7277 272.599 86.0877C273.212 85.4477 273.519 84.6077 273.519 83.5677C273.519 82.4877 273.212 81.6343 272.599 81.0077C271.985 80.381 271.159 80.0677 270.119 80.0677C269.079 80.0677 268.252 80.381 267.639 81.0077C267.025 81.6343 266.719 82.4877 266.719 83.5677C266.719 84.6077 267.025 85.4477 267.639 86.0877C268.252 86.7277 269.079 87.0477 270.119 87.0477ZM277.793 73.5677H279.813V88.3477H277.793V73.5677ZM279.833 83.4877L284.253 78.7477H286.713L282.273 83.4877L287.173 88.3477H284.713L279.833 83.4877ZM289.72 88.3477C289.453 88.3477 289.227 88.261 289.04 88.0877C288.867 87.901 288.78 87.6743 288.78 87.4077C288.78 87.141 288.867 86.9143 289.04 86.7277C289.227 86.541 289.453 86.4477 289.72 86.4477C289.987 86.4477 290.213 86.541 290.4 86.7277C290.587 86.9143 290.68 87.141 290.68 87.4077C290.68 87.6743 290.587 87.901 290.4 88.0877C290.213 88.261 289.987 88.3477 289.72 88.3477Z" fill="white"/>
<path d="M308.366 280.093C307.086 280.093 305.816 279.973 304.556 279.733C303.296 279.493 302.266 279.173 301.466 278.773V274.753C302.526 275.273 303.626 275.663 304.766 275.923C305.906 276.183 306.996 276.313 308.036 276.313C309.196 276.313 310.076 276.113 310.676 275.713C311.276 275.313 311.576 274.753 311.576 274.033C311.576 273.513 311.426 273.073 311.126 272.713C310.826 272.353 310.386 272.033 309.806 271.753C309.246 271.453 308.376 271.063 307.196 270.583C305.236 269.783 303.816 268.893 302.936 267.913C302.056 266.913 301.616 265.683 301.616 264.223C301.616 263.043 301.936 262.003 302.576 261.103C303.216 260.183 304.116 259.473 305.276 258.973C306.436 258.473 307.776 258.223 309.296 258.223C310.536 258.223 311.636 258.323 312.596 258.523C313.556 258.723 314.496 259.033 315.416 259.453V263.353C313.656 262.473 311.896 262.033 310.136 262.033C309.016 262.033 308.136 262.233 307.496 262.633C306.856 263.013 306.536 263.563 306.536 264.283C306.536 264.803 306.686 265.233 306.986 265.573C307.286 265.913 307.706 266.213 308.246 266.473C308.786 266.733 309.666 267.113 310.886 267.613C312.306 268.213 313.416 268.793 314.216 269.353C315.016 269.893 315.606 270.543 315.986 271.303C316.366 272.043 316.556 272.963 316.556 274.063C316.556 275.963 315.866 277.443 314.486 278.503C313.126 279.563 311.086 280.093 308.366 280.093ZM327.397 280.093C324.637 280.093 322.467 279.433 320.887 278.113C319.307 276.773 318.517 274.903 318.517 272.503C318.517 270.123 319.217 268.243 320.617 266.863C322.037 265.483 324.057 264.793 326.677 264.793C328.397 264.793 329.857 265.113 331.057 265.753C332.257 266.393 333.167 267.283 333.787 268.423C334.407 269.543 334.717 270.813 334.717 272.233V274.063H322.837C323.157 275.903 324.877 276.823 327.997 276.823C328.917 276.823 329.867 276.743 330.847 276.583C331.827 276.423 332.677 276.203 333.397 275.923V279.103C332.697 279.403 331.797 279.643 330.697 279.823C329.597 280.003 328.497 280.093 327.397 280.093ZM330.427 271.123C330.367 270.163 330.007 269.423 329.347 268.903C328.687 268.363 327.777 268.093 326.617 268.093C325.477 268.093 324.577 268.363 323.917 268.903C323.257 269.443 322.897 270.183 322.837 271.123H330.427ZM342.952 280.093C340.992 280.093 339.522 279.563 338.542 278.503C337.562 277.423 337.072 275.993 337.072 274.213V265.243H341.602V273.733C341.602 275.613 342.472 276.553 344.212 276.553C344.972 276.553 345.682 276.373 346.342 276.013C347.002 275.653 347.552 275.113 347.992 274.393V265.243H352.522V279.643H348.142V277.903C347.502 278.643 346.722 279.193 345.802 279.553C344.902 279.913 343.952 280.093 342.952 280.093ZM371.537 280.093C369.777 280.093 368.337 279.653 367.217 278.773C366.117 277.873 365.567 276.653 365.567 275.113C365.567 273.513 366.097 272.273 367.157 271.393C368.217 270.493 369.717 270.043 371.657 270.043C372.517 270.043 373.337 270.133 374.117 270.313C374.897 270.493 375.587 270.743 376.187 271.063V270.703C376.187 269.803 375.867 269.143 375.227 268.723C374.587 268.303 373.607 268.093 372.287 268.093C370.527 268.093 368.907 268.423 367.427 269.083V265.783C368.067 265.503 368.897 265.273 369.917 265.093C370.937 264.893 371.957 264.793 372.977 264.793C375.577 264.793 377.517 265.333 378.797 266.413C380.077 267.473 380.717 268.963 380.717 270.883V279.643H376.457V278.323C375.237 279.503 373.597 280.093 371.537 280.093ZM372.767 277.093C373.507 277.093 374.177 276.953 374.777 276.673C375.377 276.393 375.847 276.003 376.187 275.503V274.063C375.167 273.383 374.047 273.043 372.827 273.043C371.987 273.043 371.337 273.223 370.877 273.583C370.437 273.923 370.217 274.433 370.217 275.113C370.217 275.753 370.437 276.243 370.877 276.583C371.317 276.923 371.947 277.093 372.767 277.093ZM383.716 265.243H387.946V266.983C388.566 266.283 389.286 265.743 390.106 265.363C390.926 264.983 391.776 264.793 392.656 264.793C393.756 264.793 394.636 264.973 395.296 265.333C395.956 265.673 396.476 266.183 396.856 266.863C397.476 266.203 398.226 265.693 399.106 265.333C400.006 264.973 400.896 264.793 401.776 264.793C403.616 264.793 404.926 265.263 405.706 266.203C406.506 267.143 406.906 268.503 406.906 270.283V279.643H402.586V270.913C402.586 269.993 402.406 269.333 402.046 268.933C401.686 268.533 401.106 268.333 400.306 268.333C399.186 268.333 398.286 268.773 397.606 269.653C397.646 270.293 397.666 270.813 397.666 271.213V279.643H393.316V270.763C393.316 269.883 393.156 269.263 392.836 268.903C392.536 268.523 392.006 268.333 391.246 268.333C390.066 268.333 389.016 269.003 388.096 270.343V279.643H383.716V265.243ZM419.688 280.093C418.568 280.093 417.568 279.933 416.688 279.613C415.828 279.293 415.028 278.783 414.288 278.083V279.643H409.908V257.473H414.438V266.533C415.078 265.973 415.858 265.543 416.778 265.243C417.698 264.943 418.668 264.793 419.688 264.793C421.188 264.793 422.508 265.123 423.648 265.783C424.808 266.423 425.708 267.323 426.348 268.483C426.988 269.643 427.308 270.973 427.308 272.473C427.308 273.993 426.988 275.333 426.348 276.493C425.708 277.633 424.808 278.523 423.648 279.163C422.508 279.783 421.188 280.093 419.688 280.093ZM418.548 276.583C419.768 276.583 420.758 276.213 421.518 275.473C422.298 274.713 422.688 273.713 422.688 272.473C422.688 271.233 422.298 270.233 421.518 269.473C420.758 268.713 419.768 268.333 418.548 268.333C417.608 268.333 416.758 268.593 415.998 269.113C415.258 269.613 414.738 270.273 414.438 271.093V273.823C414.758 274.663 415.288 275.333 416.028 275.833C416.768 276.333 417.608 276.583 418.548 276.583ZM432.349 263.023C431.649 263.023 431.059 262.793 430.579 262.333C430.099 261.873 429.859 261.293 429.859 260.593C429.859 259.913 430.099 259.343 430.579 258.883C431.059 258.403 431.649 258.163 432.349 258.163C433.049 258.163 433.639 258.403 434.119 258.883C434.599 259.343 434.839 259.913 434.839 260.593C434.839 261.293 434.599 261.873 434.119 262.333C433.639 262.793 433.049 263.023 432.349 263.023ZM430.069 265.243H434.629V279.643H430.069V265.243ZM446.225 280.093C443.465 280.093 441.295 279.433 439.715 278.113C438.135 276.773 437.345 274.903 437.345 272.503C437.345 270.123 438.045 268.243 439.445 266.863C440.865 265.483 442.885 264.793 445.505 264.793C447.225 264.793 448.685 265.113 449.885 265.753C451.085 266.393 451.995 267.283 452.615 268.423C453.235 269.543 453.545 270.813 453.545 272.233V274.063H441.665C441.985 275.903 443.705 276.823 446.825 276.823C447.745 276.823 448.695 276.743 449.675 276.583C450.655 276.423 451.505 276.203 452.225 275.923V279.103C451.525 279.403 450.625 279.643 449.525 279.823C448.425 280.003 447.325 280.093 446.225 280.093ZM449.255 271.123C449.195 270.163 448.835 269.423 448.175 268.903C447.515 268.363 446.605 268.093 445.445 268.093C444.305 268.093 443.405 268.363 442.745 268.903C442.085 269.443 441.725 270.183 441.665 271.123H449.255ZM456.05 265.243H460.43V267.013C461.09 266.273 461.87 265.723 462.77 265.363C463.69 264.983 464.65 264.793 465.65 264.793C467.61 264.793 469.07 265.323 470.03 266.383C471.01 267.423 471.5 268.833 471.5 270.613V279.643H466.97V271.123C466.97 269.263 466.11 268.333 464.39 268.333C463.63 268.333 462.92 268.523 462.26 268.903C461.6 269.263 461.04 269.803 460.58 270.523V279.643H456.05V265.243ZM480.537 280.093C478.857 280.093 477.577 279.633 476.697 278.713C475.837 277.773 475.407 276.473 475.407 274.813V268.513H473.307V265.243H475.407V260.923H479.937V265.243H483.327V268.513H479.937V274.213C479.937 275.053 480.097 275.663 480.417 276.043C480.737 276.403 481.307 276.583 482.127 276.583C482.787 276.583 483.417 276.423 484.017 276.103V279.493C483.097 279.893 481.937 280.093 480.537 280.093ZM494.389 280.093C491.629 280.093 489.459 279.433 487.879 278.113C486.299 276.773 485.509 274.903 485.509 272.503C485.509 270.123 486.209 268.243 487.609 266.863C489.029 265.483 491.049 264.793 493.669 264.793C495.389 264.793 496.849 265.113 498.049 265.753C499.249 266.393 500.159 267.283 500.779 268.423C501.399 269.543 501.709 270.813 501.709 272.233V274.063H489.829C490.149 275.903 491.869 276.823 494.989 276.823C495.909 276.823 496.859 276.743 497.839 276.583C498.819 276.423 499.669 276.203 500.389 275.923V279.103C499.689 279.403 498.789 279.643 497.689 279.823C496.589 280.003 495.489 280.093 494.389 280.093ZM497.419 271.123C497.359 270.163 496.999 269.423 496.339 268.903C495.679 268.363 494.769 268.093 493.609 268.093C492.469 268.093 491.569 268.363 490.909 268.903C490.249 269.443 489.889 270.183 489.829 271.123H497.419Z" fill="white"/>
<path opacity="0.7" d="M305.686 312.943C304.886 312.943 304.093 312.869 303.306 312.723C302.533 312.589 301.899 312.403 301.406 312.163V310.323C302.686 310.923 304.066 311.223 305.546 311.223C307.626 311.223 308.666 310.523 308.666 309.123C308.666 308.643 308.553 308.256 308.326 307.963C308.099 307.669 307.773 307.416 307.346 307.203C306.919 306.976 306.226 306.669 305.266 306.283C303.946 305.749 302.993 305.163 302.406 304.523C301.819 303.883 301.526 303.076 301.526 302.103C301.526 301.369 301.726 300.723 302.126 300.163C302.526 299.589 303.086 299.149 303.806 298.843C304.526 298.523 305.353 298.363 306.286 298.363C307.046 298.363 307.733 298.423 308.346 298.543C308.959 298.663 309.559 298.856 310.146 299.123V300.883C308.986 300.363 307.813 300.103 306.626 300.103C305.666 300.103 304.933 300.276 304.426 300.623C303.919 300.969 303.666 301.463 303.666 302.103C303.666 302.543 303.773 302.916 303.986 303.223C304.213 303.516 304.539 303.783 304.966 304.023C305.406 304.249 306.053 304.536 306.906 304.883C307.853 305.269 308.599 305.636 309.146 305.983C309.693 306.329 310.106 306.756 310.386 307.263C310.679 307.756 310.826 308.376 310.826 309.123C310.826 310.336 310.393 311.276 309.526 311.943C308.659 312.609 307.379 312.943 305.686 312.943ZM314.197 301.163C313.863 301.163 313.583 301.049 313.357 300.823C313.13 300.596 313.017 300.316 313.017 299.983C313.017 299.649 313.13 299.369 313.357 299.143C313.583 298.916 313.863 298.803 314.197 298.803C314.543 298.803 314.83 298.916 315.057 299.143C315.297 299.369 315.417 299.649 315.417 299.983C315.417 300.316 315.297 300.596 315.057 300.823C314.83 301.049 314.543 301.163 314.197 301.163ZM313.177 303.043H315.237V312.643H313.177V303.043ZM321.717 312.943C320.743 312.943 319.99 312.663 319.457 312.103C318.937 311.543 318.677 310.749 318.677 309.723V304.603H317.217V303.043H318.677V300.163H320.717V303.043H323.077V304.603H320.717V309.583C320.717 310.223 320.837 310.676 321.077 310.943C321.33 311.209 321.783 311.343 322.437 311.343C322.823 311.343 323.21 311.256 323.597 311.083V312.683C323.09 312.856 322.463 312.943 321.717 312.943ZM330.777 312.943C329.004 312.943 327.611 312.503 326.597 311.623C325.597 310.729 325.097 309.476 325.097 307.863C325.097 306.289 325.544 305.043 326.437 304.123C327.344 303.203 328.631 302.743 330.297 302.743C331.404 302.743 332.344 302.956 333.117 303.383C333.891 303.796 334.471 304.376 334.857 305.123C335.257 305.856 335.457 306.696 335.457 307.643V308.643H327.017C327.084 309.549 327.464 310.229 328.157 310.683C328.864 311.123 329.817 311.343 331.017 311.343C331.631 311.343 332.251 311.289 332.877 311.183C333.504 311.063 334.057 310.909 334.537 310.723V312.343C334.111 312.516 333.544 312.656 332.837 312.763C332.144 312.883 331.457 312.943 330.777 312.943ZM333.557 307.223C333.531 306.316 333.231 305.616 332.657 305.123C332.097 304.616 331.297 304.363 330.257 304.363C329.244 304.363 328.457 304.623 327.897 305.143C327.337 305.663 327.044 306.356 327.017 307.223H333.557ZM338.885 311.583H341.005L339.105 315.603H337.265L338.885 311.583ZM350.614 297.863H352.634V312.643H350.614V297.863ZM358.683 312.943C357.523 312.943 356.59 312.649 355.883 312.063C355.19 311.463 354.843 310.656 354.843 309.643C354.843 308.576 355.177 307.756 355.843 307.183C356.523 306.596 357.483 306.303 358.723 306.303C360.043 306.303 361.163 306.569 362.083 307.103V306.603C362.083 305.843 361.85 305.283 361.383 304.923C360.93 304.549 360.21 304.363 359.223 304.363C358.637 304.363 358.063 304.423 357.503 304.543C356.957 304.649 356.463 304.803 356.023 305.003V303.363C356.423 303.176 356.943 303.029 357.583 302.923C358.223 302.803 358.843 302.743 359.443 302.743C361.03 302.743 362.203 303.096 362.963 303.803C363.737 304.496 364.123 305.463 364.123 306.703V312.643H362.223V311.563C361.81 312.016 361.317 312.363 360.743 312.603C360.183 312.829 359.497 312.943 358.683 312.943ZM359.183 311.403C359.823 311.403 360.403 311.276 360.923 311.023C361.443 310.769 361.83 310.416 362.083 309.963V308.663C361.217 308.103 360.25 307.823 359.183 307.823C358.41 307.823 357.83 307.976 357.443 308.283C357.07 308.576 356.883 309.029 356.883 309.643C356.883 310.816 357.65 311.403 359.183 311.403ZM366.63 303.043H368.59V304.423C369.043 303.849 369.597 303.429 370.25 303.163C370.917 302.883 371.61 302.743 372.33 302.743C373.61 302.743 374.563 303.083 375.19 303.763C375.817 304.443 376.13 305.356 376.13 306.503V312.643H374.11V306.703C374.11 305.143 373.363 304.363 371.87 304.363C371.23 304.363 370.63 304.516 370.07 304.823C369.523 305.116 369.05 305.569 368.65 306.183V312.643H366.63V303.043ZM383.262 312.943C382.302 312.943 381.436 312.736 380.662 312.323C379.902 311.896 379.302 311.303 378.862 310.543C378.436 309.769 378.222 308.876 378.222 307.863C378.222 306.863 378.436 305.976 378.862 305.203C379.302 304.429 379.902 303.829 380.662 303.403C381.436 302.963 382.302 302.743 383.262 302.743C384.996 302.743 386.309 303.269 387.202 304.323V297.863H389.222V312.643H387.262V311.243C386.729 311.829 386.142 312.263 385.502 312.543C384.876 312.809 384.129 312.943 383.262 312.943ZM383.722 311.343C384.549 311.343 385.269 311.129 385.882 310.703C386.509 310.263 386.949 309.676 387.202 308.943V306.783C386.976 306.049 386.542 305.463 385.902 305.023C385.276 304.583 384.549 304.363 383.722 304.363C383.069 304.363 382.476 304.509 381.942 304.803C381.422 305.096 381.009 305.509 380.702 306.043C380.409 306.576 380.262 307.183 380.262 307.863C380.262 308.543 380.409 309.149 380.702 309.683C381.009 310.216 381.422 310.629 381.942 310.923C382.476 311.203 383.069 311.343 383.722 311.343ZM393.005 301.163C392.672 301.163 392.392 301.049 392.165 300.823C391.939 300.596 391.825 300.316 391.825 299.983C391.825 299.649 391.939 299.369 392.165 299.143C392.392 298.916 392.672 298.803 393.005 298.803C393.352 298.803 393.639 298.916 393.865 299.143C394.105 299.369 394.225 299.649 394.225 299.983C394.225 300.316 394.105 300.596 393.865 300.823C393.639 301.049 393.352 301.163 393.005 301.163ZM391.985 303.043H394.045V312.643H391.985V303.043ZM396.825 303.043H398.785V304.423C399.239 303.849 399.792 303.429 400.445 303.163C401.112 302.883 401.805 302.743 402.525 302.743C403.805 302.743 404.759 303.083 405.385 303.763C406.012 304.443 406.325 305.356 406.325 306.503V312.643H404.305V306.703C404.305 305.143 403.559 304.363 402.065 304.363C401.425 304.363 400.825 304.516 400.265 304.823C399.719 305.116 399.245 305.569 398.845 306.183V312.643H396.825V303.043ZM413.838 317.243C413.184 317.243 412.544 317.189 411.918 317.083C411.304 316.976 410.784 316.823 410.358 316.623V314.963C411.358 315.416 412.518 315.643 413.838 315.643C415.078 315.643 415.978 315.369 416.538 314.823C417.111 314.289 417.398 313.476 417.398 312.383V311.363C416.518 312.416 415.224 312.943 413.518 312.943C412.544 312.943 411.671 312.729 410.898 312.303C410.124 311.876 409.518 311.276 409.078 310.503C408.638 309.729 408.418 308.843 408.418 307.843C408.418 306.829 408.631 305.943 409.058 305.183C409.498 304.409 410.098 303.809 410.858 303.383C411.631 302.956 412.498 302.743 413.458 302.743C414.351 302.743 415.104 302.876 415.718 303.143C416.344 303.396 416.924 303.823 417.458 304.423V303.043H419.418V312.163C419.418 313.803 418.958 315.056 418.038 315.923C417.131 316.803 415.731 317.243 413.838 317.243ZM413.918 311.343C414.744 311.343 415.471 311.123 416.098 310.683C416.738 310.243 417.171 309.656 417.398 308.923V306.763C417.144 306.016 416.704 305.429 416.078 305.003C415.464 304.576 414.744 304.363 413.918 304.363C413.264 304.363 412.671 304.509 412.138 304.803C411.618 305.083 411.204 305.489 410.898 306.023C410.604 306.556 410.458 307.163 410.458 307.843C410.458 308.536 410.604 309.149 410.898 309.683C411.204 310.203 411.618 310.609 412.138 310.903C412.671 311.196 413.264 311.343 413.918 311.343ZM429.423 303.043H431.383V304.463C432.37 303.316 433.703 302.743 435.383 302.743C436.343 302.743 437.203 302.956 437.963 303.383C438.736 303.809 439.336 304.409 439.763 305.183C440.203 305.943 440.423 306.829 440.423 307.843C440.423 308.843 440.203 309.729 439.763 310.503C439.336 311.276 438.743 311.876 437.983 312.303C437.223 312.729 436.356 312.943 435.383 312.943C434.583 312.943 433.836 312.809 433.143 312.543C432.45 312.276 431.883 311.883 431.443 311.363V317.023H429.423V303.043ZM434.923 311.343C435.576 311.343 436.163 311.203 436.683 310.923C437.216 310.629 437.63 310.216 437.923 309.683C438.23 309.149 438.383 308.536 438.383 307.843C438.383 307.149 438.23 306.543 437.923 306.023C437.63 305.489 437.216 305.083 436.683 304.803C436.163 304.509 435.576 304.363 434.923 304.363C434.11 304.363 433.39 304.576 432.763 305.003C432.15 305.429 431.71 306.016 431.443 306.763V308.923C431.67 309.656 432.103 310.243 432.743 310.683C433.383 311.123 434.11 311.343 434.923 311.343ZM445.558 312.943C444.398 312.943 443.465 312.649 442.758 312.063C442.065 311.463 441.718 310.656 441.718 309.643C441.718 308.576 442.052 307.756 442.718 307.183C443.398 306.596 444.358 306.303 445.598 306.303C446.918 306.303 448.038 306.569 448.958 307.103V306.603C448.958 305.843 448.725 305.283 448.258 304.923C447.805 304.549 447.085 304.363 446.098 304.363C445.512 304.363 444.938 304.423 444.378 304.543C443.832 304.649 443.338 304.803 442.898 305.003V303.363C443.298 303.176 443.818 303.029 444.458 302.923C445.098 302.803 445.718 302.743 446.318 302.743C447.905 302.743 449.078 303.096 449.838 303.803C450.612 304.496 450.998 305.463 450.998 306.703V312.643H449.098V311.563C448.685 312.016 448.192 312.363 447.618 312.603C447.058 312.829 446.372 312.943 445.558 312.943ZM446.058 311.403C446.698 311.403 447.278 311.276 447.798 311.023C448.318 310.769 448.705 310.416 448.958 309.963V308.663C448.092 308.103 447.125 307.823 446.058 307.823C445.285 307.823 444.705 307.976 444.318 308.283C443.945 308.576 443.758 309.029 443.758 309.643C443.758 310.816 444.525 311.403 446.058 311.403ZM458.525 317.243C457.872 317.243 457.232 317.189 456.605 317.083C455.992 316.976 455.472 316.823 455.045 316.623V314.963C456.045 315.416 457.205 315.643 458.525 315.643C459.765 315.643 460.665 315.369 461.225 314.823C461.798 314.289 462.085 313.476 462.085 312.383V311.363C461.205 312.416 459.912 312.943 458.205 312.943C457.232 312.943 456.358 312.729 455.585 312.303C454.812 311.876 454.205 311.276 453.765 310.503C453.325 309.729 453.105 308.843 453.105 307.843C453.105 306.829 453.318 305.943 453.745 305.183C454.185 304.409 454.785 303.809 455.545 303.383C456.318 302.956 457.185 302.743 458.145 302.743C459.038 302.743 459.792 302.876 460.405 303.143C461.032 303.396 461.612 303.823 462.145 304.423V303.043H464.105V312.163C464.105 313.803 463.645 315.056 462.725 315.923C461.818 316.803 460.418 317.243 458.525 317.243ZM458.605 311.343C459.432 311.343 460.158 311.123 460.785 310.683C461.425 310.243 461.858 309.656 462.085 308.923V306.763C461.832 306.016 461.392 305.429 460.765 305.003C460.152 304.576 459.432 304.363 458.605 304.363C457.952 304.363 457.358 304.509 456.825 304.803C456.305 305.083 455.892 305.489 455.585 306.023C455.292 306.556 455.145 307.163 455.145 307.843C455.145 308.536 455.292 309.149 455.585 309.683C455.892 310.203 456.305 310.609 456.825 310.903C457.358 311.196 457.952 311.343 458.605 311.343ZM471.988 312.943C470.215 312.943 468.822 312.503 467.808 311.623C466.808 310.729 466.308 309.476 466.308 307.863C466.308 306.289 466.755 305.043 467.648 304.123C468.555 303.203 469.842 302.743 471.508 302.743C472.615 302.743 473.555 302.956 474.328 303.383C475.102 303.796 475.682 304.376 476.068 305.123C476.468 305.856 476.668 306.696 476.668 307.643V308.643H468.228C468.295 309.549 468.675 310.229 469.368 310.683C470.075 311.123 471.028 311.343 472.228 311.343C472.842 311.343 473.462 311.289 474.088 311.183C474.715 311.063 475.268 310.909 475.748 310.723V312.343C475.322 312.516 474.755 312.656 474.048 312.763C473.355 312.883 472.668 312.943 471.988 312.943ZM474.768 307.223C474.742 306.316 474.442 305.616 473.868 305.123C473.308 304.616 472.508 304.363 471.468 304.363C470.455 304.363 469.668 304.623 469.108 305.143C468.548 305.663 468.255 306.356 468.228 307.223H474.768ZM480.096 311.583H482.216L480.316 315.603H478.476L480.096 311.583ZM491.825 297.863H493.845V312.643H491.825V297.863ZM501.514 312.943C500.434 312.943 499.481 312.743 498.654 312.343C497.841 311.929 497.201 311.343 496.734 310.583C496.281 309.809 496.054 308.903 496.054 307.863C496.054 306.836 496.281 305.936 496.734 305.163C497.188 304.389 497.828 303.796 498.654 303.383C499.481 302.956 500.434 302.743 501.514 302.743C502.594 302.743 503.548 302.956 504.374 303.383C505.201 303.796 505.841 304.389 506.294 305.163C506.761 305.936 506.994 306.836 506.994 307.863C506.994 308.903 506.761 309.809 506.294 310.583C505.841 311.343 505.201 311.929 504.374 312.343C503.548 312.743 502.594 312.943 501.514 312.943ZM501.514 311.343C502.554 311.343 503.381 311.023 503.994 310.383C504.608 309.743 504.914 308.903 504.914 307.863C504.914 306.783 504.608 305.929 503.994 305.303C503.381 304.676 502.554 304.363 501.514 304.363C500.474 304.363 499.648 304.676 499.034 305.303C498.421 305.929 498.114 306.783 498.114 307.863C498.114 308.903 498.421 309.743 499.034 310.383C499.648 311.023 500.474 311.343 501.514 311.343ZM510.096 301.163C509.749 301.163 509.462 301.049 509.236 300.823C509.009 300.596 508.896 300.316 508.896 299.983C508.896 299.649 509.009 299.369 509.236 299.143C509.476 298.916 509.762 298.803 510.096 298.803C510.429 298.803 510.709 298.916 510.936 299.143C511.176 299.369 511.296 299.649 511.296 299.983C511.296 300.316 511.176 300.596 510.936 300.823C510.709 301.049 510.429 301.163 510.096 301.163ZM507.716 317.263C507.116 317.263 506.609 317.189 506.196 317.043V315.383C506.542 315.543 506.942 315.623 507.396 315.623C507.996 315.623 508.422 315.476 508.676 315.183C508.942 314.903 509.076 314.443 509.076 313.803V303.043H511.116V313.943C511.116 315.049 510.809 315.876 510.196 316.423C509.582 316.983 508.756 317.263 507.716 317.263ZM517.336 312.943C516.176 312.943 515.242 312.649 514.536 312.063C513.842 311.463 513.496 310.656 513.496 309.643C513.496 308.576 513.829 307.756 514.496 307.183C515.176 306.596 516.136 306.303 517.376 306.303C518.696 306.303 519.816 306.569 520.736 307.103V306.603C520.736 305.843 520.502 305.283 520.036 304.923C519.582 304.549 518.862 304.363 517.876 304.363C517.289 304.363 516.716 304.423 516.156 304.543C515.609 304.649 515.116 304.803 514.676 305.003V303.363C515.076 303.176 515.596 303.029 516.236 302.923C516.876 302.803 517.496 302.743 518.096 302.743C519.682 302.743 520.856 303.096 521.616 303.803C522.389 304.496 522.776 305.463 522.776 306.703V312.643H520.876V311.563C520.462 312.016 519.969 312.363 519.396 312.603C518.836 312.829 518.149 312.943 517.336 312.943ZM517.836 311.403C518.476 311.403 519.056 311.276 519.576 311.023C520.096 310.769 520.482 310.416 520.736 309.963V308.663C519.869 308.103 518.902 307.823 517.836 307.823C517.062 307.823 516.482 307.976 516.096 308.283C515.722 308.576 515.536 309.029 515.536 309.643C515.536 310.816 516.302 311.403 517.836 311.403ZM532.285 303.043H534.425L537.245 309.943L540.065 303.043H542.205L538.125 312.643H536.365L532.285 303.043ZM545.584 301.163C545.25 301.163 544.97 301.049 544.744 300.823C544.517 300.596 544.404 300.316 544.404 299.983C544.404 299.649 544.517 299.369 544.744 299.143C544.97 298.916 545.25 298.803 545.584 298.803C545.93 298.803 546.217 298.916 546.444 299.143C546.684 299.369 546.804 299.649 546.804 299.983C546.804 300.316 546.684 300.596 546.444 300.823C546.217 301.049 545.93 301.163 545.584 301.163ZM544.564 303.043H546.624V312.643H544.564V303.043ZM549.404 303.043H551.364V304.763C551.764 304.176 552.324 303.743 553.044 303.463C553.777 303.183 554.624 303.043 555.584 303.043V304.623C554.557 304.623 553.677 304.789 552.944 305.123C552.21 305.456 551.704 305.983 551.424 306.703V312.643H549.404V303.043ZM561.092 312.943C560.118 312.943 559.365 312.663 558.832 312.103C558.312 311.543 558.052 310.749 558.052 309.723V304.603H556.592V303.043H558.052V300.163H560.092V303.043H562.452V304.603H560.092V309.583C560.092 310.223 560.212 310.676 560.452 310.943C560.705 311.209 561.158 311.343 561.812 311.343C562.198 311.343 562.585 311.256 562.972 311.083V312.683C562.465 312.856 561.838 312.943 561.092 312.943ZM568.595 312.943C567.301 312.943 566.321 312.596 565.655 311.903C565.001 311.209 564.675 310.283 564.675 309.123V303.043H566.695V309.043C566.695 310.576 567.461 311.343 568.995 311.343C570.341 311.343 571.395 310.736 572.155 309.523V303.043H574.175V312.643H572.215V311.283C571.761 311.856 571.221 312.276 570.595 312.543C569.981 312.809 569.315 312.943 568.595 312.943ZM579.914 312.943C578.754 312.943 577.82 312.649 577.114 312.063C576.42 311.463 576.074 310.656 576.074 309.643C576.074 308.576 576.407 307.756 577.074 307.183C577.754 306.596 578.714 306.303 579.954 306.303C581.274 306.303 582.394 306.569 583.314 307.103V306.603C583.314 305.843 583.08 305.283 582.614 304.923C582.16 304.549 581.44 304.363 580.454 304.363C579.867 304.363 579.294 304.423 578.734 304.543C578.187 304.649 577.694 304.803 577.254 305.003V303.363C577.654 303.176 578.174 303.029 578.814 302.923C579.454 302.803 580.074 302.743 580.674 302.743C582.26 302.743 583.434 303.096 584.194 303.803C584.967 304.496 585.354 305.463 585.354 306.703V312.643H583.454V311.563C583.04 312.016 582.547 312.363 581.974 312.603C581.414 312.829 580.727 312.943 579.914 312.943ZM580.414 311.403C581.054 311.403 581.634 311.276 582.154 311.023C582.674 310.769 583.06 310.416 583.314 309.963V308.663C582.447 308.103 581.48 307.823 580.414 307.823C579.64 307.823 579.06 307.976 578.674 308.283C578.3 308.576 578.114 309.029 578.114 309.643C578.114 310.816 578.88 311.403 580.414 311.403ZM587.861 297.863H589.881V312.643H587.861V297.863ZM605.172 312.943C603.398 312.943 602.005 312.503 600.992 311.623C599.992 310.729 599.492 309.476 599.492 307.863C599.492 306.289 599.938 305.043 600.832 304.123C601.738 303.203 603.025 302.743 604.692 302.743C605.798 302.743 606.738 302.956 607.512 303.383C608.285 303.796 608.865 304.376 609.252 305.123C609.652 305.856 609.852 306.696 609.852 307.643V308.643H601.412C601.478 309.549 601.858 310.229 602.552 310.683C603.258 311.123 604.212 311.343 605.412 311.343C606.025 311.343 606.645 311.289 607.272 311.183C607.898 311.063 608.452 310.909 608.932 310.723V312.343C608.505 312.516 607.938 312.656 607.232 312.763C606.538 312.883 605.852 312.943 605.172 312.943ZM607.952 307.223C607.925 306.316 607.625 305.616 607.052 305.123C606.492 304.616 605.692 304.363 604.652 304.363C603.638 304.363 602.852 304.623 602.292 305.143C601.732 305.663 601.438 306.356 601.412 307.223H607.952ZM612.06 303.043H614.02V304.423C614.473 303.849 615.026 303.429 615.68 303.163C616.346 302.883 617.04 302.743 617.76 302.743C619.04 302.743 619.993 303.083 620.62 303.763C621.246 304.443 621.56 305.356 621.56 306.503V312.643H619.54V306.703C619.54 305.143 618.793 304.363 617.3 304.363C616.66 304.363 616.06 304.516 615.5 304.823C614.953 305.116 614.48 305.569 614.08 306.183V312.643H612.06V303.043ZM627.752 312.943C626.779 312.943 626.025 312.663 625.492 312.103C624.972 311.543 624.712 310.749 624.712 309.723V304.603H623.252V303.043H624.712V300.163H626.752V303.043H629.112V304.603H626.752V309.583C626.752 310.223 626.872 310.676 627.112 310.943C627.365 311.209 627.819 311.343 628.472 311.343C628.859 311.343 629.245 311.256 629.632 311.083V312.683C629.125 312.856 628.499 312.943 627.752 312.943ZM631.532 303.043H633.492V304.763C633.892 304.176 634.452 303.743 635.172 303.463C635.906 303.183 636.752 303.043 637.712 303.043V304.623C636.686 304.623 635.806 304.789 635.072 305.123C634.339 305.456 633.832 305.983 633.552 306.703V312.643H631.532V303.043ZM644.195 312.943C642.422 312.943 641.029 312.503 640.015 311.623C639.015 310.729 638.515 309.476 638.515 307.863C638.515 306.289 638.962 305.043 639.855 304.123C640.762 303.203 642.049 302.743 643.715 302.743C644.822 302.743 645.762 302.956 646.535 303.383C647.309 303.796 647.889 304.376 648.275 305.123C648.675 305.856 648.875 306.696 648.875 307.643V308.643H640.435C640.502 309.549 640.882 310.229 641.575 310.683C642.282 311.123 643.235 311.343 644.435 311.343C645.049 311.343 645.669 311.289 646.295 311.183C646.922 311.063 647.475 310.909 647.955 310.723V312.343C647.529 312.516 646.962 312.656 646.255 312.763C645.562 312.883 644.875 312.943 644.195 312.943ZM646.975 307.223C646.949 306.316 646.649 305.616 646.075 305.123C645.515 304.616 644.715 304.363 643.675 304.363C642.662 304.363 641.875 304.623 641.315 305.143C640.755 305.663 640.462 306.356 640.435 307.223H646.975ZM306.866 342.943C305.786 342.943 304.833 342.743 304.006 342.343C303.193 341.929 302.553 341.343 302.086 340.583C301.633 339.809 301.406 338.903 301.406 337.863C301.406 336.836 301.633 335.936 302.086 335.163C302.539 334.389 303.179 333.796 304.006 333.383C304.833 332.956 305.786 332.743 306.866 332.743C307.946 332.743 308.899 332.956 309.726 333.383C310.553 333.796 311.193 334.389 311.646 335.163C312.113 335.936 312.346 336.836 312.346 337.863C312.346 338.903 312.113 339.809 311.646 340.583C311.193 341.343 310.553 341.929 309.726 342.343C308.899 342.743 307.946 342.943 306.866 342.943ZM306.866 341.343C307.906 341.343 308.733 341.023 309.346 340.383C309.959 339.743 310.266 338.903 310.266 337.863C310.266 336.783 309.959 335.929 309.346 335.303C308.733 334.676 307.906 334.363 306.866 334.363C305.826 334.363 304.999 334.676 304.386 335.303C303.773 335.929 303.466 336.783 303.466 337.863C303.466 338.903 303.773 339.743 304.386 340.383C304.999 341.023 305.826 341.343 306.866 341.343ZM318.36 342.943C317.067 342.943 316.087 342.596 315.42 341.903C314.767 341.209 314.44 340.283 314.44 339.123V333.043H316.46V339.043C316.46 340.576 317.227 341.343 318.76 341.343C320.107 341.343 321.16 340.736 321.92 339.523V333.043H323.94V342.643H321.98V341.283C321.527 341.856 320.987 342.276 320.36 342.543C319.747 342.809 319.08 342.943 318.36 342.943ZM330.232 342.943C329.259 342.943 328.506 342.663 327.972 342.103C327.452 341.543 327.192 340.749 327.192 339.723V334.603H325.732V333.043H327.192V330.163H329.232V333.043H331.592V334.603H329.232V339.583C329.232 340.223 329.352 340.676 329.592 340.943C329.846 341.209 330.299 341.343 330.952 341.343C331.339 341.343 331.726 341.256 332.112 341.083V342.683C331.606 342.856 330.979 342.943 330.232 342.943ZM334.013 333.043H335.973V334.763C336.373 334.176 336.933 333.743 337.653 333.463C338.386 333.183 339.233 333.043 340.193 333.043V334.623C339.166 334.623 338.286 334.789 337.553 335.123C336.82 335.456 336.313 335.983 336.033 336.703V342.643H334.013V333.043ZM344.543 342.943C343.383 342.943 342.449 342.649 341.743 342.063C341.049 341.463 340.703 340.656 340.703 339.643C340.703 338.576 341.036 337.756 341.703 337.183C342.383 336.596 343.343 336.303 344.583 336.303C345.903 336.303 347.023 336.569 347.943 337.103V336.603C347.943 335.843 347.709 335.283 347.243 334.923C346.789 334.549 346.069 334.363 345.083 334.363C344.496 334.363 343.923 334.423 343.363 334.543C342.816 334.649 342.323 334.803 341.883 335.003V333.363C342.283 333.176 342.803 333.029 343.443 332.923C344.083 332.803 344.703 332.743 345.303 332.743C346.889 332.743 348.063 333.096 348.823 333.803C349.596 334.496 349.983 335.463 349.983 336.703V342.643H348.083V341.563C347.669 342.016 347.176 342.363 346.603 342.603C346.043 342.829 345.356 342.943 344.543 342.943ZM345.043 341.403C345.683 341.403 346.263 341.276 346.783 341.023C347.303 340.769 347.689 340.416 347.943 339.963V338.663C347.076 338.103 346.109 337.823 345.043 337.823C344.269 337.823 343.689 337.976 343.303 338.283C342.929 338.576 342.743 339.029 342.743 339.643C342.743 340.816 343.509 341.403 345.043 341.403ZM355.736 342.943C355.07 342.943 354.363 342.856 353.616 342.683C352.87 342.523 352.283 342.303 351.856 342.023V340.303C352.376 340.609 352.976 340.863 353.656 341.063C354.336 341.249 354.996 341.343 355.636 341.343C356.356 341.343 356.883 341.256 357.216 341.083C357.55 340.909 357.716 340.629 357.716 340.243C357.716 339.949 357.636 339.716 357.476 339.543C357.33 339.356 357.07 339.189 356.696 339.043C356.336 338.896 355.79 338.723 355.056 338.523C354.27 338.296 353.643 338.069 353.176 337.843C352.723 337.603 352.376 337.303 352.136 336.943C351.91 336.583 351.796 336.116 351.796 335.543C351.796 334.623 352.156 333.929 352.876 333.463C353.61 332.983 354.59 332.743 355.816 332.743C356.456 332.743 357.083 332.803 357.696 332.923C358.31 333.043 358.803 333.209 359.176 333.423V335.103C358.79 334.876 358.31 334.696 357.736 334.563C357.176 334.429 356.603 334.363 356.016 334.363C355.31 334.363 354.77 334.449 354.396 334.623C354.023 334.796 353.836 335.103 353.836 335.543C353.836 335.823 353.916 336.049 354.076 336.223C354.236 336.396 354.49 336.549 354.836 336.683C355.196 336.803 355.763 336.963 356.536 337.163C357.75 337.496 358.59 337.889 359.056 338.343C359.536 338.796 359.776 339.423 359.776 340.223C359.776 341.049 359.436 341.709 358.756 342.203C358.076 342.696 357.07 342.943 355.736 342.943ZM369.384 333.043H371.344V334.463C372.331 333.316 373.664 332.743 375.344 332.743C376.304 332.743 377.164 332.956 377.924 333.383C378.697 333.809 379.297 334.409 379.724 335.183C380.164 335.943 380.384 336.829 380.384 337.843C380.384 338.843 380.164 339.729 379.724 340.503C379.297 341.276 378.704 341.876 377.944 342.303C377.184 342.729 376.317 342.943 375.344 342.943C374.544 342.943 373.797 342.809 373.104 342.543C372.411 342.276 371.844 341.883 371.404 341.363V347.023H369.384V333.043ZM374.884 341.343C375.537 341.343 376.124 341.203 376.644 340.923C377.177 340.629 377.591 340.216 377.884 339.683C378.191 339.149 378.344 338.536 378.344 337.843C378.344 337.149 378.191 336.543 377.884 336.023C377.591 335.489 377.177 335.083 376.644 334.803C376.124 334.509 375.537 334.363 374.884 334.363C374.071 334.363 373.351 334.576 372.724 335.003C372.111 335.429 371.671 336.016 371.404 336.763V338.923C371.631 339.656 372.064 340.243 372.704 340.683C373.344 341.123 374.071 341.343 374.884 341.343ZM382.587 327.863H384.607V342.643H382.587V327.863ZM390.656 342.943C389.496 342.943 388.563 342.649 387.856 342.063C387.163 341.463 386.816 340.656 386.816 339.643C386.816 338.576 387.149 337.756 387.816 337.183C388.496 336.596 389.456 336.303 390.696 336.303C392.016 336.303 393.136 336.569 394.056 337.103V336.603C394.056 335.843 393.823 335.283 393.356 334.923C392.903 334.549 392.183 334.363 391.196 334.363C390.609 334.363 390.036 334.423 389.476 334.543C388.929 334.649 388.436 334.803 387.996 335.003V333.363C388.396 333.176 388.916 333.029 389.556 332.923C390.196 332.803 390.816 332.743 391.416 332.743C393.003 332.743 394.176 333.096 394.936 333.803C395.709 334.496 396.096 335.463 396.096 336.703V342.643H394.196V341.563C393.783 342.016 393.289 342.363 392.716 342.603C392.156 342.829 391.469 342.943 390.656 342.943ZM391.156 341.403C391.796 341.403 392.376 341.276 392.896 341.023C393.416 340.769 393.803 340.416 394.056 339.963V338.663C393.189 338.103 392.223 337.823 391.156 337.823C390.383 337.823 389.803 337.976 389.416 338.283C389.043 338.576 388.856 339.029 388.856 339.643C388.856 340.816 389.623 341.403 391.156 341.403ZM401.795 342.943C400.822 342.943 400.068 342.663 399.535 342.103C399.015 341.543 398.755 340.749 398.755 339.723V334.603H397.295V333.043H398.755V330.163H400.795V333.043H403.155V334.603H400.795V339.583C400.795 340.223 400.915 340.676 401.155 340.943C401.408 341.209 401.862 341.343 402.515 341.343C402.902 341.343 403.288 341.256 403.675 341.083V342.683C403.168 342.856 402.542 342.943 401.795 342.943ZM408.722 342.943C407.562 342.943 406.629 342.649 405.922 342.063C405.229 341.463 404.882 340.656 404.882 339.643C404.882 338.576 405.216 337.756 405.882 337.183C406.562 336.596 407.522 336.303 408.762 336.303C410.082 336.303 411.202 336.569 412.122 337.103V336.603C412.122 335.843 411.889 335.283 411.422 334.923C410.969 334.549 410.249 334.363 409.262 334.363C408.676 334.363 408.102 334.423 407.542 334.543C406.996 334.649 406.502 334.803 406.062 335.003V333.363C406.462 333.176 406.982 333.029 407.622 332.923C408.262 332.803 408.882 332.743 409.482 332.743C411.069 332.743 412.242 333.096 413.002 333.803C413.776 334.496 414.162 335.463 414.162 336.703V342.643H412.262V341.563C411.849 342.016 411.356 342.363 410.782 342.603C410.222 342.829 409.536 342.943 408.722 342.943ZM409.222 341.403C409.862 341.403 410.442 341.276 410.962 341.023C411.482 340.769 411.869 340.416 412.122 339.963V338.663C411.256 338.103 410.289 337.823 409.222 337.823C408.449 337.823 407.869 337.976 407.482 338.283C407.109 338.576 406.922 339.029 406.922 339.643C406.922 340.816 407.689 341.403 409.222 341.403ZM417.329 334.603H415.869V333.043H417.329V331.163C417.329 330.056 417.642 329.216 418.269 328.643C418.896 328.056 419.736 327.763 420.789 327.763C421.336 327.763 421.849 327.843 422.329 328.003V329.683C421.956 329.509 421.569 329.423 421.169 329.423C420.542 329.423 420.082 329.576 419.789 329.883C419.496 330.176 419.349 330.643 419.349 331.283V333.043H421.749V334.603H419.349V342.643H417.329V334.603ZM428.077 342.943C426.997 342.943 426.043 342.743 425.217 342.343C424.403 341.929 423.763 341.343 423.297 340.583C422.843 339.809 422.617 338.903 422.617 337.863C422.617 336.836 422.843 335.936 423.297 335.163C423.75 334.389 424.39 333.796 425.217 333.383C426.043 332.956 426.997 332.743 428.077 332.743C429.157 332.743 430.11 332.956 430.937 333.383C431.763 333.796 432.403 334.389 432.857 335.163C433.323 335.936 433.557 336.836 433.557 337.863C433.557 338.903 433.323 339.809 432.857 340.583C432.403 341.343 431.763 341.929 430.937 342.343C430.11 342.743 429.157 342.943 428.077 342.943ZM428.077 341.343C429.117 341.343 429.943 341.023 430.557 340.383C431.17 339.743 431.477 338.903 431.477 337.863C431.477 336.783 431.17 335.929 430.557 335.303C429.943 334.676 429.117 334.363 428.077 334.363C427.037 334.363 426.21 334.676 425.597 335.303C424.983 335.929 424.677 336.783 424.677 337.863C424.677 338.903 424.983 339.743 425.597 340.383C426.21 341.023 427.037 341.343 428.077 341.343ZM435.751 333.043H437.711V334.763C438.111 334.176 438.671 333.743 439.391 333.463C440.125 333.183 440.971 333.043 441.931 333.043V334.623C440.905 334.623 440.025 334.789 439.291 335.123C438.558 335.456 438.051 335.983 437.771 336.703V342.643H435.751V333.043ZM443.739 333.043H445.659V334.423C446.113 333.863 446.626 333.443 447.199 333.163C447.773 332.883 448.366 332.743 448.979 332.743C449.753 332.743 450.366 332.876 450.819 333.143C451.273 333.396 451.606 333.789 451.819 334.323C452.246 333.803 452.766 333.409 453.379 333.143C454.006 332.876 454.633 332.743 455.259 332.743C456.433 332.743 457.279 333.043 457.799 333.643C458.319 334.229 458.579 335.103 458.579 336.263V342.643H456.619V336.523C456.619 335.736 456.473 335.183 456.179 334.863C455.886 334.529 455.386 334.363 454.679 334.363C453.666 334.363 452.839 334.803 452.199 335.683C452.226 335.883 452.239 336.209 452.239 336.663V342.643H450.279V336.523C450.279 335.736 450.146 335.183 449.879 334.863C449.613 334.529 449.133 334.363 448.439 334.363C447.426 334.363 446.519 334.936 445.719 336.083V342.643H443.739V333.043ZM464.23 342.943C463.07 342.943 462.137 342.649 461.43 342.063C460.737 341.463 460.39 340.656 460.39 339.643C460.39 338.576 460.724 337.756 461.39 337.183C462.07 336.596 463.03 336.303 464.27 336.303C465.59 336.303 466.71 336.569 467.63 337.103V336.603C467.63 335.843 467.397 335.283 466.93 334.923C466.477 334.549 465.757 334.363 464.77 334.363C464.184 334.363 463.61 334.423 463.05 334.543C462.504 334.649 462.01 334.803 461.57 335.003V333.363C461.97 333.176 462.49 333.029 463.13 332.923C463.77 332.803 464.39 332.743 464.99 332.743C466.577 332.743 467.75 333.096 468.51 333.803C469.284 334.496 469.67 335.463 469.67 336.703V342.643H467.77V341.563C467.357 342.016 466.864 342.363 466.29 342.603C465.73 342.829 465.044 342.943 464.23 342.943ZM464.73 341.403C465.37 341.403 465.95 341.276 466.47 341.023C466.99 340.769 467.377 340.416 467.63 339.963V338.663C466.764 338.103 465.797 337.823 464.73 337.823C463.957 337.823 463.377 337.976 462.99 338.283C462.617 338.576 462.43 339.029 462.43 339.643C462.43 340.816 463.197 341.403 464.73 341.403ZM475.424 342.943C474.757 342.943 474.051 342.856 473.304 342.683C472.557 342.523 471.971 342.303 471.544 342.023V340.303C472.064 340.609 472.664 340.863 473.344 341.063C474.024 341.249 474.684 341.343 475.324 341.343C476.044 341.343 476.571 341.256 476.904 341.083C477.237 340.909 477.404 340.629 477.404 340.243C477.404 339.949 477.324 339.716 477.164 339.543C477.017 339.356 476.757 339.189 476.384 339.043C476.024 338.896 475.477 338.723 474.744 338.523C473.957 338.296 473.331 338.069 472.864 337.843C472.411 337.603 472.064 337.303 471.824 336.943C471.597 336.583 471.484 336.116 471.484 335.543C471.484 334.623 471.844 333.929 472.564 333.463C473.297 332.983 474.277 332.743 475.504 332.743C476.144 332.743 476.771 332.803 477.384 332.923C477.997 333.043 478.491 333.209 478.864 333.423V335.103C478.477 334.876 477.997 334.696 477.424 334.563C476.864 334.429 476.291 334.363 475.704 334.363C474.997 334.363 474.457 334.449 474.084 334.623C473.711 334.796 473.524 335.103 473.524 335.543C473.524 335.823 473.604 336.049 473.764 336.223C473.924 336.396 474.177 336.549 474.524 336.683C474.884 336.803 475.451 336.963 476.224 337.163C477.437 337.496 478.277 337.889 478.744 338.343C479.224 338.796 479.464 339.423 479.464 340.223C479.464 341.049 479.124 341.709 478.444 342.203C477.764 342.696 476.757 342.943 475.424 342.943ZM482.209 342.643C481.942 342.643 481.716 342.556 481.529 342.383C481.356 342.196 481.269 341.969 481.269 341.703C481.269 341.436 481.356 341.209 481.529 341.023C481.716 340.836 481.942 340.743 482.209 340.743C482.476 340.743 482.702 340.836 482.889 341.023C483.076 341.209 483.169 341.436 483.169 341.703C483.169 341.969 483.076 342.196 482.889 342.383C482.702 342.556 482.476 342.643 482.209 342.643Z" fill="white"/>
<path d="M177.722 252.016H221.626C230.074 252.016 236.687 254.106 241.466 258.288C246.244 262.469 248.634 268.528 248.634 276.464C248.634 280.474 247.695 284.144 245.818 287.472C243.94 290.714 241.38 293.232 238.138 295.024C242.575 296.645 245.903 299.12 248.122 302.448C250.34 305.69 251.45 309.957 251.45 315.248C251.45 320.624 250.212 325.317 247.738 329.328C245.348 333.253 242.02 336.282 237.754 338.416C233.572 340.464 228.922 341.488 223.802 341.488H177.722V252.016ZM217.914 288.368C221.327 288.368 224.015 287.514 225.978 285.808C227.94 284.101 228.922 281.37 228.922 277.616C228.922 273.52 227.94 270.704 225.978 269.168C224.1 267.632 221.199 266.864 217.274 266.864H197.178V288.368H217.914ZM219.066 326.64C223.247 326.64 226.404 325.829 228.538 324.208C230.756 322.501 231.866 319.557 231.866 315.376C231.866 311.109 230.714 308.037 228.41 306.16C226.191 304.282 222.863 303.344 218.426 303.344H197.178V326.64H219.066Z" fill="white"/>
<path d="M267.972 349.479C265.327 349.479 263.087 348.562 261.252 346.727C259.417 344.892 258.5 342.652 258.5 340.007C258.5 337.404 259.417 335.186 261.252 333.351C263.087 331.474 265.327 330.535 267.972 330.535C270.575 330.535 272.793 331.474 274.628 333.351C276.505 335.186 277.444 337.404 277.444 340.007C277.444 342.652 276.505 344.892 274.628 346.727C272.793 348.562 270.575 349.479 267.972 349.479Z" fill="#3BA1F0"/>
<path d="M36.7609 24.252H55.8329L91.5449 113.724H71.7049L64.0249 94.268H28.5689L20.8889 113.724H0.920898L36.7609 24.252ZM58.9049 78.78L46.2329 44.732L33.5609 78.78H58.9049Z" fill="white"/>
<path d="M113.96 123.196C111.315 123.196 109.075 122.279 107.24 120.444C105.406 118.609 104.488 116.369 104.488 113.724C104.488 111.121 105.406 108.903 107.24 107.068C109.075 105.191 111.315 104.252 113.96 104.252C116.563 104.252 118.782 105.191 120.616 107.068C122.494 108.903 123.432 111.121 123.432 113.724C123.432 116.369 122.494 118.609 120.616 120.444C118.782 122.279 116.563 123.196 113.96 123.196Z" fill="#7260DF"/>
<path opacity="0.5" d="M133.099 115.805C179.079 124.31 270.88 174.331 270.242 306.371" stroke="white" stroke-width="2" stroke-dasharray="4 4"/>
</svg>
