<svg width="500" height="220" viewBox="0 0 812 361" fill="none" xmlns="http://www.w3.org/2000/svg">
<path d="M137.284 11.0183H146.104C148.484 11.0183 150.384 11.6483 151.804 12.9083C153.224 14.1483 153.934 15.8783 153.934 18.0983C153.934 20.3783 153.224 22.1283 151.804 23.3483C150.404 24.5683 148.504 25.1783 146.104 25.1783H141.844V31.9883H137.284V11.0183ZM145.444 21.3683C148.024 21.3683 149.314 20.2783 149.314 18.0983C149.314 16.8783 148.964 16.0283 148.264 15.5483C147.584 15.0683 146.644 14.8283 145.444 14.8283H141.844V21.3683H145.444ZM156.034 9.81828H160.564V31.9883H156.034V9.81828ZM169.079 32.4383C167.319 32.4383 165.879 31.9983 164.759 31.1183C163.659 30.2183 163.109 28.9983 163.109 27.4583C163.109 25.8583 163.639 24.6183 164.699 23.7383C165.759 22.8383 167.259 22.3883 169.199 22.3883C170.059 22.3883 170.879 22.4783 171.659 22.6583C172.439 22.8383 173.129 23.0883 173.729 23.4083V23.0483C173.729 22.1483 173.409 21.4883 172.769 21.0683C172.129 20.6483 171.149 20.4383 169.829 20.4383C168.069 20.4383 166.449 20.7683 164.969 21.4283V18.1283C165.609 17.8483 166.439 17.6183 167.459 17.4383C168.479 17.2383 169.499 17.1383 170.519 17.1383C173.119 17.1383 175.059 17.6783 176.339 18.7583C177.619 19.8183 178.259 21.3083 178.259 23.2283V31.9883H173.999V30.6683C172.779 31.8483 171.139 32.4383 169.079 32.4383ZM170.309 29.4383C171.049 29.4383 171.719 29.2983 172.319 29.0183C172.919 28.7383 173.389 28.3483 173.729 27.8483V26.4083C172.709 25.7283 171.589 25.3883 170.369 25.3883C169.529 25.3883 168.879 25.5683 168.419 25.9283C167.979 26.2683 167.759 26.7783 167.759 27.4583C167.759 28.0983 167.979 28.5883 168.419 28.9283C168.859 29.2683 169.489 29.4383 170.309 29.4383ZM186.527 32.4383C184.847 32.4383 183.567 31.9783 182.687 31.0583C181.827 30.1183 181.397 28.8183 181.397 27.1583V20.8583H179.297V17.5883H181.397V13.2683H185.927V17.5883H189.317V20.8583H185.927V26.5583C185.927 27.3983 186.087 28.0083 186.407 28.3883C186.727 28.7483 187.297 28.9283 188.117 28.9283C188.777 28.9283 189.407 28.7683 190.007 28.4483V31.8383C189.087 32.2383 187.927 32.4383 186.527 32.4383ZM197.029 32.4383C195.269 32.4383 193.829 31.9983 192.709 31.1183C191.609 30.2183 191.059 28.9983 191.059 27.4583C191.059 25.8583 191.589 24.6183 192.649 23.7383C193.709 22.8383 195.209 22.3883 197.149 22.3883C198.009 22.3883 198.829 22.4783 199.609 22.6583C200.389 22.8383 201.079 23.0883 201.679 23.4083V23.0483C201.679 22.1483 201.359 21.4883 200.719 21.0683C200.079 20.6483 199.099 20.4383 197.779 20.4383C196.019 20.4383 194.399 20.7683 192.919 21.4283V18.1283C193.559 17.8483 194.389 17.6183 195.409 17.4383C196.429 17.2383 197.449 17.1383 198.469 17.1383C201.069 17.1383 203.009 17.6783 204.289 18.7583C205.569 19.8183 206.209 21.3083 206.209 23.2283V31.9883H201.949V30.6683C200.729 31.8483 199.089 32.4383 197.029 32.4383ZM198.259 29.4383C198.999 29.4383 199.669 29.2983 200.269 29.0183C200.869 28.7383 201.339 28.3483 201.679 27.8483V26.4083C200.659 25.7283 199.539 25.3883 198.319 25.3883C197.479 25.3883 196.829 25.5683 196.369 25.9283C195.929 26.2683 195.709 26.7783 195.709 27.4583C195.709 28.0983 195.929 28.5883 196.369 28.9283C196.809 29.2683 197.439 29.4383 198.259 29.4383ZM210.077 20.8583H208.007V17.5883H210.077V15.4583C210.077 13.5983 210.647 12.1683 211.787 11.1683C212.927 10.1683 214.407 9.66828 216.227 9.66828C217.267 9.66828 218.167 9.82828 218.927 10.1483V13.7783C218.347 13.5183 217.737 13.3883 217.097 13.3883C216.257 13.3883 215.627 13.5783 215.207 13.9583C214.807 14.3383 214.607 14.9583 214.607 15.8183V17.5883H218.027V20.8583H214.607V31.9883H210.077V20.8583ZM227.297 32.4383C225.557 32.4383 224.027 32.1283 222.707 31.5083C221.407 30.8683 220.397 29.9783 219.677 28.8383C218.977 27.6783 218.627 26.3283 218.627 24.7883C218.627 23.2883 218.977 21.9583 219.677 20.7983C220.397 19.6383 221.407 18.7383 222.707 18.0983C224.027 17.4583 225.557 17.1383 227.297 17.1383C229.017 17.1383 230.527 17.4583 231.827 18.0983C233.147 18.7383 234.157 19.6383 234.857 20.7983C235.577 21.9583 235.937 23.2883 235.937 24.7883C235.937 26.3283 235.577 27.6783 234.857 28.8383C234.157 29.9783 233.157 30.8683 231.857 31.5083C230.557 32.1283 229.037 32.4383 227.297 32.4383ZM227.297 28.8983C228.517 28.8983 229.487 28.5283 230.207 27.7883C230.927 27.0283 231.287 26.0283 231.287 24.7883C231.287 23.5083 230.927 22.5083 230.207 21.7883C229.507 21.0483 228.537 20.6783 227.297 20.6783C226.057 20.6783 225.077 21.0483 224.357 21.7883C223.637 22.5083 223.277 23.5083 223.277 24.7883C223.277 26.0283 223.637 27.0283 224.357 27.7883C225.097 28.5283 226.077 28.8983 227.297 28.8983ZM238.475 17.5883H242.855V19.6583C243.435 18.9583 244.245 18.4283 245.285 18.0683C246.325 17.6883 247.505 17.4983 248.825 17.4983V20.9483C247.445 20.9483 246.225 21.1583 245.165 21.5783C244.125 21.9983 243.405 22.6383 243.005 23.4983V31.9883H238.475V17.5883ZM250.75 17.5883H254.98V19.3283C255.6 18.6283 256.32 18.0883 257.14 17.7083C257.96 17.3283 258.81 17.1383 259.69 17.1383C260.79 17.1383 261.67 17.3183 262.33 17.6783C262.99 18.0183 263.51 18.5283 263.89 19.2083C264.51 18.5483 265.26 18.0383 266.14 17.6783C267.04 17.3183 267.93 17.1383 268.81 17.1383C270.65 17.1383 271.96 17.6083 272.74 18.5483C273.54 19.4883 273.94 20.8483 273.94 22.6283V31.9883H269.62V23.2583C269.62 22.3383 269.44 21.6783 269.08 21.2783C268.72 20.8783 268.14 20.6783 267.34 20.6783C266.22 20.6783 265.32 21.1183 264.64 21.9983C264.68 22.6383 264.7 23.1583 264.7 23.5583V31.9883H260.35V23.1083C260.35 22.2283 260.19 21.6083 259.87 21.2483C259.57 20.8683 259.04 20.6783 258.28 20.6783C257.1 20.6783 256.05 21.3483 255.13 22.6883V31.9883H250.75V17.5883ZM281.872 32.4383C280.112 32.4383 278.672 31.9983 277.552 31.1183C276.452 30.2183 275.902 28.9983 275.902 27.4583C275.902 25.8583 276.432 24.6183 277.492 23.7383C278.552 22.8383 280.052 22.3883 281.992 22.3883C282.852 22.3883 283.672 22.4783 284.452 22.6583C285.232 22.8383 285.922 23.0883 286.522 23.4083V23.0483C286.522 22.1483 286.202 21.4883 285.562 21.0683C284.922 20.6483 283.942 20.4383 282.622 20.4383C280.862 20.4383 279.242 20.7683 277.762 21.4283V18.1283C278.402 17.8483 279.232 17.6183 280.252 17.4383C281.272 17.2383 282.292 17.1383 283.312 17.1383C285.912 17.1383 287.852 17.6783 289.132 18.7583C290.412 19.8183 291.052 21.3083 291.052 23.2283V31.9883H286.792V30.6683C285.572 31.8483 283.932 32.4383 281.872 32.4383ZM283.102 29.4383C283.842 29.4383 284.512 29.2983 285.112 29.0183C285.712 28.7383 286.182 28.3483 286.522 27.8483V26.4083C285.502 25.7283 284.382 25.3883 283.162 25.3883C282.322 25.3883 281.672 25.5683 281.212 25.9283C280.772 26.2683 280.552 26.7783 280.552 27.4583C280.552 28.0983 280.772 28.5883 281.212 28.9283C281.652 29.2683 282.282 29.4383 283.102 29.4383Z" fill="white"/>
<path opacity="0.7" d="M137.024 45.0005H146.244V46.7205H139.064V51.1805H144.424V52.8005H139.064V58.9805H137.024V45.0005ZM149.487 59.2805C148.327 59.2805 147.394 58.9871 146.687 58.4005C145.994 57.8005 145.647 56.9938 145.647 55.9805C145.647 54.9138 145.98 54.0938 146.647 53.5205C147.327 52.9338 148.287 52.6405 149.527 52.6405C150.847 52.6405 151.967 52.9071 152.887 53.4405V52.9405C152.887 52.1805 152.654 51.6205 152.187 51.2605C151.734 50.8871 151.014 50.7005 150.027 50.7005C149.44 50.7005 148.867 50.7605 148.307 50.8805C147.76 50.9871 147.267 51.1405 146.827 51.3405V49.7005C147.227 49.5138 147.747 49.3671 148.387 49.2605C149.027 49.1405 149.647 49.0805 150.247 49.0805C151.834 49.0805 153.007 49.4338 153.767 50.1405C154.54 50.8338 154.927 51.8005 154.927 53.0405V58.9805H153.027V57.9005C152.614 58.3538 152.12 58.7005 151.547 58.9405C150.987 59.1671 150.3 59.2805 149.487 59.2805ZM149.987 57.7405C150.627 57.7405 151.207 57.6138 151.727 57.3605C152.247 57.1071 152.634 56.7538 152.887 56.3005V55.0005C152.02 54.4405 151.054 54.1605 149.987 54.1605C149.214 54.1605 148.634 54.3138 148.247 54.6205C147.874 54.9138 147.687 55.3671 147.687 55.9805C147.687 57.1538 148.454 57.7405 149.987 57.7405ZM162.103 59.2805C161.036 59.2805 160.09 59.0805 159.263 58.6805C158.436 58.2805 157.79 57.7005 157.323 56.9405C156.87 56.1671 156.643 55.2538 156.643 54.2005C156.643 53.1471 156.87 52.2405 157.323 51.4805C157.79 50.7071 158.436 50.1138 159.263 49.7005C160.103 49.2871 161.063 49.0805 162.143 49.0805C163.61 49.0805 164.783 49.3671 165.663 49.9405V51.6005C164.796 51.0005 163.69 50.7005 162.343 50.7005C161.25 50.7005 160.363 51.0005 159.683 51.6005C159.016 52.1871 158.683 53.0538 158.683 54.2005C158.683 55.3471 159.016 56.2138 159.683 56.8005C160.35 57.3871 161.223 57.6805 162.303 57.6805C163.65 57.6805 164.81 57.3605 165.783 56.7205V58.3605C165.316 58.6805 164.783 58.9138 164.183 59.0605C163.596 59.2071 162.903 59.2805 162.103 59.2805ZM173.261 59.2805C171.487 59.2805 170.094 58.8405 169.081 57.9605C168.081 57.0671 167.581 55.8138 167.581 54.2005C167.581 52.6271 168.027 51.3805 168.921 50.4605C169.827 49.5405 171.114 49.0805 172.781 49.0805C173.887 49.0805 174.827 49.2938 175.601 49.7205C176.374 50.1338 176.954 50.7138 177.341 51.4605C177.741 52.1938 177.941 53.0338 177.941 53.9805V54.9805H169.501C169.567 55.8871 169.947 56.5671 170.641 57.0205C171.347 57.4605 172.301 57.6805 173.501 57.6805C174.114 57.6805 174.734 57.6271 175.361 57.5205C175.987 57.4005 176.541 57.2471 177.021 57.0605V58.6805C176.594 58.8538 176.027 58.9938 175.321 59.1005C174.627 59.2205 173.941 59.2805 173.261 59.2805ZM176.041 53.5605C176.014 52.6538 175.714 51.9538 175.141 51.4605C174.581 50.9538 173.781 50.7005 172.741 50.7005C171.727 50.7005 170.941 50.9605 170.381 51.4805C169.821 52.0005 169.527 52.6938 169.501 53.5605H176.041ZM186.109 59.2805C185.242 59.2805 184.489 59.1471 183.849 58.8805C183.222 58.6005 182.642 58.1671 182.109 57.5805V58.9805H180.149V44.2005H182.169V50.6605C182.609 50.1405 183.175 49.7471 183.869 49.4805C184.562 49.2138 185.309 49.0805 186.109 49.0805C187.069 49.0805 187.929 49.3005 188.689 49.7405C189.462 50.1671 190.062 50.7671 190.489 51.5405C190.929 52.3138 191.149 53.2005 191.149 54.2005C191.149 55.2138 190.929 56.1071 190.489 56.8805C190.062 57.6405 189.462 58.2338 188.689 58.6605C187.929 59.0738 187.069 59.2805 186.109 59.2805ZM185.649 57.6805C186.302 57.6805 186.889 57.5405 187.409 57.2605C187.942 56.9671 188.355 56.5538 188.649 56.0205C188.955 55.4871 189.109 54.8805 189.109 54.2005C189.109 53.5205 188.955 52.9138 188.649 52.3805C188.355 51.8471 187.942 51.4338 187.409 51.1405C186.889 50.8471 186.302 50.7005 185.649 50.7005C184.835 50.7005 184.109 50.9205 183.469 51.3605C182.829 51.8005 182.395 52.3871 182.169 53.1205V55.2805C182.422 56.0138 182.855 56.6005 183.469 57.0405C184.095 57.4671 184.822 57.6805 185.649 57.6805ZM197.904 59.2805C196.824 59.2805 195.871 59.0805 195.044 58.6805C194.231 58.2671 193.591 57.6805 193.124 56.9205C192.671 56.1471 192.444 55.2405 192.444 54.2005C192.444 53.1738 192.671 52.2738 193.124 51.5005C193.577 50.7271 194.217 50.1338 195.044 49.7205C195.871 49.2938 196.824 49.0805 197.904 49.0805C198.984 49.0805 199.937 49.2938 200.764 49.7205C201.591 50.1338 202.231 50.7271 202.684 51.5005C203.151 52.2738 203.384 53.1738 203.384 54.2005C203.384 55.2405 203.151 56.1471 202.684 56.9205C202.231 57.6805 201.591 58.2671 200.764 58.6805C199.937 59.0805 198.984 59.2805 197.904 59.2805ZM197.904 57.6805C198.944 57.6805 199.771 57.3605 200.384 56.7205C200.997 56.0805 201.304 55.2405 201.304 54.2005C201.304 53.1205 200.997 52.2671 200.384 51.6405C199.771 51.0138 198.944 50.7005 197.904 50.7005C196.864 50.7005 196.037 51.0138 195.424 51.6405C194.811 52.2671 194.504 53.1205 194.504 54.2005C194.504 55.2405 194.811 56.0805 195.424 56.7205C196.037 57.3605 196.864 57.6805 197.904 57.6805ZM210.131 59.2805C209.051 59.2805 208.097 59.0805 207.271 58.6805C206.457 58.2671 205.817 57.6805 205.351 56.9205C204.897 56.1471 204.671 55.2405 204.671 54.2005C204.671 53.1738 204.897 52.2738 205.351 51.5005C205.804 50.7271 206.444 50.1338 207.271 49.7205C208.097 49.2938 209.051 49.0805 210.131 49.0805C211.211 49.0805 212.164 49.2938 212.991 49.7205C213.817 50.1338 214.457 50.7271 214.911 51.5005C215.377 52.2738 215.611 53.1738 215.611 54.2005C215.611 55.2405 215.377 56.1471 214.911 56.9205C214.457 57.6805 213.817 58.2671 212.991 58.6805C212.164 59.0805 211.211 59.2805 210.131 59.2805ZM210.131 57.6805C211.171 57.6805 211.997 57.3605 212.611 56.7205C213.224 56.0805 213.531 55.2405 213.531 54.2005C213.531 53.1205 213.224 52.2671 212.611 51.6405C211.997 51.0138 211.171 50.7005 210.131 50.7005C209.091 50.7005 208.264 51.0138 207.651 51.6405C207.037 52.2671 206.731 53.1205 206.731 54.2005C206.731 55.2405 207.037 56.0805 207.651 56.7205C208.264 57.3605 209.091 57.6805 210.131 57.6805ZM217.805 44.2005H219.825V58.9805H217.805V44.2005ZM219.845 54.1205L224.265 49.3805H226.725L222.285 54.1205L227.185 58.9805H224.725L219.845 54.1205ZM229.513 57.9205H231.633L229.733 61.9405H227.893L229.513 57.9205ZM241.242 45.0005H243.302V58.9805H241.242V45.0005ZM245.91 49.3805H247.87V50.7605C248.324 50.1871 248.877 49.7671 249.53 49.5005C250.197 49.2205 250.89 49.0805 251.61 49.0805C252.89 49.0805 253.844 49.4205 254.47 50.1005C255.097 50.7805 255.41 51.6938 255.41 52.8405V58.9805H253.39V53.0405C253.39 51.4805 252.644 50.7005 251.15 50.7005C250.51 50.7005 249.91 50.8538 249.35 51.1605C248.804 51.4538 248.33 51.9071 247.93 52.5205V58.9805H245.91V49.3805ZM261.443 59.2805C260.776 59.2805 260.069 59.1938 259.323 59.0205C258.576 58.8605 257.989 58.6405 257.563 58.3605V56.6405C258.083 56.9471 258.683 57.2005 259.363 57.4005C260.043 57.5871 260.703 57.6805 261.343 57.6805C262.063 57.6805 262.589 57.5938 262.923 57.4205C263.256 57.2471 263.423 56.9671 263.423 56.5805C263.423 56.2871 263.343 56.0538 263.183 55.8805C263.036 55.6938 262.776 55.5271 262.403 55.3805C262.043 55.2338 261.496 55.0605 260.763 54.8605C259.976 54.6338 259.349 54.4071 258.883 54.1805C258.429 53.9405 258.083 53.6405 257.843 53.2805C257.616 52.9205 257.503 52.4538 257.503 51.8805C257.503 50.9605 257.863 50.2671 258.583 49.8005C259.316 49.3205 260.296 49.0805 261.523 49.0805C262.163 49.0805 262.789 49.1405 263.403 49.2605C264.016 49.3805 264.509 49.5471 264.883 49.7605V51.4405C264.496 51.2138 264.016 51.0338 263.443 50.9005C262.883 50.7671 262.309 50.7005 261.723 50.7005C261.016 50.7005 260.476 50.7871 260.103 50.9605C259.729 51.1338 259.543 51.4405 259.543 51.8805C259.543 52.1605 259.623 52.3871 259.783 52.5605C259.943 52.7338 260.196 52.8871 260.543 53.0205C260.903 53.1405 261.469 53.3005 262.243 53.5005C263.456 53.8338 264.296 54.2271 264.763 54.6805C265.243 55.1338 265.483 55.7605 265.483 56.5605C265.483 57.3871 265.143 58.0471 264.463 58.5405C263.783 59.0338 262.776 59.2805 261.443 59.2805ZM271.095 59.2805C270.121 59.2805 269.368 59.0005 268.835 58.4405C268.315 57.8805 268.055 57.0871 268.055 56.0605V50.9405H266.595V49.3805H268.055V46.5005H270.095V49.3805H272.455V50.9405H270.095V55.9205C270.095 56.5605 270.215 57.0138 270.455 57.2805C270.708 57.5471 271.161 57.6805 271.815 57.6805C272.201 57.6805 272.588 57.5938 272.975 57.4205V59.0205C272.468 59.1938 271.841 59.2805 271.095 59.2805ZM278.022 59.2805C276.862 59.2805 275.929 58.9871 275.222 58.4005C274.529 57.8005 274.182 56.9938 274.182 55.9805C274.182 54.9138 274.516 54.0938 275.182 53.5205C275.862 52.9338 276.822 52.6405 278.062 52.6405C279.382 52.6405 280.502 52.9071 281.422 53.4405V52.9405C281.422 52.1805 281.189 51.6205 280.722 51.2605C280.269 50.8871 279.549 50.7005 278.562 50.7005C277.976 50.7005 277.402 50.7605 276.842 50.8805C276.296 50.9871 275.802 51.1405 275.362 51.3405V49.7005C275.762 49.5138 276.282 49.3671 276.922 49.2605C277.562 49.1405 278.182 49.0805 278.782 49.0805C280.369 49.0805 281.542 49.4338 282.302 50.1405C283.076 50.8338 283.462 51.8005 283.462 53.0405V58.9805H281.562V57.9005C281.149 58.3538 280.656 58.7005 280.082 58.9405C279.522 59.1671 278.836 59.2805 278.022 59.2805ZM278.522 57.7405C279.162 57.7405 279.742 57.6138 280.262 57.3605C280.782 57.1071 281.169 56.7538 281.422 56.3005V55.0005C280.556 54.4405 279.589 54.1605 278.522 54.1605C277.749 54.1605 277.169 54.3138 276.782 54.6205C276.409 54.9138 276.222 55.3671 276.222 55.9805C276.222 57.1538 276.989 57.7405 278.522 57.7405ZM290.989 63.5805C290.336 63.5805 289.696 63.5271 289.069 63.4205C288.456 63.3138 287.936 63.1605 287.509 62.9605V61.3005C288.509 61.7538 289.669 61.9805 290.989 61.9805C292.229 61.9805 293.129 61.7071 293.689 61.1605C294.262 60.6271 294.549 59.8138 294.549 58.7205V57.7005C293.669 58.7538 292.376 59.2805 290.669 59.2805C289.696 59.2805 288.822 59.0671 288.049 58.6405C287.276 58.2138 286.669 57.6138 286.229 56.8405C285.789 56.0671 285.569 55.1805 285.569 54.1805C285.569 53.1671 285.782 52.2805 286.209 51.5205C286.649 50.7471 287.249 50.1471 288.009 49.7205C288.782 49.2938 289.649 49.0805 290.609 49.0805C291.502 49.0805 292.256 49.2138 292.869 49.4805C293.496 49.7338 294.076 50.1605 294.609 50.7605V49.3805H296.569V58.5005C296.569 60.1405 296.109 61.3938 295.189 62.2605C294.282 63.1405 292.882 63.5805 290.989 63.5805ZM291.069 57.6805C291.896 57.6805 292.622 57.4605 293.249 57.0205C293.889 56.5805 294.322 55.9938 294.549 55.2605V53.1005C294.296 52.3538 293.856 51.7671 293.229 51.3405C292.616 50.9138 291.896 50.7005 291.069 50.7005C290.416 50.7005 289.822 50.8471 289.289 51.1405C288.769 51.4205 288.356 51.8271 288.049 52.3605C287.756 52.8938 287.609 53.5005 287.609 54.1805C287.609 54.8738 287.756 55.4871 288.049 56.0205C288.356 56.5405 288.769 56.9471 289.289 57.2405C289.822 57.5338 290.416 57.6805 291.069 57.6805ZM299.172 49.3805H301.132V51.1005C301.532 50.5138 302.092 50.0805 302.812 49.8005C303.545 49.5205 304.392 49.3805 305.352 49.3805V50.9605C304.325 50.9605 303.445 51.1271 302.712 51.4605C301.979 51.7938 301.472 52.3205 301.192 53.0405V58.9805H299.172V49.3805ZM309.702 59.2805C308.542 59.2805 307.609 58.9871 306.902 58.4005C306.209 57.8005 305.862 56.9938 305.862 55.9805C305.862 54.9138 306.195 54.0938 306.862 53.5205C307.542 52.9338 308.502 52.6405 309.742 52.6405C311.062 52.6405 312.182 52.9071 313.102 53.4405V52.9405C313.102 52.1805 312.869 51.6205 312.402 51.2605C311.949 50.8871 311.229 50.7005 310.242 50.7005C309.655 50.7005 309.082 50.7605 308.522 50.8805C307.975 50.9871 307.482 51.1405 307.042 51.3405V49.7005C307.442 49.5138 307.962 49.3671 308.602 49.2605C309.242 49.1405 309.862 49.0805 310.462 49.0805C312.049 49.0805 313.222 49.4338 313.982 50.1405C314.755 50.8338 315.142 51.8005 315.142 53.0405V58.9805H313.242V57.9005C312.829 58.3538 312.335 58.7005 311.762 58.9405C311.202 59.1671 310.515 59.2805 309.702 59.2805ZM310.202 57.7405C310.842 57.7405 311.422 57.6138 311.942 57.3605C312.462 57.1071 312.849 56.7538 313.102 56.3005V55.0005C312.235 54.4405 311.269 54.1605 310.202 54.1605C309.429 54.1605 308.849 54.3138 308.462 54.6205C308.089 54.9138 307.902 55.3671 307.902 55.9805C307.902 57.1538 308.669 57.7405 310.202 57.7405ZM317.649 49.3805H319.569V50.7605C320.022 50.2005 320.535 49.7805 321.109 49.5005C321.682 49.2205 322.275 49.0805 322.889 49.0805C323.662 49.0805 324.275 49.2138 324.729 49.4805C325.182 49.7338 325.515 50.1271 325.729 50.6605C326.155 50.1405 326.675 49.7471 327.289 49.4805C327.915 49.2138 328.542 49.0805 329.169 49.0805C330.342 49.0805 331.189 49.3805 331.709 49.9805C332.229 50.5671 332.489 51.4405 332.489 52.6005V58.9805H330.529V52.8605C330.529 52.0738 330.382 51.5205 330.089 51.2005C329.795 50.8671 329.295 50.7005 328.589 50.7005C327.575 50.7005 326.749 51.1405 326.109 52.0205C326.135 52.2205 326.149 52.5471 326.149 53.0005V58.9805H324.189V52.8605C324.189 52.0738 324.055 51.5205 323.789 51.2005C323.522 50.8671 323.042 50.7005 322.349 50.7005C321.335 50.7005 320.429 51.2738 319.629 52.4205V58.9805H317.649V49.3805ZM336.212 57.9205H338.332L336.432 61.9405H334.592L336.212 57.9205ZM354.942 59.2805C353.502 59.2805 352.222 58.9805 351.102 58.3805C349.982 57.7805 349.108 56.9338 348.482 55.8405C347.855 54.7338 347.542 53.4538 347.542 52.0005C347.542 50.5471 347.855 49.2671 348.482 48.1605C349.108 47.0538 349.982 46.2005 351.102 45.6005C352.222 45.0005 353.502 44.7005 354.942 44.7005C356.875 44.7005 358.482 45.1805 359.762 46.1405V48.1005C358.602 47.0871 357.055 46.5805 355.122 46.5805C354.068 46.5805 353.122 46.8005 352.282 47.2405C351.442 47.6805 350.782 48.3138 350.302 49.1405C349.835 49.9538 349.602 50.9071 349.602 52.0005C349.602 53.0938 349.835 54.0538 350.302 54.8805C350.768 55.7071 351.415 56.3405 352.242 56.7805C353.068 57.2205 354.002 57.4405 355.042 57.4405C356.255 57.4405 357.248 57.1938 358.022 56.7005V53.0405H355.362V51.3805H360.062V57.7805C359.435 58.3005 358.695 58.6805 357.842 58.9205C357.002 59.1605 356.035 59.2805 354.942 59.2805ZM367.318 59.2805C366.238 59.2805 365.285 59.0805 364.458 58.6805C363.645 58.2671 363.005 57.6805 362.538 56.9205C362.085 56.1471 361.858 55.2405 361.858 54.2005C361.858 53.1738 362.085 52.2738 362.538 51.5005C362.991 50.7271 363.631 50.1338 364.458 49.7205C365.285 49.2938 366.238 49.0805 367.318 49.0805C368.398 49.0805 369.351 49.2938 370.178 49.7205C371.005 50.1338 371.645 50.7271 372.098 51.5005C372.565 52.2738 372.798 53.1738 372.798 54.2005C372.798 55.2405 372.565 56.1471 372.098 56.9205C371.645 57.6805 371.005 58.2671 370.178 58.6805C369.351 59.0805 368.398 59.2805 367.318 59.2805ZM367.318 57.6805C368.358 57.6805 369.185 57.3605 369.798 56.7205C370.411 56.0805 370.718 55.2405 370.718 54.2005C370.718 53.1205 370.411 52.2671 369.798 51.6405C369.185 51.0138 368.358 50.7005 367.318 50.7005C366.278 50.7005 365.451 51.0138 364.838 51.6405C364.225 52.2671 363.918 53.1205 363.918 54.2005C363.918 55.2405 364.225 56.0805 364.838 56.7205C365.451 57.3605 366.278 57.6805 367.318 57.6805ZM379.545 59.2805C378.465 59.2805 377.511 59.0805 376.685 58.6805C375.871 58.2671 375.231 57.6805 374.765 56.9205C374.311 56.1471 374.085 55.2405 374.085 54.2005C374.085 53.1738 374.311 52.2738 374.765 51.5005C375.218 50.7271 375.858 50.1338 376.685 49.7205C377.511 49.2938 378.465 49.0805 379.545 49.0805C380.625 49.0805 381.578 49.2938 382.405 49.7205C383.231 50.1338 383.871 50.7271 384.325 51.5005C384.791 52.2738 385.025 53.1738 385.025 54.2005C385.025 55.2405 384.791 56.1471 384.325 56.9205C383.871 57.6805 383.231 58.2671 382.405 58.6805C381.578 59.0805 380.625 59.2805 379.545 59.2805ZM379.545 57.6805C380.585 57.6805 381.411 57.3605 382.025 56.7205C382.638 56.0805 382.945 55.2405 382.945 54.2005C382.945 53.1205 382.638 52.2671 382.025 51.6405C381.411 51.0138 380.585 50.7005 379.545 50.7005C378.505 50.7005 377.678 51.0138 377.065 51.6405C376.451 52.2671 376.145 53.1205 376.145 54.2005C376.145 55.2405 376.451 56.0805 377.065 56.7205C377.678 57.3605 378.505 57.6805 379.545 57.6805ZM392.239 63.5805C391.586 63.5805 390.946 63.5271 390.319 63.4205C389.706 63.3138 389.186 63.1605 388.759 62.9605V61.3005C389.759 61.7538 390.919 61.9805 392.239 61.9805C393.479 61.9805 394.379 61.7071 394.939 61.1605C395.512 60.6271 395.799 59.8138 395.799 58.7205V57.7005C394.919 58.7538 393.626 59.2805 391.919 59.2805C390.946 59.2805 390.072 59.0671 389.299 58.6405C388.526 58.2138 387.919 57.6138 387.479 56.8405C387.039 56.0671 386.819 55.1805 386.819 54.1805C386.819 53.1671 387.032 52.2805 387.459 51.5205C387.899 50.7471 388.499 50.1471 389.259 49.7205C390.032 49.2938 390.899 49.0805 391.859 49.0805C392.752 49.0805 393.506 49.2138 394.119 49.4805C394.746 49.7338 395.326 50.1605 395.859 50.7605V49.3805H397.819V58.5005C397.819 60.1405 397.359 61.3938 396.439 62.2605C395.532 63.1405 394.132 63.5805 392.239 63.5805ZM392.319 57.6805C393.146 57.6805 393.872 57.4605 394.499 57.0205C395.139 56.5805 395.572 55.9938 395.799 55.2605V53.1005C395.546 52.3538 395.106 51.7671 394.479 51.3405C393.866 50.9138 393.146 50.7005 392.319 50.7005C391.666 50.7005 391.072 50.8471 390.539 51.1405C390.019 51.4205 389.606 51.8271 389.299 52.3605C389.006 52.8938 388.859 53.5005 388.859 54.1805C388.859 54.8738 389.006 55.4871 389.299 56.0205C389.606 56.5405 390.019 56.9471 390.539 57.2405C391.072 57.5338 391.666 57.6805 392.319 57.6805ZM400.422 44.2005H402.442V58.9805H400.422V44.2005ZM410.331 59.2805C408.558 59.2805 407.164 58.8405 406.151 57.9605C405.151 57.0671 404.651 55.8138 404.651 54.2005C404.651 52.6271 405.098 51.3805 405.991 50.4605C406.898 49.5405 408.184 49.0805 409.851 49.0805C410.958 49.0805 411.898 49.2938 412.671 49.7205C413.444 50.1338 414.024 50.7138 414.411 51.4605C414.811 52.1938 415.011 53.0338 415.011 53.9805V54.9805H406.571C406.638 55.8871 407.018 56.5671 407.711 57.0205C408.418 57.4605 409.371 57.6805 410.571 57.6805C411.184 57.6805 411.804 57.6271 412.431 57.5205C413.058 57.4005 413.611 57.2471 414.091 57.0605V58.6805C413.664 58.8538 413.098 58.9938 412.391 59.1005C411.698 59.2205 411.011 59.2805 410.331 59.2805ZM413.111 53.5605C413.084 52.6538 412.784 51.9538 412.211 51.4605C411.651 50.9538 410.851 50.7005 409.811 50.7005C408.798 50.7005 408.011 50.9605 407.451 51.4805C406.891 52.0005 406.598 52.6938 406.571 53.5605H413.111ZM418.439 57.9205H420.559L418.659 61.9405H416.819L418.439 57.9205ZM434.848 53.6805L429.768 45.0005H431.948L435.848 51.7405L439.808 45.0005H441.968L436.828 53.6805V58.9805H434.848V53.6805ZM446.341 59.2805C445.261 59.2805 444.308 59.0805 443.481 58.6805C442.668 58.2671 442.028 57.6805 441.561 56.9205C441.108 56.1471 440.881 55.2405 440.881 54.2005C440.881 53.1738 441.108 52.2738 441.561 51.5005C442.015 50.7271 442.655 50.1338 443.481 49.7205C444.308 49.2938 445.261 49.0805 446.341 49.0805C447.421 49.0805 448.375 49.2938 449.201 49.7205C450.028 50.1338 450.668 50.7271 451.121 51.5005C451.588 52.2738 451.821 53.1738 451.821 54.2005C451.821 55.2405 451.588 56.1471 451.121 56.9205C450.668 57.6805 450.028 58.2671 449.201 58.6805C448.375 59.0805 447.421 59.2805 446.341 59.2805ZM446.341 57.6805C447.381 57.6805 448.208 57.3605 448.821 56.7205C449.435 56.0805 449.741 55.2405 449.741 54.2005C449.741 53.1205 449.435 52.2671 448.821 51.6405C448.208 51.0138 447.381 50.7005 446.341 50.7005C445.301 50.7005 444.475 51.0138 443.861 51.6405C443.248 52.2671 442.941 53.1205 442.941 54.2005C442.941 55.2405 443.248 56.0805 443.861 56.7205C444.475 57.3605 445.301 57.6805 446.341 57.6805ZM457.836 59.2805C456.542 59.2805 455.562 58.9338 454.896 58.2405C454.242 57.5471 453.916 56.6205 453.916 55.4605V49.3805H455.936V55.3805C455.936 56.9138 456.702 57.6805 458.236 57.6805C459.582 57.6805 460.636 57.0738 461.396 55.8605V49.3805H463.416V58.9805H461.456V57.6205C461.002 58.1938 460.462 58.6138 459.836 58.8805C459.222 59.1471 458.556 59.2805 457.836 59.2805ZM469.708 59.2805C468.735 59.2805 467.981 59.0005 467.448 58.4405C466.928 57.8805 466.668 57.0871 466.668 56.0605V50.9405H465.208V49.3805H466.668V46.5005H468.708V49.3805H471.068V50.9405H468.708V55.9205C468.708 56.5605 468.828 57.0138 469.068 57.2805C469.321 57.5471 469.775 57.6805 470.428 57.6805C470.815 57.6805 471.201 57.5938 471.588 57.4205V59.0205C471.081 59.1938 470.455 59.2805 469.708 59.2805ZM477.211 59.2805C475.917 59.2805 474.937 58.9338 474.271 58.2405C473.617 57.5471 473.291 56.6205 473.291 55.4605V49.3805H475.311V55.3805C475.311 56.9138 476.077 57.6805 477.611 57.6805C478.957 57.6805 480.011 57.0738 480.771 55.8605V49.3805H482.791V58.9805H480.831V57.6205C480.377 58.1938 479.837 58.6138 479.211 58.8805C478.597 59.1471 477.931 59.2805 477.211 59.2805ZM491.343 59.2805C490.476 59.2805 489.723 59.1471 489.083 58.8805C488.456 58.6005 487.876 58.1671 487.343 57.5805V58.9805H485.383V44.2005H487.403V50.6605C487.843 50.1405 488.41 49.7471 489.103 49.4805C489.796 49.2138 490.543 49.0805 491.343 49.0805C492.303 49.0805 493.163 49.3005 493.923 49.7405C494.696 50.1671 495.296 50.7671 495.723 51.5405C496.163 52.3138 496.383 53.2005 496.383 54.2005C496.383 55.2138 496.163 56.1071 495.723 56.8805C495.296 57.6405 494.696 58.2338 493.923 58.6605C493.163 59.0738 492.303 59.2805 491.343 59.2805ZM490.883 57.6805C491.536 57.6805 492.123 57.5405 492.643 57.2605C493.176 56.9671 493.59 56.5538 493.883 56.0205C494.19 55.4871 494.343 54.8805 494.343 54.2005C494.343 53.5205 494.19 52.9138 493.883 52.3805C493.59 51.8471 493.176 51.4338 492.643 51.1405C492.123 50.8471 491.536 50.7005 490.883 50.7005C490.07 50.7005 489.343 50.9205 488.703 51.3605C488.063 51.8005 487.63 52.3871 487.403 53.1205V55.2805C487.656 56.0138 488.09 56.6005 488.703 57.0405C489.33 57.4671 490.056 57.6805 490.883 57.6805ZM503.866 59.2805C502.093 59.2805 500.699 58.8405 499.686 57.9605C498.686 57.0671 498.186 55.8138 498.186 54.2005C498.186 52.6271 498.633 51.3805 499.526 50.4605C500.433 49.5405 501.719 49.0805 503.386 49.0805C504.493 49.0805 505.433 49.2938 506.206 49.7205C506.979 50.1338 507.559 50.7138 507.946 51.4605C508.346 52.1938 508.546 53.0338 508.546 53.9805V54.9805H500.106C500.173 55.8871 500.553 56.5671 501.246 57.0205C501.953 57.4605 502.906 57.6805 504.106 57.6805C504.719 57.6805 505.339 57.6271 505.966 57.5205C506.593 57.4005 507.146 57.2471 507.626 57.0605V58.6805C507.199 58.8538 506.633 58.9938 505.926 59.1005C505.233 59.2205 504.546 59.2805 503.866 59.2805ZM506.646 53.5605C506.619 52.6538 506.319 51.9538 505.746 51.4605C505.186 50.9538 504.386 50.7005 503.346 50.7005C502.333 50.7005 501.546 50.9605 500.986 51.4805C500.426 52.0005 500.133 52.6938 500.106 53.5605H506.646ZM511.974 57.9205H514.094L512.194 61.9405H510.354L511.974 57.9205ZM137.024 75.0005H139.064V87.2805H146.144V88.9805H137.024V75.0005ZM149.122 77.5005C148.788 77.5005 148.508 77.3871 148.282 77.1605C148.055 76.9338 147.942 76.6538 147.942 76.3205C147.942 75.9871 148.055 75.7071 148.282 75.4805C148.508 75.2538 148.788 75.1405 149.122 75.1405C149.468 75.1405 149.755 75.2538 149.982 75.4805C150.222 75.7071 150.342 75.9871 150.342 76.3205C150.342 76.6538 150.222 76.9338 149.982 77.1605C149.755 77.3871 149.468 77.5005 149.122 77.5005ZM148.102 79.3805H150.162V88.9805H148.102V79.3805ZM152.942 79.3805H154.902V80.7605C155.355 80.1871 155.908 79.7671 156.562 79.5005C157.228 79.2205 157.922 79.0805 158.642 79.0805C159.922 79.0805 160.875 79.4205 161.502 80.1005C162.128 80.7805 162.442 81.6938 162.442 82.8405V88.9805H160.422V83.0405C160.422 81.4805 159.675 80.7005 158.182 80.7005C157.542 80.7005 156.942 80.8538 156.382 81.1605C155.835 81.4538 155.362 81.9071 154.962 82.5205V88.9805H152.942V79.3805ZM164.934 74.2005H166.954V88.9805H164.934V74.2005ZM166.974 84.1205L171.394 79.3805H173.854L169.414 84.1205L174.314 88.9805H171.854L166.974 84.1205ZM181.601 89.2805C179.827 89.2805 178.434 88.8405 177.421 87.9605C176.421 87.0671 175.921 85.8138 175.921 84.2005C175.921 82.6271 176.367 81.3805 177.261 80.4605C178.167 79.5405 179.454 79.0805 181.121 79.0805C182.227 79.0805 183.167 79.2938 183.941 79.7205C184.714 80.1338 185.294 80.7138 185.681 81.4605C186.081 82.1938 186.281 83.0338 186.281 83.9805V84.9805H177.841C177.907 85.8871 178.287 86.5671 178.981 87.0205C179.687 87.4605 180.641 87.6805 181.841 87.6805C182.454 87.6805 183.074 87.6271 183.701 87.5205C184.327 87.4005 184.881 87.2471 185.361 87.0605V88.6805C184.934 88.8538 184.367 88.9938 183.661 89.1005C182.967 89.2205 182.281 89.2805 181.601 89.2805ZM184.381 83.5605C184.354 82.6538 184.054 81.9538 183.481 81.4605C182.921 80.9538 182.121 80.7005 181.081 80.7005C180.067 80.7005 179.281 80.9605 178.721 81.4805C178.161 82.0005 177.867 82.6938 177.841 83.5605H184.381ZM193.128 89.2805C192.168 89.2805 191.302 89.0738 190.528 88.6605C189.768 88.2338 189.168 87.6405 188.728 86.8805C188.302 86.1071 188.088 85.2138 188.088 84.2005C188.088 83.2005 188.302 82.3138 188.728 81.5405C189.168 80.7671 189.768 80.1671 190.528 79.7405C191.302 79.3005 192.168 79.0805 193.128 79.0805C194.862 79.0805 196.175 79.6071 197.068 80.6605V74.2005H199.088V88.9805H197.128V87.5805C196.595 88.1671 196.008 88.6005 195.368 88.8805C194.742 89.1471 193.995 89.2805 193.128 89.2805ZM193.588 87.6805C194.415 87.6805 195.135 87.4671 195.748 87.0405C196.375 86.6005 196.815 86.0138 197.068 85.2805V83.1205C196.842 82.3871 196.408 81.8005 195.768 81.3605C195.142 80.9205 194.415 80.7005 193.588 80.7005C192.935 80.7005 192.342 80.8471 191.808 81.1405C191.288 81.4338 190.875 81.8471 190.568 82.3805C190.275 82.9138 190.128 83.5205 190.128 84.2005C190.128 84.8805 190.275 85.4871 190.568 86.0205C190.875 86.5538 191.288 86.9671 191.808 87.2605C192.342 87.5405 192.935 87.6805 193.588 87.6805ZM201.692 75.0005H203.752V88.9805H201.692V75.0005ZM206.36 79.3805H208.32V80.7605C208.773 80.1871 209.326 79.7671 209.98 79.5005C210.646 79.2205 211.34 79.0805 212.06 79.0805C213.34 79.0805 214.293 79.4205 214.92 80.1005C215.546 80.7805 215.86 81.6938 215.86 82.8405V88.9805H213.84V83.0405C213.84 81.4805 213.093 80.7005 211.6 80.7005C210.96 80.7005 210.36 80.8538 209.8 81.1605C209.253 81.4538 208.78 81.9071 208.38 82.5205V88.9805H206.36V79.3805ZM219.572 87.9205H221.692L219.792 91.9405H217.952L219.572 87.9205ZM234.841 76.7205H230.501V75.0005H241.241V76.7205H236.901V88.9805H234.841V76.7205ZM243.711 77.5005C243.378 77.5005 243.098 77.3871 242.871 77.1605C242.645 76.9338 242.531 76.6538 242.531 76.3205C242.531 75.9871 242.645 75.7071 242.871 75.4805C243.098 75.2538 243.378 75.1405 243.711 75.1405C244.058 75.1405 244.345 75.2538 244.571 75.4805C244.811 75.7071 244.931 75.9871 244.931 76.3205C244.931 76.6538 244.811 76.9338 244.571 77.1605C244.345 77.3871 244.058 77.5005 243.711 77.5005ZM242.691 79.3805H244.751V88.9805H242.691V79.3805ZM247.531 74.2005H249.551V88.9805H247.531V74.2005ZM249.571 84.1205L253.991 79.3805H256.451L252.011 84.1205L256.911 88.9805H254.451L249.571 84.1205ZM262.11 89.2805C261.137 89.2805 260.384 89.0005 259.85 88.4405C259.33 87.8805 259.07 87.0871 259.07 86.0605V80.9405H257.61V79.3805H259.07V76.5005H261.11V79.3805H263.47V80.9405H261.11V85.9205C261.11 86.5605 261.23 87.0138 261.47 87.2805C261.724 87.5471 262.177 87.6805 262.83 87.6805C263.217 87.6805 263.604 87.5938 263.99 87.4205V89.0205C263.484 89.1938 262.857 89.2805 262.11 89.2805ZM270.853 89.2805C269.773 89.2805 268.82 89.0805 267.993 88.6805C267.18 88.2671 266.54 87.6805 266.073 86.9205C265.62 86.1471 265.393 85.2405 265.393 84.2005C265.393 83.1738 265.62 82.2738 266.073 81.5005C266.526 80.7271 267.166 80.1338 267.993 79.7205C268.82 79.2938 269.773 79.0805 270.853 79.0805C271.933 79.0805 272.886 79.2938 273.713 79.7205C274.54 80.1338 275.18 80.7271 275.633 81.5005C276.1 82.2738 276.333 83.1738 276.333 84.2005C276.333 85.2405 276.1 86.1471 275.633 86.9205C275.18 87.6805 274.54 88.2671 273.713 88.6805C272.886 89.0805 271.933 89.2805 270.853 89.2805ZM270.853 87.6805C271.893 87.6805 272.72 87.3605 273.333 86.7205C273.946 86.0805 274.253 85.2405 274.253 84.2005C274.253 83.1205 273.946 82.2671 273.333 81.6405C272.72 81.0138 271.893 80.7005 270.853 80.7005C269.813 80.7005 268.986 81.0138 268.373 81.6405C267.76 82.2671 267.453 83.1205 267.453 84.2005C267.453 85.2405 267.76 86.0805 268.373 86.7205C268.986 87.3605 269.813 87.6805 270.853 87.6805ZM278.528 74.2005H280.548V88.9805H278.528V74.2005ZM280.568 84.1205L284.988 79.3805H287.448L283.008 84.1205L287.908 88.9805H285.448L280.568 84.1205ZM290.454 88.9805C290.188 88.9805 289.961 88.8938 289.774 88.7205C289.601 88.5338 289.514 88.3071 289.514 88.0405C289.514 87.7738 289.601 87.5471 289.774 87.3605C289.961 87.1738 290.188 87.0805 290.454 87.0805C290.721 87.0805 290.948 87.1738 291.134 87.3605C291.321 87.5471 291.414 87.7738 291.414 88.0405C291.414 88.3071 291.321 88.5338 291.134 88.7205C290.948 88.8938 290.721 88.9805 290.454 88.9805Z" fill="white"/>
<path d="M439.513 266.544C438.233 266.544 436.963 266.424 435.703 266.184C434.443 265.944 433.413 265.624 432.613 265.224V261.204C433.673 261.724 434.773 262.114 435.913 262.374C437.053 262.634 438.143 262.764 439.183 262.764C440.343 262.764 441.223 262.564 441.823 262.164C442.423 261.764 442.723 261.204 442.723 260.484C442.723 259.964 442.573 259.524 442.273 259.164C441.973 258.804 441.533 258.484 440.953 258.204C440.393 257.904 439.523 257.514 438.343 257.034C436.383 256.234 434.963 255.344 434.083 254.364C433.203 253.364 432.763 252.134 432.763 250.674C432.763 249.494 433.083 248.454 433.723 247.554C434.363 246.634 435.263 245.924 436.423 245.424C437.583 244.924 438.923 244.674 440.443 244.674C441.683 244.674 442.783 244.774 443.743 244.974C444.703 245.174 445.643 245.484 446.563 245.904V249.804C444.803 248.924 443.043 248.484 441.283 248.484C440.163 248.484 439.283 248.684 438.643 249.084C438.003 249.464 437.683 250.014 437.683 250.734C437.683 251.254 437.833 251.684 438.133 252.024C438.433 252.364 438.853 252.664 439.393 252.924C439.933 253.184 440.813 253.564 442.033 254.064C443.453 254.664 444.563 255.244 445.363 255.804C446.163 256.344 446.753 256.994 447.133 257.754C447.513 258.494 447.703 259.414 447.703 260.514C447.703 262.414 447.013 263.894 445.633 264.954C444.273 266.014 442.233 266.544 439.513 266.544ZM458.544 266.544C455.784 266.544 453.614 265.884 452.034 264.564C450.454 263.224 449.664 261.354 449.664 258.954C449.664 256.574 450.364 254.694 451.764 253.314C453.184 251.934 455.204 251.244 457.824 251.244C459.544 251.244 461.004 251.564 462.204 252.204C463.404 252.844 464.314 253.734 464.934 254.874C465.554 255.994 465.864 257.264 465.864 258.684V260.514H453.984C454.304 262.354 456.024 263.274 459.144 263.274C460.064 263.274 461.014 263.194 461.994 263.034C462.974 262.874 463.824 262.654 464.544 262.374V265.554C463.844 265.854 462.944 266.094 461.844 266.274C460.744 266.454 459.644 266.544 458.544 266.544ZM461.574 257.574C461.514 256.614 461.154 255.874 460.494 255.354C459.834 254.814 458.924 254.544 457.764 254.544C456.624 254.544 455.724 254.814 455.064 255.354C454.404 255.894 454.044 256.634 453.984 257.574H461.574ZM474.1 266.544C472.14 266.544 470.67 266.014 469.69 264.954C468.71 263.874 468.22 262.444 468.22 260.664V251.694H472.75V260.184C472.75 262.064 473.62 263.004 475.36 263.004C476.12 263.004 476.83 262.824 477.49 262.464C478.15 262.104 478.7 261.564 479.14 260.844V251.694H483.67V266.094H479.29V264.354C478.65 265.094 477.87 265.644 476.95 266.004C476.05 266.364 475.1 266.544 474.1 266.544ZM502.685 266.544C500.925 266.544 499.485 266.104 498.365 265.224C497.265 264.324 496.715 263.104 496.715 261.564C496.715 259.964 497.245 258.724 498.305 257.844C499.365 256.944 500.865 256.494 502.805 256.494C503.665 256.494 504.485 256.584 505.265 256.764C506.045 256.944 506.735 257.194 507.335 257.514V257.154C507.335 256.254 507.015 255.594 506.375 255.174C505.735 254.754 504.755 254.544 503.435 254.544C501.675 254.544 500.055 254.874 498.575 255.534V252.234C499.215 251.954 500.045 251.724 501.065 251.544C502.085 251.344 503.105 251.244 504.125 251.244C506.725 251.244 508.665 251.784 509.945 252.864C511.225 253.924 511.865 255.414 511.865 257.334V266.094H507.605V264.774C506.385 265.954 504.745 266.544 502.685 266.544ZM503.915 263.544C504.655 263.544 505.325 263.404 505.925 263.124C506.525 262.844 506.995 262.454 507.335 261.954V260.514C506.315 259.834 505.195 259.494 503.975 259.494C503.135 259.494 502.485 259.674 502.025 260.034C501.585 260.374 501.365 260.884 501.365 261.564C501.365 262.204 501.585 262.694 502.025 263.034C502.465 263.374 503.095 263.544 503.915 263.544ZM514.864 251.694H519.094V253.434C519.714 252.734 520.434 252.194 521.254 251.814C522.074 251.434 522.924 251.244 523.804 251.244C524.904 251.244 525.784 251.424 526.444 251.784C527.104 252.124 527.624 252.634 528.004 253.314C528.624 252.654 529.374 252.144 530.254 251.784C531.154 251.424 532.044 251.244 532.924 251.244C534.764 251.244 536.074 251.714 536.854 252.654C537.654 253.594 538.054 254.954 538.054 256.734V266.094H533.734V257.364C533.734 256.444 533.554 255.784 533.194 255.384C532.834 254.984 532.254 254.784 531.454 254.784C530.334 254.784 529.434 255.224 528.754 256.104C528.794 256.744 528.814 257.264 528.814 257.664V266.094H524.464V257.214C524.464 256.334 524.304 255.714 523.984 255.354C523.684 254.974 523.154 254.784 522.394 254.784C521.214 254.784 520.164 255.454 519.244 256.794V266.094H514.864V251.694ZM550.835 266.544C549.715 266.544 548.715 266.384 547.835 266.064C546.975 265.744 546.175 265.234 545.435 264.534V266.094H541.055V243.924H545.585V252.984C546.225 252.424 547.005 251.994 547.925 251.694C548.845 251.394 549.815 251.244 550.835 251.244C552.335 251.244 553.655 251.574 554.795 252.234C555.955 252.874 556.855 253.774 557.495 254.934C558.135 256.094 558.455 257.424 558.455 258.924C558.455 260.444 558.135 261.784 557.495 262.944C556.855 264.084 555.955 264.974 554.795 265.614C553.655 266.234 552.335 266.544 550.835 266.544ZM549.695 263.034C550.915 263.034 551.905 262.664 552.665 261.924C553.445 261.164 553.835 260.164 553.835 258.924C553.835 257.684 553.445 256.684 552.665 255.924C551.905 255.164 550.915 254.784 549.695 254.784C548.755 254.784 547.905 255.044 547.145 255.564C546.405 256.064 545.885 256.724 545.585 257.544V260.274C545.905 261.114 546.435 261.784 547.175 262.284C547.915 262.784 548.755 263.034 549.695 263.034ZM563.496 249.474C562.796 249.474 562.206 249.244 561.726 248.784C561.246 248.324 561.006 247.744 561.006 247.044C561.006 246.364 561.246 245.794 561.726 245.334C562.206 244.854 562.796 244.614 563.496 244.614C564.196 244.614 564.786 244.854 565.266 245.334C565.746 245.794 565.986 246.364 565.986 247.044C565.986 247.744 565.746 248.324 565.266 248.784C564.786 249.244 564.196 249.474 563.496 249.474ZM561.216 251.694H565.776V266.094H561.216V251.694ZM577.372 266.544C574.612 266.544 572.442 265.884 570.862 264.564C569.282 263.224 568.492 261.354 568.492 258.954C568.492 256.574 569.192 254.694 570.592 253.314C572.012 251.934 574.032 251.244 576.652 251.244C578.372 251.244 579.832 251.564 581.032 252.204C582.232 252.844 583.142 253.734 583.762 254.874C584.382 255.994 584.692 257.264 584.692 258.684V260.514H572.812C573.132 262.354 574.852 263.274 577.972 263.274C578.892 263.274 579.842 263.194 580.822 263.034C581.802 262.874 582.652 262.654 583.372 262.374V265.554C582.672 265.854 581.772 266.094 580.672 266.274C579.572 266.454 578.472 266.544 577.372 266.544ZM580.402 257.574C580.342 256.614 579.982 255.874 579.322 255.354C578.662 254.814 577.752 254.544 576.592 254.544C575.452 254.544 574.552 254.814 573.892 255.354C573.232 255.894 572.872 256.634 572.812 257.574H580.402ZM587.198 251.694H591.578V253.464C592.238 252.724 593.018 252.174 593.918 251.814C594.838 251.434 595.798 251.244 596.798 251.244C598.758 251.244 600.218 251.774 601.178 252.834C602.158 253.874 602.648 255.284 602.648 257.064V266.094H598.118V257.574C598.118 255.714 597.258 254.784 595.538 254.784C594.778 254.784 594.068 254.974 593.408 255.354C592.748 255.714 592.188 256.254 591.728 256.974V266.094H587.198V251.694ZM611.685 266.544C610.005 266.544 608.725 266.084 607.845 265.164C606.985 264.224 606.555 262.924 606.555 261.264V254.964H604.455V251.694H606.555V247.374H611.085V251.694H614.475V254.964H611.085V260.664C611.085 261.504 611.245 262.114 611.565 262.494C611.885 262.854 612.455 263.034 613.275 263.034C613.935 263.034 614.565 262.874 615.165 262.554V265.944C614.245 266.344 613.085 266.544 611.685 266.544ZM625.536 266.544C622.776 266.544 620.606 265.884 619.026 264.564C617.446 263.224 616.656 261.354 616.656 258.954C616.656 256.574 617.356 254.694 618.756 253.314C620.176 251.934 622.196 251.244 624.816 251.244C626.536 251.244 627.996 251.564 629.196 252.204C630.396 252.844 631.306 253.734 631.926 254.874C632.546 255.994 632.856 257.264 632.856 258.684V260.514H620.976C621.296 262.354 623.016 263.274 626.136 263.274C627.056 263.274 628.006 263.194 628.986 263.034C629.966 262.874 630.816 262.654 631.536 262.374V265.554C630.836 265.854 629.936 266.094 628.836 266.274C627.736 266.454 626.636 266.544 625.536 266.544ZM628.566 257.574C628.506 256.614 628.146 255.874 627.486 255.354C626.826 254.814 625.916 254.544 624.756 254.544C623.616 254.544 622.716 254.814 622.056 255.354C621.396 255.894 621.036 256.634 620.976 257.574H628.566Z" fill="white"/>
<path opacity="0.7" d="M436.833 299.394C436.033 299.394 435.24 299.32 434.453 299.174C433.68 299.04 433.047 298.854 432.553 298.614V296.774C433.833 297.374 435.213 297.674 436.693 297.674C438.773 297.674 439.813 296.974 439.813 295.574C439.813 295.094 439.7 294.707 439.473 294.414C439.247 294.12 438.92 293.867 438.493 293.654C438.067 293.427 437.373 293.12 436.413 292.734C435.093 292.2 434.14 291.614 433.553 290.974C432.967 290.334 432.673 289.527 432.673 288.554C432.673 287.82 432.873 287.174 433.273 286.614C433.673 286.04 434.233 285.6 434.953 285.294C435.673 284.974 436.5 284.814 437.433 284.814C438.193 284.814 438.88 284.874 439.493 284.994C440.107 285.114 440.707 285.307 441.293 285.574V287.334C440.133 286.814 438.96 286.554 437.773 286.554C436.813 286.554 436.08 286.727 435.573 287.074C435.067 287.42 434.813 287.914 434.813 288.554C434.813 288.994 434.92 289.367 435.133 289.674C435.36 289.967 435.687 290.234 436.113 290.474C436.553 290.7 437.2 290.987 438.053 291.334C439 291.72 439.747 292.087 440.293 292.434C440.84 292.78 441.253 293.207 441.533 293.714C441.827 294.207 441.973 294.827 441.973 295.574C441.973 296.787 441.54 297.727 440.673 298.394C439.807 299.06 438.527 299.394 436.833 299.394ZM445.344 287.614C445.011 287.614 444.731 287.5 444.504 287.274C444.278 287.047 444.164 286.767 444.164 286.434C444.164 286.1 444.278 285.82 444.504 285.594C444.731 285.367 445.011 285.254 445.344 285.254C445.691 285.254 445.978 285.367 446.204 285.594C446.444 285.82 446.564 286.1 446.564 286.434C446.564 286.767 446.444 287.047 446.204 287.274C445.978 287.5 445.691 287.614 445.344 287.614ZM444.324 289.494H446.384V299.094H444.324V289.494ZM452.864 299.394C451.891 299.394 451.138 299.114 450.604 298.554C450.084 297.994 449.824 297.2 449.824 296.174V291.054H448.364V289.494H449.824V286.614H451.864V289.494H454.224V291.054H451.864V296.034C451.864 296.674 451.984 297.127 452.224 297.394C452.478 297.66 452.931 297.794 453.584 297.794C453.971 297.794 454.358 297.707 454.744 297.534V299.134C454.238 299.307 453.611 299.394 452.864 299.394ZM461.925 299.394C460.151 299.394 458.758 298.954 457.745 298.074C456.745 297.18 456.245 295.927 456.245 294.314C456.245 292.74 456.691 291.494 457.585 290.574C458.491 289.654 459.778 289.194 461.445 289.194C462.551 289.194 463.491 289.407 464.265 289.834C465.038 290.247 465.618 290.827 466.005 291.574C466.405 292.307 466.605 293.147 466.605 294.094V295.094H458.165C458.231 296 458.611 296.68 459.305 297.134C460.011 297.574 460.965 297.794 462.165 297.794C462.778 297.794 463.398 297.74 464.025 297.634C464.651 297.514 465.205 297.36 465.685 297.174V298.794C465.258 298.967 464.691 299.107 463.985 299.214C463.291 299.334 462.605 299.394 461.925 299.394ZM464.705 293.674C464.678 292.767 464.378 292.067 463.805 291.574C463.245 291.067 462.445 290.814 461.405 290.814C460.391 290.814 459.605 291.074 459.045 291.594C458.485 292.114 458.191 292.807 458.165 293.674H464.705ZM470.033 298.034H472.153L470.253 302.054H468.413L470.033 298.034ZM481.762 284.314H483.782V299.094H481.762V284.314ZM489.831 299.394C488.671 299.394 487.737 299.1 487.031 298.514C486.337 297.914 485.991 297.107 485.991 296.094C485.991 295.027 486.324 294.207 486.991 293.634C487.671 293.047 488.631 292.754 489.871 292.754C491.191 292.754 492.311 293.02 493.231 293.554V293.054C493.231 292.294 492.997 291.734 492.531 291.374C492.077 291 491.357 290.814 490.371 290.814C489.784 290.814 489.211 290.874 488.651 290.994C488.104 291.1 487.611 291.254 487.171 291.454V289.814C487.571 289.627 488.091 289.48 488.731 289.374C489.371 289.254 489.991 289.194 490.591 289.194C492.177 289.194 493.351 289.547 494.111 290.254C494.884 290.947 495.271 291.914 495.271 293.154V299.094H493.371V298.014C492.957 298.467 492.464 298.814 491.891 299.054C491.331 299.28 490.644 299.394 489.831 299.394ZM490.331 297.854C490.971 297.854 491.551 297.727 492.071 297.474C492.591 297.22 492.977 296.867 493.231 296.414V295.114C492.364 294.554 491.397 294.274 490.331 294.274C489.557 294.274 488.977 294.427 488.591 294.734C488.217 295.027 488.031 295.48 488.031 296.094C488.031 297.267 488.797 297.854 490.331 297.854ZM497.778 289.494H499.738V290.874C500.191 290.3 500.744 289.88 501.398 289.614C502.064 289.334 502.758 289.194 503.478 289.194C504.758 289.194 505.711 289.534 506.338 290.214C506.964 290.894 507.278 291.807 507.278 292.954V299.094H505.258V293.154C505.258 291.594 504.511 290.814 503.018 290.814C502.378 290.814 501.778 290.967 501.218 291.274C500.671 291.567 500.198 292.02 499.798 292.634V299.094H497.778V289.494ZM514.41 299.394C513.45 299.394 512.583 299.187 511.81 298.774C511.05 298.347 510.45 297.754 510.01 296.994C509.583 296.22 509.37 295.327 509.37 294.314C509.37 293.314 509.583 292.427 510.01 291.654C510.45 290.88 511.05 290.28 511.81 289.854C512.583 289.414 513.45 289.194 514.41 289.194C516.143 289.194 517.456 289.72 518.35 290.774V284.314H520.37V299.094H518.41V297.694C517.876 298.28 517.29 298.714 516.65 298.994C516.023 299.26 515.276 299.394 514.41 299.394ZM514.87 297.794C515.696 297.794 516.416 297.58 517.03 297.154C517.656 296.714 518.096 296.127 518.35 295.394V293.234C518.123 292.5 517.69 291.914 517.05 291.474C516.423 291.034 515.696 290.814 514.87 290.814C514.216 290.814 513.623 290.96 513.09 291.254C512.57 291.547 512.156 291.96 511.85 292.494C511.556 293.027 511.41 293.634 511.41 294.314C511.41 294.994 511.556 295.6 511.85 296.134C512.156 296.667 512.57 297.08 513.09 297.374C513.623 297.654 514.216 297.794 514.87 297.794ZM524.153 287.614C523.82 287.614 523.54 287.5 523.313 287.274C523.086 287.047 522.973 286.767 522.973 286.434C522.973 286.1 523.086 285.82 523.313 285.594C523.54 285.367 523.82 285.254 524.153 285.254C524.5 285.254 524.786 285.367 525.013 285.594C525.253 285.82 525.373 286.1 525.373 286.434C525.373 286.767 525.253 287.047 525.013 287.274C524.786 287.5 524.5 287.614 524.153 287.614ZM523.133 289.494H525.193V299.094H523.133V289.494ZM527.973 289.494H529.933V290.874C530.386 290.3 530.94 289.88 531.593 289.614C532.26 289.334 532.953 289.194 533.673 289.194C534.953 289.194 535.906 289.534 536.533 290.214C537.16 290.894 537.473 291.807 537.473 292.954V299.094H535.453V293.154C535.453 291.594 534.706 290.814 533.213 290.814C532.573 290.814 531.973 290.967 531.413 291.274C530.866 291.567 530.393 292.02 529.993 292.634V299.094H527.973V289.494ZM544.985 303.694C544.332 303.694 543.692 303.64 543.065 303.534C542.452 303.427 541.932 303.274 541.505 303.074V301.414C542.505 301.867 543.665 302.094 544.985 302.094C546.225 302.094 547.125 301.82 547.685 301.274C548.258 300.74 548.545 299.927 548.545 298.834V297.814C547.665 298.867 546.372 299.394 544.665 299.394C543.692 299.394 542.818 299.18 542.045 298.754C541.272 298.327 540.665 297.727 540.225 296.954C539.785 296.18 539.565 295.294 539.565 294.294C539.565 293.28 539.778 292.394 540.205 291.634C540.645 290.86 541.245 290.26 542.005 289.834C542.778 289.407 543.645 289.194 544.605 289.194C545.498 289.194 546.252 289.327 546.865 289.594C547.492 289.847 548.072 290.274 548.605 290.874V289.494H550.565V298.614C550.565 300.254 550.105 301.507 549.185 302.374C548.278 303.254 546.878 303.694 544.985 303.694ZM545.065 297.794C545.892 297.794 546.618 297.574 547.245 297.134C547.885 296.694 548.318 296.107 548.545 295.374V293.214C548.292 292.467 547.852 291.88 547.225 291.454C546.612 291.027 545.892 290.814 545.065 290.814C544.412 290.814 543.818 290.96 543.285 291.254C542.765 291.534 542.352 291.94 542.045 292.474C541.752 293.007 541.605 293.614 541.605 294.294C541.605 294.987 541.752 295.6 542.045 296.134C542.352 296.654 542.765 297.06 543.285 297.354C543.818 297.647 544.412 297.794 545.065 297.794ZM560.571 289.494H562.531V290.914C563.517 289.767 564.851 289.194 566.531 289.194C567.491 289.194 568.351 289.407 569.111 289.834C569.884 290.26 570.484 290.86 570.911 291.634C571.351 292.394 571.571 293.28 571.571 294.294C571.571 295.294 571.351 296.18 570.911 296.954C570.484 297.727 569.891 298.327 569.131 298.754C568.371 299.18 567.504 299.394 566.531 299.394C565.731 299.394 564.984 299.26 564.291 298.994C563.597 298.727 563.031 298.334 562.591 297.814V303.474H560.571V289.494ZM566.071 297.794C566.724 297.794 567.311 297.654 567.831 297.374C568.364 297.08 568.777 296.667 569.071 296.134C569.377 295.6 569.531 294.987 569.531 294.294C569.531 293.6 569.377 292.994 569.071 292.474C568.777 291.94 568.364 291.534 567.831 291.254C567.311 290.96 566.724 290.814 566.071 290.814C565.257 290.814 564.537 291.027 563.911 291.454C563.297 291.88 562.857 292.467 562.591 293.214V295.374C562.817 296.107 563.251 296.694 563.891 297.134C564.531 297.574 565.257 297.794 566.071 297.794ZM576.706 299.394C575.546 299.394 574.612 299.1 573.906 298.514C573.212 297.914 572.866 297.107 572.866 296.094C572.866 295.027 573.199 294.207 573.866 293.634C574.546 293.047 575.506 292.754 576.746 292.754C578.066 292.754 579.186 293.02 580.106 293.554V293.054C580.106 292.294 579.872 291.734 579.406 291.374C578.952 291 578.232 290.814 577.246 290.814C576.659 290.814 576.086 290.874 575.526 290.994C574.979 291.1 574.486 291.254 574.046 291.454V289.814C574.446 289.627 574.966 289.48 575.606 289.374C576.246 289.254 576.866 289.194 577.466 289.194C579.052 289.194 580.226 289.547 580.986 290.254C581.759 290.947 582.146 291.914 582.146 293.154V299.094H580.246V298.014C579.832 298.467 579.339 298.814 578.766 299.054C578.206 299.28 577.519 299.394 576.706 299.394ZM577.206 297.854C577.846 297.854 578.426 297.727 578.946 297.474C579.466 297.22 579.852 296.867 580.106 296.414V295.114C579.239 294.554 578.272 294.274 577.206 294.274C576.432 294.274 575.852 294.427 575.466 294.734C575.092 295.027 574.906 295.48 574.906 296.094C574.906 297.267 575.672 297.854 577.206 297.854ZM589.673 303.694C589.019 303.694 588.379 303.64 587.753 303.534C587.139 303.427 586.619 303.274 586.193 303.074V301.414C587.193 301.867 588.353 302.094 589.673 302.094C590.913 302.094 591.813 301.82 592.373 301.274C592.946 300.74 593.233 299.927 593.233 298.834V297.814C592.353 298.867 591.059 299.394 589.353 299.394C588.379 299.394 587.506 299.18 586.733 298.754C585.959 298.327 585.353 297.727 584.913 296.954C584.473 296.18 584.253 295.294 584.253 294.294C584.253 293.28 584.466 292.394 584.893 291.634C585.333 290.86 585.933 290.26 586.693 289.834C587.466 289.407 588.333 289.194 589.293 289.194C590.186 289.194 590.939 289.327 591.553 289.594C592.179 289.847 592.759 290.274 593.293 290.874V289.494H595.253V298.614C595.253 300.254 594.793 301.507 593.873 302.374C592.966 303.254 591.566 303.694 589.673 303.694ZM589.753 297.794C590.579 297.794 591.306 297.574 591.933 297.134C592.573 296.694 593.006 296.107 593.233 295.374V293.214C592.979 292.467 592.539 291.88 591.913 291.454C591.299 291.027 590.579 290.814 589.753 290.814C589.099 290.814 588.506 290.96 587.973 291.254C587.453 291.534 587.039 291.94 586.733 292.474C586.439 293.007 586.293 293.614 586.293 294.294C586.293 294.987 586.439 295.6 586.733 296.134C587.039 296.654 587.453 297.06 587.973 297.354C588.506 297.647 589.099 297.794 589.753 297.794ZM603.136 299.394C601.362 299.394 599.969 298.954 598.956 298.074C597.956 297.18 597.456 295.927 597.456 294.314C597.456 292.74 597.902 291.494 598.796 290.574C599.702 289.654 600.989 289.194 602.656 289.194C603.762 289.194 604.702 289.407 605.476 289.834C606.249 290.247 606.829 290.827 607.216 291.574C607.616 292.307 607.816 293.147 607.816 294.094V295.094H599.376C599.442 296 599.822 296.68 600.516 297.134C601.222 297.574 602.176 297.794 603.376 297.794C603.989 297.794 604.609 297.74 605.236 297.634C605.862 297.514 606.416 297.36 606.896 297.174V298.794C606.469 298.967 605.902 299.107 605.196 299.214C604.502 299.334 603.816 299.394 603.136 299.394ZM605.916 293.674C605.889 292.767 605.589 292.067 605.016 291.574C604.456 291.067 603.656 290.814 602.616 290.814C601.602 290.814 600.816 291.074 600.256 291.594C599.696 292.114 599.402 292.807 599.376 293.674H605.916ZM611.244 298.034H613.364L611.464 302.054H609.624L611.244 298.034ZM622.973 284.314H624.993V299.094H622.973V284.314ZM632.662 299.394C631.582 299.394 630.628 299.194 629.802 298.794C628.988 298.38 628.348 297.794 627.882 297.034C627.428 296.26 627.202 295.354 627.202 294.314C627.202 293.287 627.428 292.387 627.882 291.614C628.335 290.84 628.975 290.247 629.802 289.834C630.628 289.407 631.582 289.194 632.662 289.194C633.742 289.194 634.695 289.407 635.522 289.834C636.348 290.247 636.988 290.84 637.442 291.614C637.908 292.387 638.142 293.287 638.142 294.314C638.142 295.354 637.908 296.26 637.442 297.034C636.988 297.794 636.348 298.38 635.522 298.794C634.695 299.194 633.742 299.394 632.662 299.394ZM632.662 297.794C633.702 297.794 634.528 297.474 635.142 296.834C635.755 296.194 636.062 295.354 636.062 294.314C636.062 293.234 635.755 292.38 635.142 291.754C634.528 291.127 633.702 290.814 632.662 290.814C631.622 290.814 630.795 291.127 630.182 291.754C629.568 292.38 629.262 293.234 629.262 294.314C629.262 295.354 629.568 296.194 630.182 296.834C630.795 297.474 631.622 297.794 632.662 297.794ZM641.243 287.614C640.896 287.614 640.61 287.5 640.383 287.274C640.156 287.047 640.043 286.767 640.043 286.434C640.043 286.1 640.156 285.82 640.383 285.594C640.623 285.367 640.91 285.254 641.243 285.254C641.576 285.254 641.856 285.367 642.083 285.594C642.323 285.82 642.443 286.1 642.443 286.434C642.443 286.767 642.323 287.047 642.083 287.274C641.856 287.5 641.576 287.614 641.243 287.614ZM638.863 303.714C638.263 303.714 637.756 303.64 637.343 303.494V301.834C637.69 301.994 638.09 302.074 638.543 302.074C639.143 302.074 639.57 301.927 639.823 301.634C640.09 301.354 640.223 300.894 640.223 300.254V289.494H642.263V300.394C642.263 301.5 641.956 302.327 641.343 302.874C640.73 303.434 639.903 303.714 638.863 303.714ZM648.483 299.394C647.323 299.394 646.39 299.1 645.683 298.514C644.99 297.914 644.643 297.107 644.643 296.094C644.643 295.027 644.976 294.207 645.643 293.634C646.323 293.047 647.283 292.754 648.523 292.754C649.843 292.754 650.963 293.02 651.883 293.554V293.054C651.883 292.294 651.65 291.734 651.183 291.374C650.73 291 650.01 290.814 649.023 290.814C648.436 290.814 647.863 290.874 647.303 290.994C646.756 291.1 646.263 291.254 645.823 291.454V289.814C646.223 289.627 646.743 289.48 647.383 289.374C648.023 289.254 648.643 289.194 649.243 289.194C650.83 289.194 652.003 289.547 652.763 290.254C653.536 290.947 653.923 291.914 653.923 293.154V299.094H652.023V298.014C651.61 298.467 651.116 298.814 650.543 299.054C649.983 299.28 649.296 299.394 648.483 299.394ZM648.983 297.854C649.623 297.854 650.203 297.727 650.723 297.474C651.243 297.22 651.63 296.867 651.883 296.414V295.114C651.016 294.554 650.05 294.274 648.983 294.274C648.21 294.274 647.63 294.427 647.243 294.734C646.87 295.027 646.683 295.48 646.683 296.094C646.683 297.267 647.45 297.854 648.983 297.854ZM663.432 289.494H665.572L668.392 296.394L671.212 289.494H673.352L669.272 299.094H667.512L663.432 289.494ZM676.731 287.614C676.398 287.614 676.118 287.5 675.891 287.274C675.664 287.047 675.551 286.767 675.551 286.434C675.551 286.1 675.664 285.82 675.891 285.594C676.118 285.367 676.398 285.254 676.731 285.254C677.078 285.254 677.364 285.367 677.591 285.594C677.831 285.82 677.951 286.1 677.951 286.434C677.951 286.767 677.831 287.047 677.591 287.274C677.364 287.5 677.078 287.614 676.731 287.614ZM675.711 289.494H677.771V299.094H675.711V289.494ZM680.551 289.494H682.511V291.214C682.911 290.627 683.471 290.194 684.191 289.914C684.924 289.634 685.771 289.494 686.731 289.494V291.074C685.704 291.074 684.824 291.24 684.091 291.574C683.358 291.907 682.851 292.434 682.571 293.154V299.094H680.551V289.494ZM692.239 299.394C691.266 299.394 690.513 299.114 689.979 298.554C689.459 297.994 689.199 297.2 689.199 296.174V291.054H687.739V289.494H689.199V286.614H691.239V289.494H693.599V291.054H691.239V296.034C691.239 296.674 691.359 297.127 691.599 297.394C691.853 297.66 692.306 297.794 692.959 297.794C693.346 297.794 693.733 297.707 694.119 297.534V299.134C693.613 299.307 692.986 299.394 692.239 299.394ZM699.742 299.394C698.449 299.394 697.469 299.047 696.802 298.354C696.149 297.66 695.822 296.734 695.822 295.574V289.494H697.842V295.494C697.842 297.027 698.609 297.794 700.142 297.794C701.489 297.794 702.542 297.187 703.302 295.974V289.494H705.322V299.094H703.362V297.734C702.909 298.307 702.369 298.727 701.742 298.994C701.129 299.26 700.462 299.394 699.742 299.394ZM711.061 299.394C709.901 299.394 708.968 299.1 708.261 298.514C707.568 297.914 707.221 297.107 707.221 296.094C707.221 295.027 707.555 294.207 708.221 293.634C708.901 293.047 709.861 292.754 711.101 292.754C712.421 292.754 713.541 293.02 714.461 293.554V293.054C714.461 292.294 714.228 291.734 713.761 291.374C713.308 291 712.588 290.814 711.601 290.814C711.015 290.814 710.441 290.874 709.881 290.994C709.335 291.1 708.841 291.254 708.401 291.454V289.814C708.801 289.627 709.321 289.48 709.961 289.374C710.601 289.254 711.221 289.194 711.821 289.194C713.408 289.194 714.581 289.547 715.341 290.254C716.115 290.947 716.501 291.914 716.501 293.154V299.094H714.601V298.014C714.188 298.467 713.695 298.814 713.121 299.054C712.561 299.28 711.875 299.394 711.061 299.394ZM711.561 297.854C712.201 297.854 712.781 297.727 713.301 297.474C713.821 297.22 714.208 296.867 714.461 296.414V295.114C713.595 294.554 712.628 294.274 711.561 294.274C710.788 294.274 710.208 294.427 709.821 294.734C709.448 295.027 709.261 295.48 709.261 296.094C709.261 297.267 710.028 297.854 711.561 297.854ZM719.008 284.314H721.028V299.094H719.008V284.314ZM736.319 299.394C734.546 299.394 733.153 298.954 732.139 298.074C731.139 297.18 730.639 295.927 730.639 294.314C730.639 292.74 731.086 291.494 731.979 290.574C732.886 289.654 734.173 289.194 735.839 289.194C736.946 289.194 737.886 289.407 738.659 289.834C739.433 290.247 740.013 290.827 740.399 291.574C740.799 292.307 740.999 293.147 740.999 294.094V295.094H732.559C732.626 296 733.006 296.68 733.699 297.134C734.406 297.574 735.359 297.794 736.559 297.794C737.173 297.794 737.793 297.74 738.419 297.634C739.046 297.514 739.599 297.36 740.079 297.174V298.794C739.653 298.967 739.086 299.107 738.379 299.214C737.686 299.334 736.999 299.394 736.319 299.394ZM739.099 293.674C739.073 292.767 738.773 292.067 738.199 291.574C737.639 291.067 736.839 290.814 735.799 290.814C734.786 290.814 733.999 291.074 733.439 291.594C732.879 292.114 732.586 292.807 732.559 293.674H739.099ZM743.207 289.494H745.167V290.874C745.621 290.3 746.174 289.88 746.827 289.614C747.494 289.334 748.187 289.194 748.907 289.194C750.187 289.194 751.141 289.534 751.767 290.214C752.394 290.894 752.707 291.807 752.707 292.954V299.094H750.687V293.154C750.687 291.594 749.941 290.814 748.447 290.814C747.807 290.814 747.207 290.967 746.647 291.274C746.101 291.567 745.627 292.02 745.227 292.634V299.094H743.207V289.494ZM758.899 299.394C757.926 299.394 757.173 299.114 756.639 298.554C756.119 297.994 755.859 297.2 755.859 296.174V291.054H754.399V289.494H755.859V286.614H757.899V289.494H760.259V291.054H757.899V296.034C757.899 296.674 758.019 297.127 758.259 297.394C758.513 297.66 758.966 297.794 759.619 297.794C760.006 297.794 760.393 297.707 760.779 297.534V299.134C760.273 299.307 759.646 299.394 758.899 299.394ZM762.68 289.494H764.64V291.214C765.04 290.627 765.6 290.194 766.32 289.914C767.053 289.634 767.9 289.494 768.86 289.494V291.074C767.833 291.074 766.953 291.24 766.22 291.574C765.487 291.907 764.98 292.434 764.7 293.154V299.094H762.68V289.494ZM775.343 299.394C773.569 299.394 772.176 298.954 771.163 298.074C770.163 297.18 769.663 295.927 769.663 294.314C769.663 292.74 770.109 291.494 771.003 290.574C771.909 289.654 773.196 289.194 774.863 289.194C775.969 289.194 776.909 289.407 777.683 289.834C778.456 290.247 779.036 290.827 779.423 291.574C779.823 292.307 780.023 293.147 780.023 294.094V295.094H771.583C771.649 296 772.029 296.68 772.723 297.134C773.429 297.574 774.383 297.794 775.583 297.794C776.196 297.794 776.816 297.74 777.443 297.634C778.069 297.514 778.623 297.36 779.103 297.174V298.794C778.676 298.967 778.109 299.107 777.403 299.214C776.709 299.334 776.023 299.394 775.343 299.394ZM778.123 293.674C778.096 292.767 777.796 292.067 777.223 291.574C776.663 291.067 775.863 290.814 774.823 290.814C773.809 290.814 773.023 291.074 772.463 291.594C771.903 292.114 771.609 292.807 771.583 293.674H778.123ZM438.013 329.394C436.933 329.394 435.98 329.194 435.153 328.794C434.34 328.38 433.7 327.794 433.233 327.034C432.78 326.26 432.553 325.354 432.553 324.314C432.553 323.287 432.78 322.387 433.233 321.614C433.687 320.84 434.327 320.247 435.153 319.834C435.98 319.407 436.933 319.194 438.013 319.194C439.093 319.194 440.047 319.407 440.873 319.834C441.7 320.247 442.34 320.84 442.793 321.614C443.26 322.387 443.493 323.287 443.493 324.314C443.493 325.354 443.26 326.26 442.793 327.034C442.34 327.794 441.7 328.38 440.873 328.794C440.047 329.194 439.093 329.394 438.013 329.394ZM438.013 327.794C439.053 327.794 439.88 327.474 440.493 326.834C441.107 326.194 441.413 325.354 441.413 324.314C441.413 323.234 441.107 322.38 440.493 321.754C439.88 321.127 439.053 320.814 438.013 320.814C436.973 320.814 436.147 321.127 435.533 321.754C434.92 322.38 434.613 323.234 434.613 324.314C434.613 325.354 434.92 326.194 435.533 326.834C436.147 327.474 436.973 327.794 438.013 327.794ZM449.508 329.394C448.214 329.394 447.234 329.047 446.568 328.354C445.914 327.66 445.588 326.734 445.588 325.574V319.494H447.608V325.494C447.608 327.027 448.374 327.794 449.908 327.794C451.254 327.794 452.308 327.187 453.068 325.974V319.494H455.088V329.094H453.128V327.734C452.674 328.307 452.134 328.727 451.508 328.994C450.894 329.26 450.228 329.394 449.508 329.394ZM461.38 329.394C460.407 329.394 459.653 329.114 459.12 328.554C458.6 327.994 458.34 327.2 458.34 326.174V321.054H456.88V319.494H458.34V316.614H460.38V319.494H462.74V321.054H460.38V326.034C460.38 326.674 460.5 327.127 460.74 327.394C460.993 327.66 461.447 327.794 462.1 327.794C462.487 327.794 462.873 327.707 463.26 327.534V329.134C462.753 329.307 462.127 329.394 461.38 329.394ZM465.16 319.494H467.12V321.214C467.52 320.627 468.08 320.194 468.8 319.914C469.534 319.634 470.38 319.494 471.34 319.494V321.074C470.314 321.074 469.434 321.24 468.7 321.574C467.967 321.907 467.46 322.434 467.18 323.154V329.094H465.16V319.494ZM475.69 329.394C474.53 329.394 473.597 329.1 472.89 328.514C472.197 327.914 471.85 327.107 471.85 326.094C471.85 325.027 472.184 324.207 472.85 323.634C473.53 323.047 474.49 322.754 475.73 322.754C477.05 322.754 478.17 323.02 479.09 323.554V323.054C479.09 322.294 478.857 321.734 478.39 321.374C477.937 321 477.217 320.814 476.23 320.814C475.644 320.814 475.07 320.874 474.51 320.994C473.964 321.1 473.47 321.254 473.03 321.454V319.814C473.43 319.627 473.95 319.48 474.59 319.374C475.23 319.254 475.85 319.194 476.45 319.194C478.037 319.194 479.21 319.547 479.97 320.254C480.744 320.947 481.13 321.914 481.13 323.154V329.094H479.23V328.014C478.817 328.467 478.324 328.814 477.75 329.054C477.19 329.28 476.504 329.394 475.69 329.394ZM476.19 327.854C476.83 327.854 477.41 327.727 477.93 327.474C478.45 327.22 478.837 326.867 479.09 326.414V325.114C478.224 324.554 477.257 324.274 476.19 324.274C475.417 324.274 474.837 324.427 474.45 324.734C474.077 325.027 473.89 325.48 473.89 326.094C473.89 327.267 474.657 327.854 476.19 327.854ZM486.884 329.394C486.217 329.394 485.511 329.307 484.764 329.134C484.017 328.974 483.431 328.754 483.004 328.474V326.754C483.524 327.06 484.124 327.314 484.804 327.514C485.484 327.7 486.144 327.794 486.784 327.794C487.504 327.794 488.031 327.707 488.364 327.534C488.697 327.36 488.864 327.08 488.864 326.694C488.864 326.4 488.784 326.167 488.624 325.994C488.477 325.807 488.217 325.64 487.844 325.494C487.484 325.347 486.937 325.174 486.204 324.974C485.417 324.747 484.791 324.52 484.324 324.294C483.871 324.054 483.524 323.754 483.284 323.394C483.057 323.034 482.944 322.567 482.944 321.994C482.944 321.074 483.304 320.38 484.024 319.914C484.757 319.434 485.737 319.194 486.964 319.194C487.604 319.194 488.231 319.254 488.844 319.374C489.457 319.494 489.951 319.66 490.324 319.874V321.554C489.937 321.327 489.457 321.147 488.884 321.014C488.324 320.88 487.751 320.814 487.164 320.814C486.457 320.814 485.917 320.9 485.544 321.074C485.171 321.247 484.984 321.554 484.984 321.994C484.984 322.274 485.064 322.5 485.224 322.674C485.384 322.847 485.637 323 485.984 323.134C486.344 323.254 486.911 323.414 487.684 323.614C488.897 323.947 489.737 324.34 490.204 324.794C490.684 325.247 490.924 325.874 490.924 326.674C490.924 327.5 490.584 328.16 489.904 328.654C489.224 329.147 488.217 329.394 486.884 329.394ZM500.531 319.494H502.491V320.914C503.478 319.767 504.811 319.194 506.491 319.194C507.451 319.194 508.311 319.407 509.071 319.834C509.845 320.26 510.445 320.86 510.871 321.634C511.311 322.394 511.531 323.28 511.531 324.294C511.531 325.294 511.311 326.18 510.871 326.954C510.445 327.727 509.851 328.327 509.091 328.754C508.331 329.18 507.465 329.394 506.491 329.394C505.691 329.394 504.945 329.26 504.251 328.994C503.558 328.727 502.991 328.334 502.551 327.814V333.474H500.531V319.494ZM506.031 327.794C506.685 327.794 507.271 327.654 507.791 327.374C508.325 327.08 508.738 326.667 509.031 326.134C509.338 325.6 509.491 324.987 509.491 324.294C509.491 323.6 509.338 322.994 509.031 322.474C508.738 321.94 508.325 321.534 507.791 321.254C507.271 320.96 506.685 320.814 506.031 320.814C505.218 320.814 504.498 321.027 503.871 321.454C503.258 321.88 502.818 322.467 502.551 323.214V325.374C502.778 326.107 503.211 326.694 503.851 327.134C504.491 327.574 505.218 327.794 506.031 327.794ZM513.735 314.314H515.755V329.094H513.735V314.314ZM521.803 329.394C520.643 329.394 519.71 329.1 519.003 328.514C518.31 327.914 517.963 327.107 517.963 326.094C517.963 325.027 518.297 324.207 518.963 323.634C519.643 323.047 520.603 322.754 521.843 322.754C523.163 322.754 524.283 323.02 525.203 323.554V323.054C525.203 322.294 524.97 321.734 524.503 321.374C524.05 321 523.33 320.814 522.343 320.814C521.757 320.814 521.183 320.874 520.623 320.994C520.077 321.1 519.583 321.254 519.143 321.454V319.814C519.543 319.627 520.063 319.48 520.703 319.374C521.343 319.254 521.963 319.194 522.563 319.194C524.15 319.194 525.323 319.547 526.083 320.254C526.857 320.947 527.243 321.914 527.243 323.154V329.094H525.343V328.014C524.93 328.467 524.437 328.814 523.863 329.054C523.303 329.28 522.617 329.394 521.803 329.394ZM522.303 327.854C522.943 327.854 523.523 327.727 524.043 327.474C524.563 327.22 524.95 326.867 525.203 326.414V325.114C524.337 324.554 523.37 324.274 522.303 324.274C521.53 324.274 520.95 324.427 520.563 324.734C520.19 325.027 520.003 325.48 520.003 326.094C520.003 327.267 520.77 327.854 522.303 327.854ZM532.942 329.394C531.969 329.394 531.216 329.114 530.682 328.554C530.162 327.994 529.902 327.2 529.902 326.174V321.054H528.442V319.494H529.902V316.614H531.942V319.494H534.302V321.054H531.942V326.034C531.942 326.674 532.062 327.127 532.302 327.394C532.556 327.66 533.009 327.794 533.662 327.794C534.049 327.794 534.436 327.707 534.822 327.534V329.134C534.316 329.307 533.689 329.394 532.942 329.394ZM539.87 329.394C538.71 329.394 537.777 329.1 537.07 328.514C536.377 327.914 536.03 327.107 536.03 326.094C536.03 325.027 536.363 324.207 537.03 323.634C537.71 323.047 538.67 322.754 539.91 322.754C541.23 322.754 542.35 323.02 543.27 323.554V323.054C543.27 322.294 543.037 321.734 542.57 321.374C542.117 321 541.397 320.814 540.41 320.814C539.823 320.814 539.25 320.874 538.69 320.994C538.143 321.1 537.65 321.254 537.21 321.454V319.814C537.61 319.627 538.13 319.48 538.77 319.374C539.41 319.254 540.03 319.194 540.63 319.194C542.217 319.194 543.39 319.547 544.15 320.254C544.923 320.947 545.31 321.914 545.31 323.154V329.094H543.41V328.014C542.997 328.467 542.503 328.814 541.93 329.054C541.37 329.28 540.683 329.394 539.87 329.394ZM540.37 327.854C541.01 327.854 541.59 327.727 542.11 327.474C542.63 327.22 543.017 326.867 543.27 326.414V325.114C542.403 324.554 541.437 324.274 540.37 324.274C539.597 324.274 539.017 324.427 538.63 324.734C538.257 325.027 538.07 325.48 538.07 326.094C538.07 327.267 538.837 327.854 540.37 327.854ZM548.477 321.054H547.017V319.494H548.477V317.614C548.477 316.507 548.79 315.667 549.417 315.094C550.043 314.507 550.883 314.214 551.937 314.214C552.483 314.214 552.997 314.294 553.477 314.454V316.134C553.103 315.96 552.717 315.874 552.317 315.874C551.69 315.874 551.23 316.027 550.937 316.334C550.643 316.627 550.497 317.094 550.497 317.734V319.494H552.897V321.054H550.497V329.094H548.477V321.054ZM559.224 329.394C558.144 329.394 557.191 329.194 556.364 328.794C555.551 328.38 554.911 327.794 554.444 327.034C553.991 326.26 553.764 325.354 553.764 324.314C553.764 323.287 553.991 322.387 554.444 321.614C554.898 320.84 555.538 320.247 556.364 319.834C557.191 319.407 558.144 319.194 559.224 319.194C560.304 319.194 561.258 319.407 562.084 319.834C562.911 320.247 563.551 320.84 564.004 321.614C564.471 322.387 564.704 323.287 564.704 324.314C564.704 325.354 564.471 326.26 564.004 327.034C563.551 327.794 562.911 328.38 562.084 328.794C561.258 329.194 560.304 329.394 559.224 329.394ZM559.224 327.794C560.264 327.794 561.091 327.474 561.704 326.834C562.318 326.194 562.624 325.354 562.624 324.314C562.624 323.234 562.318 322.38 561.704 321.754C561.091 321.127 560.264 320.814 559.224 320.814C558.184 320.814 557.358 321.127 556.744 321.754C556.131 322.38 555.824 323.234 555.824 324.314C555.824 325.354 556.131 326.194 556.744 326.834C557.358 327.474 558.184 327.794 559.224 327.794ZM566.899 319.494H568.859V321.214C569.259 320.627 569.819 320.194 570.539 319.914C571.272 319.634 572.119 319.494 573.079 319.494V321.074C572.052 321.074 571.172 321.24 570.439 321.574C569.705 321.907 569.199 322.434 568.919 323.154V329.094H566.899V319.494ZM574.887 319.494H576.807V320.874C577.26 320.314 577.774 319.894 578.347 319.614C578.92 319.334 579.514 319.194 580.127 319.194C580.9 319.194 581.514 319.327 581.967 319.594C582.42 319.847 582.754 320.24 582.967 320.774C583.394 320.254 583.914 319.86 584.527 319.594C585.154 319.327 585.78 319.194 586.407 319.194C587.58 319.194 588.427 319.494 588.947 320.094C589.467 320.68 589.727 321.554 589.727 322.714V329.094H587.767V322.974C587.767 322.187 587.62 321.634 587.327 321.314C587.034 320.98 586.534 320.814 585.827 320.814C584.814 320.814 583.987 321.254 583.347 322.134C583.374 322.334 583.387 322.66 583.387 323.114V329.094H581.427V322.974C581.427 322.187 581.294 321.634 581.027 321.314C580.76 320.98 580.28 320.814 579.587 320.814C578.574 320.814 577.667 321.387 576.867 322.534V329.094H574.887V319.494ZM595.378 329.394C594.218 329.394 593.284 329.1 592.578 328.514C591.884 327.914 591.538 327.107 591.538 326.094C591.538 325.027 591.871 324.207 592.538 323.634C593.218 323.047 594.178 322.754 595.418 322.754C596.738 322.754 597.858 323.02 598.778 323.554V323.054C598.778 322.294 598.544 321.734 598.078 321.374C597.624 321 596.904 320.814 595.918 320.814C595.331 320.814 594.758 320.874 594.198 320.994C593.651 321.1 593.158 321.254 592.718 321.454V319.814C593.118 319.627 593.638 319.48 594.278 319.374C594.918 319.254 595.538 319.194 596.138 319.194C597.724 319.194 598.898 319.547 599.658 320.254C600.431 320.947 600.818 321.914 600.818 323.154V329.094H598.918V328.014C598.504 328.467 598.011 328.814 597.438 329.054C596.878 329.28 596.191 329.394 595.378 329.394ZM595.878 327.854C596.518 327.854 597.098 327.727 597.618 327.474C598.138 327.22 598.524 326.867 598.778 326.414V325.114C597.911 324.554 596.944 324.274 595.878 324.274C595.104 324.274 594.524 324.427 594.138 324.734C593.764 325.027 593.578 325.48 593.578 326.094C593.578 327.267 594.344 327.854 595.878 327.854ZM606.571 329.394C605.905 329.394 605.198 329.307 604.451 329.134C603.705 328.974 603.118 328.754 602.691 328.474V326.754C603.211 327.06 603.811 327.314 604.491 327.514C605.171 327.7 605.831 327.794 606.471 327.794C607.191 327.794 607.718 327.707 608.051 327.534C608.385 327.36 608.551 327.08 608.551 326.694C608.551 326.4 608.471 326.167 608.311 325.994C608.165 325.807 607.905 325.64 607.531 325.494C607.171 325.347 606.625 325.174 605.891 324.974C605.105 324.747 604.478 324.52 604.011 324.294C603.558 324.054 603.211 323.754 602.971 323.394C602.745 323.034 602.631 322.567 602.631 321.994C602.631 321.074 602.991 320.38 603.711 319.914C604.445 319.434 605.425 319.194 606.651 319.194C607.291 319.194 607.918 319.254 608.531 319.374C609.145 319.494 609.638 319.66 610.011 319.874V321.554C609.625 321.327 609.145 321.147 608.571 321.014C608.011 320.88 607.438 320.814 606.851 320.814C606.145 320.814 605.605 320.9 605.231 321.074C604.858 321.247 604.671 321.554 604.671 321.994C604.671 322.274 604.751 322.5 604.911 322.674C605.071 322.847 605.325 323 605.671 323.134C606.031 323.254 606.598 323.414 607.371 323.614C608.585 323.947 609.425 324.34 609.891 324.794C610.371 325.247 610.611 325.874 610.611 326.674C610.611 327.5 610.271 328.16 609.591 328.654C608.911 329.147 607.905 329.394 606.571 329.394ZM613.357 329.094C613.09 329.094 612.863 329.007 612.677 328.834C612.503 328.647 612.417 328.42 612.417 328.154C612.417 327.887 612.503 327.66 612.677 327.474C612.863 327.287 613.09 327.194 613.357 327.194C613.623 327.194 613.85 327.287 614.037 327.474C614.223 327.66 614.317 327.887 614.317 328.154C614.317 328.42 614.223 328.647 614.037 328.834C613.85 329.007 613.623 329.094 613.357 329.094Z" fill="white"/>
<path d="M310.222 248.133H354.126C362.574 248.133 369.187 250.223 373.966 254.405C378.744 258.586 381.134 264.645 381.134 272.581C381.134 276.591 380.195 280.261 378.318 283.589C376.44 286.831 373.88 289.349 370.638 291.141C375.075 292.762 378.403 295.237 380.622 298.565C382.84 301.807 383.95 306.074 383.95 311.365C383.95 316.741 382.712 321.434 380.238 325.445C377.848 329.37 374.52 332.399 370.254 334.533C366.072 336.581 361.422 337.605 356.302 337.605H310.222V248.133ZM350.414 284.485C353.827 284.485 356.515 283.631 358.478 281.925C360.44 280.218 361.422 277.487 361.422 273.733C361.422 269.637 360.44 266.821 358.478 265.285C356.6 263.749 353.699 262.981 349.774 262.981H329.678V284.485H350.414ZM351.566 322.757C355.747 322.757 358.904 321.946 361.038 320.325C363.256 318.618 364.366 315.674 364.366 311.493C364.366 307.226 363.214 304.154 360.91 302.277C358.691 300.399 355.363 299.461 350.926 299.461H329.678V322.757H351.566Z" fill="white"/>
<path d="M400.472 345.596C397.827 345.596 395.587 344.679 393.752 342.844C391.917 341.01 391 338.77 391 336.124C391 333.522 391.917 331.303 393.752 329.468C395.587 327.591 397.827 326.652 400.472 326.652C403.075 326.652 405.293 327.591 407.128 329.468C409.005 331.303 409.944 333.522 409.944 336.124C409.944 338.77 409.005 341.01 407.128 342.844C405.293 344.679 403.075 345.596 400.472 345.596Z" fill="#3BA1F0"/>
<path d="M36.1437 59.3555H55.2157L90.9277 148.827H71.0877L63.4077 129.371H27.9517L20.2717 148.827H0.303711L36.1437 59.3555ZM58.2877 113.883L45.6157 79.8355L32.9437 113.883H58.2877Z" fill="white"/>
<path d="M113.343 158.299C110.698 158.299 108.458 157.382 106.623 155.547C104.788 153.713 103.871 151.473 103.871 148.827C103.871 146.225 104.788 144.006 106.623 142.171C108.458 140.294 110.698 139.355 113.343 139.355C115.946 139.355 118.164 140.294 119.999 142.171C121.876 144.006 122.815 146.225 122.815 148.827C122.815 151.473 121.876 153.713 119.999 155.547C118.164 157.382 115.946 158.299 113.343 158.299Z" fill="#7260DF"/>
<path opacity="0.4" d="M137.322 153.463C170.2 153.817 204.022 191.543 222.981 232.27C246.681 283.179 232.402 303.325 273.235 338.487C304.477 365.39 360.24 360.649 377.168 353.335" stroke="white" stroke-width="2" stroke-dasharray="4 4"/>
</svg>
