<svg width="100%" height="100%" viewBox="0 0 52 38" fill="none" xmlns="http://www.w3.org/2000/svg">
<rect x="1.96716" y="1.97119" width="48.9668" height="34.8789" stroke="white" stroke-width="2"/>
<path fill-rule="evenodd" clip-rule="evenodd" d="M33.0869 9.25576V7.43408L31.55 8.41209L24.8122 12.6998V12.0165H23.8122H14.7852H13.7852V13.0165V26.557V27.557H14.7852H23.8122H24.8122V26.557V25.8168L31.5236 30.3928L33.0869 31.4587V29.5666V9.25576ZM22.8121 14.0165V14.5215V23.9247V24.4532L22.8122 24.4532V25.557H15.7852V14.0165H22.8121ZM24.8122 23.3962L31.0869 27.6744V11.0774L24.8122 15.0704V23.3962Z" fill="white"/>
<path d="M37.4251 22.636L40.0579 23.7077" stroke="white" stroke-width="2" stroke-linecap="square"/>
<path d="M38.1774 19.4089L41.019 19.4829" stroke="white" stroke-width="2" stroke-linecap="square"/>
<path d="M37.425 16.1346L39.7154 14.451" stroke="white" stroke-width="2" stroke-linecap="square"/>
</svg>
