<svg width="100%" height="100%" viewBox="0 0 41 41" fill="none" xmlns="http://www.w3.org/2000/svg">
<path fill-rule="evenodd" clip-rule="evenodd" d="M2.79522 0C2.01654 0 1.28502 0.265192 0.771525 0.786476C0.258038 1.30743 0 2.03993 0 2.7962V24.2337C0 24.99 0.25837 25.7134 0.771525 26.2288C1.28469 26.7443 2.01367 27.012 2.78058 27.0299H4.65869V33.5544C4.66129 33.9149 4.89365 34.2636 5.22547 34.405C5.55729 34.5463 5.96937 34.4722 6.23133 34.2243L13.8751 27.0299H32.6137C33.3924 27.0299 34.1239 26.7501 34.6374 26.2288C35.1509 25.7075 35.4089 24.9896 35.4089 24.2337V2.79621C35.4089 2.04028 35.1652 1.30772 34.6517 0.786484C34.1382 0.265251 33.392 8.25172e-06 32.6134 8.25172e-06H2.79533L2.79522 0ZM2.79522 1.86413H32.6133C32.9958 1.86413 33.184 1.96715 33.312 2.09715C33.44 2.22714 33.545 2.42864 33.545 2.7962V24.2337C33.545 24.6013 33.44 24.8028 33.312 24.9328C33.1839 25.0628 32.9958 25.1658 32.6133 25.1658H13.5111C13.2768 25.1658 13.0428 25.2542 12.8705 25.4135L6.5228 31.3842V26.0976C6.5228 25.6095 6.07886 25.1655 5.59107 25.1655H2.79546C2.41522 25.1529 2.2082 25.0446 2.0821 24.9179C1.95373 24.7892 1.86371 24.601 1.86371 24.2338V2.79623C1.86371 2.42866 1.96868 2.22718 2.09673 2.09718C2.22478 1.96718 2.41295 1.86416 2.79546 1.86416L2.79522 1.86413ZM39.9654 6.97587C39.5127 7.0256 39.1331 7.45199 39.1357 7.90794V29.8264C39.1357 30.1949 39.0447 30.3688 38.9173 30.4962C38.79 30.6236 38.5797 30.7435 38.1747 30.7584H34.9423C34.4545 30.7584 34.0106 31.2024 34.0106 31.6905V36.9771L27.6625 31.006C27.4903 30.8468 27.2563 30.7564 27.022 30.7584H14.9084C14.416 30.7512 13.9634 31.1981 13.9634 31.6904C13.9634 32.1828 14.4161 32.6293 14.9084 32.6225H26.6584L34.3022 39.8169C34.5641 40.0648 34.9762 40.1386 35.3081 39.9976C35.6399 39.8562 35.8719 39.5078 35.8748 39.147V32.6225H38.2044H38.2336C38.9961 32.5945 39.7155 32.3349 40.2285 31.8214C40.741 31.3082 41.0003 30.5803 41 29.8263V7.9079C41.0029 7.38401 40.4868 6.91859 39.9662 6.97583L39.9654 6.97587ZM23.1084 10.1922C23.4302 10.5968 23.3629 11.1856 22.9583 11.5073L18.26 15.2429L19.9505 16.8726L27.6148 10.8037C28.0201 10.4828 28.6087 10.5512 28.9296 10.9565C29.2505 11.3617 29.1821 11.9504 28.7769 12.2713L20.471 18.8482C20.1036 19.1391 19.5777 19.1135 19.2404 18.7882L16.7819 16.4181L13.8408 18.7566C13.6465 18.9111 13.3988 18.9821 13.1521 18.9539C12.9055 18.9258 12.6802 18.8008 12.5257 18.6065L9.23052 14.4622C8.90881 14.0576 8.97602 13.4688 9.38064 13.1471C9.78525 12.8253 10.3741 12.8926 10.6958 13.2972L13.4084 16.7089L21.7933 10.0421C22.1979 9.72036 22.7867 9.78757 23.1084 10.1922Z" fill="url(#paint0_linear_554_290)"/>
<defs>
<linearGradient id="paint0_linear_554_290" x1="-0.537014" y1="22.1493" x2="37.5746" y2="22.1493" gradientUnits="userSpaceOnUse">
<stop stop-color="#3BA1F0"/>
<stop offset="1" stop-color="#7260DF"/>
</linearGradient>
</defs>
</svg>
