<svg width="100%" height="100%" viewBox="0 0 1507 827" fill="none" xmlns="http://www.w3.org/2000/svg">
<path class="backgroundArrow" fill-rule="evenodd" clip-rule="evenodd" d="M557.14 531.644C558.179 532.682 559.862 532.682 560.901 531.644C561.939 530.605 561.939 528.922 560.901 527.883L536.673 503.656C535.635 502.617 533.951 502.617 532.913 503.656L508.685 527.883C507.647 528.922 507.647 530.605 508.685 531.644C509.724 532.682 511.407 532.682 512.446 531.644L534.793 509.297L557.14 531.644ZM557.14 561.781C558.179 562.819 559.862 562.819 560.901 561.781C561.939 560.742 561.939 559.059 560.901 558.02L536.673 533.793C535.635 532.754 533.951 532.754 532.913 533.793L508.685 558.02C507.647 559.059 507.647 560.742 508.685 561.781C509.724 562.819 511.407 562.819 512.446 561.781L534.793 539.433L557.14 561.781ZM560.901 591.917C559.862 592.956 558.179 592.956 557.14 591.917L534.793 569.57L512.446 591.917C511.407 592.956 509.724 592.956 508.685 591.917C507.647 590.879 507.647 589.195 508.685 588.157L532.913 563.929C533.951 562.891 535.635 562.891 536.673 563.929L560.901 588.157C561.939 589.195 561.939 590.879 560.901 591.917ZM557.14 622.054C558.179 623.093 559.862 623.093 560.901 622.054C561.939 621.016 561.939 619.332 560.901 618.294L536.673 594.066C535.635 593.027 533.951 593.027 532.913 594.066L508.685 618.294C507.647 619.332 507.647 621.016 508.685 622.054C509.724 623.093 511.407 623.093 512.446 622.054L534.793 599.707L557.14 622.054Z" fill="url(#paint0_linear_1974_164)"/>
<path class="backgroundArrow" fill-rule="evenodd" clip-rule="evenodd" d="M978.969 529.689C980.667 531.388 983.422 531.388 985.121 529.689C986.82 527.991 986.82 525.236 985.121 523.537L945.485 483.901C943.786 482.202 941.031 482.202 939.333 483.901L899.697 523.537C897.998 525.236 897.998 527.991 899.697 529.689C901.395 531.388 904.15 531.388 905.849 529.689L942.409 493.129L978.969 529.689ZM978.969 578.992C980.667 580.691 983.422 580.691 985.121 578.992C986.82 577.293 986.82 574.539 985.121 572.84L945.485 533.204C943.786 531.505 941.031 531.505 939.333 533.204L899.697 572.84C897.998 574.539 897.998 577.293 899.697 578.992C901.395 580.691 904.15 580.691 905.849 578.992L942.409 542.432L978.969 578.992ZM985.121 628.295C983.422 629.994 980.667 629.994 978.969 628.295L942.409 591.735L905.849 628.295C904.15 629.994 901.395 629.994 899.697 628.295C897.998 626.596 897.998 623.842 899.697 622.143L939.333 582.507C941.031 580.808 943.786 580.808 945.485 582.507L985.121 622.143C986.82 623.842 986.82 626.596 985.121 628.295ZM978.969 677.6C980.667 679.298 983.422 679.298 985.121 677.6C986.82 675.901 986.82 673.146 985.121 671.447L945.485 631.811C943.786 630.112 941.031 630.112 939.333 631.811L899.697 671.447C897.998 673.146 897.998 675.901 899.697 677.6C901.395 679.298 904.15 679.298 905.849 677.6L942.409 641.04L978.969 677.6Z" fill="url(#paint1_linear_1974_164)"/>
<path class="backgroundArrow" fill-rule="evenodd" clip-rule="evenodd" d="M196.619 613.689C198.317 615.388 201.072 615.388 202.771 613.689C204.47 611.991 204.47 609.236 202.771 607.537L163.135 567.901C161.436 566.202 158.681 566.202 156.982 567.901L117.346 607.537C115.648 609.236 115.648 611.991 117.346 613.689C119.045 615.388 121.8 615.388 123.499 613.689L160.059 577.129L196.619 613.689ZM196.619 662.992C198.317 664.691 201.072 664.691 202.771 662.992C204.47 661.293 204.47 658.539 202.771 656.84L163.135 617.204C161.436 615.505 158.681 615.505 156.982 617.204L117.346 656.84C115.648 658.539 115.648 661.293 117.346 662.992C119.045 664.691 121.8 664.691 123.499 662.992L160.059 626.432L196.619 662.992ZM202.771 712.295C201.072 713.994 198.317 713.994 196.619 712.295L160.059 675.735L123.499 712.295C121.8 713.994 119.045 713.994 117.346 712.295C115.648 710.596 115.648 707.842 117.346 706.143L156.982 666.507C158.681 664.808 161.436 664.808 163.135 666.507L202.771 706.143C204.47 707.842 204.47 710.596 202.771 712.295ZM196.619 761.6C198.317 763.298 201.072 763.298 202.771 761.6C204.47 759.901 204.47 757.146 202.771 755.447L163.135 715.811C161.436 714.112 158.681 714.112 156.982 715.811L117.346 755.447C115.648 757.146 115.648 759.901 117.346 761.6C119.045 763.298 121.8 763.298 123.499 761.6L160.059 725.04L196.619 761.6Z" fill="url(#paint2_linear_1974_164)"/>
<path class="backgroundArrow" fill-rule="evenodd" clip-rule="evenodd" d="M264.982 162.514C266.681 164.213 269.436 164.213 271.135 162.514C272.833 160.815 272.833 158.06 271.135 156.361L231.498 116.725C229.8 115.026 227.045 115.026 225.346 116.725L185.71 156.361C184.011 158.06 184.011 160.815 185.71 162.514C187.409 164.213 190.164 164.213 191.862 162.514L228.422 125.954L264.982 162.514ZM264.982 211.816C266.681 213.515 269.436 213.515 271.135 211.816C272.833 210.117 272.833 207.363 271.135 205.664L231.498 166.028C229.8 164.329 227.045 164.329 225.346 166.028L185.71 205.664C184.011 207.363 184.011 210.117 185.71 211.816C187.409 213.515 190.164 213.515 191.862 211.816L228.422 175.256L264.982 211.816ZM271.135 261.119C269.436 262.818 266.681 262.818 264.982 261.119L228.422 224.559L191.862 261.119C190.164 262.818 187.409 262.818 185.71 261.119C184.011 259.42 184.011 256.666 185.71 254.967L225.346 215.331C227.045 213.632 229.8 213.632 231.498 215.331L271.135 254.967C272.833 256.666 272.833 259.42 271.135 261.119ZM264.982 310.424C266.681 312.123 269.436 312.123 271.135 310.424C272.833 308.725 272.833 305.97 271.135 304.272L231.498 264.635C229.8 262.937 227.045 262.937 225.346 264.635L185.71 304.272C184.011 305.97 184.011 308.725 185.71 310.424C187.409 312.123 190.164 312.123 191.862 310.424L228.422 273.864L264.982 310.424Z" fill="url(#paint3_linear_1974_164)"/>
<path class="backgroundArrow" fill-rule="evenodd" clip-rule="evenodd" d="M1440.88 621.417C1441.92 622.456 1443.61 622.456 1444.64 621.417C1445.68 620.379 1445.68 618.695 1444.64 617.657L1420.42 593.429C1419.38 592.391 1417.69 592.391 1416.66 593.429L1392.43 617.657C1391.39 618.695 1391.39 620.379 1392.43 621.417C1393.47 622.456 1395.15 622.456 1396.19 621.417L1418.54 599.07L1440.88 621.417ZM1440.88 651.554C1441.92 652.593 1443.61 652.593 1444.64 651.554C1445.68 650.516 1445.68 648.832 1444.64 647.794L1420.42 623.566C1419.38 622.527 1417.69 622.527 1416.66 623.566L1392.43 647.794C1391.39 648.832 1391.39 650.516 1392.43 651.554C1393.47 652.593 1395.15 652.593 1396.19 651.554L1418.54 629.207L1440.88 651.554ZM1444.64 681.691C1443.61 682.729 1441.92 682.729 1440.88 681.691L1418.54 659.344L1396.19 681.691C1395.15 682.729 1393.47 682.729 1392.43 681.691C1391.39 680.652 1391.39 678.969 1392.43 677.93L1416.66 653.703C1417.69 652.664 1419.38 652.664 1420.42 653.703L1444.64 677.93C1445.68 678.969 1445.68 680.652 1444.64 681.691ZM1440.88 711.828C1441.92 712.866 1443.61 712.866 1444.64 711.828C1445.68 710.789 1445.68 709.105 1444.64 708.067L1420.42 683.839C1419.38 682.801 1417.69 682.801 1416.66 683.839L1392.43 708.067C1391.39 709.105 1391.39 710.789 1392.43 711.828C1393.47 712.866 1395.15 712.866 1396.19 711.828L1418.54 689.48L1440.88 711.828Z" fill="url(#paint4_linear_1974_164)"/>
<path class="backgroundArrow" fill-rule="evenodd" clip-rule="evenodd" d="M835.77 62.8939C836.808 63.9324 838.492 63.9324 839.53 62.8939C840.569 61.8555 840.569 60.1718 839.53 59.1334L815.303 34.9058C814.264 33.8673 812.581 33.8673 811.542 34.9058L787.314 59.1334C786.276 60.1718 786.276 61.8555 787.314 62.8939C788.353 63.9324 790.037 63.9324 791.075 62.8939L813.422 40.5466L835.77 62.8939ZM835.77 93.0307C836.808 94.0691 838.492 94.0691 839.53 93.0307C840.569 91.9922 840.569 90.3085 839.53 89.2701L815.303 65.0425C814.264 64.0041 812.581 64.0041 811.542 65.0425L787.314 89.2701C786.276 90.3085 786.276 91.9922 787.314 93.0307C788.353 94.0691 790.037 94.0691 791.075 93.0307L813.422 70.6834L835.77 93.0307ZM839.53 123.167C838.492 124.206 836.808 124.206 835.77 123.167L813.422 100.82L791.075 123.167C790.037 124.206 788.353 124.206 787.314 123.167C786.276 122.129 786.276 120.445 787.314 119.407L811.542 95.1792C812.581 94.1408 814.264 94.1408 815.303 95.1792L839.53 119.407C840.569 120.445 840.569 122.129 839.53 123.167ZM835.77 153.304C836.808 154.343 838.492 154.343 839.53 153.304C840.569 152.266 840.569 150.582 839.53 149.544L815.303 125.316C814.264 124.277 812.581 124.277 811.542 125.316L787.314 149.544C786.276 150.582 786.276 152.266 787.314 153.304C788.353 154.343 790.037 154.343 791.075 153.304L813.422 130.957L835.77 153.304Z" fill="url(#paint5_linear_1974_164)"/>
<defs>
<linearGradient id="paint0_linear_1974_164" x1="534.793" y1="482.786" x2="534.794" y2="633.469" gradientUnits="userSpaceOnUse">
<stop stop-color="#3BA1F0"/>
<stop offset="0.732436" stop-color="#7260DF"/>
<stop offset="0.927083" stop-color="#7260DF" stop-opacity="0.1"/>
</linearGradient>
<linearGradient id="paint1_linear_1974_164" x1="942.409" y1="449.758" x2="942.41" y2="696.275" gradientUnits="userSpaceOnUse">
<stop stop-color="#3BA1F0"/>
<stop offset="0.732436" stop-color="#7260DF"/>
<stop offset="0.927083" stop-color="#7260DF" stop-opacity="0.1"/>
</linearGradient>
<linearGradient id="paint2_linear_1974_164" x1="160.059" y1="533.758" x2="160.06" y2="780.275" gradientUnits="userSpaceOnUse">
<stop stop-color="#3BA1F0"/>
<stop offset="0.732436" stop-color="#7260DF"/>
<stop offset="0.927083" stop-color="#7260DF" stop-opacity="0.1"/>
</linearGradient>
<linearGradient id="paint3_linear_1974_164" x1="228.422" y1="82.5823" x2="228.424" y2="329.099" gradientUnits="userSpaceOnUse">
<stop stop-color="#3BA1F0"/>
<stop offset="0.732436" stop-color="#7260DF"/>
<stop offset="0.927083" stop-color="#7260DF" stop-opacity="0.1"/>
</linearGradient>
<linearGradient id="paint4_linear_1974_164" x1="1418.54" y1="572.559" x2="1418.54" y2="723.243" gradientUnits="userSpaceOnUse">
<stop stop-color="#3BA1F0"/>
<stop offset="0.732436" stop-color="#7260DF"/>
<stop offset="0.927083" stop-color="#7260DF" stop-opacity="0.1"/>
</linearGradient>
<linearGradient id="paint5_linear_1974_164" x1="813.422" y1="14.0358" x2="813.423" y2="164.719" gradientUnits="userSpaceOnUse">
<stop stop-color="#3BA1F0"/>
<stop offset="0.732436" stop-color="#7260DF"/>
<stop offset="0.927083" stop-color="#7260DF" stop-opacity="0.1"/>
</linearGradient>
</defs>
</svg>
