<svg width="auto" height="auto" viewBox="0 0 1682 347" fill="none" xmlns="http://www.w3.org/2000/svg">
<g clip-path="url(#clip0_2653_416)">
<path d="M0 346.999C280.333 101.746 987.5 -164.502 1682 346.999" stroke="url(#paint0_linear_2653_416)" stroke-width="1.7"/>
<circle cx="541" cy="82" r="49.5" fill="#2D364D" stroke="#404961"/>
<path d="M567.129 72.4278H564.691V83.1543H567.351C567.347 80.931 567.341 76.4322 567.351 76.2223C567.364 75.96 567.738 74.5612 568.912 74.5362C569.852 74.5162 570.103 75.3772 570.111 75.8102V83.1543H572.697V74.0821C572.481 73.5306 571.631 72.3668 569.959 72.123C568.313 72.1235 567.376 73.3275 567.129 74.0821V72.4278Z" fill="white"/>
<path fill-rule="evenodd" clip-rule="evenodd" d="M558.641 72.2422C557.271 72.3318 554.478 73.2791 554.263 76.3512C554.048 79.4234 554.711 80.8831 555.069 81.229C555.428 82.0354 556.69 83.6176 558.871 83.4947C561.052 83.3718 562.263 81.7538 562.596 80.9601C562.852 80.3325 563.31 78.532 563.095 76.3512C562.826 73.6253 560.484 72.2422 558.641 72.2422ZM558.719 74.2402C558.232 74.3302 557.244 74.8403 557.182 76.161C557.121 77.4817 557.157 79.0919 557.182 79.7319C557.298 80.2824 557.728 81.3986 558.526 81.46C559.525 81.5368 560.216 80.1544 560.255 79.7319C560.285 79.394 560.267 77.2105 560.255 76.161C560.191 75.5207 559.794 74.2402 558.719 74.2402Z" fill="white"/>
<path d="M553.01 72.4629H545.881V74.5666H549.738L545.391 80.5268V83.0511H545.881C548.817 81.0877 551.997 82.3888 553.221 83.2848V80.8306C552.566 79.8957 550.205 79.7399 549.107 79.7788L553.01 74.3562V72.4629Z" fill="white"/>
<path fill-rule="evenodd" clip-rule="evenodd" d="M509.228 75.4048L511.658 75.5352C511.833 74.8335 512.228 74.022 513.368 74.0228C513.842 74.0227 514.805 74.268 514.858 75.25V76.5213C512.833 76.514 508.828 77.2095 509.006 80.0502C509.228 84.0614 512.929 83.8641 515.055 81.9791L516.524 83.338L518.343 81.6722L517.444 80.4667V74.8774C517.474 73.9787 516.739 72.1463 513.565 72.006C510.391 71.8657 509.351 74.2134 509.228 75.4048ZM514.809 77.9604C513.697 77.8968 511.523 78.2234 511.72 80.0384C511.966 82.3072 514.262 81.3514 514.809 80.0384V77.9604Z" fill="white"/>
<path fill-rule="evenodd" clip-rule="evenodd" d="M535.244 75.4048L537.674 75.5352C537.849 74.8335 538.243 74.022 539.383 74.0228C539.858 74.0227 540.821 74.268 540.874 75.25V76.5213C538.849 76.514 534.844 77.2095 535.021 80.0502C535.244 84.0614 538.945 83.8641 541.071 81.9791L542.539 83.338L544.359 81.6722L543.46 80.4667V74.8774C543.489 73.9787 542.754 72.1463 539.58 72.006C536.407 71.8657 535.367 74.2134 535.244 75.4048ZM540.824 77.9605C539.712 77.8969 537.538 78.2234 537.735 80.0385C537.981 82.3073 540.277 81.3515 540.824 80.0385V77.9605Z" fill="white"/>
<path d="M522.312 72.4626H519.828V83.2663H522.48V75.5384C522.582 75.2373 522.991 74.6352 523.806 74.6352C524.62 74.6352 525.093 75.2373 525.228 75.5384V83.2663H527.803V75.5384C527.944 75.2373 528.418 74.6352 529.186 74.6352C529.955 74.6352 530.378 75.2373 530.493 75.5384V83.2663H532.942V73.9073C532.721 73.3296 531.902 72.1742 530.4 72.1742C528.898 72.1742 527.849 73.3296 527.512 73.9073C527.261 73.3392 526.426 72.1973 525.085 72.1742C523.745 72.1511 522.678 73.3199 522.312 73.9073V72.4626Z" fill="white"/>
<path d="M546.999 86.6648C547.76 86.2602 548.407 86.3573 548.635 86.4565C549.588 86.4981 546.85 89.2231 541.437 90.4722C536.024 91.7214 533.079 91.6917 527.458 90.1748C522.961 88.9613 519.299 86.1793 518.03 84.94C517.742 84.5236 517.524 83.9051 518.952 84.7616C520.379 85.6182 523.492 86.804 524.87 87.2898C525.882 87.6566 529.088 88.4795 533.823 88.8364C539.742 89.2825 546.047 87.1705 546.999 86.6648Z" fill="white"/>
<path d="M548.823 83.7156C547.026 83.7602 545.834 84.65 545.463 85.0893C545.76 85.4789 549.677 84.644 550.234 85.3309C550.924 86.9462 548.635 89.6376 549.194 90.0089C551.675 88.2268 551.849 85.3304 551.626 84.105C551.441 83.9566 550.62 83.671 548.823 83.7156Z" fill="white"/>
<circle cx="348" cy="150" r="49.5" fill="#2D364D" stroke="#404961"/>
<path d="M351.832 160.298V171.483C351.832 171.802 352.169 172.025 352.338 172.096H361.815L362.691 169.967H354.484V167.598C354.484 167.076 355.159 166.728 355.497 166.619L359.703 166.705L360.562 164.679H354.484V161.675C356.727 161.68 361.266 161.688 361.472 161.675C361.678 161.661 361.786 161.554 361.815 161.503C361.947 161.171 362.258 160.404 362.45 159.992C362.643 159.58 362.53 159.512 362.45 159.529C359.463 159.523 353.334 159.515 352.715 159.529C352.097 159.543 351.869 160.047 351.832 160.298Z" fill="white"/>
<path fill-rule="evenodd" clip-rule="evenodd" d="M348.48 153.392C355.491 153.392 361.175 147.707 361.175 140.696C361.175 133.684 355.491 128 348.48 128C341.805 128 336.333 133.151 335.823 139.695H344.848V137.46C344.848 137.232 345.033 137.047 345.261 137.047H351.591C351.819 137.047 352.004 137.232 352.004 137.46V143.763C352.004 143.991 351.819 144.176 351.591 144.176H345.261C345.033 144.176 344.848 143.991 344.848 143.763V141.527H335.811C336.239 148.151 341.747 153.392 348.48 153.392Z" fill="white"/>
<path d="M320.572 159.572H318.176C318.056 159.572 318.047 159.772 318.058 159.871L318 167.115C318 171.343 321.166 172.325 324 172.325C330.114 172.325 330.264 168.357 330.264 167.115C330.267 164.701 330.271 159.849 330.264 159.759C330.256 159.67 330.148 159.597 330.095 159.572H327.771C327.629 159.572 327.581 159.772 327.575 159.871V167.115L327.575 167.122C327.519 168.216 327.418 170.168 324 170.168C320.994 170.168 320.658 168.17 320.714 167.115V159.871C320.714 159.662 320.619 159.585 320.572 159.572Z" fill="white"/>
<path fill-rule="evenodd" clip-rule="evenodd" d="M335.193 171.512V160.199C335.211 160.034 335.381 159.686 335.919 159.615C336.457 159.544 340.864 159.586 343.001 159.615C344.022 159.692 346.095 160.206 346.223 161.651C346.232 161.751 346.24 161.848 346.249 161.942C346.394 163.533 346.456 164.204 345.001 165.475C346.31 166.193 346.982 167.041 347.022 168.641C347.063 170.242 345.758 172.058 343.579 172.071C341.836 172.082 337.705 172.076 335.858 172.071C335.637 172.061 335.193 171.936 335.193 171.512ZM338.03 161.541C337.959 161.541 337.892 161.64 337.867 161.69V164.555C337.867 164.638 337.976 164.664 338.03 164.666H342.629C343.007 164.605 343.756 164.194 343.733 163.045C343.709 161.895 342.888 161.588 342.481 161.578C341.027 161.566 338.101 161.541 338.03 161.541ZM337.848 167.327V169.889C337.848 169.997 337.937 170.023 337.982 170.023C339.395 170.041 342.405 170.067 343.144 170.023C343.882 169.98 344.234 169.247 344.318 168.885C344.33 168.676 344.334 168.129 344.255 167.613C344.176 167.097 343.428 166.759 343.063 166.654C341.889 166.651 339.398 166.647 338.824 166.654C338.251 166.662 337.934 167.106 337.848 167.327Z" fill="white"/>
<path fill-rule="evenodd" clip-rule="evenodd" d="M367.043 171.776V160.317C367.131 160.08 367.435 159.607 367.947 159.607H374.831C376.008 159.663 378.405 160.306 378.572 162.431C378.763 164.86 378.267 165.498 377.99 165.855C377.964 165.888 377.94 165.919 377.918 165.949C377.668 166.297 377 166.895 376.194 167.034C376.439 167.533 377.08 168.614 377.716 169.686C378.197 170.496 378.674 171.301 378.975 171.845C379.022 171.92 379.039 172.071 378.739 172.082C378.438 172.093 376.991 172.087 376.305 172.082L373.565 167.34L370.728 167.27C370.395 167.363 369.716 167.64 369.671 168.007C369.627 168.374 369.653 170.877 369.671 172.082H367.307C367.219 172.077 367.043 172.009 367.043 171.776ZM369.715 165.308V161.609H374.513C374.87 161.716 375.628 162.063 375.806 162.597C376.029 163.264 375.862 164.544 375.556 164.78C375.531 164.799 375.507 164.818 375.483 164.836C375.208 165.051 374.961 165.244 374.513 165.308C374.123 165.364 371.152 165.332 369.715 165.308Z" fill="white"/>
<circle cx="734" cy="50" r="49.5" fill="#2D364D" stroke="#404961"/>
<path fill-rule="evenodd" clip-rule="evenodd" d="M714 42.1911C714 36.0104 719.01 31 725.191 31H741.824C748.005 31 753.015 36.0104 753.015 42.1911V58.8089C753.015 64.9896 748.005 70 741.824 70H725.191C719.01 70 714 64.9896 714 58.8089V42.1911ZM725.191 34.3703C720.872 34.3703 717.37 37.8718 717.37 42.1911V58.8089C717.37 63.1282 720.872 66.6297 725.191 66.6297H741.824C746.143 66.6297 749.645 63.1282 749.645 58.8089V42.1911C749.645 37.8718 746.143 34.3703 741.824 34.3703H725.191Z" fill="white"/>
<path fill-rule="evenodd" clip-rule="evenodd" d="M733.556 57.1879C737.257 57.1879 740.21 54.2192 740.21 50.615C740.21 47.0108 737.257 44.0422 733.556 44.0422C729.855 44.0422 726.902 47.0108 726.902 50.615C726.902 54.2192 729.855 57.1879 733.556 57.1879ZM733.556 60.5582C739.092 60.5582 743.58 56.1065 743.58 50.615C743.58 45.1236 739.092 40.6719 733.556 40.6719C728.019 40.6719 723.531 45.1236 723.531 50.615C723.531 56.1065 728.019 60.5582 733.556 60.5582Z" fill="white"/>
<circle cx="744.016" cy="40.1278" r="2.28208" fill="white"/>
<circle cx="155" cy="237" r="49.5" fill="#2D364D" stroke="#404961"/>
<path fill-rule="evenodd" clip-rule="evenodd" d="M152.303 215.575L141.833 237.004C141.227 238.245 141.454 239.912 142.318 241.361C143.193 242.828 144.497 243.707 145.622 243.707C149.99 243.707 152.545 241.21 153.217 240.116L153.253 240.058L153.296 240.004C153.451 239.813 153.601 239.625 153.746 239.442C153.043 238.613 152.433 237.837 151.945 237.216L151.933 237.201C151.933 237.2 151.932 237.2 151.931 237.199C151.377 236.5 150.624 235.298 150.087 233.873C149.552 232.453 149.19 230.706 149.56 228.976C150.317 225.438 153.266 224.429 154.709 224.381L154.727 224.381H156.122L156.195 224.391C156.946 224.495 158.037 224.841 158.969 225.57C159.935 226.326 160.742 227.51 160.756 229.191C160.77 230.736 160.736 232.109 159.933 233.973C159.323 235.389 158.282 237.063 156.543 239.353C157.033 239.88 157.551 240.402 158.09 240.893C159.94 242.58 161.827 243.707 163.534 243.707C165.381 243.707 166.447 243.081 167.137 242.347C167.873 241.565 168.259 240.587 168.594 239.713C168.979 238.705 168.774 237.468 168.603 236.946L158.023 215.538L158.017 215.526C157.865 215.198 157.042 214.153 155.261 214.153C153.494 214.153 152.531 215.183 152.303 215.575ZM155.202 241.069C155.14 241.147 155.077 241.226 155.013 241.305C153.962 242.959 150.772 245.86 145.622 245.86C143.448 245.86 141.556 244.286 140.469 242.464C139.372 240.623 138.87 238.164 139.899 236.059L150.394 214.577L150.407 214.553C150.935 213.598 152.565 212 155.261 212C157.959 212 159.492 213.603 159.964 214.607L170.592 236.111L170.613 236.17C170.878 236.915 171.258 238.775 170.604 240.482L170.588 240.524C170.264 241.371 169.752 242.71 168.705 243.823C167.595 245.002 165.957 245.86 163.534 245.86C160.971 245.86 158.561 244.236 156.639 242.484C156.14 242.029 155.659 241.551 155.202 241.069ZM155.094 237.698C156.615 235.665 157.469 234.251 157.956 233.121C158.58 231.672 158.616 230.66 158.604 229.21C158.596 228.296 158.187 227.692 157.643 227.266C157.093 226.836 156.419 226.609 155.967 226.534H154.764C153.963 226.567 152.149 227.166 151.666 229.426C151.415 230.601 151.645 231.903 152.102 233.114C152.555 234.318 153.194 235.327 153.619 235.861L153.622 235.866C154.044 236.403 154.54 237.032 155.094 237.698Z" fill="white"/>
<path fill-rule="evenodd" clip-rule="evenodd" d="M151.516 250.008H153.546V254.368C153.997 253.967 155.252 253.285 156.666 253.766C158.432 254.368 159.748 255.758 159.785 257.487C159.823 259.216 159.146 261.396 156.666 261.885C154.681 262.276 153.759 261.557 153.546 261.149V261.885H151.516L151.516 250.008ZM153.584 256.395V259.332C153.876 259.624 154.693 260.192 155.623 260.126C156.785 260.045 157.743 258.923 157.763 257.945C157.784 256.966 156.968 255.519 155.623 255.498C154.546 255.482 153.815 256.09 153.584 256.395Z" fill="white"/>
<path fill-rule="evenodd" clip-rule="evenodd" d="M169.012 250.008H171.042V254.368C171.493 253.967 172.748 253.285 174.162 253.766C175.928 254.368 177.244 255.758 177.281 257.487C177.319 259.216 176.642 261.396 174.162 261.885C172.177 262.276 171.255 261.557 171.042 261.149V261.885H169.012L169.012 250.008ZM171.08 256.395V259.332C171.372 259.624 172.189 260.192 173.119 260.126C174.281 260.045 175.239 258.923 175.26 257.945C175.28 256.966 174.464 255.519 173.119 255.498C172.042 255.482 171.311 256.09 171.08 256.395Z" fill="white"/>
<path fill-rule="evenodd" clip-rule="evenodd" d="M141.271 253.767L139.241 253.767V254.368C138.79 253.967 137.535 253.286 136.121 253.767C134.355 254.368 133.039 255.759 133.002 257.488C132.964 259.217 133.641 261.397 136.121 261.886C138.106 262.277 139.028 261.558 139.241 261.149V261.886H141.271L141.271 253.767ZM139.203 256.395V259.332C138.911 259.624 138.094 260.192 137.164 260.126C136.002 260.045 135.044 258.923 135.024 257.945C135.003 256.966 135.819 255.519 137.164 255.498C138.241 255.482 138.972 256.09 139.203 256.395Z" fill="white"/>
<circle cx="143.599" cy="251.387" r="1.37875" fill="white"/>
<rect x="142.568" y="253.756" width="2.06063" height="7.98864" fill="white"/>
<path d="M160.623 253.825V261.799H162.681V256.239C162.885 255.995 163.52 255.499 164.422 255.468C165.324 255.436 165.761 256.14 165.867 256.497V261.799H167.944C167.951 260.282 167.96 257.098 167.944 256.497C167.925 255.745 167.648 255.171 167.41 254.815C167.173 254.459 165.867 253.588 164.719 253.588C163.801 253.588 162.819 254.116 162.443 254.379V253.825H160.623Z" fill="white"/>
<path fill-rule="evenodd" clip-rule="evenodd" d="M150.525 253.638V255.668C150.315 255.54 150.051 255.456 149.727 255.468C148.825 255.499 148.19 255.995 147.986 256.239V261.799H145.928V253.825H147.748V254.379C148.124 254.116 149.106 253.588 150.024 253.588C150.189 253.588 150.357 253.606 150.525 253.638Z" fill="white"/>
<circle cx="1313" cy="150" r="49.5" fill="#2D364D" stroke="#404961"/>
<path d="M1307.61 127.646L1304.16 149.191C1304.22 149.383 1304.5 149.439 1304.63 149.443H1309.52C1309.77 149.443 1309.9 149.275 1309.93 149.191C1310.23 146.944 1310.85 142.309 1310.92 141.748C1310.99 141.186 1311.48 140.909 1311.71 140.841C1312.39 140.909 1314.25 141.004 1316.19 140.841C1318.62 140.636 1319.82 139.612 1321.02 138.792C1322.22 137.973 1323.04 136.452 1323.56 132.267C1323.98 128.92 1320.38 127.478 1318.53 127.176C1315.56 127.127 1309.46 127.024 1308.76 127.001C1308.05 126.977 1307.7 127.421 1307.61 127.646Z" fill="#D2D2D2"/>
<path d="M1321.6 132.826H1313.14C1312.69 132.826 1312.41 133.001 1312.33 133.089C1311.42 138.819 1309.57 150.451 1309.43 151.143C1309.29 151.835 1309.49 152.126 1309.61 152.186C1310.96 152.211 1313.75 152.247 1314.16 152.186C1314.57 152.125 1314.75 151.872 1314.8 151.753C1315.03 150.185 1315.5 146.886 1315.59 146.235C1315.67 145.584 1316.06 145.167 1316.25 145.04C1316.33 145.049 1317 145.06 1319.02 145.04C1321.03 145.02 1322.83 143.652 1323.47 142.97C1324.28 141.864 1325.78 139.018 1325.4 136.48C1325.01 133.942 1322.7 132.986 1321.6 132.826Z" fill="white"/>
<path d="M1310.98 141.659C1310.96 141.582 1310.97 141.479 1311.03 141.376C1311.47 138.552 1312.28 133.353 1312.33 133.087C1312.52 132.859 1313.04 132.803 1313.27 132.804C1315.85 132.794 1321.12 132.781 1321.54 132.804C1322.08 132.833 1322.99 133.216 1323.39 133.522C1323.01 135.632 1322.27 137.336 1320.29 139.294C1318.31 141.252 1313.65 140.921 1312.23 140.946C1311.47 140.96 1311.14 141.17 1311.03 141.376C1311.01 141.473 1311 141.568 1310.98 141.659Z" fill="#D9D9D9"/>
<path fill-rule="evenodd" clip-rule="evenodd" d="M1289.07 155.502H1294.33C1295.01 155.602 1296.45 156.195 1296.68 157.772C1296.92 159.349 1295.99 161.117 1295.49 161.804C1295.09 162.227 1293.97 163.077 1292.72 163.09C1291.47 163.102 1291.05 163.095 1291 163.09C1290.97 163.09 1290.94 163.088 1290.9 163.087C1290.66 163.079 1290.26 163.065 1290.23 163.35C1290.2 163.542 1290.12 164.036 1290.03 164.606C1289.92 165.24 1289.8 165.967 1289.72 166.479C1289.72 166.492 1289.71 166.508 1289.71 166.526C1289.69 166.616 1289.66 166.76 1289.45 166.791C1289.2 166.829 1287.99 166.807 1287.16 166.791C1287.14 166.783 1287.12 166.78 1287.1 166.778C1287.03 166.768 1286.97 166.759 1287.02 166.524C1287.05 166.358 1287.21 165.227 1287.42 163.697C1287.75 161.274 1288.22 157.847 1288.57 155.665C1288.62 155.611 1288.79 155.502 1289.07 155.502ZM1290.66 160.74L1291.2 157.691H1292.95C1293.26 157.817 1293.88 158.253 1293.85 158.991C1293.82 159.912 1293.14 160.61 1292.65 160.74C1292.25 160.843 1291.16 160.783 1290.66 160.74Z" fill="white"/>
<path fill-rule="evenodd" clip-rule="evenodd" d="M1318.2 155.502H1323.46C1324.14 155.602 1325.58 156.195 1325.82 157.772C1326.06 159.349 1325.12 161.117 1324.62 161.804C1324.22 162.227 1323.11 163.077 1321.85 163.09C1320.6 163.102 1320.19 163.095 1320.13 163.09C1320.11 163.09 1320.07 163.088 1320.04 163.087C1319.79 163.079 1319.4 163.065 1319.36 163.35C1319.34 163.542 1319.25 164.036 1319.16 164.606C1319.05 165.24 1318.93 165.967 1318.86 166.479C1318.85 166.492 1318.85 166.508 1318.84 166.526C1318.82 166.616 1318.79 166.76 1318.58 166.791C1318.33 166.829 1317.13 166.807 1316.29 166.791C1316.27 166.783 1316.25 166.78 1316.23 166.778C1316.17 166.768 1316.1 166.759 1316.15 166.524C1316.18 166.358 1316.34 165.227 1316.55 163.697C1316.88 161.274 1317.35 157.847 1317.7 155.665C1317.75 155.611 1317.92 155.502 1318.2 155.502ZM1319.79 160.74L1320.34 157.691H1322.09C1322.4 157.817 1323.01 158.253 1322.98 158.991C1322.95 159.912 1322.27 160.61 1321.78 160.74C1321.38 160.843 1320.29 160.783 1319.79 160.74Z" fill="white"/>
<path fill-rule="evenodd" clip-rule="evenodd" d="M1302.91 159.922C1302.62 159.622 1301.71 159.051 1300.32 159.163C1298.57 159.303 1296.46 160.682 1296.29 163.13C1296.13 165.463 1297.73 166.467 1298.23 166.776C1298.25 166.791 1298.27 166.805 1298.29 166.817C1298.68 167.07 1300.77 167.061 1302.02 165.99V166.817H1304.48L1305.64 159.247H1303.23L1302.91 159.922ZM1299.76 164.688C1300.65 165.206 1301.82 164.849 1302.39 163.888C1302.95 162.928 1302.69 161.73 1301.8 161.211C1300.91 160.692 1299.74 161.05 1299.18 162.01C1298.62 162.97 1298.88 164.169 1299.76 164.688Z" fill="white"/>
<path fill-rule="evenodd" clip-rule="evenodd" d="M1332.08 159.922C1331.8 159.622 1330.89 159.051 1329.49 159.163C1327.75 159.303 1325.64 160.682 1325.47 163.13C1325.31 165.463 1326.91 166.467 1327.4 166.776C1327.43 166.791 1327.45 166.805 1327.47 166.817C1327.86 167.07 1329.95 167.061 1331.2 165.99V166.817H1333.66L1334.82 159.247H1332.41L1332.08 159.922ZM1328.94 164.688C1329.83 165.206 1331 164.849 1331.56 163.888C1332.13 162.928 1331.86 161.73 1330.98 161.211C1330.09 160.692 1328.92 161.05 1328.36 162.01C1327.79 162.97 1328.06 164.169 1328.94 164.688Z" fill="white"/>
<path d="M1309.44 159.301H1306.55L1309.05 166.029L1306.55 169.473H1309.44L1316.21 159.301H1313.64L1310.67 163.338L1309.44 159.301Z" fill="white"/>
<path d="M1339.33 155.461H1336.87L1335.05 166.703H1337.51L1339.33 155.461Z" fill="white"/>
<circle cx="927" cy="50" r="49.5" fill="#2D364D" stroke="#404961"/>
<path fill-rule="evenodd" clip-rule="evenodd" d="M909.353 26C905.845 26 903 28.8446 903 32.3535V67.2315C903 70.7405 905.845 73.585 909.353 73.585H944.232C947.74 73.585 950.585 70.7405 950.585 67.2315V32.3535C950.585 28.8446 947.74 26 944.232 26H909.353ZM923.041 73.5833V56.8846H916.975V49.9429H923.041V42.5629C923.25 40.1238 925.093 35.2456 930.796 35.2456H937.488V41.7501H934.361C933.173 41.7292 930.796 42.2379 930.796 44.4393V49.9429H937.488L936.237 56.8846H930.796V73.5833H923.041Z" fill="white"/>
<circle cx="1120" cy="82" r="49.5" fill="#2D364D" stroke="#404961"/>
<path d="M1115.96 106.211C1113.07 106.309 1108.11 106.821 1106 107.065L1106.04 56.0039H1106.61L1115.96 83.0792V106.211Z" fill="white"/>
<path d="M1134.02 56.1602H1124.19L1123.99 79.9998L1125.68 102.276L1134.02 106.9V56.1602Z" fill="white"/>
<g filter="url(#filter0_dd_2653_416)">
<path d="M1116 56.0664L1106.04 56C1111.54 71.5752 1122.81 103.463 1123.74 106.147C1126.25 105.957 1131.65 106.655 1134.04 107.028L1116 56.0664Z" fill="#E3E1E1"/>
</g>
<circle cx="1506" cy="237" r="49.5" fill="#2D364D" stroke="#404961"/>
<path d="M1490.99 229.934L1477.8 221.518C1477.49 221.322 1477.49 220.874 1477.8 220.676L1490.99 212.174C1491.15 212.068 1491.36 212.067 1491.53 212.172L1504.89 220.674C1505.2 220.871 1505.2 221.324 1504.89 221.519L1491.53 229.936C1491.36 230.039 1491.15 230.038 1490.99 229.934Z" fill="white"/>
<path d="M1520.42 229.934L1507.23 221.518C1506.92 221.322 1506.92 220.874 1507.23 220.676L1520.42 212.174C1520.58 212.068 1520.79 212.067 1520.96 212.172L1534.32 220.674C1534.63 220.871 1534.63 221.324 1534.32 221.519L1520.95 229.936C1520.79 230.039 1520.58 230.038 1520.42 229.934Z" fill="white"/>
<path d="M1490.85 248.534L1477.66 240.117C1477.35 239.921 1477.35 239.473 1477.66 239.276L1490.84 230.773C1491.01 230.667 1491.22 230.667 1491.38 230.772L1504.74 239.274C1505.05 239.471 1505.05 239.923 1504.74 240.119L1491.38 248.535C1491.22 248.638 1491.01 248.638 1490.85 248.534Z" fill="white"/>
<path d="M1520.27 248.534L1507.09 240.117C1506.78 239.921 1506.78 239.473 1507.08 239.276L1520.27 230.773C1520.44 230.667 1520.65 230.667 1520.81 230.772L1534.17 239.274C1534.48 239.471 1534.48 239.923 1534.17 240.119L1520.81 248.535C1520.65 248.638 1520.44 248.638 1520.27 248.534Z" fill="white"/>
<path d="M1505.56 260.866L1492.37 252.449C1492.06 252.253 1492.06 251.805 1492.37 251.608L1505.56 243.105C1505.72 242.999 1505.93 242.999 1506.1 243.104L1519.46 251.606C1519.77 251.803 1519.77 252.255 1519.46 252.451L1506.1 260.867C1505.93 260.97 1505.72 260.97 1505.56 260.866Z" fill="white"/>
</g>
<defs>
<filter id="filter0_dd_2653_416" x="1104.04" y="54" width="32.002" height="55.0273" filterUnits="userSpaceOnUse" color-interpolation-filters="sRGB">
<feFlood flood-opacity="0" result="BackgroundImageFix"/>
<feColorMatrix in="SourceAlpha" type="matrix" values="0 0 0 0 0 0 0 0 0 0 0 0 0 0 0 0 0 0 127 0" result="hardAlpha"/>
<feOffset dx="1" dy="1"/>
<feGaussianBlur stdDeviation="0.5"/>
<feComposite in2="hardAlpha" operator="out"/>
<feColorMatrix type="matrix" values="0 0 0 0 0 0 0 0 0 0 0 0 0 0 0 0 0 0 0.25 0"/>
<feBlend mode="normal" in2="BackgroundImageFix" result="effect1_dropShadow_2653_416"/>
<feColorMatrix in="SourceAlpha" type="matrix" values="0 0 0 0 0 0 0 0 0 0 0 0 0 0 0 0 0 0 127 0" result="hardAlpha"/>
<feOffset dx="-1" dy="-1"/>
<feGaussianBlur stdDeviation="0.5"/>
<feComposite in2="hardAlpha" operator="out"/>
<feColorMatrix type="matrix" values="0 0 0 0 0 0 0 0 0 0 0 0 0 0 0 0 0 0 0.25 0"/>
<feBlend mode="normal" in2="effect1_dropShadow_2653_416" result="effect2_dropShadow_2653_416"/>
<feBlend mode="normal" in="SourceGraphic" in2="effect2_dropShadow_2653_416" result="shape"/>
</filter>
<linearGradient id="paint0_linear_2653_416" x1="1712" y1="347" x2="-63" y2="347" gradientUnits="userSpaceOnUse">
<stop offset="0.0833333" stop-color="#2D364C" stop-opacity="0.29"/>
<stop offset="0.502648" stop-color="#2D364C" stop-opacity="0.958433"/>
<stop offset="1" stop-color="#171B26" stop-opacity="0.37"/>
</linearGradient>
<clipPath id="clip0_2653_416">
<rect width="1682" height="347" fill="white"/>
</clipPath>
</defs>
</svg>
