<svg width="auto" height="auto" viewBox="0 0 38 32" fill="none" xmlns="http://www.w3.org/2000/svg">
<path fill-rule="evenodd" clip-rule="evenodd" d="M20.1231 0.862829C20.1231 0.386302 19.7368 0 19.2603 0C18.7838 0 18.3975 0.386302 18.3975 0.862829V2.83018H8.80183V0.862829C8.80183 0.386302 8.41553 0 7.939 0C7.46247 0 7.07617 0.386302 7.07617 0.862829V2.83018H3.69393C1.65437 2.83018 0.000976562 4.48357 0.000976562 6.52313V12.1834V26.334C0.000976562 28.3736 1.65437 30.027 3.69393 30.027H23.5048C23.6071 30.027 23.7053 30.0091 23.7964 29.9764C25.2911 31.239 27.2231 32 29.3329 32C34.0743 32 37.918 28.1563 37.918 23.4149C37.918 18.6735 34.0743 14.8299 29.3329 14.8299C28.6102 14.8299 27.9083 14.9192 27.2377 15.0874V6.52313C27.2377 4.46792 25.5286 2.83018 23.5048 2.83018H20.1231V0.862829ZM20.7479 23.4149C20.7479 25.2305 21.3114 26.9144 22.2732 28.3013H3.69393C2.60742 28.3013 1.72663 27.4205 1.72663 26.334V13.0462H25.5121V15.7249C22.6881 17.1307 20.7479 20.0462 20.7479 23.4149ZM25.5121 11.3205V6.52313C25.5121 5.45227 24.6071 4.55583 23.5048 4.55583H20.1231V6.52308C20.1231 6.99961 19.7368 7.38591 19.2603 7.38591C18.7838 7.38591 18.3975 6.99961 18.3975 6.52308V4.55583H8.80183V6.52308C8.80183 6.99961 8.41553 7.38591 7.939 7.38591C7.46247 7.38591 7.07617 6.99961 7.07617 6.52308V4.55583H3.69393C2.60742 4.55583 1.72663 5.43662 1.72663 6.52313V11.3205H25.5121ZM29.3329 16.3255C25.4175 16.3255 22.2434 19.4995 22.2434 23.4149C22.2434 27.3304 25.4175 30.5044 29.3329 30.5044C33.2483 30.5044 36.4224 27.3304 36.4224 23.4149C36.4224 19.4995 33.2483 16.3255 29.3329 16.3255ZM30.0803 18.7126C30.0803 18.2996 29.7456 17.9648 29.3326 17.9648C28.9196 17.9648 28.5848 18.2996 28.5848 18.7126V23.415C28.5848 23.6982 28.7448 23.9571 28.9981 24.0838L32.133 25.6513C32.5024 25.8359 32.9516 25.6862 33.1363 25.3168C33.321 24.9474 33.1713 24.4983 32.8019 24.3136L30.0803 22.9528V18.7126Z" fill="url(#paint0_linear_559_301)"/>
<defs>
<linearGradient id="paint0_linear_559_301" x1="-0.495655" y1="17.6891" x2="34.75" y2="17.6891" gradientUnits="userSpaceOnUse">
<stop stop-color="#3BA1F0"/>
<stop offset="1" stop-color="#7260DF"/>
</linearGradient>
</defs>
</svg>
