<svg width="100%" height="100%" viewBox="0 0 47 47" fill="none" xmlns="http://www.w3.org/2000/svg">
<path d="M46.1191 16.352L30.6483 0.881263C29.4733 -0.293754 27.417 -0.293754 26.144 0.881263C25.1647 1.86056 24.9689 3.2313 25.4584 4.40631L4.40631 25.5566C3.2313 25.0671 1.76253 25.2629 0.881263 26.1441C0.293754 26.7316 0 27.5149 0 28.3961C0 29.2774 0.293754 30.0606 0.881263 30.6481L16.352 46.0215C16.9395 46.6091 17.7228 46.9028 18.604 46.9028C19.4853 46.9028 20.2685 46.6091 20.856 46.0215C21.8353 45.0423 22.0311 43.6715 21.5416 42.4965L42.5937 21.4444C42.9855 21.6401 43.475 21.7381 43.8667 21.7381C44.748 21.7381 45.5312 21.4444 46.1187 20.8569C46.7062 20.2694 47 19.4861 47 18.6049C47.0003 17.7236 46.7066 16.94 46.1191 16.3525V16.352ZM26.7313 5.97328L28.102 7.34402L22.8145 12.7296C20.6602 14.8839 19.9749 18.0172 20.7582 20.759C19.9749 20.5633 19.1914 20.4653 18.4081 20.4653C16.2538 20.4653 14.1976 21.3465 12.6311 22.8153L7.24549 28.2009L5.87475 26.8302L26.7313 5.97328ZM24.1855 22.8146C21.7375 20.3666 21.7375 16.5478 24.1855 14.1002L29.5711 8.7146L38.2856 17.429L32.9 22.8146C31.7249 23.9896 30.1581 24.5772 28.4937 24.5772C26.8292 24.5772 25.3604 23.9896 24.1854 22.8146H24.1855ZM22.8145 32.9005L17.4292 38.188L8.71476 29.4736L14.1004 24.088C15.2754 22.913 16.8422 22.3255 18.5067 22.3255C20.1712 22.3255 21.738 23.011 22.913 24.088C25.1647 26.5361 25.1647 30.4526 22.8146 32.9006L22.8145 32.9005ZM19.4855 44.6506C18.996 45.1401 18.2124 45.1401 17.821 44.6506L2.34936 29.2772C2.05561 28.9835 1.95758 28.6897 1.95758 28.396C1.95758 28.1022 2.05561 27.8084 2.34936 27.5147C2.54509 27.319 2.83884 27.1229 3.23063 27.1229C3.52438 27.1229 3.81813 27.2209 4.11189 27.5147L19.5827 42.9855C19.8764 43.4753 19.8764 44.1608 19.485 44.6503L19.4855 44.6506ZM20.2687 41.0276L18.898 39.6568L24.2836 34.2712C26.4379 32.1169 27.1231 28.9836 26.3398 26.2418C27.1231 26.4375 27.9066 26.5356 28.6899 26.5356C30.8442 26.5356 32.9005 25.6543 34.4669 24.1855L39.8525 18.7999L41.2233 20.1707L20.2687 41.0276ZM44.6503 19.3879C44.1608 19.8774 43.3773 19.8774 42.9858 19.3879L27.5142 4.01453C27.0247 3.52505 27.0247 2.74148 27.5142 2.35003C27.8079 2.05628 28.1017 1.95825 28.3955 1.95825C28.6892 1.95825 28.983 2.05628 29.2767 2.35003L44.7475 17.8208C44.9436 17.9188 45.3353 18.8981 44.6498 19.3876L44.6503 19.3879Z" fill="url(#paint0_linear_559_317)"/>
<defs>
<linearGradient id="paint0_linear_559_317" x1="-0.615602" y1="25.9271" x2="43.0734" y2="25.9271" gradientUnits="userSpaceOnUse">
<stop stop-color="#3BA1F0"/>
<stop offset="1" stop-color="#7260DF"/>
</linearGradient>
</defs>
</svg>
