<svg width="25" height="25" viewBox="0 0 45 46" fill="none" xmlns="http://www.w3.org/2000/svg">
<path d="M27.5369 40.1252H40.0071V5.20877H5.0906V40.1252H22.5488V27.6551H17.5608V22.667H22.5488V18.5414C22.5488 15.2062 22.896 13.9968 23.5482 12.7775C24.2004 11.5582 25.1571 10.6013 26.3764 9.94917C27.3309 9.43875 28.5151 9.13068 30.5839 8.99855C31.4051 8.9461 32.4678 9.01299 33.772 9.19922V13.9379H32.525C30.2372 13.9379 29.2932 14.0459 28.7288 14.3477C28.3789 14.5349 28.134 14.7798 27.9467 15.1299C27.6449 15.6941 27.5369 16.2537 27.5369 18.5414V22.667H33.772L32.525 27.6551H27.5369V40.1252ZM2.59657 0.220703H42.5011C43.8785 0.220703 44.9951 1.33733 44.9951 2.71474V42.6192C44.9951 43.9967 43.8785 45.1133 42.5011 45.1133H2.59657C1.21917 45.1133 0.102539 43.9967 0.102539 42.6192V2.71474C0.102539 1.33733 1.21917 0.220703 2.59657 0.220703Z" fill="white"/>
</svg>
