<svg width="23" height="34" viewBox="0 0 23 34" fill="none" xmlns="http://www.w3.org/2000/svg">
<path d="M0.896179 6.30423C0.896179 4.89746 1.45502 3.54831 2.44975 2.55357C3.44449 1.55884 4.79364 1 6.20041 1H11.5046V11.6085H6.20041C4.79364 11.6085 3.44449 11.0496 2.44975 10.0549C1.45502 9.06015 0.896179 7.711 0.896179 6.30423Z" stroke="white" stroke-width="1.51549" stroke-linecap="round" stroke-linejoin="round"/>
<path d="M11.5047 1H16.8089C17.5055 1 18.1952 1.1372 18.8388 1.40376C19.4823 1.67032 20.067 2.06103 20.5596 2.55357C21.0521 3.04612 21.4428 3.63085 21.7094 4.27439C21.976 4.91793 22.1132 5.60767 22.1132 6.30423C22.1132 7.00079 21.976 7.69053 21.7094 8.33407C21.4428 8.97761 21.0521 9.56234 20.5596 10.0549C20.067 10.5474 19.4823 10.9381 18.8388 11.2047C18.1952 11.4713 17.5055 11.6085 16.8089 11.6085H11.5047V1Z" stroke="white" stroke-width="1.51549" stroke-linecap="round" stroke-linejoin="round"/>
<path d="M11.5047 16.9128C11.5047 16.2162 11.6419 15.5264 11.9085 14.8829C12.175 14.2394 12.5657 13.6546 13.0583 13.1621C13.5508 12.6696 14.1356 12.2788 14.7791 12.0123C15.4226 11.7457 16.1124 11.6085 16.8089 11.6085C17.5055 11.6085 18.1952 11.7457 18.8388 12.0123C19.4823 12.2788 20.067 12.6696 20.5596 13.1621C21.0521 13.6546 21.4428 14.2394 21.7094 14.8829C21.976 15.5264 22.1132 16.2162 22.1132 16.9128C22.1132 17.6093 21.976 18.2991 21.7094 18.9426C21.4428 19.5861 21.0521 20.1709 20.5596 20.6634C20.067 21.156 19.4823 21.5467 18.8388 21.8132C18.1952 22.0798 17.5055 22.217 16.8089 22.217C16.1124 22.217 15.4226 22.0798 14.7791 21.8132C14.1356 21.5467 13.5508 21.156 13.0583 20.6634C12.5657 20.1709 12.175 19.5861 11.9085 18.9426C11.6419 18.2991 11.5047 17.6093 11.5047 16.9128V16.9128Z" stroke="white" stroke-width="1.51549" stroke-linecap="round" stroke-linejoin="round"/>
<path d="M0.896179 27.5213C0.896179 26.1145 1.45502 24.7653 2.44975 23.7706C3.44449 22.7759 4.79364 22.217 6.20041 22.217H11.5046V27.5213C11.5046 28.928 10.9458 30.2772 9.95107 31.2719C8.95633 32.2667 7.60718 32.8255 6.20041 32.8255C4.79364 32.8255 3.44449 32.2667 2.44975 31.2719C1.45502 30.2772 0.896179 28.928 0.896179 27.5213Z" stroke="white" stroke-width="1.51549" stroke-linecap="round" stroke-linejoin="round"/>
<path d="M0.896179 16.9128C0.896179 15.506 1.45502 14.1568 2.44975 13.1621C3.44449 12.1674 4.79364 11.6085 6.20041 11.6085H11.5046V22.217H6.20041C4.79364 22.217 3.44449 21.6581 2.44975 20.6634C1.45502 19.6687 0.896179 18.3195 0.896179 16.9128Z" stroke="white" stroke-width="1.51549" stroke-linecap="round" stroke-linejoin="round"/>
</svg>
