<svg width="auto" height="auto" viewBox="0 0 312 111" fill="none" xmlns="http://www.w3.org/2000/svg">
<path d="M164.724 68.6268C162.884 68.6268 161.059 68.4581 159.25 68.1208C157.471 67.8141 156.015 67.3848 154.88 66.8328V62.6008C157.824 63.9808 160.998 64.6708 164.402 64.6708C169.186 64.6708 171.578 63.0608 171.578 59.8408C171.578 58.7368 171.317 57.8474 170.796 57.1728C170.275 56.4981 169.523 55.9154 168.542 55.4248C167.561 54.9034 165.966 54.1981 163.758 53.3088C160.722 52.0821 158.529 50.7328 157.18 49.2608C155.831 47.7888 155.156 45.9334 155.156 43.6948C155.156 42.0081 155.616 40.5208 156.536 39.2328C157.456 37.9141 158.744 36.9021 160.4 36.1968C162.056 35.4608 163.957 35.0928 166.104 35.0928C167.852 35.0928 169.431 35.2308 170.842 35.5068C172.253 35.7828 173.633 36.2274 174.982 36.8408V40.8888C172.314 39.6928 169.615 39.0948 166.886 39.0948C164.678 39.0948 162.991 39.4934 161.826 40.2908C160.661 41.0881 160.078 42.2228 160.078 43.6948C160.078 44.7068 160.323 45.5654 160.814 46.2708C161.335 46.9454 162.087 47.5588 163.068 48.1108C164.08 48.6321 165.567 49.2914 167.53 50.0888C169.707 50.9781 171.425 51.8214 172.682 52.6188C173.939 53.4161 174.89 54.3974 175.534 55.5628C176.209 56.6974 176.546 58.1234 176.546 59.8408C176.546 62.6314 175.549 64.7934 173.556 66.3268C171.563 67.8601 168.619 68.6268 164.724 68.6268ZM190.778 68.6268C188.539 68.6268 186.807 67.9828 185.58 66.6948C184.384 65.4068 183.786 63.5821 183.786 61.2208V49.4448H180.428V45.8568H183.786V39.2328H188.478V45.8568H193.906V49.4448H188.478V60.8988C188.478 62.3708 188.754 63.4134 189.306 64.0268C189.889 64.6401 190.931 64.9468 192.434 64.9468C193.323 64.9468 194.213 64.7474 195.102 64.3488V68.0288C193.937 68.4274 192.495 68.6268 190.778 68.6268ZM209.011 68.6268C206.343 68.6268 204.196 67.9521 202.571 66.6028C200.976 65.2228 200.179 63.3674 200.179 61.0368C200.179 58.5834 200.946 56.6974 202.479 55.3788C204.043 54.0294 206.251 53.3548 209.103 53.3548C212.139 53.3548 214.715 53.9681 216.831 55.1948V54.0448C216.831 52.2968 216.294 51.0088 215.221 50.1808C214.178 49.3221 212.522 48.8928 210.253 48.8928C208.904 48.8928 207.585 49.0308 206.297 49.3068C205.04 49.5521 203.905 49.9048 202.893 50.3648V46.5928C203.813 46.1634 205.009 45.8261 206.481 45.5808C207.953 45.3048 209.379 45.1668 210.759 45.1668C214.408 45.1668 217.107 45.9794 218.855 47.6048C220.634 49.1994 221.523 51.4228 221.523 54.2748V67.9368H217.153V65.4528C216.202 66.4954 215.068 67.2928 213.749 67.8448C212.461 68.3661 210.882 68.6268 209.011 68.6268ZM210.161 65.0848C211.633 65.0848 212.967 64.7934 214.163 64.2108C215.359 63.6281 216.248 62.8154 216.831 61.7728V58.7828C214.838 57.4948 212.614 56.8508 210.161 56.8508C208.382 56.8508 207.048 57.2034 206.159 57.9088C205.3 58.5834 204.871 59.6261 204.871 61.0368C204.871 63.7354 206.634 65.0848 210.161 65.0848ZM229.589 45.8568H234.097V49.8128C235.017 48.4634 236.305 47.4668 237.961 46.8228C239.647 46.1788 241.595 45.8568 243.803 45.8568V49.4908C241.441 49.4908 239.417 49.8741 237.731 50.6408C236.044 51.4074 234.879 52.6188 234.235 54.2748V67.9368H229.589V45.8568ZM258.772 68.6268C256.533 68.6268 254.8 67.9828 253.574 66.6948C252.378 65.4068 251.78 63.5821 251.78 61.2208V49.4448H248.422V45.8568H251.78V39.2328H256.472V45.8568H261.9V49.4448H256.472V60.8988C256.472 62.3708 256.748 63.4134 257.3 64.0268C257.882 64.6401 258.925 64.9468 260.428 64.9468C261.317 64.9468 262.206 64.7474 263.096 64.3488V68.0288C261.93 68.4274 260.489 68.6268 258.772 68.6268ZM269.767 45.8568H274.275V49.8128C275.195 48.4634 276.483 47.4668 278.139 46.8228C279.825 46.1788 281.773 45.8568 283.981 45.8568V49.4908C281.619 49.4908 279.595 49.8741 277.909 50.6408C276.222 51.4074 275.057 52.6188 274.413 54.2748V67.9368H269.767V45.8568ZM293.154 41.5328C292.387 41.5328 291.743 41.2721 291.222 40.7508C290.7 40.2294 290.44 39.5854 290.44 38.8188C290.44 38.0521 290.7 37.4081 291.222 36.8868C291.743 36.3654 292.387 36.1048 293.154 36.1048C293.951 36.1048 294.61 36.3654 295.132 36.8868C295.684 37.4081 295.96 38.0521 295.96 38.8188C295.96 39.5854 295.684 40.2294 295.132 40.7508C294.61 41.2721 293.951 41.5328 293.154 41.5328ZM290.808 45.8568H295.546V67.9368H290.808V45.8568ZM304.24 33.9428H308.886V67.9368H304.24V33.9428Z" fill="white"/>
<path opacity="0.65" d="M170.178 88.5096H171.874L174.37 97.0056L176.834 88.5096H178.114L180.562 97.0056L183.058 88.5096H184.754L181.49 99.6936H179.938L177.458 91.2456L174.994 99.6936H173.442L170.178 88.5096ZM188.433 88.5096H195.809V89.8856H190.065V93.4216H194.353V94.7816H190.065V98.3336H195.809V99.6936H188.433V88.5096ZM199.416 88.5096H204.552C205.544 88.5096 206.312 88.7656 206.856 89.2776C207.4 89.7896 207.672 90.5363 207.672 91.5176C207.672 92.0723 207.539 92.5629 207.272 92.9896C207.016 93.4056 206.675 93.7149 206.248 93.9176C207.443 94.2696 208.04 95.1389 208.04 96.5256C208.04 97.1763 207.896 97.7416 207.608 98.2216C207.331 98.6909 206.947 99.0536 206.456 99.3096C205.965 99.5656 205.421 99.6936 204.824 99.6936H199.416V88.5096ZM204.344 93.3096C204.867 93.3096 205.277 93.1656 205.576 92.8776C205.875 92.5896 206.024 92.1629 206.024 91.5976C206.024 90.9469 205.875 90.4936 205.576 90.2376C205.288 89.9709 204.84 89.8376 204.232 89.8376H201.048V93.3096H204.344ZM204.456 98.3656C205.085 98.3656 205.565 98.2269 205.896 97.9496C206.227 97.6723 206.392 97.1976 206.392 96.5256C206.392 95.8536 206.216 95.3736 205.864 95.0856C205.523 94.7976 205.005 94.6536 204.312 94.6536H201.048V98.3656H204.456ZM225.168 99.9336C224.016 99.9336 222.992 99.6936 222.096 99.2136C221.2 98.7336 220.502 98.0563 220 97.1816C219.499 96.2963 219.248 95.2723 219.248 94.1096C219.248 92.9469 219.499 91.9229 220 91.0376C220.502 90.1523 221.2 89.4696 222.096 88.9896C222.992 88.5096 224.016 88.2696 225.168 88.2696C226.704 88.2696 227.99 88.6589 229.024 89.4376V91.0056C228.096 90.1843 226.859 89.7736 225.312 89.7736C224.448 89.7736 223.68 89.9496 223.008 90.3016C222.347 90.6536 221.83 91.1603 221.456 91.8216C221.083 92.4723 220.896 93.2349 220.896 94.1096C220.896 94.9843 221.083 95.7523 221.456 96.4136C221.84 97.0749 222.363 97.5816 223.024 97.9336C223.696 98.2856 224.459 98.4616 225.312 98.4616C226.102 98.4616 226.806 98.3603 227.424 98.1576C228.054 97.9443 228.635 97.6083 229.168 97.1496V98.7336C228.208 99.5336 226.875 99.9336 225.168 99.9336ZM232.848 88.5096H237.344C238.538 88.5096 239.456 88.7976 240.096 89.3736C240.736 89.9496 241.056 90.7923 241.056 91.9016C241.056 92.7229 240.837 93.4216 240.4 93.9976C239.962 94.5629 239.344 94.9469 238.544 95.1496L241.008 99.6936H239.312L236.928 95.2776H234.48V99.6936H232.848V88.5096ZM237.072 93.9016C237.786 93.9016 238.352 93.7363 238.768 93.4056C239.194 93.0643 239.408 92.5629 239.408 91.9016C239.408 91.1763 239.2 90.6589 238.784 90.3496C238.378 90.0403 237.808 89.8856 237.072 89.8856H234.48V93.9016H237.072ZM244.737 88.5096H252.113V89.8856H246.369V93.4216H250.657V94.7816H246.369V98.3336H252.113V99.6936H244.737V88.5096ZM259.863 88.5096H261.431L265.895 99.6936H264.231L263.111 96.9096H258.167L257.079 99.6936H255.399L259.863 88.5096ZM262.663 95.5496L260.647 90.3176L258.631 95.5496H262.663ZM270.409 89.8856H266.937V88.5096H275.529V89.8856H272.057V99.6936H270.409V89.8856ZM278.887 88.5096H280.535V99.6936H278.887V88.5096ZM290.11 99.9336C289 99.9336 287.998 99.6936 287.102 99.2136C286.206 98.7229 285.502 98.0349 284.99 97.1496C284.478 96.2643 284.222 95.2509 284.222 94.1096C284.222 92.9683 284.478 91.9549 284.99 91.0696C285.502 90.1843 286.206 89.4963 287.102 89.0056C287.998 88.5149 289 88.2696 290.11 88.2696C291.219 88.2696 292.222 88.5149 293.118 89.0056C294.014 89.4963 294.718 90.1843 295.23 91.0696C295.742 91.9549 295.998 92.9683 295.998 94.1096C295.998 95.2509 295.742 96.2643 295.23 97.1496C294.718 98.0349 294.014 98.7229 293.118 99.2136C292.222 99.6936 291.219 99.9336 290.11 99.9336ZM290.11 98.4616C290.899 98.4616 291.614 98.2856 292.254 97.9336C292.904 97.5709 293.416 97.0643 293.79 96.4136C294.163 95.7523 294.35 94.9843 294.35 94.1096C294.35 93.2456 294.163 92.4883 293.79 91.8376C293.427 91.1763 292.926 90.6696 292.286 90.3176C291.646 89.9549 290.931 89.7736 290.142 89.7736C289.342 89.7736 288.616 89.9496 287.966 90.3016C287.326 90.6536 286.814 91.1603 286.43 91.8216C286.056 92.4829 285.87 93.2456 285.87 94.1096C285.87 94.9843 286.056 95.7523 286.43 96.4136C286.803 97.0643 287.31 97.5709 287.95 97.9336C288.6 98.2856 289.32 98.4616 290.11 98.4616ZM299.68 88.5096H301.232L306.928 96.9416V88.5096H308.576V99.6936H307.008L301.312 91.2616V99.6936H299.68V88.5096Z" fill="white"/>
<path d="M77.0423 84.4402L98.6605 108.347V84.4402V3.00611L44.9364 48.9349L3.40503 84.4402H77.0423Z" fill="url(#paint0_linear_695_35)" fill-opacity="0.45"/>
<path d="M107.662 68.3697L130.039 84.4402H3.40503L98.6605 3.00611V108.347L3.40503 3.00611L46.9209 30.5234" stroke="black" stroke-width="2"/>
<path d="M107.662 68.3697L130.039 84.4402H3.40503L98.6605 3.00611V108.347L3.40503 3.00611L46.9209 30.5234" stroke="url(#paint1_linear_695_35)" stroke-width="2"/>
<defs>
<linearGradient id="paint0_linear_695_35" x1="1.74639" y1="50.1164" x2="119.459" y2="50.1164" gradientUnits="userSpaceOnUse">
<stop stop-color="white"/>
<stop offset="1" stop-color="#919191"/>
</linearGradient>
<linearGradient id="paint1_linear_695_35" x1="1.74639" y1="50.1164" x2="119.459" y2="50.1164" gradientUnits="userSpaceOnUse">
<stop stop-color="white"/>
<stop offset="1" stop-color="#9F9F9F"/>
</linearGradient>
</defs>
</svg>
