<svg width="auto" height="auto" viewBox="0 0 937 578" fill="none" xmlns="http://www.w3.org/2000/svg">
<g clip-path="url(#clip0_1770_126)" y="9.28516">
    <g class="step">
        <path opacity="0.3" fill-rule="evenodd" clip-rule="evenodd" d="M460.713 29.2018C460.636 27.6905 460.362 26.231 459.884 24.8274C449.326 -6.18577 343.302 1.85413 223.072 42.785C102.842 83.7159 13.9355 142.038 24.4936 173.051C24.8063 173.97 25.2028 174.854 25.681 175.705L20.8936 177.317L105.872 286.541L105.92 286.524C120.806 308.921 205.107 301.749 299.937 269.255C394.767 236.76 465.749 190.723 463.771 163.903L463.795 163.895L463.809 28.1594L460.713 29.2018Z" fill="url(#paint4_linear_1770_126)" fill-opacity="0.6"/>
        <path fill-rule="evenodd" clip-rule="evenodd" d="M261.549 158.143C383.863 116.23 474.047 56.0705 462.98 23.772C451.912 -8.52645 343.785 -0.732902 221.47 41.1794C99.1556 83.0917 8.97189 143.251 20.0393 175.55C31.1067 207.848 139.234 200.055 261.549 158.143ZM258.469 153.501C376.182 113.165 463.296 56.2135 453.045 26.2952C442.793 -3.62305 339.057 4.82184 221.344 45.1574C103.63 85.493 16.5158 142.445 26.7676 172.363C37.0194 202.281 140.755 193.837 258.469 153.501Z" fill="url(#paint4_linear_1770_126)"/>
        <path fill-rule="evenodd" clip-rule="evenodd" d="M27.2849 184.758L106.019 285.955L106.067 285.939C120.953 308.335 205.253 301.164 300.083 268.669C394.913 236.175 465.896 190.137 463.918 163.318L463.941 163.309L463.955 27.5739L463.788 27.6302C466.533 60.8162 378.86 117.873 261.626 158.099C152.951 195.388 55.4467 205.665 27.2849 184.758Z" fill="url(#paint4_linear_1770_126)" fill-opacity="0.6"/>
    
        <path opacity="0.15" d="M463.658 92.418L936.764 92.418L936.764 148.623L463.658 148.623L463.658 92.418Z" fill="url(#paint9_linear_1770_126)"/>
    
        <path d="M565.342 115.501C565.342 116.621 565.072 117.671 564.532 118.651C564.012 119.631 563.182 120.421 562.042 121.021C560.922 121.621 559.502 121.921 557.782 121.921H554.272V129.961H550.072V109.021H557.782C559.402 109.021 560.782 109.301 561.922 109.861C563.062 110.421 563.912 111.191 564.472 112.171C565.052 113.151 565.342 114.261 565.342 115.501ZM557.602 118.531C558.762 118.531 559.622 118.271 560.182 117.751C560.742 117.211 561.022 116.461 561.022 115.501C561.022 113.461 559.882 112.441 557.602 112.441H554.272V118.531H557.602ZM572.524 112.411V117.661H579.574V120.991H572.524V126.541H580.474V129.961H568.324V108.991H580.474V112.411H572.524ZM595.091 129.961L590.471 121.801H588.491V129.961H584.291V109.021H592.151C593.771 109.021 595.151 109.311 596.291 109.891C597.431 110.451 598.281 111.221 598.841 112.201C599.421 113.161 599.711 114.241 599.711 115.441C599.711 116.821 599.311 118.071 598.511 119.191C597.711 120.291 596.521 121.051 594.941 121.471L599.951 129.961H595.091ZM588.491 118.651H592.001C593.141 118.651 593.991 118.381 594.551 117.841C595.111 117.281 595.391 116.511 595.391 115.531C595.391 114.571 595.111 113.831 594.551 113.311C593.991 112.771 593.141 112.501 592.001 112.501H588.491V118.651ZM602.489 119.461C602.489 117.401 602.949 115.561 603.869 113.941C604.809 112.301 606.079 111.031 607.679 110.131C609.299 109.211 611.109 108.751 613.109 108.751C615.449 108.751 617.499 109.351 619.259 110.551C621.019 111.751 622.249 113.411 622.949 115.531H618.119C617.639 114.531 616.959 113.781 616.079 113.281C615.219 112.781 614.219 112.531 613.079 112.531C611.859 112.531 610.769 112.821 609.809 113.401C608.869 113.961 608.129 114.761 607.589 115.801C607.069 116.841 606.809 118.061 606.809 119.461C606.809 120.841 607.069 122.061 607.589 123.121C608.129 124.161 608.869 124.971 609.809 125.551C610.769 126.111 611.859 126.391 613.079 126.391C614.219 126.391 615.219 126.141 616.079 125.641C616.959 125.121 617.639 124.361 618.119 123.361H622.949C622.249 125.501 621.019 127.171 619.259 128.371C617.519 129.551 615.469 130.141 613.109 130.141C611.109 130.141 609.299 129.691 607.679 128.791C606.079 127.871 604.809 126.601 603.869 124.981C602.949 123.361 602.489 121.521 602.489 119.461ZM630.737 112.411V117.661H637.787V120.991H630.737V126.541H638.687V129.961H626.537V108.991H638.687V112.411H630.737ZM657.774 115.501C657.774 116.621 657.504 117.671 656.964 118.651C656.444 119.631 655.614 120.421 654.474 121.021C653.354 121.621 651.934 121.921 650.214 121.921H646.704V129.961H642.504V109.021H650.214C651.834 109.021 653.214 109.301 654.354 109.861C655.494 110.421 656.344 111.191 656.904 112.171C657.484 113.151 657.774 114.261 657.774 115.501ZM650.034 118.531C651.194 118.531 652.054 118.271 652.614 117.751C653.174 117.211 653.454 116.461 653.454 115.501C653.454 113.461 652.314 112.441 650.034 112.441H646.704V118.531H650.034ZM670.326 126.391C671.466 126.391 672.466 126.141 673.326 125.641C674.206 125.121 674.886 124.361 675.366 123.361H680.196C679.576 125.281 678.506 126.831 676.986 128.011C675.486 129.171 673.716 129.861 671.676 130.081V131.311C672.776 131.311 673.696 131.591 674.436 132.151C675.196 132.711 675.576 133.521 675.576 134.581C675.576 135.661 675.186 136.491 674.406 137.071C673.646 137.651 672.706 137.941 671.586 137.941H667.326V135.481H670.896C671.376 135.481 671.736 135.411 671.976 135.271C672.236 135.131 672.366 134.881 672.366 134.521C672.366 134.161 672.236 133.911 671.976 133.771C671.736 133.651 671.376 133.591 670.896 133.591H669.036V130.081C667.256 129.881 665.656 129.311 664.236 128.371C662.836 127.411 661.736 126.161 660.936 124.621C660.136 123.081 659.736 121.361 659.736 119.461C659.736 117.401 660.196 115.561 661.116 113.941C662.056 112.301 663.326 111.031 664.926 110.131C666.546 109.211 668.356 108.751 670.356 108.751C672.696 108.751 674.746 109.351 676.506 110.551C678.266 111.751 679.496 113.411 680.196 115.531H675.366C674.886 114.531 674.206 113.781 673.326 113.281C672.466 112.781 671.466 112.531 670.326 112.531C669.106 112.531 668.016 112.821 667.056 113.401C666.116 113.961 665.376 114.761 664.836 115.801C664.316 116.841 664.056 118.061 664.056 119.461C664.056 120.841 664.316 122.061 664.836 123.121C665.376 124.161 666.116 124.971 667.056 125.551C668.016 126.111 669.106 126.391 670.326 126.391ZM696.623 125.971H688.283L686.903 129.961H682.493L690.023 108.991H694.913L702.443 129.961H698.003L696.623 125.971ZM695.483 122.611L692.453 113.851L689.423 122.611H695.483ZM687.053 107.401C687.233 106.081 687.643 105.101 688.283 104.461C688.943 103.801 689.773 103.471 690.773 103.471C691.193 103.471 691.563 103.541 691.883 103.681C692.203 103.801 692.563 103.981 692.963 104.221C693.563 104.601 694.063 104.791 694.463 104.791C695.203 104.791 695.633 104.361 695.753 103.501H698.003C697.823 104.821 697.403 105.811 696.743 106.471C696.103 107.111 695.283 107.431 694.283 107.431C693.863 107.431 693.493 107.371 693.173 107.251C692.853 107.111 692.493 106.921 692.093 106.681C691.513 106.281 691.013 106.081 690.593 106.081C689.853 106.081 689.413 106.521 689.273 107.401H687.053ZM714.978 130.171C713.018 130.171 711.218 129.711 709.578 128.791C707.938 127.871 706.638 126.601 705.678 124.981C704.718 123.341 704.238 121.491 704.238 119.431C704.238 117.391 704.718 115.561 705.678 113.941C706.638 112.301 707.938 111.021 709.578 110.101C711.218 109.181 713.018 108.721 714.978 108.721C716.958 108.721 718.758 109.181 720.378 110.101C722.018 111.021 723.308 112.301 724.248 113.941C725.208 115.561 725.688 117.391 725.688 119.431C725.688 121.491 725.208 123.341 724.248 124.981C723.308 126.601 722.018 127.871 720.378 128.791C718.738 129.711 716.938 130.171 714.978 130.171ZM714.978 126.421C716.238 126.421 717.348 126.141 718.308 125.581C719.268 125.001 720.018 124.181 720.558 123.121C721.098 122.061 721.368 120.831 721.368 119.431C721.368 118.031 721.098 116.811 720.558 115.771C720.018 114.711 719.268 113.901 718.308 113.341C717.348 112.781 716.238 112.501 714.978 112.501C713.718 112.501 712.598 112.781 711.618 113.341C710.658 113.901 709.908 114.711 709.368 115.771C708.828 116.811 708.558 118.031 708.558 119.431C708.558 120.831 708.828 122.061 709.368 123.121C709.908 124.181 710.658 125.001 711.618 125.581C712.598 126.141 713.718 126.421 714.978 126.421Z" fill="white"/>
    </g>
    <g class="step">
        <path opacity="0.3" fill-rule="evenodd" clip-rule="evenodd" d="M462.133 215.138C462.076 214.02 461.873 212.939 461.52 211.9C453.701 188.935 375.189 194.888 286.158 225.198C197.126 255.508 131.29 298.696 139.108 321.661C139.34 322.341 139.633 322.996 139.987 323.625L136.443 324.819L199.37 405.7L199.405 405.688C210.428 422.274 272.854 416.963 343.077 392.901C413.3 368.838 465.864 334.746 464.398 314.886L464.416 314.88L464.426 214.366L462.133 215.138Z" fill="url(#paint4_linear_1770_126)" fill-opacity="0.6"/>
        <path fill-rule="evenodd" clip-rule="evenodd" d="M314.65 310.627C405.225 279.59 472.007 235.041 463.812 211.124C455.616 187.207 375.547 192.978 284.972 224.014C194.396 255.051 127.614 299.6 135.81 323.517C144.006 347.434 224.075 341.663 314.65 310.627ZM312.37 307.192C399.537 277.323 464.047 235.15 456.455 212.995C448.863 190.84 372.046 197.094 284.878 226.963C197.71 256.831 133.201 299.005 140.793 321.16C148.384 343.314 225.202 337.061 312.37 307.192Z" fill="url(#paint4_linear_1770_126)"/>
        <path  fill-rule="evenodd" clip-rule="evenodd" d="M140.281 329.76L198.587 404.701L198.622 404.689C209.644 421.274 272.07 415.964 342.294 391.901C412.517 367.839 465.08 333.747 463.615 313.887L463.632 313.881L463.642 213.367L463.519 213.409C465.55 237.983 400.627 280.234 313.816 310.021C233.338 337.635 161.132 345.245 140.281 329.76Z" fill="url(#paint4_linear_1770_126)" fill-opacity="0.6"/>
    
        <path opacity="0.15" d="M464.355 241.096L937.462 241.096L937.462 297.301L464.355 297.301L464.355 241.096Z" fill="url(#paint8_linear_1770_126)"/>
    
        <path d="M560.872 280.381L556.252 272.221H554.272V280.381H550.072V259.441H557.932C559.552 259.441 560.932 259.731 562.072 260.311C563.212 260.871 564.062 261.641 564.622 262.621C565.202 263.581 565.492 264.661 565.492 265.861C565.492 267.241 565.092 268.491 564.292 269.611C563.492 270.711 562.302 271.471 560.722 271.891L565.732 280.381H560.872ZM554.272 269.071H557.782C558.922 269.071 559.772 268.801 560.332 268.261C560.892 267.701 561.172 266.931 561.172 265.951C561.172 264.991 560.892 264.251 560.332 263.731C559.772 263.191 558.922 262.921 557.782 262.921H554.272V269.071ZM573.491 262.831V268.081H580.541V271.411H573.491V276.961H581.441V280.381H569.291V259.411H581.441V262.831H573.491ZM589.458 277.051H596.358V280.381H585.258V259.441H589.458V277.051ZM611.867 276.391H603.527L602.147 280.381H597.737L605.267 259.411H610.157L617.687 280.381H613.247L611.867 276.391ZM610.727 273.031L607.697 264.271L604.667 273.031H610.727ZM619.482 269.881C619.482 267.821 619.942 265.981 620.862 264.361C621.802 262.721 623.072 261.451 624.672 260.551C626.292 259.631 628.102 259.171 630.102 259.171C632.442 259.171 634.492 259.771 636.252 260.971C638.012 262.171 639.242 263.831 639.942 265.951H635.112C634.632 264.951 633.952 264.201 633.072 263.701C632.212 263.201 631.212 262.951 630.072 262.951C628.852 262.951 627.762 263.241 626.802 263.821C625.862 264.381 625.122 265.181 624.582 266.221C624.062 267.261 623.802 268.481 623.802 269.881C623.802 271.261 624.062 272.481 624.582 273.541C625.122 274.581 625.862 275.391 626.802 275.971C627.762 276.531 628.852 276.811 630.072 276.811C631.212 276.811 632.212 276.561 633.072 276.061C633.952 275.541 634.632 274.781 635.112 273.781H639.942C639.242 275.921 638.012 277.591 636.252 278.791C634.512 279.971 632.462 280.561 630.102 280.561C628.102 280.561 626.292 280.111 624.672 279.211C623.072 278.291 621.802 277.021 620.862 275.401C619.942 273.781 619.482 271.941 619.482 269.881ZM647.729 259.441V280.381H643.529V259.441H647.729ZM661.599 280.591C659.639 280.591 657.839 280.131 656.199 279.211C654.559 278.291 653.259 277.021 652.299 275.401C651.339 273.761 650.859 271.911 650.859 269.851C650.859 267.811 651.339 265.981 652.299 264.361C653.259 262.721 654.559 261.441 656.199 260.521C657.839 259.601 659.639 259.141 661.599 259.141C663.579 259.141 665.379 259.601 666.999 260.521C668.639 261.441 669.929 262.721 670.869 264.361C671.829 265.981 672.309 267.811 672.309 269.851C672.309 271.911 671.829 273.761 670.869 275.401C669.929 277.021 668.639 278.291 666.999 279.211C665.359 280.131 663.559 280.591 661.599 280.591ZM661.599 276.841C662.859 276.841 663.969 276.561 664.929 276.001C665.889 275.421 666.639 274.601 667.179 273.541C667.719 272.481 667.989 271.251 667.989 269.851C667.989 268.451 667.719 267.231 667.179 266.191C666.639 265.131 665.889 264.321 664.929 263.761C663.969 263.201 662.859 262.921 661.599 262.921C660.339 262.921 659.219 263.201 658.239 263.761C657.279 264.321 656.529 265.131 655.989 266.191C655.449 267.231 655.179 268.451 655.179 269.851C655.179 271.251 655.449 272.481 655.989 273.541C656.529 274.601 657.279 275.421 658.239 276.001C659.219 276.561 660.339 276.841 661.599 276.841ZM693.343 280.381H689.143L679.633 266.011V280.381H675.433V259.411H679.633L689.143 273.811V259.411H693.343V280.381ZM710.334 276.391H701.994L700.614 280.381H696.204L703.734 259.411H708.624L716.154 280.381H711.714L710.334 276.391ZM709.194 273.031L706.164 264.271L703.134 273.031H709.194ZM741.798 259.441V280.381H737.598V266.761L731.988 280.381H728.808L723.168 266.761V280.381H718.968V259.441H723.738L730.398 275.011L737.058 259.441H741.798ZM750.151 262.831V268.081H757.201V271.411H750.151V276.961H758.101V280.381H745.951V259.411H758.101V262.831H750.151ZM779.828 280.381H775.628L766.118 266.011V280.381H761.918V259.411H766.118L775.628 273.811V259.411H779.828V280.381ZM798.228 259.441V262.831H792.648V280.381H788.448V262.831H782.868V259.441H798.228ZM811.013 280.591C809.053 280.591 807.253 280.131 805.613 279.211C803.973 278.291 802.673 277.021 801.713 275.401C800.753 273.761 800.273 271.911 800.273 269.851C800.273 267.811 800.753 265.981 801.713 264.361C802.673 262.721 803.973 261.441 805.613 260.521C807.253 259.601 809.053 259.141 811.013 259.141C812.993 259.141 814.793 259.601 816.413 260.521C818.053 261.441 819.343 262.721 820.283 264.361C821.243 265.981 821.723 267.811 821.723 269.851C821.723 271.911 821.243 273.761 820.283 275.401C819.343 277.021 818.053 278.291 816.413 279.211C814.773 280.131 812.973 280.591 811.013 280.591ZM811.013 276.841C812.273 276.841 813.383 276.561 814.343 276.001C815.303 275.421 816.053 274.601 816.593 273.541C817.133 272.481 817.403 271.251 817.403 269.851C817.403 268.451 817.133 267.231 816.593 266.191C816.053 265.131 815.303 264.321 814.343 263.761C813.383 263.201 812.273 262.921 811.013 262.921C809.753 262.921 808.633 263.201 807.653 263.761C806.693 264.321 805.943 265.131 805.403 266.191C804.863 267.231 804.593 268.451 804.593 269.851C804.593 271.251 804.863 272.481 805.403 273.541C805.943 274.601 806.693 275.421 807.653 276.001C808.633 276.561 809.753 276.841 811.013 276.841Z" fill="white"/>
    </g>
    <g class="step">
        <path opacity="0.3" fill-rule="evenodd" clip-rule="evenodd" d="M462.809 361.102C462.768 360.289 462.62 359.504 462.363 358.749C456.686 342.072 399.673 346.396 335.021 368.406C270.37 390.415 222.562 421.777 228.239 438.454C228.407 438.948 228.621 439.424 228.878 439.881L226.303 440.748L271.999 499.481L272.025 499.473C280.029 511.516 325.361 507.66 376.354 490.186C427.348 472.713 465.517 447.957 464.453 433.535L464.466 433.531L464.473 360.541L462.809 361.102Z" fill="url(#paint4_linear_1770_126)" fill-opacity="0.6"/>
        <path fill-rule="evenodd" clip-rule="evenodd" d="M355.711 430.44C421.484 407.903 469.979 375.553 464.028 358.185C458.076 340.817 399.933 345.008 334.16 367.545C268.387 390.083 219.892 422.433 225.844 439.801C231.795 457.169 289.939 452.978 355.711 430.44ZM354.055 427.944C417.353 406.254 464.198 375.629 458.685 359.541C453.172 343.453 397.39 347.994 334.092 369.684C270.793 391.374 223.949 421.999 229.462 438.087C234.974 454.175 290.757 449.634 354.055 427.944Z" fill="url(#paint4_linear_1770_126)"/>
        <path  fill-rule="evenodd" clip-rule="evenodd" d="M229.66 445.061L271.999 499.48L272.024 499.471C280.025 511.517 325.358 507.661 376.354 490.187C427.35 472.713 465.52 447.955 464.453 433.534L464.466 433.529L464.474 360.54L464.384 360.57C465.86 378.415 418.715 409.096 355.675 430.727C297.235 450.779 244.801 456.305 229.66 445.061Z" fill="url(#paint4_linear_1770_126)" fill-opacity="0.6"/>
    
        <path opacity="0.15" d="M464.355 369.43L937.462 369.43L937.462 425.635L464.355 425.635L464.355 369.43Z" fill="url(#paint7_linear_1770_126)"/>
    
        <path d="M549.052 395.184C549.052 393.124 549.512 391.284 550.432 389.664C551.372 388.024 552.642 386.754 554.242 385.854C555.862 384.934 557.672 384.474 559.672 384.474C562.012 384.474 564.062 385.074 565.822 386.274C567.582 387.474 568.812 389.134 569.512 391.254H564.682C564.202 390.254 563.522 389.504 562.642 389.004C561.782 388.504 560.782 388.254 559.642 388.254C558.422 388.254 557.332 388.544 556.372 389.124C555.432 389.684 554.692 390.484 554.152 391.524C553.632 392.564 553.372 393.784 553.372 395.184C553.372 396.564 553.632 397.784 554.152 398.844C554.692 399.884 555.432 400.694 556.372 401.274C557.332 401.834 558.422 402.114 559.642 402.114C560.782 402.114 561.782 401.864 562.642 401.364C563.522 400.844 564.202 400.084 564.682 399.084H569.512C568.812 401.224 567.582 402.894 565.822 404.094C564.082 405.274 562.032 405.864 559.672 405.864C557.672 405.864 555.862 405.414 554.242 404.514C552.642 403.594 551.372 402.324 550.432 400.704C549.512 399.084 549.052 397.244 549.052 395.184ZM582.819 405.894C580.859 405.894 579.059 405.434 577.419 404.514C575.779 403.594 574.479 402.324 573.519 400.704C572.559 399.064 572.079 397.214 572.079 395.154C572.079 393.114 572.559 391.284 573.519 389.664C574.479 388.024 575.779 386.744 577.419 385.824C579.059 384.904 580.859 384.444 582.819 384.444C584.799 384.444 586.599 384.904 588.219 385.824C589.859 386.744 591.149 388.024 592.089 389.664C593.049 391.284 593.529 393.114 593.529 395.154C593.529 397.214 593.049 399.064 592.089 400.704C591.149 402.324 589.859 403.594 588.219 404.514C586.579 405.434 584.779 405.894 582.819 405.894ZM582.819 402.144C584.079 402.144 585.189 401.864 586.149 401.304C587.109 400.724 587.859 399.904 588.399 398.844C588.939 397.784 589.209 396.554 589.209 395.154C589.209 393.754 588.939 392.534 588.399 391.494C587.859 390.434 587.109 389.624 586.149 389.064C585.189 388.504 584.079 388.224 582.819 388.224C581.559 388.224 580.439 388.504 579.459 389.064C578.499 389.624 577.749 390.434 577.209 391.494C576.669 392.534 576.399 393.754 576.399 395.154C576.399 396.554 576.669 397.784 577.209 398.844C577.749 399.904 578.499 400.724 579.459 401.304C580.439 401.864 581.559 402.144 582.819 402.144ZM614.564 405.684H610.364L600.854 391.314V405.684H596.654V384.714H600.854L610.364 399.114V384.714H614.564V405.684ZM637.525 384.744L629.845 405.684H624.745L617.065 384.744H621.565L627.325 401.394L633.055 384.744H637.525ZM644.243 388.134V393.384H651.293V396.714H644.243V402.264H652.193V405.684H640.043V384.714H652.193V388.134H644.243ZM666.809 405.684L662.189 397.524H660.209V405.684H656.009V384.744H663.869C665.489 384.744 666.869 385.034 668.009 385.614C669.149 386.174 669.999 386.944 670.559 387.924C671.139 388.884 671.429 389.964 671.429 391.164C671.429 392.544 671.029 393.794 670.229 394.914C669.429 396.014 668.239 396.774 666.659 397.194L671.669 405.684H666.809ZM660.209 394.374H663.719C664.859 394.374 665.709 394.104 666.269 393.564C666.829 393.004 667.109 392.234 667.109 391.254C667.109 390.294 666.829 389.554 666.269 389.034C665.709 388.494 664.859 388.224 663.719 388.224H660.209V394.374ZM682.458 405.894C680.998 405.894 679.678 405.644 678.498 405.144C677.338 404.644 676.418 403.924 675.738 402.984C675.058 402.044 674.708 400.934 674.688 399.654H679.188C679.248 400.514 679.548 401.194 680.088 401.694C680.648 402.194 681.408 402.444 682.368 402.444C683.348 402.444 684.118 402.214 684.678 401.754C685.238 401.274 685.518 400.654 685.518 399.894C685.518 399.274 685.328 398.764 684.948 398.364C684.568 397.964 684.088 397.654 683.508 397.434C682.948 397.194 682.168 396.934 681.168 396.654C679.808 396.254 678.698 395.864 677.838 395.484C676.998 395.084 676.268 394.494 675.648 393.714C675.048 392.914 674.748 391.854 674.748 390.534C674.748 389.294 675.058 388.214 675.678 387.294C676.298 386.374 677.168 385.674 678.288 385.194C679.408 384.694 680.688 384.444 682.128 384.444C684.288 384.444 686.038 384.974 687.378 386.034C688.738 387.074 689.488 388.534 689.628 390.414H685.008C684.968 389.694 684.658 389.104 684.078 388.644C683.518 388.164 682.768 387.924 681.828 387.924C681.008 387.924 680.348 388.134 679.848 388.554C679.368 388.974 679.128 389.584 679.128 390.384C679.128 390.944 679.308 391.414 679.668 391.794C680.048 392.154 680.508 392.454 681.048 392.694C681.608 392.914 682.388 393.174 683.388 393.474C684.748 393.874 685.858 394.274 686.718 394.674C687.578 395.074 688.318 395.674 688.938 396.474C689.558 397.274 689.868 398.324 689.868 399.624C689.868 400.744 689.578 401.784 688.998 402.744C688.418 403.704 687.568 404.474 686.448 405.054C685.328 405.614 683.998 405.894 682.458 405.894ZM706.349 401.694H698.009L696.629 405.684H692.219L699.749 384.714H704.639L712.169 405.684H707.729L706.349 401.694ZM705.209 398.334L702.179 389.574L699.149 398.334H705.209ZM696.779 383.124C696.959 381.804 697.369 380.824 698.009 380.184C698.669 379.524 699.499 379.194 700.499 379.194C700.919 379.194 701.289 379.264 701.609 379.404C701.929 379.524 702.289 379.704 702.689 379.944C703.289 380.324 703.789 380.514 704.189 380.514C704.929 380.514 705.359 380.084 705.479 379.224H707.729C707.549 380.544 707.129 381.534 706.469 382.194C705.829 382.834 705.009 383.154 704.009 383.154C703.589 383.154 703.219 383.094 702.899 382.974C702.579 382.834 702.219 382.644 701.819 382.404C701.239 382.004 700.739 381.804 700.319 381.804C699.579 381.804 699.139 382.244 698.999 383.124H696.779ZM724.704 405.894C722.744 405.894 720.944 405.434 719.304 404.514C717.664 403.594 716.364 402.324 715.404 400.704C714.444 399.064 713.964 397.214 713.964 395.154C713.964 393.114 714.444 391.284 715.404 389.664C716.364 388.024 717.664 386.744 719.304 385.824C720.944 384.904 722.744 384.444 724.704 384.444C726.684 384.444 728.484 384.904 730.104 385.824C731.744 386.744 733.034 388.024 733.974 389.664C734.934 391.284 735.414 393.114 735.414 395.154C735.414 397.214 734.934 399.064 733.974 400.704C733.034 402.324 731.744 403.594 730.104 404.514C728.464 405.434 726.664 405.894 724.704 405.894ZM724.704 402.144C725.964 402.144 727.074 401.864 728.034 401.304C728.994 400.724 729.744 399.904 730.284 398.844C730.824 397.784 731.094 396.554 731.094 395.154C731.094 393.754 730.824 392.534 730.284 391.494C729.744 390.434 728.994 389.624 728.034 389.064C727.074 388.504 725.964 388.224 724.704 388.224C723.444 388.224 722.324 388.504 721.344 389.064C720.384 389.624 719.634 390.434 719.094 391.494C718.554 392.534 718.284 393.754 718.284 395.154C718.284 396.554 718.554 397.784 719.094 398.844C719.634 399.904 720.384 400.724 721.344 401.304C722.324 401.864 723.444 402.144 724.704 402.144Z" fill="white"/>
    </g>

    <g class="step">
        <path  fill-rule="evenodd" clip-rule="evenodd" d="M298.115 533.962L328.042 572.427L328.059 572.422C333.714 580.936 365.757 578.211 401.802 565.859C437.848 553.508 464.828 536.008 464.073 525.815L464.082 525.812L464.087 474.221L464.024 474.243C465.065 486.856 431.742 508.542 387.185 523.83C345.878 538.004 308.816 541.91 298.115 533.962Z" fill="url(#paint4_linear_1770_126)" fill-opacity="0.6"/>
        <path opacity="0.3" fill-rule="evenodd" clip-rule="evenodd" d="M462.911 474.618C462.882 474.044 462.778 473.49 462.596 472.957C458.583 461.169 418.285 464.225 372.588 479.782C326.891 495.339 293.099 517.506 297.112 529.294C297.23 529.643 297.381 529.978 297.562 530.301L295.743 530.914L328.042 572.428L328.06 572.422C333.718 580.934 365.759 578.208 401.803 565.858C437.846 553.507 464.825 536.009 464.073 525.815L464.082 525.812L464.087 474.222L462.911 474.618Z" fill="url(#paint4_linear_1770_126)" fill-opacity="0.6"/>
        <path fill-rule="evenodd" clip-rule="evenodd" d="M387.212 523.615C433.702 507.685 467.979 484.82 463.772 472.544C459.566 460.268 418.468 463.23 371.979 479.16C325.489 495.09 291.212 517.956 295.418 530.232C299.625 542.508 340.722 539.546 387.212 523.615ZM386.041 521.85C430.782 506.52 463.893 484.873 459.996 473.502C456.1 462.13 416.671 465.34 371.931 480.671C327.19 496.002 294.079 517.648 297.976 529.02C301.872 540.391 341.301 537.181 386.041 521.85Z" fill="url(#paint4_linear_1770_126)"/>

        <path opacity="0.15" d="M464.662 471.248L937.769 471.248L937.769 527.453L464.662 527.453L464.662 471.248Z" fill="url(#paint6_linear_1770_126)"/>
    
        <path d="M563.002 487.138V490.528H554.272V495.898H560.962V499.228H554.272V508.078H550.072V487.138H563.002ZM570.18 487.138V508.078H565.98V487.138H570.18ZM581.65 487.138C583.85 487.138 585.78 487.568 587.44 488.428C589.12 489.288 590.41 490.518 591.31 492.118C592.23 493.698 592.69 495.538 592.69 497.638C592.69 499.738 592.23 501.578 591.31 503.158C590.41 504.718 589.12 505.928 587.44 506.788C585.78 507.648 583.85 508.078 581.65 508.078H574.33V487.138H581.65ZM581.5 504.508C583.7 504.508 585.4 503.908 586.6 502.708C587.8 501.508 588.4 499.818 588.4 497.638C588.4 495.458 587.8 493.758 586.6 492.538C585.4 491.298 583.7 490.678 581.5 490.678H578.53V504.508H581.5ZM600.034 490.528V495.778H607.084V499.108H600.034V504.658H607.984V508.078H595.834V487.108H607.984V490.528H600.034ZM616 504.748H622.9V508.078H611.8V487.138H616V504.748ZM629.77 487.138V508.078H625.57V487.138H629.77ZM638.21 504.538H647.63V508.078H633.35V504.838L642.71 490.678H633.35V487.138H647.63V490.378L638.21 504.538ZM664.045 504.088H655.705L654.325 508.078H649.915L657.445 487.108H662.335L669.865 508.078H665.425L664.045 504.088ZM662.905 500.728L659.875 491.968L656.845 500.728H662.905ZM682.249 504.508C683.389 504.508 684.389 504.258 685.249 503.758C686.129 503.238 686.809 502.478 687.289 501.478H692.119C691.499 503.398 690.429 504.948 688.909 506.128C687.409 507.288 685.639 507.978 683.599 508.198V509.428C684.699 509.428 685.619 509.708 686.359 510.268C687.119 510.828 687.499 511.638 687.499 512.698C687.499 513.778 687.109 514.608 686.329 515.188C685.569 515.768 684.629 516.058 683.509 516.058H679.249V513.598H682.819C683.299 513.598 683.659 513.528 683.899 513.388C684.159 513.248 684.289 512.998 684.289 512.638C684.289 512.278 684.159 512.028 683.899 511.888C683.659 511.768 683.299 511.708 682.819 511.708H680.959V508.198C679.179 507.998 677.579 507.428 676.159 506.488C674.759 505.528 673.659 504.278 672.859 502.738C672.059 501.198 671.659 499.478 671.659 497.578C671.659 495.518 672.119 493.678 673.039 492.058C673.979 490.418 675.249 489.148 676.849 488.248C678.469 487.328 680.279 486.868 682.279 486.868C684.619 486.868 686.669 487.468 688.429 488.668C690.189 489.868 691.419 491.528 692.119 493.648H687.289C686.809 492.648 686.129 491.898 685.249 491.398C684.389 490.898 683.389 490.648 682.249 490.648C681.029 490.648 679.939 490.938 678.979 491.518C678.039 492.078 677.299 492.878 676.759 493.918C676.239 494.958 675.979 496.178 675.979 497.578C675.979 498.958 676.239 500.178 676.759 501.238C677.299 502.278 678.039 503.088 678.979 503.668C679.939 504.228 681.029 504.508 682.249 504.508ZM708.547 504.088H700.207L698.827 508.078H694.417L701.947 487.108H706.837L714.367 508.078H709.927L708.547 504.088ZM707.407 500.728L704.377 491.968L701.347 500.728H707.407ZM698.977 485.518C699.157 484.198 699.567 483.218 700.207 482.578C700.867 481.918 701.697 481.588 702.697 481.588C703.117 481.588 703.487 481.658 703.807 481.798C704.127 481.918 704.487 482.098 704.887 482.338C705.487 482.718 705.987 482.908 706.387 482.908C707.127 482.908 707.557 482.478 707.677 481.618H709.927C709.747 482.938 709.327 483.928 708.667 484.588C708.027 485.228 707.207 485.548 706.207 485.548C705.787 485.548 705.417 485.488 705.097 485.368C704.777 485.228 704.417 485.038 704.017 484.798C703.437 484.398 702.937 484.198 702.517 484.198C701.777 484.198 701.337 484.638 701.197 485.518H698.977ZM726.901 508.288C724.941 508.288 723.141 507.828 721.501 506.908C719.861 505.988 718.561 504.718 717.601 503.098C716.641 501.458 716.161 499.608 716.161 497.548C716.161 495.508 716.641 493.678 717.601 492.058C718.561 490.418 719.861 489.138 721.501 488.218C723.141 487.298 724.941 486.838 726.901 486.838C728.881 486.838 730.681 487.298 732.301 488.218C733.941 489.138 735.231 490.418 736.171 492.058C737.131 493.678 737.611 495.508 737.611 497.548C737.611 499.608 737.131 501.458 736.171 503.098C735.231 504.718 733.941 505.988 732.301 506.908C730.661 507.828 728.861 508.288 726.901 508.288ZM726.901 504.538C728.161 504.538 729.271 504.258 730.231 503.698C731.191 503.118 731.941 502.298 732.481 501.238C733.021 500.178 733.291 498.948 733.291 497.548C733.291 496.148 733.021 494.928 732.481 493.888C731.941 492.828 731.191 492.018 730.231 491.458C729.271 490.898 728.161 490.618 726.901 490.618C725.641 490.618 724.521 490.898 723.541 491.458C722.581 492.018 721.831 492.828 721.291 493.888C720.751 494.928 720.481 496.148 720.481 497.548C720.481 498.948 720.751 500.178 721.291 501.238C721.831 502.298 722.581 503.118 723.541 503.698C724.521 504.258 725.641 504.538 726.901 504.538Z" fill="white"/>
    </g>

</g>
<defs>
<filter id="filter0_b_1770_126" x="7.28516" y="7.57422" width="476.673" height="311.328" filterUnits="userSpaceOnUse" color-interpolation-filters="sRGB">
<feFlood flood-opacity="0" result="BackgroundImageFix"/>
<feGaussianBlur in="BackgroundImageFix" stdDeviation="10"/>
<feComposite in2="SourceAlpha" operator="in" result="effect1_backgroundBlur_1770_126"/>
<feBlend mode="normal" in="SourceGraphic" in2="effect1_backgroundBlur_1770_126" result="shape"/>
</filter>
<linearGradient id="paint0_linear_1770_126" x1="294.017" y1="533.334" x2="450.511" y2="479.71" gradientUnits="userSpaceOnUse">
<stop stop-color="#C7C7C7"/>
<stop offset="1" stop-color="#767581"/>
</linearGradient>
<linearGradient id="paint1_linear_1770_126" x1="223.862" y1="444.19" x2="445.266" y2="368.323" gradientUnits="userSpaceOnUse">
<stop stop-color="#C7C7C7"/>
<stop offset="1" stop-color="#767581"/>
</linearGradient>
<linearGradient id="paint2_linear_1770_126" x1="132.187" y1="317.129" x2="437.015" y2="318.697" gradientUnits="userSpaceOnUse">
<stop stop-color="#3BA1F0"/>
<stop offset="1" stop-color="#7260DF"/>
</linearGradient>
<linearGradient id="paint3_linear_1770_126" x1="133.08" y1="329.561" x2="437.975" y2="225.086" gradientUnits="userSpaceOnUse">
<stop stop-color="#3BA1F0"/>
<stop offset="1" stop-color="#7260DF"/>
</linearGradient>
<linearGradient id="paint4_linear_1770_126" x1="136.08" y1="323.408" x2="436.583" y2="324.953" gradientUnits="userSpaceOnUse">
<stop stop-color="#3BA1F0"/>
<stop offset="1" stop-color="#7260DF"/>
</linearGradient>
<linearGradient id="paint5_linear_1770_126" x1="16.3532" y1="183.712" x2="428.09" y2="42.6262" gradientUnits="userSpaceOnUse">
<stop stop-color="#C7C7C7"/>
<stop offset="1" stop-color="#767581"/>
</linearGradient>
<linearGradient id="paint6_linear_1770_126" x1="697.725" y1="527.453" x2="697.725" y2="442.199" gradientUnits="userSpaceOnUse">
<stop stop-color="#3BA1F0"/>
<stop stop-color="#7260DF"/>
<stop offset="1" stop-color="#7260DF" stop-opacity="0"/>
</linearGradient>
<linearGradient id="paint7_linear_1770_126" x1="697.419" y1="425.635" x2="697.419" y2="340.381" gradientUnits="userSpaceOnUse">
<stop stop-color="#3BA1F0"/>
<stop stop-color="#7260DF"/>
<stop offset="1" stop-color="#7260DF" stop-opacity="0"/>
</linearGradient>
<linearGradient id="paint8_linear_1770_126" x1="697.419" y1="297.301" x2="697.419" y2="212.047" gradientUnits="userSpaceOnUse">
<stop stop-color="#3BA1F0"/>
<stop stop-color="#7260DF"/>
<stop offset="1" stop-color="#7260DF" stop-opacity="0"/>
</linearGradient>
<linearGradient id="paint9_linear_1770_126" x1="696.721" y1="148.623" x2="696.721" y2="63.3691" gradientUnits="userSpaceOnUse">
<stop stop-color="#3BA1F0"/>
<stop stop-color="#7260DF"/>
<stop offset="1" stop-color="#7260DF" stop-opacity="0"/>
</linearGradient>
<clipPath id="clip0_1770_126">
<rect width="937" height="578" fill="white"/>
</clipPath>
</defs>
</svg>
