<svg width="auto" height="auto" viewBox="0 0 192 76" fill="none" xmlns="http://www.w3.org/2000/svg">
<path fill-rule="evenodd" clip-rule="evenodd" d="M171.208 21.9265V21.9268V34.2169L171.223 34.2004C173.164 32.0382 177.081 30.9834 178.491 30.9834C188.247 30.9834 191.122 37.4008 191.34 40.6094V42.4785H191.35V55.5977V55.5979C191.35 56.9774 190.232 58.0957 188.852 58.0957C187.473 58.0957 186.354 56.9774 186.354 55.5979V55.5977V42.4785H186.4C186.397 41.223 185.957 40.1262 185.736 39.7334C185.092 38.287 182.742 35.3942 178.491 35.3942C174.239 35.3942 171.874 38.651 171.223 40.2794V40.9855H171.208V55.9795H171.207C171.208 56.0102 171.208 56.041 171.208 56.072C171.208 57.4515 170.09 58.5698 168.711 58.5698C167.331 58.5698 166.213 57.4515 166.213 56.072L166.213 56.0491L166.213 56.0296L166.214 56.0043L166.215 55.9795H166.213V21.9268V21.9265C166.213 20.547 167.331 19.4287 168.711 19.4287C170.09 19.4287 171.208 20.547 171.208 21.9265ZM93.5142 25.3552V25.3555V32.266H98.1038H98.104C99.2378 32.2661 100.157 33.1852 100.157 34.319C100.157 35.4528 99.2378 36.372 98.104 36.3721H98.1038H93.5142V42.7852H93.5167V49.5945C94.1873 52.9068 95.9003 53.0076 98.184 53.0597C98.2315 53.057 98.2795 53.0557 98.3277 53.0557C99.7348 53.0557 100.876 54.1964 100.876 55.6035C100.876 56.9753 99.7914 58.0939 98.4333 58.1492V58.1544C90.2776 58.1544 88.4549 52.4869 88.5197 49.5945V43.2954H88.5186V36.3721H85.6509H85.6507C84.5168 36.3721 83.5977 35.4529 83.5977 34.319C83.5977 33.1852 84.5168 32.266 85.6507 32.266L85.6527 32.266H88.5186V25.3555V25.3552C88.5186 23.9757 89.6369 22.8574 91.0164 22.8574C92.3959 22.8574 93.5142 23.9757 93.5142 25.3552ZM158.044 53.6889C158.044 52.5091 157.087 51.5527 155.907 51.5527C155.308 51.5527 154.766 51.7994 154.379 52.1969C154.08 52.4001 153.646 52.6299 153.238 52.8462C152.886 53.0324 152.554 53.2085 152.343 53.3489C151.72 53.7641 149.46 54.3176 146.992 53.8333C144.524 53.3489 142.84 52.2417 141.053 49.4834C139.678 46.8826 139.695 43.7185 140.707 40.7366C141.719 37.7548 145.019 35.5656 148.83 35.549C151.48 35.5375 152.786 36.6839 154.232 37.9534C154.365 38.0703 154.499 38.1882 154.636 38.3064C155.046 38.726 155.619 38.9863 156.253 38.9863C157.503 38.9863 158.516 37.9731 158.516 36.7234C158.516 36.0498 158.221 35.445 157.754 35.0305C156.644 33.9674 154.696 32.378 152.914 31.7275C151.07 31.0542 145.03 30.227 140.707 33.3806C136.383 36.5343 135.096 41.8906 135.086 43.978C135.086 50.6813 137.858 53.2925 139.291 54.6421C139.364 54.7108 139.433 54.7763 139.499 54.8389C140.686 55.9728 144.104 58.3717 148.199 58.3717C152.855 58.4538 155.293 56.7256 156.792 55.6629L156.933 55.5634C157.064 55.4916 157.186 55.4065 157.299 55.3099L157.344 55.2797L157.339 55.2742C157.772 54.8833 158.044 54.3179 158.044 53.6889ZM126.699 42.3784C126.573 40.9536 125.723 39.236 125.297 38.5296L125.297 38.5285C124.578 37.4788 122.01 35.3726 118.963 35.3859C115.153 35.4024 111.876 37.7548 110.864 40.7367C110.68 41.2794 110.528 41.8281 110.413 42.3784L126.699 42.3784ZM123.071 31.7275C124.763 32.2966 127.408 33.7472 128.554 35.6758C130.068 37.2098 130.869 40.9033 131.08 42.5638V44.5106C131.08 46.1223 129.881 46.3743 129.281 46.2988L129.276 46.2949H110.221C110.362 47.4123 110.685 48.4891 111.21 49.4835C112.997 52.2417 114.681 53.3489 117.149 53.8333C119.402 54.2755 121.401 53.6769 122.28 53.4137L122.28 53.4137C122.364 53.3887 122.437 53.3667 122.5 53.3489C123.048 53.1933 125.161 52.3099 125.868 51.8685C125.889 51.8539 125.911 51.8397 125.934 51.8259C125.962 51.8067 125.987 51.7885 126.009 51.7716L126.014 51.7784C126.332 51.5987 126.7 51.4961 127.092 51.4961C128.305 51.4961 129.289 52.4796 129.289 53.6929C129.289 54.3842 128.969 55.001 128.47 55.4037L128.472 55.407C126.281 57.1058 123.546 58.2405 118.335 58.2405C114.24 58.2405 110.843 55.9728 109.656 54.8389C108.305 53.548 105.428 50.6295 105.428 43.5847C105.438 41.4974 106.54 36.5343 110.864 33.3806C115.187 30.227 120.804 30.9646 123.071 31.7275Z" fill="white"/>
<path fill-rule="evenodd" clip-rule="evenodd" d="M0.724609 14.0996C0.724609 6.36762 6.99262 0.0996094 14.7246 0.0996094H63.5977C71.3296 0.0996094 77.5977 6.36762 77.5977 14.0996V61.2852C77.5977 69.0171 71.3296 75.2852 63.5977 75.2852H14.7246C6.99263 75.2852 0.724609 69.0171 0.724609 61.2852V14.0996ZM20.7538 18.1717C28.241 16.5672 35.4607 20.623 38.1346 22.8514C38.9261 23.6222 38.7804 25.9691 36.6313 26.8131C35.4508 27.4215 33.9151 26.3379 33.258 25.687C33.2334 25.6627 33.2087 25.642 33.1798 25.623C31.1087 24.2632 25.7965 21.9726 20.7538 23.4811C15.6767 24.9998 12.4858 29.1506 11.525 31.0362C10.4401 32.8701 8.75863 37.8582 10.7113 43.1394C13.1522 49.7409 19.665 52.7359 24.5739 52.7359C28.2788 52.7359 31.3956 51.3011 32.6958 50.4619C32.8323 50.3738 32.9099 50.2211 32.9099 50.0586V42.9865C32.9099 42.7104 32.6861 42.4865 32.4099 42.4865H25.409C25.3796 42.4865 25.3508 42.4842 25.322 42.4784C24.5763 42.3297 23.166 41.6455 23.166 40.0071C23.166 38.3886 24.5422 37.5301 25.2944 37.2768C25.3409 37.2611 25.3879 37.2542 25.437 37.2542H36.1788C37.5372 37.2542 38.1552 38.7445 38.3045 39.5295C38.3099 39.5578 38.3122 39.586 38.3122 39.6148V52.5189C38.3 53.0094 37.1205 54.5052 32.5006 56.565C24.5211 59.4861 19.0946 57.4047 17.0897 56.6357C17.0245 56.6107 16.9628 56.587 16.9049 56.565C15.0657 55.8661 7.15764 52.1511 4.98751 43.1394C3.25142 35.9301 5.71089 29.8855 7.15764 27.7644C8.57 25.2354 13.2665 19.7762 20.7538 18.1717ZM56.1584 19.2691C56.643 18.3022 57.6432 17.6386 58.7983 17.6386C60.1292 17.6386 61.2543 18.5195 61.6223 19.73L74.9814 54.6062C75.12 54.9297 75.1968 55.2859 75.1968 55.66C75.1968 57.1389 73.9979 58.3378 72.519 58.3378C71.3876 58.3378 70.42 57.636 70.0278 56.6439L70.0273 56.6441L65.3224 44.3612H52.2782L47.6739 56.3814L47.6733 56.3812C47.2812 57.3733 46.3136 58.0751 45.1821 58.0751C43.7033 58.0751 42.5044 56.8762 42.5044 55.3973C42.5044 55.0232 42.5811 54.667 42.7197 54.3435L55.9613 19.7742C56.0082 19.6106 56.0689 19.4528 56.1421 19.3022L56.1552 19.2679L56.1584 19.2691ZM58.8003 27.3341L63.3574 39.2313H54.2432L58.8003 27.3341Z" fill="white"/>
</svg>
