<svg width="25" height="25" viewBox="0 0 45 46" fill="none" xmlns="http://www.w3.org/2000/svg">
<path d="M22.9599 20.218H44.2893C44.3993 21.1797 44.457 22.1658 44.457 23.1769C44.457 30.0127 42.0084 35.767 37.7639 39.6747C34.0502 43.1027 28.9691 45.1127 22.9089 45.1127C14.1344 45.1127 6.54373 40.0829 2.85032 32.7471C1.33015 29.7168 0.462891 26.2887 0.462891 22.6667C0.462891 19.0447 1.33015 15.6167 2.85032 12.5865C6.54373 5.25068 14.1344 0.220703 22.9089 0.220703C28.9591 0.220703 34.0399 2.44498 37.9271 6.06687L34.2721 9.72196C31.3793 6.92364 27.4663 5.22004 22.9599 5.22004C13.2962 5.22004 5.46222 13.054 5.46222 22.7177C5.46222 32.3814 13.2962 40.2154 22.9599 40.2154C31.775 40.2154 38.3186 33.697 39.4002 25.2174H22.9599V20.218Z" fill="white"/>
</svg>
