<svg width="44" height="46" viewBox="0 0 44 46" fill="none" xmlns="http://www.w3.org/2000/svg">
<path d="M42.625 30.3242C42.625 31.584 42.1421 32.7922 41.2826 33.683C40.423 34.5738 39.2572 35.0742 38.0417 35.0742H10.5417L1.375 44.5742V6.57422C1.375 5.31444 1.85789 4.10626 2.71743 3.21546C3.57697 2.32466 4.74276 1.82422 5.95833 1.82422H38.0417C39.2572 1.82422 40.423 2.32466 41.2826 3.21546C42.1421 4.10626 42.625 5.31444 42.625 6.57422V30.3242Z" stroke="url(#paint0_linear_2573_365)" stroke-width="2" stroke-linecap="round" stroke-linejoin="round"/>
<path d="M31.063 11.9147C30.5393 11.3857 29.9176 10.9661 29.2333 10.6798C28.549 10.3935 27.8156 10.2461 27.0749 10.2461C26.3342 10.2461 25.6007 10.3935 24.9164 10.6798C24.2321 10.9661 23.6104 11.3857 23.0868 11.9147L22 13.0121L20.9133 11.9147C19.8556 10.8467 18.421 10.2466 16.9252 10.2466C15.4294 10.2466 13.9948 10.8467 12.9371 11.9147C11.8794 12.9828 11.2852 14.4314 11.2852 15.9419C11.2852 17.4524 11.8794 18.901 12.9371 19.969L14.0238 21.0664L22 29.1207L29.9762 21.0664L31.063 19.969C31.5868 19.4403 32.0024 18.8125 32.286 18.1215C32.5695 17.4305 32.7154 16.6899 32.7154 15.9419C32.7154 15.1939 32.5695 14.4533 32.286 13.7623C32.0024 13.0713 31.5868 12.4435 31.063 11.9147Z" stroke="url(#paint1_linear_2573_365)" stroke-width="2" stroke-linecap="round" stroke-linejoin="round"/>
<defs>
<linearGradient id="paint0_linear_2573_365" x1="0.834711" y1="25.4558" x2="39.1788" y2="25.4558" gradientUnits="userSpaceOnUse">
<stop stop-color="#3BA1F0"/>
<stop offset="1" stop-color="#7260DF"/>
</linearGradient>
<linearGradient id="paint1_linear_2573_365" x1="11.0045" y1="20.6797" x2="30.925" y2="20.6797" gradientUnits="userSpaceOnUse">
<stop stop-color="#3BA1F0"/>
<stop offset="1" stop-color="#7260DF"/>
</linearGradient>
</defs>
</svg>
