<svg width="25" height="25" viewBox="0 0 45 45" fill="none" xmlns="http://www.w3.org/2000/svg">
<path d="M22.5489 11.1115C22.1569 11.1115 21.7692 11.1315 21.3872 11.1706C21.0052 11.2097 20.6285 11.2677 20.2582 11.3438C19.8879 11.4199 19.5242 11.5142 19.1677 11.6254L18.1215 12.0096L17.1255 12.4905L16.1855 13.0625L15.3073 13.7194L14.4969 14.4555L13.76 15.2652L13.1024 16.1425L12.5298 17.0815L12.0485 18.0765C11.9038 18.4168 11.7752 18.7656 11.6638 19.1218C11.5524 19.4779 11.4582 19.8415 11.3819 20.2114C11.3056 20.5812 11.2477 20.9575 11.2084 21.3393C11.1691 21.721 11.1494 22.1083 11.1494 22.4998C11.1494 22.8914 11.1694 23.2787 11.2084 23.6604C11.2472 24.0391 11.3051 24.4156 11.3819 24.7884C11.4582 25.1597 11.5524 25.5218 11.6638 25.878C11.7752 26.2342 11.9037 26.5829 12.0485 26.9233L12.5298 27.9182L13.1024 28.8572L13.76 29.7346L14.4969 30.5443L15.3073 31.2804L16.1855 31.9373L17.1255 32.5093L18.1215 32.9902L19.1677 33.3744L20.2582 33.656C20.6314 33.7327 21.0082 33.7906 21.3872 33.8293C21.7732 33.8687 22.1609 33.8884 22.5489 33.8883C22.9409 33.8883 23.3286 33.8683 23.7105 33.8293C24.0895 33.7906 24.4663 33.7327 24.8395 33.656L25.9301 33.3744L26.9763 32.9902L27.9722 32.5093L28.9123 31.9373L29.7905 31.2804L30.6011 30.5443L31.3379 29.7346L31.9955 28.8572L32.5682 27.9182L33.0494 26.9233L33.4342 25.878C33.5455 25.5218 33.6398 25.1583 33.716 24.7884L33.8896 23.6602C33.9287 23.2785 33.9487 22.8912 33.9487 22.4997C33.9487 22.1081 33.9287 21.7208 33.8896 21.3391C33.8508 20.9605 33.7929 20.584 33.716 20.2112C33.6398 19.84 33.5455 19.4779 33.4342 19.1216L33.0494 18.0763L32.5682 17.0814L31.9955 16.1423L31.3379 15.2651L30.6011 14.4554L29.7905 13.7192L28.9123 13.0623L27.9722 12.4904L26.9763 12.0094L25.9301 11.6253L24.8395 11.3437L23.7105 11.1704C23.3245 11.131 22.9368 11.1113 22.5489 11.1113V11.1115ZM22.5489 15.0423C22.8081 15.0423 23.0639 15.0552 23.3158 15.0806L24.0583 15.193L24.7756 15.3757L25.4625 15.6252L26.1156 15.938L26.7296 16.31L27.3037 16.738L27.8329 17.2181L28.3135 17.7467L28.7419 18.3202L29.1143 18.9351L29.4271 19.5878C29.521 19.8111 29.6044 20.04 29.677 20.2741C29.7495 20.5081 29.8105 20.7473 29.8598 20.991C29.909 21.2346 29.9454 21.4825 29.9722 21.7342L30.0104 22.5005C30.0104 22.7594 29.9976 23.0151 29.9722 23.267C29.9467 23.5189 29.9093 23.7668 29.8598 24.0103C29.8102 24.2537 29.7491 24.4929 29.677 24.7271L29.4271 25.4135L29.1143 26.0661L28.7419 26.6808L28.3135 27.2545L27.8329 27.7831L27.3037 28.2633L26.7296 28.6912L26.1156 29.0632L25.4625 29.376L24.7756 29.6255L24.0583 29.8083L23.3158 29.9205C23.0609 29.946 22.8049 29.9588 22.5488 29.9588C22.2926 29.9588 22.0365 29.946 21.7816 29.9205L21.039 29.8083C20.7953 29.7588 20.5559 29.6977 20.3216 29.6255L19.6347 29.376L18.9817 29.0632L18.3676 28.6912L17.7935 28.2633L17.2643 27.7831L16.7838 27.2545L16.3553 26.6808L15.9829 26.0661L15.6702 25.4135L15.4203 24.7271L15.2375 24.0103L15.1251 23.267C15.0995 23.0123 15.0868 22.7565 15.0868 22.5005C15.0868 22.2446 15.0995 21.9889 15.1251 21.7342C15.1504 21.4825 15.1879 21.2344 15.2375 20.991C15.2865 20.7492 15.3476 20.5099 15.4204 20.2742L15.6703 19.5879L15.983 18.9353L16.3555 18.3204L16.7839 17.7469L17.2644 17.2182L17.7937 16.7381L18.3677 16.3101L18.9818 15.9381L19.6348 15.6254C19.8596 15.531 20.0889 15.4477 20.3219 15.3759L21.0393 15.1931C21.2831 15.1437 21.5313 15.106 21.7819 15.0807C22.0368 15.0552 22.2929 15.0424 22.549 15.0424L22.5489 15.0423Z" fill="white"/>
<path d="M34.412 7.87109C34.3215 7.87111 34.231 7.87569 34.1409 7.8848C34.0509 7.8939 33.9613 7.90754 33.8726 7.92565C33.7839 7.94374 33.6962 7.96628 33.6097 7.99319C33.5232 8.02012 33.4382 8.05139 33.3548 8.08687C33.2714 8.1224 33.1899 8.1621 33.1105 8.20583C33.031 8.24947 32.9538 8.29708 32.8791 8.34849C32.8044 8.39995 32.7323 8.45514 32.6631 8.51386C32.5938 8.57251 32.5276 8.63461 32.4646 8.69993C32.4015 8.76528 32.3417 8.83377 32.2855 8.90514C32.2292 8.97651 32.1766 9.05067 32.1277 9.12734C32.0788 9.20395 32.0338 9.28298 31.9927 9.36411C31.9516 9.44531 31.9146 9.52853 31.8818 9.61345C31.849 9.69836 31.8204 9.78486 31.7962 9.87264C31.772 9.96041 31.7522 10.0493 31.7368 10.1391C31.7214 10.2289 31.7105 10.3193 31.7041 10.4102C31.6996 10.4745 31.6973 10.539 31.6973 10.6035C31.6973 10.6946 31.7018 10.7857 31.7108 10.8764C31.7199 10.967 31.7334 11.0572 31.7514 11.1465C31.7694 11.2357 31.7918 11.324 31.8185 11.4111C31.8453 11.4981 31.8763 11.5838 31.9116 11.6677C31.9469 11.7516 31.9863 11.8338 32.0297 11.9137C32.0731 11.9937 32.1204 12.0714 32.1715 12.1467C32.2226 12.2218 32.2774 12.2944 32.3357 12.364C32.394 12.4337 32.4558 12.5004 32.5207 12.5639C32.5856 12.6274 32.6537 12.6875 32.7246 12.7441C32.7955 12.8008 32.8692 12.8538 32.9454 12.9031C33.0216 12.9523 33.1002 12.9977 33.1809 13.039C33.2615 13.0804 33.3441 13.1177 33.4285 13.1507C33.5128 13.1837 33.5988 13.2125 33.686 13.2368C33.7732 13.2611 33.8615 13.2811 33.9507 13.2965C34.0399 13.312 34.1298 13.323 34.22 13.3295C34.284 13.3341 34.348 13.3364 34.4121 13.3364C34.5026 13.3364 34.5931 13.3319 34.6832 13.3228C34.7732 13.3137 34.8628 13.3001 34.9515 13.2819C35.0402 13.2639 35.1279 13.2413 35.2144 13.2144C35.3009 13.1875 35.3859 13.1562 35.4693 13.1207C35.5527 13.0852 35.6342 13.0456 35.7136 13.0019C35.7931 12.9582 35.8703 12.9106 35.945 12.8591C36.0197 12.8077 36.0918 12.7525 36.161 12.6939C36.2302 12.6352 36.2965 12.573 36.3595 12.5077C36.4226 12.4423 36.4824 12.3738 36.5386 12.3025C36.5949 12.2311 36.6475 12.1569 36.6964 12.0802C36.7453 12.0036 36.7903 11.9245 36.8314 11.8433C36.8725 11.7621 36.9095 11.6789 36.9423 11.594C36.9751 11.5091 37.0037 11.4226 37.0279 11.3348C37.0521 11.247 37.0719 11.1581 37.0873 11.0683C37.1026 10.9786 37.1136 10.8881 37.12 10.7973C37.1245 10.7329 37.1268 10.6685 37.1268 10.6039C37.1268 10.5128 37.1223 10.4218 37.1133 10.3312C37.1042 10.2405 37.0907 10.1504 37.0727 10.0611C37.0547 9.97186 37.0323 9.88355 37.0056 9.79652C36.9788 9.70947 36.9477 9.62383 36.9125 9.5399C36.8772 9.45596 36.8378 9.37383 36.7944 9.29385C36.751 9.21388 36.7037 9.13615 36.6526 9.06094C36.6014 8.98573 36.5466 8.91314 36.4882 8.84345C36.43 8.77375 36.3683 8.70702 36.3034 8.64352C36.2385 8.58006 36.1704 8.51992 36.0995 8.4633C36.0286 8.4067 35.9549 8.3537 35.8787 8.30451C35.8025 8.25526 35.7239 8.20989 35.6432 8.16855C35.5626 8.1272 35.4799 8.08993 35.3956 8.05688C35.3113 8.02388 35.2253 7.99514 35.1381 7.97077C35.0509 7.9464 34.9626 7.92643 34.8734 7.91094C34.7842 7.89548 34.6943 7.88451 34.604 7.87809C34.5401 7.87352 34.4761 7.87124 34.412 7.87124V7.87109Z" fill="white"/>
<path d="M20.3877 0.221118C19.1479 0.219119 18.0414 0.224259 17.0475 0.238254L14.3828 0.309656C13.5934 0.343929 12.8959 0.388624 12.2699 0.44646C11.9568 0.475306 11.6615 0.50758 11.3816 0.543138C11.1153 0.576708 10.8497 0.6158 10.5849 0.660383C10.3329 0.703224 10.0937 0.74949 9.86433 0.799757C9.63499 0.850024 9.41593 0.904292 9.20458 0.962556C8.99796 1.01953 8.79296 1.0822 8.58981 1.15049C8.39074 1.21761 8.19652 1.28872 8.00474 1.36469C7.62117 1.51664 7.24702 1.68714 6.86173 1.87821C6.56527 2.0253 6.29137 2.17425 6.03118 2.3319C5.77099 2.48956 5.52451 2.65607 5.28318 2.83743C5.03464 3.02511 4.79508 3.22441 4.5653 3.43464C4.3251 3.65342 4.07976 3.89404 3.82486 4.16294C3.50455 4.49896 3.22622 4.81227 2.97917 5.11973C2.85565 5.27339 2.73998 5.42533 2.63102 5.57813C2.52326 5.72872 2.42025 5.88264 2.32213 6.03967C2.22502 6.19533 2.13306 6.35384 2.04509 6.51693C1.95575 6.68282 1.87132 6.8513 1.7919 7.02217C1.62939 7.37118 1.47773 7.74704 1.32636 8.1666C1.21406 8.47677 1.1135 8.79107 1.0249 9.10882C0.934502 9.43356 0.854103 9.77329 0.782416 10.1407C0.710728 10.5082 0.64818 10.9033 0.5932 11.3403C0.533954 11.8193 0.486623 12.2997 0.451253 12.781C0.411267 13.3103 0.378137 13.8926 0.351004 14.5408L0.286742 16.696L0.252184 19.3232L0.242188 22.4987L0.271462 27.1166L0.362857 30.6153L0.433259 31.9819L0.521227 33.1144C0.549426 33.4196 0.584708 33.7241 0.627045 34.0277C0.665602 34.2973 0.707015 34.5333 0.75157 34.7375C0.841975 35.1526 0.948877 35.5641 1.07202 35.9707C1.18993 36.3601 1.32477 36.7441 1.47616 37.1217C1.62496 37.4916 1.78776 37.8483 1.96483 38.1916C2.14191 38.5349 2.33327 38.8648 2.53891 39.1817C2.74454 39.4986 2.96446 39.8024 3.19923 40.0933C3.43374 40.3842 3.68317 40.6628 3.94653 40.9279C4.21029 41.1935 4.48847 41.4463 4.78165 41.6865C5.07829 41.9294 5.38664 42.1577 5.70559 42.3705C6.00162 42.5684 6.29451 42.7496 6.58955 42.916C6.88458 43.0824 7.18219 43.2333 7.48807 43.3705C7.79396 43.5078 8.10756 43.6313 8.43515 43.7424C8.76274 43.8535 9.10404 43.9523 9.46477 44.04C9.82549 44.1277 10.2073 44.2047 10.6115 44.2718C11.0156 44.3389 11.4476 44.3965 11.9091 44.446C12.3707 44.4956 12.8631 44.5365 13.3922 44.5708C13.9213 44.6051 14.4868 44.6325 15.0944 44.6545C16.033 44.6885 17.4539 44.7083 19.0925 44.7159L24.3969 44.7052L29.4199 44.6348L31.3298 44.5811L32.574 44.5171C32.8411 44.4954 33.1024 44.4697 33.3546 44.4396C33.6068 44.4094 33.8556 44.375 34.0978 44.3359C34.34 44.2968 34.5767 44.2531 34.8094 44.2045C35.0393 44.1566 35.2681 44.1032 35.4954 44.0442C35.7205 43.987 35.9424 43.9221 36.162 43.8531C36.3816 43.7841 36.599 43.7096 36.815 43.6296C37.0324 43.5491 37.2477 43.4634 37.4608 43.3724C37.6754 43.281 37.8898 43.1833 38.1049 43.0797C38.4352 42.9206 38.7011 42.7879 38.9345 42.6584C39.1542 42.5379 39.3657 42.4032 39.5677 42.2551C39.7671 42.1083 39.9653 41.9412 40.1938 41.7307C40.4223 41.5202 40.6812 41.2666 41.0018 40.9459C41.2835 40.6643 41.5212 40.4195 41.7261 40.1969C41.931 39.9742 42.1037 39.7739 42.255 39.5808C42.3993 39.3976 42.5338 39.2068 42.6577 39.0093C42.7787 38.8165 42.8901 38.6163 43.0036 38.3943C43.1744 38.0601 43.3263 37.7506 43.4624 37.452C43.5946 37.1643 43.7153 36.8714 43.8243 36.5741C43.9317 36.2791 44.0247 35.9791 44.1029 35.6751C44.1835 35.3624 44.2529 35.0322 44.3128 34.6701C44.3728 34.3079 44.4235 33.9138 44.4675 33.4736C44.5115 33.0335 44.5489 32.5471 44.5817 32.0006L44.6689 30.166L44.7437 27.8844L44.7971 25.3425L44.8177 22.6846L44.77 17.4644L44.7061 15.1263L44.619 13.1188L44.5105 11.5536C44.4711 11.1181 44.4285 10.7751 44.3834 10.5431C44.3335 10.2869 44.2777 10.0318 44.216 9.77814C44.156 9.53129 44.0901 9.28593 44.0182 9.04227C43.9482 8.80489 43.8721 8.56933 43.79 8.33582C43.7089 8.10519 43.623 7.87942 43.533 7.6585C43.443 7.43759 43.3456 7.22181 43.2442 7.0106C43.1428 6.79939 43.0366 6.59333 42.9251 6.39197C42.8135 6.19062 42.6973 5.99426 42.5758 5.80276C42.4542 5.61126 42.3277 5.42462 42.1959 5.24297C42.0649 5.0619 41.9282 4.88498 41.7861 4.71245C41.6447 4.54087 41.4979 4.3738 41.3459 4.2115C41.1942 4.04939 41.0374 3.89213 40.8757 3.73996C40.7139 3.58773 40.5472 3.44035 40.3753 3.29783C40.2027 3.15484 40.0258 3.01726 39.8446 2.88527C39.6616 2.75194 39.4745 2.62421 39.2837 2.50227C39.0903 2.3786 38.8932 2.26068 38.6928 2.14869C38.4889 2.03482 38.2817 1.92681 38.0716 1.82481C37.7229 1.6553 37.4004 1.50493 37.0838 1.37155C36.7726 1.23918 36.4553 1.12161 36.133 1.01925C35.8088 0.917145 35.4714 0.829606 35.1001 0.754063C34.7288 0.67852 34.324 0.615543 33.8657 0.561991C33.4075 0.50844 32.8958 0.465171 32.3106 0.429184C31.7254 0.393198 31.0672 0.36492 30.3156 0.342071L27.7614 0.284951L24.5288 0.246822L20.3891 0.221402L20.3877 0.221118ZM22.5376 4.14852L28.5073 4.18251L30.7593 4.22592C31.3795 4.24334 31.8527 4.26376 32.1302 4.28732C32.4915 4.31774 32.8357 4.35587 33.1648 4.40157C33.4807 4.44519 33.7951 4.49944 34.1073 4.56422C34.4072 4.62705 34.6933 4.69846 34.967 4.779C35.2408 4.85954 35.5023 4.94979 35.7532 5.04961C36.0041 5.14943 36.244 5.25925 36.4749 5.37949C36.7039 5.49882 36.9266 5.63015 37.1418 5.77291C37.356 5.91501 37.5625 6.06809 37.763 6.23303C37.9635 6.39797 38.1578 6.57476 38.3476 6.76383C38.548 6.96333 38.7328 7.16654 38.9031 7.37618C39.0729 7.58451 39.2299 7.80287 39.3734 8.03008C39.5185 8.26052 39.6493 8.49969 39.765 8.74624C39.8832 8.99758 39.9894 9.26319 40.0848 9.54552C40.1802 9.82784 40.2652 10.1279 40.3405 10.4485C40.4193 10.7884 40.4853 11.1311 40.5384 11.4759C40.5955 11.8415 40.6443 12.2314 40.6858 12.6488C40.7272 13.0662 40.7614 13.5113 40.7897 13.9876C40.8123 14.3696 40.832 14.8737 40.8487 15.469L40.8905 17.499L40.9225 22.4714L40.8861 27.4392L40.8424 29.4633L40.7823 30.9354C40.7406 31.6248 40.6966 32.2043 40.6441 32.7086C40.6176 32.9608 40.5891 33.1942 40.5574 33.4131C40.5277 33.6199 40.4925 33.8259 40.4518 34.0309C40.4147 34.2178 40.3716 34.4036 40.3226 34.5878C40.2757 34.7636 40.2228 34.9378 40.1642 35.11C40.1052 35.2831 40.0409 35.4544 39.9716 35.6236C39.8983 35.8022 39.8209 35.9792 39.7395 36.1544C39.6671 36.3107 39.591 36.4628 39.5105 36.6109C39.4308 36.7575 39.3463 36.9013 39.2569 37.0422C39.1683 37.1817 39.0755 37.3172 38.9784 37.4485C38.8818 37.5793 38.7806 37.7065 38.6748 37.83C38.5694 37.953 38.4595 38.0721 38.3453 38.187C38.2311 38.302 38.1126 38.413 37.9898 38.5201C37.8669 38.6272 37.7396 38.73 37.6078 38.8291C37.4759 38.9282 37.3396 39.0233 37.1986 39.1144C37.0577 39.2055 36.9123 39.2929 36.7622 39.3763C36.6121 39.4597 36.4573 39.5394 36.2981 39.6152C36.1361 39.6922 35.9719 39.7643 35.8056 39.8314C35.6337 39.9008 35.4598 39.9653 35.2843 40.0249C34.9273 40.1466 34.5507 40.2534 34.1543 40.3455C33.7412 40.4409 33.3242 40.519 32.9045 40.5794C32.7431 40.603 32.3723 40.6251 31.841 40.6457L29.8166 40.702L24.0773 40.7765L18.0701 40.7859L15.711 40.7608L14.1792 40.7131L13.0496 40.6337C12.6989 40.6041 12.3727 40.5713 12.0671 40.534C11.7615 40.4968 11.4769 40.4552 11.2091 40.4084C10.9554 40.3645 10.7032 40.3121 10.453 40.2513C10.2248 40.1958 9.99901 40.1311 9.77608 40.0573C9.56116 39.9859 9.35566 39.9074 9.15574 39.821C8.95581 39.7346 8.7616 39.6399 8.56924 39.5365C8.37689 39.4332 8.18653 39.3209 7.99403 39.1985C7.8488 39.1063 7.70842 39.0129 7.57333 38.9139C7.43823 38.815 7.30771 38.7163 7.18204 38.6129C7.05637 38.5095 6.9357 38.403 6.81932 38.2933C6.70371 38.1841 6.59206 38.0709 6.48459 37.9537C6.37748 37.8369 6.27509 37.7166 6.17684 37.5921C6.07821 37.4671 5.98423 37.3385 5.89509 37.2065C5.80463 37.0726 5.71903 36.9354 5.63847 36.7953C5.55707 36.6539 5.47967 36.5077 5.40613 36.3569C5.33135 36.2032 5.26158 36.0471 5.19692 35.8889C5.13123 35.7278 5.06897 35.5616 5.01042 35.3899C4.89332 35.0465 4.7905 34.6809 4.70111 34.2911C4.61171 33.9012 4.53545 33.4871 4.4709 33.0458C4.40636 32.6045 4.35438 32.1367 4.31296 31.6395C4.2824 31.2732 4.25813 30.7027 4.23956 29.9829L4.20072 27.4232L4.215 20.8977L4.32739 14.6623L4.41307 12.4654L4.46162 11.7393C4.47847 11.5453 4.4959 11.4017 4.51375 11.3154C4.57258 11.0317 4.63185 10.7676 4.69311 10.5204C4.75034 10.2872 4.81401 10.0557 4.88404 9.82598C4.95058 9.60921 5.0207 9.40614 5.09567 9.21378C5.16797 9.02744 5.24854 8.84442 5.33716 8.66527C5.42369 8.49105 5.51666 8.32426 5.61762 8.16189C5.71858 7.99952 5.82754 7.842 5.94636 7.68535C6.06517 7.52869 6.19312 7.37404 6.33236 7.21724C6.47159 7.06044 6.62196 6.90207 6.78505 6.73884C6.97511 6.5477 7.17302 6.36451 7.37826 6.18976C7.57205 6.02489 7.77414 5.87003 7.98374 5.72579C8.18981 5.58299 8.40116 5.45589 8.62122 5.33908C8.84128 5.22226 9.07006 5.11673 9.31068 5.02177C9.55131 4.9268 9.80407 4.84183 10.0718 4.76472C10.3531 4.68581 10.6375 4.6185 10.9244 4.56294C11.226 4.50382 11.5463 4.45226 11.8883 4.40728C12.2303 4.36229 12.5942 4.32345 12.9832 4.28975C13.2545 4.26633 13.722 4.24548 14.3377 4.22792L16.5783 4.18365L22.5386 4.14723L22.5376 4.14852Z" fill="white"/>
</svg>
