<svg width="36" height="36" viewBox="0 0 36 36" fill="none" xmlns="http://www.w3.org/2000/svg">
<path fill-rule="evenodd" clip-rule="evenodd" d="M5.10236 2.59116H30.3828C31.7745 2.59116 32.9027 3.71935 32.9027 5.11103V30.2839C32.9027 31.6756 31.7745 32.8038 30.3828 32.8038H5.10236C3.71067 32.8038 2.58249 31.6756 2.58249 30.2839V5.11103C2.58249 3.71934 3.71067 2.59116 5.10236 2.59116ZM0.0626183 5.11103C0.0626183 2.32766 2.31899 0.0712891 5.10236 0.0712891H30.3828C33.1662 0.0712891 35.4225 2.32766 35.4225 5.11103V30.2839C35.4225 33.0673 33.1662 35.3236 30.3828 35.3236H5.10236C2.31899 35.3236 0.0626183 33.0673 0.0626183 30.2839V5.11103ZM11.3558 27.689V15.2688H8.83596V27.689H11.3558ZM26.5016 20.2524V27.689H23.9817V20.2524H26.5016ZM18.9092 27.689V7.59866H16.3894V27.689H18.9092Z" fill="url(#paint0_linear_5043_511)"/>
<defs>
<linearGradient id="paint0_linear_5043_511" x1="-0.400522" y1="19.5582" x2="32.4684" y2="19.5582" gradientUnits="userSpaceOnUse">
<stop stop-color="#3BA1F0"/>
<stop offset="1" stop-color="#7260DF"/>
</linearGradient>
</defs>
</svg>
