<svg width="38" height="41" viewBox="0 0 38 41" fill="none" xmlns="http://www.w3.org/2000/svg">
<path fill-rule="evenodd" clip-rule="evenodd" d="M10.0531 5.65416H7.63553V0.532227H5.11566V5.65416H2.6981H0.17823V8.17403V15.3778V17.8977H2.6981H5.11566V40.6905H7.63553V17.8977H10.0531H12.573V15.3778V8.17403V5.65416H10.0531ZM10.0531 8.17403H2.6981V15.3778H10.0531V8.17403ZM35.1446 12.5001H27.7896V19.7039H35.1446V12.5001ZM27.7896 9.98027H25.2697V12.5001V19.7039V22.2238H27.7896H30.2071V40.6905H32.727V22.2238H35.1446H37.6644V19.7039V12.5001V9.98027H35.1446H32.727V0.532227H30.2071V9.98027H27.7896ZM15.2438 27.1609H22.5988V34.3647H15.2438V27.1609ZM12.724 24.641H15.2438H17.6614V0.532227H20.1813V24.641H22.5988H25.1187V27.1609V34.3647V36.8846H22.5988H20.1813V40.6905H17.6614V36.8846H15.2438H12.724V34.3647V27.1609V24.641Z" fill="url(#paint0_linear_5043_532)"/>
<defs>
<linearGradient id="paint0_linear_5043_532" x1="-0.31276" y1="22.7311" x2="34.5326" y2="22.7311" gradientUnits="userSpaceOnUse">
<stop stop-color="#3BA1F0"/>
<stop offset="1" stop-color="#7260DF"/>
</linearGradient>
</defs>
</svg>
