<svg width="auto" height="auto" viewBox="0 0 209 96" fill="none" xmlns="http://www.w3.org/2000/svg">
<g clip-path="url(#clip0_1096_151)">
<path d="M20.4624 87.8833H16.0646C15.9987 87.8843 15.9342 87.9031 15.8781 87.9378C15.822 87.9725 15.7764 88.0218 15.7462 88.0805C15.2449 88.9658 14.5173 89.7019 13.638 90.2135C12.7587 90.7251 11.7592 90.9938 10.7418 90.9921C9.126 90.8562 7.62015 90.1184 6.52265 88.9247C5.42514 87.731 4.81605 86.1686 4.81605 84.5471C4.81605 82.9256 5.42514 81.3632 6.52265 80.1695C7.62015 78.9759 9.126 78.238 10.7418 78.1021C11.7503 78.0878 12.7442 78.3449 13.6192 78.8465C14.4943 79.3481 15.2184 80.0756 15.7158 80.9531C15.7473 81.0107 15.7932 81.0592 15.849 81.0937C15.9049 81.1283 15.9687 81.1477 16.0343 81.1502H20.4624C20.5195 81.1505 20.5758 81.1368 20.6264 81.1103C20.677 81.0838 20.7202 81.0452 20.7524 80.9981C20.7846 80.9509 20.8047 80.8965 20.811 80.8398C20.8173 80.783 20.8095 80.7256 20.7884 80.6725C19.8878 78.3281 18.195 76.373 16.0035 75.1463C13.8121 73.9196 11.2604 73.4987 8.79108 73.9567C6.32178 74.4147 4.0907 75.7226 2.48493 77.6536C0.87915 79.5846 0 82.0167 0 84.5282C0 87.0396 0.87915 89.4717 2.48493 91.4027C4.0907 93.3337 6.32178 94.6417 8.79108 95.0996C11.2604 95.5576 13.8121 95.1367 16.0035 93.91C18.195 92.6833 19.8878 90.7282 20.7884 88.3838C20.8124 88.3295 20.8225 88.2701 20.8177 88.211C20.8129 88.1519 20.7935 88.0949 20.7611 88.0452C20.7287 87.9955 20.6844 87.9546 20.6323 87.9264C20.5801 87.8981 20.5217 87.8833 20.4624 87.8833Z" fill="white"/>
<path d="M37.1436 73.7567C35.7071 73.7186 34.2776 73.9686 32.9393 74.4919C31.601 75.0153 30.3811 75.8014 29.3516 76.804C28.3221 77.8065 27.5039 79.0051 26.9452 80.329C26.3865 81.6529 26.0986 83.0753 26.0986 84.5123C26.0986 85.9493 26.3865 87.3717 26.9452 88.6956C27.5039 90.0195 28.3221 91.2181 29.3516 92.2206C30.3811 93.2231 31.601 94.0093 32.9393 94.5326C34.2776 95.056 35.7071 95.306 37.1436 95.2678C39.9467 95.1934 42.61 94.0276 44.5663 92.0186C46.5226 90.0097 47.6173 87.3164 47.6173 84.5123C47.6173 81.7082 46.5226 79.0149 44.5663 77.0059C42.61 74.997 39.9467 73.8312 37.1436 73.7567ZM37.1436 90.6578C35.5471 90.6018 34.0347 89.9282 32.9251 88.7789C31.8154 87.6297 31.1953 86.0946 31.1953 84.4971C31.1953 82.8996 31.8154 81.3645 32.9251 80.2153C34.0347 79.0661 35.5471 78.3925 37.1436 78.3365C38.7401 78.3925 40.2525 79.0661 41.3621 80.2153C42.4717 81.3645 43.0919 82.8996 43.0919 84.4971C43.0919 86.0946 42.4717 87.6297 41.3621 88.7789C40.2525 89.9282 38.7401 90.6018 37.1436 90.6578Z" fill="white"/>
<path d="M70.43 74.0679H66.5327C66.4395 74.0679 66.3499 74.1044 66.2833 74.1696C66.2167 74.2348 66.1783 74.3235 66.1763 74.4167V87.1247L59.0868 74.2347C59.0565 74.179 59.0115 74.1326 58.9567 74.1005C58.9019 74.0684 58.8394 74.0519 58.7759 74.0528H54.7345C54.6413 74.0527 54.5518 74.0892 54.4852 74.1544C54.4186 74.2196 54.3802 74.3084 54.3782 74.4016V94.5933C54.3802 94.6865 54.4186 94.7752 54.4852 94.8404C54.5518 94.9056 54.6413 94.9422 54.7345 94.9421H58.6319C58.7251 94.9422 58.8146 94.9056 58.8812 94.8404C58.9478 94.7752 58.9863 94.6865 58.9882 94.5933V81.9308L66.0777 94.7753C66.1081 94.8311 66.1531 94.8775 66.2079 94.9095C66.2626 94.9416 66.3251 94.9581 66.3886 94.9573H70.43C70.5232 94.9573 70.6127 94.9208 70.6793 94.8556C70.746 94.7904 70.7844 94.7017 70.7864 94.6085V74.4167C70.7844 74.3235 70.746 74.2348 70.6793 74.1696C70.6127 74.1044 70.5232 74.0679 70.43 74.0679Z" fill="white"/>
<path d="M82.5543 79.7166C82.5543 78.1546 84.3665 77.5404 85.6555 77.5404C87.8543 77.5404 89.0979 78.1773 89.4466 80.1184C89.4594 80.2035 89.5026 80.281 89.5681 80.3368C89.6336 80.3925 89.717 80.4227 89.803 80.4217H93.5942C93.6426 80.4229 93.6907 80.4139 93.7355 80.3955C93.7803 80.377 93.8207 80.3494 93.8542 80.3145C93.8878 80.2795 93.9136 80.238 93.9302 80.1925C93.9468 80.147 93.9537 80.0985 93.9506 80.0502C93.6093 75.5614 89.8258 73.7568 85.61 73.7568C81.8188 73.7568 77.8077 75.7889 77.8077 80.0881C77.8077 87.7993 89.8864 85.191 89.8864 89.2476C89.8864 91.1204 87.6117 91.7043 86.1635 91.7043C83.9873 91.7043 82.0918 90.6579 81.8264 88.3832C81.8153 88.2988 81.7737 88.2213 81.7094 88.1655C81.6452 88.1096 81.5627 88.0792 81.4776 88.0799H77.4817C77.4342 88.0799 77.3873 88.0893 77.3435 88.1077C77.2998 88.1261 77.2602 88.153 77.227 88.1869C77.1938 88.2208 77.1677 88.261 77.1502 88.3051C77.1328 88.3493 77.1243 88.3964 77.1253 88.4438C77.3528 93.289 81.47 95.4499 85.9663 95.4499C90.2352 95.4499 94.633 93.6377 94.633 88.7244C94.633 80.7629 82.5543 83.4395 82.5543 79.7166Z" fill="white"/>
<path d="M110.95 73.7568C108.822 73.7553 106.741 74.3851 104.971 75.5664C103.2 76.7478 101.82 78.4276 101.005 80.3935C100.189 82.3594 99.9749 84.523 100.389 86.6106C100.803 88.6982 101.828 90.616 103.332 92.1215C104.836 93.627 106.754 94.6525 108.841 95.0682C110.928 95.484 113.092 95.2714 115.058 94.4573C117.025 93.6431 118.706 92.2641 119.888 90.4946C121.071 88.725 121.702 86.6445 121.702 84.5162C121.646 81.6815 120.495 78.9785 118.491 76.973C116.487 74.9675 113.785 73.815 110.95 73.7568ZM110.95 90.6579C109.731 90.6624 108.537 90.3051 107.521 89.6311C106.505 88.9572 105.711 87.9969 105.24 86.8718C104.77 85.7466 104.644 84.5072 104.878 83.3104C105.112 82.1135 105.696 81.013 106.555 80.148C107.415 79.283 108.512 78.6924 109.707 78.451C110.903 78.2096 112.143 78.3282 113.271 78.7918C114.399 79.2553 115.364 80.0431 116.044 81.0553C116.724 82.0675 117.089 83.2587 117.092 84.4783C117.038 86.0935 116.374 87.6284 115.235 88.7746C114.096 89.9209 112.565 90.5937 110.95 90.6579Z" fill="white"/>
<path d="M112.831 66.4092C112.771 66.408 112.712 66.4229 112.66 66.4522C112.608 66.4816 112.565 66.5243 112.535 66.5761L109.373 71.3605C109.337 71.4141 109.317 71.4764 109.314 71.5406C109.311 71.6049 109.325 71.6688 109.356 71.7256C109.386 71.7823 109.431 71.8298 109.486 71.863C109.541 71.8962 109.604 71.9138 109.669 71.914H112.277C112.332 71.9144 112.386 71.9014 112.435 71.8764C112.484 71.8513 112.526 71.8148 112.558 71.77L116.144 66.9779C116.183 66.9253 116.207 66.8629 116.213 66.7976C116.219 66.7323 116.206 66.6667 116.177 66.6079C116.148 66.5491 116.104 66.4995 116.048 66.4644C115.993 66.4294 115.929 66.4103 115.863 66.4092H112.831Z" fill="white"/>
<path d="M137.648 87.2758C140.294 86.6313 142.409 84.296 142.409 80.7626C142.439 79.9009 142.296 79.042 141.989 78.2363C141.682 77.4307 141.217 76.6944 140.621 76.0708C140.026 75.4472 139.312 74.9487 138.521 74.6047C137.731 74.2607 136.88 74.078 136.017 74.0674H128.541C128.448 74.0674 128.358 74.1039 128.292 74.1691C128.225 74.2343 128.187 74.323 128.185 74.4162V94.608C128.187 94.7012 128.225 94.7899 128.292 94.8551C128.358 94.9203 128.448 94.9568 128.541 94.9568H132.439C132.532 94.9568 132.621 94.9203 132.688 94.8551C132.754 94.7899 132.793 94.7012 132.795 94.608V87.4957L137.67 94.8051C137.703 94.8535 137.747 94.8928 137.798 94.9194C137.85 94.9459 137.908 94.9588 137.966 94.9568H142.879C142.946 94.9587 143.012 94.9413 143.069 94.9069C143.126 94.8724 143.173 94.8223 143.202 94.7624C143.232 94.7025 143.243 94.6354 143.236 94.5691C143.228 94.5027 143.202 94.4399 143.16 94.3881L137.648 87.2758ZM135.252 83.8638H133.151C133.057 83.8638 132.966 83.8262 132.899 83.7594C132.832 83.6926 132.795 83.6019 132.795 83.5074V78.0254C132.795 77.9309 132.832 77.8402 132.899 77.7734C132.966 77.7065 133.057 77.669 133.151 77.669H135.252C136.02 77.7064 136.742 78.0463 137.261 78.6146C137.78 79.1829 138.052 79.9333 138.019 80.7019C138.058 81.0938 138.016 81.4894 137.895 81.8644C137.775 82.2393 137.579 82.5856 137.32 82.8819C137.06 83.1782 136.743 83.4182 136.387 83.5871C136.032 83.756 135.645 83.8501 135.252 83.8638Z" fill="white"/>
<path d="M168.394 87.8833H163.989C163.923 87.8834 163.858 87.9019 163.801 87.9367C163.745 87.9715 163.7 88.0213 163.67 88.0805C163.169 88.9658 162.441 89.7019 161.562 90.2135C160.683 90.7251 159.683 90.9938 158.666 90.9921C157.05 90.8562 155.544 90.1184 154.447 88.9247C153.349 87.731 152.74 86.1686 152.74 84.5471C152.74 82.9256 153.349 81.3632 154.447 80.1695C155.544 78.9759 157.05 78.238 158.666 78.1021C159.674 78.0878 160.668 78.3449 161.543 78.8465C162.418 79.3481 163.142 80.0756 163.64 80.9531C163.671 81.0112 163.717 81.0601 163.772 81.0947C163.828 81.1294 163.893 81.1485 163.958 81.1502H168.364C168.422 81.1497 168.479 81.1349 168.531 81.107C168.582 81.0792 168.626 81.0391 168.658 80.9905C168.69 80.9418 168.71 80.886 168.715 80.8279C168.721 80.7698 168.712 80.7113 168.69 80.6574C167.788 78.3165 166.095 76.365 163.905 75.1413C161.715 73.9176 159.166 73.4988 156.699 73.9576C154.233 74.4163 152.005 75.7237 150.401 77.653C148.798 79.5823 147.92 82.0119 147.92 84.5206C147.92 87.0293 148.798 89.4589 150.401 91.3882C152.005 93.3175 154.233 94.6248 156.699 95.0836C159.166 95.5423 161.715 95.1236 163.905 93.8999C166.095 92.6762 167.788 90.7247 168.69 88.3838C168.713 88.3318 168.723 88.275 168.72 88.2182C168.717 88.1614 168.7 88.1062 168.671 88.0572C168.642 88.0082 168.602 87.9668 168.554 87.9366C168.505 87.9063 168.451 87.8881 168.394 87.8833Z" fill="white"/>
<path d="M179.328 74.0674H175.431C175.234 74.0674 175.074 74.2269 175.074 74.4238V94.608C175.074 94.8048 175.234 94.9643 175.431 94.9643H179.328C179.525 94.9643 179.684 94.8048 179.684 94.608V74.4238C179.684 74.2269 179.525 74.0674 179.328 74.0674Z" fill="white"/>
<path d="M196.919 73.7568C194.791 73.7568 192.711 74.3879 190.941 75.5701C189.172 76.7524 187.793 78.4327 186.978 80.3988C186.164 82.3648 185.951 84.5281 186.366 86.6152C186.781 88.7023 187.806 90.6195 189.311 92.1242C190.815 93.6289 192.733 94.6536 194.82 95.0688C196.907 95.4839 199.07 95.2709 201.036 94.4565C203.002 93.6422 204.683 92.2631 205.865 90.4938C207.047 88.7244 207.678 86.6442 207.678 84.5162C207.622 81.6802 206.47 78.9761 204.465 76.9704C202.459 74.9647 199.755 73.8131 196.919 73.7568ZM196.919 90.6579C195.7 90.6609 194.507 90.3023 193.491 89.6274C192.476 88.9525 191.684 87.9917 191.214 86.8665C190.745 85.7412 190.62 84.5021 190.855 83.3057C191.09 82.1093 191.674 81.0095 192.534 80.1453C193.394 79.281 194.491 78.6912 195.686 78.4504C196.881 78.2096 198.121 78.3287 199.249 78.7925C200.376 79.2563 201.341 80.044 202.021 81.0561C202.701 82.0681 203.065 83.2591 203.068 84.4783C203.014 86.0947 202.349 87.6307 201.208 88.7771C200.068 89.9236 198.535 90.5956 196.919 90.6579Z" fill="white"/>
<path d="M130.922 62.0194L130.543 61.8223C130.786 61.9587 130.922 62.0194 130.922 62.0194Z" fill="white"/>
<path d="M167.939 33.6081C165.739 33.8817 163.507 33.7142 161.373 33.1152C121.672 53.2539 134.501 59.3957 134.501 59.3957C127.654 52.2986 155.694 38.9612 167.939 33.6081Z" fill="white"/>
<path d="M131.551 50.7825C131.551 50.7825 133.963 44.1707 156.573 30.9092C155.647 30.2894 154.786 29.5782 154.003 28.7861C142.409 36.1486 124.985 49.0462 129.739 57.4777C129.739 57.4777 133.189 65.0601 146.966 65.6288C146.981 65.6288 124.75 62.1864 131.551 50.7825Z" fill="white"/>
<path d="M127.025 57.3862C125.561 54.7854 121.96 43.7001 150.879 24.3499C150.52 23.6159 150.218 22.8555 149.976 22.0752C140.37 29.0964 119.905 45.9217 127.025 57.3862Z" fill="white"/>
<path d="M124.879 45.46C124.879 45.46 122.111 57.0155 130.285 61.6786C128.23 60.4275 122.096 55.6127 126.236 43.9359C126.236 43.9359 129.428 33.9272 149.423 19.8165C149.234 18.6692 149.165 17.5053 149.218 16.3438C142.144 21.9168 126.964 34.9129 124.879 45.46Z" fill="white"/>
<path d="M124.689 41.9112C124.689 41.9112 129.034 28.8468 149.65 13.2196C150.151 11.0484 151.084 9.00062 152.395 7.19922C143.668 14.0233 127.874 27.8156 123.522 41.4487C123.522 41.4487 115.067 66.5538 145.905 66.8647C141.644 66.7737 118.176 65.2345 124.689 41.9112Z" fill="white"/>
<path d="M2.12072 60.5862H26.8922C27.0761 60.5872 27.2583 60.5518 27.4285 60.4822C27.5986 60.4125 27.7533 60.3099 27.8837 60.1802C28.014 60.0506 28.1175 59.8964 28.1881 59.7267C28.2586 59.5569 28.295 59.3749 28.295 59.191V52.4655C28.295 52.2813 28.2587 52.0989 28.1882 51.9287C28.1177 51.7585 28.0144 51.6038 27.8841 51.4736C27.7539 51.3433 27.5992 51.24 27.4291 51.1695C27.2589 51.099 27.0765 51.0627 26.8922 51.0627H12.6147C12.4308 51.0627 12.2488 51.0264 12.079 50.9558C11.9093 50.8852 11.7551 50.7818 11.6255 50.6514C11.4958 50.5211 11.3932 50.3664 11.3236 50.1962C11.2539 50.0261 11.2185 49.8439 11.2195 49.66L11.2195 14.1974C11.2137 13.8345 11.0675 13.488 10.8116 13.2306C10.5557 12.9733 10.21 12.8252 9.84713 12.8174H2.12072C1.75787 12.8252 1.41218 12.9733 1.15626 13.2306C0.900336 13.488 0.754114 13.8345 0.748313 14.1974L0.748313 59.1834C0.746267 59.5509 0.889245 59.9043 1.1462 60.1669C1.40315 60.4295 1.75334 60.5802 2.12072 60.5862Z" fill="white"/>
<path d="M77.838 58.676L59.6404 13.8567C59.5384 13.6036 59.3637 13.3863 59.1383 13.2325C58.913 13.0786 58.647 12.9951 58.3741 12.9923H51.3377C51.0586 12.9885 50.7848 13.069 50.5522 13.2232C50.3195 13.3774 50.1388 13.5982 50.0336 13.8567L31.8359 58.676C31.7492 58.8887 31.7168 59.1197 31.7414 59.3481C31.766 59.5766 31.847 59.7953 31.977 59.9847C32.1071 60.1741 32.2821 60.3283 32.4864 60.4334C32.6907 60.5384 32.918 60.5911 33.1477 60.5867H41.3821C41.6677 60.5875 41.9465 60.4997 42.1801 60.3354C42.4137 60.1711 42.5905 59.9383 42.6863 59.6693L45.4841 51.9125C45.5799 51.6434 45.7567 51.4107 45.9903 51.2463C46.2239 51.082 46.5027 50.9942 46.7883 50.995H62.9235C63.2091 50.9942 63.488 51.082 63.7215 51.2463C63.9551 51.4107 64.132 51.6434 64.2277 51.9125L66.9953 59.6617C67.0906 59.9346 67.2692 60.1708 67.5059 60.3367C67.7426 60.5027 68.0255 60.5902 68.3146 60.5867H76.5718C76.7976 60.5836 77.0193 60.5255 77.2176 60.4173C77.4159 60.3091 77.5848 60.1541 77.7095 59.9658C77.8343 59.7775 77.9113 59.5616 77.9337 59.3368C77.956 59.112 77.9232 58.8852 77.838 58.676ZM58.8746 42.3891H50.7918C50.5701 42.3884 50.3519 42.3347 50.1553 42.2324C49.9587 42.1301 49.7894 41.9821 49.6617 41.801C49.534 41.6198 49.4516 41.4107 49.4213 41.1911C49.391 40.9716 49.4137 40.748 49.4876 40.539L53.5063 29.12C53.6001 28.8488 53.7761 28.6135 54.0099 28.4471C54.2436 28.2806 54.5235 28.1911 54.8104 28.1911C55.0974 28.1911 55.3772 28.2806 55.611 28.4471C55.8447 28.6135 56.0208 28.8488 56.1146 29.12L60.1787 40.539C60.2526 40.748 60.2754 40.9716 60.2451 41.1911C60.2148 41.4107 60.1323 41.6198 60.0046 41.801C59.8769 41.9821 59.7077 42.1301 59.5111 42.2324C59.3145 42.3347 59.0962 42.3884 58.8746 42.3891Z" fill="white"/>
<path d="M110.867 60.5869H119.093C119.284 60.5899 119.472 60.555 119.649 60.4844C119.825 60.4137 119.986 60.3086 120.122 60.1753C120.257 60.0419 120.365 59.8829 120.438 59.7075C120.512 59.5322 120.549 59.3439 120.549 59.1538V14.418C120.547 14.0392 120.395 13.6766 120.127 13.4095C119.858 13.1424 119.495 12.9925 119.116 12.9925H111.45C111.072 12.9925 110.71 13.1427 110.443 13.41C110.175 13.6773 110.025 14.0399 110.025 14.418V37.165C110.027 37.4823 109.922 37.791 109.728 38.0423C109.535 38.2935 109.263 38.473 108.955 38.5522C108.648 38.6314 108.323 38.6058 108.032 38.4795C107.741 38.3532 107.5 38.1335 107.348 37.855L94.0566 13.728C93.936 13.5003 93.756 13.3096 93.5357 13.1761C93.3154 13.0426 93.0631 12.9713 92.8055 12.9697H84.5786C84.2006 12.9697 83.838 13.1199 83.5707 13.3872C83.3033 13.6546 83.1532 14.0171 83.1532 14.3952V59.1311C83.1491 59.3208 83.183 59.5094 83.2528 59.6859C83.3227 59.8624 83.427 60.0231 83.5598 60.1587C83.6926 60.2943 83.8511 60.402 84.026 60.4755C84.201 60.5491 84.3889 60.5869 84.5786 60.5869H92.2216C92.5997 60.5869 92.9623 60.4367 93.2296 60.1694C93.4969 59.902 93.6471 59.5394 93.6471 59.1614V36.4523C93.6491 36.1358 93.7557 35.8289 93.9504 35.5794C94.1451 35.33 94.4169 35.152 94.7234 35.0732C95.0299 34.9944 95.3538 35.0193 95.6447 35.1439C95.9355 35.2686 96.177 35.486 96.3313 35.7623L109.623 59.8286C109.742 60.0557 109.921 60.2461 110.14 60.3796C110.359 60.5131 110.61 60.5848 110.867 60.5869Z" fill="white"/>
<path d="M192.817 22.3254H207.079C207.25 22.3448 207.423 22.3276 207.586 22.2749C207.75 22.2221 207.9 22.135 208.027 22.0194C208.154 21.9038 208.255 21.7624 208.323 21.6046C208.391 21.4468 208.425 21.2764 208.421 21.1046V14.4018C208.423 14.2279 208.388 14.0554 208.319 13.8957C208.25 13.736 208.149 13.5926 208.021 13.4747C207.893 13.3568 207.741 13.267 207.577 13.2112C207.412 13.1554 207.237 13.1348 207.064 13.1507L183.293 13.1507C183.839 15.4711 183.89 17.8806 183.442 20.2218C182.994 22.5631 182.057 24.7836 180.693 26.7383V59.1756C180.742 59.5737 180.935 59.9402 181.235 60.2066C181.535 60.4731 181.922 60.6214 182.323 60.6238H207.079C207.262 60.617 207.443 60.5741 207.609 60.4976C207.776 60.4211 207.926 60.3124 208.05 60.1779C208.175 60.0434 208.272 59.8857 208.336 59.7137C208.399 59.5417 208.428 59.3588 208.421 59.1756V52.4728C208.428 52.2907 208.399 52.109 208.335 51.9383C208.271 51.7676 208.174 51.6113 208.049 51.4786C207.924 51.3459 207.774 51.2394 207.608 51.1654C207.441 51.0913 207.261 51.0512 207.079 51.0473H192.817C192.632 51.0493 192.448 51.0148 192.276 50.9458C192.104 50.8767 191.947 50.7745 191.815 50.645C191.683 50.5154 191.577 50.3611 191.504 50.1907C191.432 50.0204 191.393 49.8374 191.391 49.6521V42.8811C191.397 42.5063 191.55 42.1487 191.816 41.8851C192.083 41.6215 192.442 41.4727 192.817 41.4708H206.374C206.553 41.4691 206.73 41.4309 206.894 41.3585C207.058 41.2862 207.206 41.1811 207.328 41.0499C207.45 40.9186 207.544 40.7638 207.604 40.595C207.664 40.4262 207.69 40.2469 207.678 40.0681V33.3653C207.691 33.1828 207.666 32.9996 207.607 32.8265C207.548 32.6534 207.455 32.4937 207.334 32.3569C207.213 32.22 207.065 32.1086 206.9 32.0292C206.736 31.9498 206.557 31.9039 206.374 31.8943H192.817C192.635 31.9014 192.453 31.8721 192.282 31.8082C192.112 31.7443 191.955 31.6471 191.823 31.5222C191.69 31.3972 191.583 31.2471 191.509 31.0806C191.435 30.914 191.395 30.7344 191.391 30.5522V23.9177C191.391 23.5232 191.536 23.1425 191.799 22.8486C192.062 22.5547 192.425 22.3684 192.817 22.3254Z" fill="white"/>
<path d="M182.437 16.6088C182.435 13.7769 181.679 10.9965 180.245 8.55429C178.812 6.11207 176.753 4.0964 174.28 2.71506C171.808 1.33372 169.012 0.636702 166.181 0.695858C163.35 0.755014 160.585 1.5682 158.173 3.0516L158.256 2.99852C154.675 5.05387 152.039 8.42848 150.912 12.4013C149.785 16.3741 150.257 20.6301 152.226 24.2598C154.196 27.8895 157.506 30.6051 161.451 31.8263C165.396 33.0476 169.662 32.6776 173.338 30.7954L174.278 30.2722L174.164 30.3329C176.642 28.9912 178.716 27.0111 180.17 24.5979C181.625 22.1847 182.407 19.4263 182.437 16.6088ZM178.509 21.8482C178.661 21.507 178.805 21.1658 178.926 20.8095C178.805 21.1582 178.661 21.507 178.509 21.8482ZM180.45 16.6088C180.437 18.1012 180.181 19.5814 179.692 20.9914C180.77 17.9105 180.708 14.5452 179.517 11.5059C180.152 13.1316 180.468 14.8639 180.45 16.6088ZM179.692 16.6088C179.692 16.8742 179.692 17.132 179.692 17.3671C179.692 17.1017 179.692 16.8439 179.692 16.6088ZM166.68 2.68006C167.037 2.68006 167.393 2.68006 167.742 2.74072C167.393 2.74072 167.037 2.68765 166.68 2.68006ZM153.442 16.3814C153.465 14.1865 154.047 12.0338 155.133 10.1259C156.611 7.6584 158.859 5.74523 161.532 4.68097C164.204 3.61671 167.152 3.46037 169.922 4.23602C172.692 5.01167 175.13 6.67631 176.861 8.97364C178.592 11.271 179.52 14.0736 179.502 16.95C179.483 19.0296 178.963 21.0739 177.986 22.9098C176.559 25.44 174.333 27.4252 171.657 28.5541C168.981 29.683 166.006 29.8917 163.198 29.1476C160.391 28.4034 157.909 26.7483 156.144 24.4421C154.378 22.1358 153.428 19.3087 153.442 16.4041V16.3814ZM172.284 29.0742C173.875 28.3506 175.317 27.3375 176.538 26.0868C175.315 27.3294 173.873 28.3346 172.284 29.0515V29.0742Z" fill="white"/>
<path d="M173.012 18.7092C172.965 18.2957 172.863 17.8902 172.708 17.5036C172.569 17.1699 172.385 16.8562 172.162 16.571C172.012 16.3749 171.844 16.1922 171.662 16.0251C171.371 15.7762 171.059 15.5529 170.729 15.3578C170.484 15.2133 170.23 15.0817 169.971 14.9635C169.744 14.8574 169.501 14.7588 169.251 14.6602C168.796 14.4707 168.311 14.2963 167.787 14.1295C167.61 14.0854 167.436 14.0323 167.264 13.9703C167.113 13.9141 166.958 13.866 166.802 13.8262V11.6121C167.268 11.6995 167.727 11.8237 168.174 11.9837C168.592 12.1294 168.999 12.3016 169.395 12.4993C169.804 12.689 170.199 12.9069 170.578 13.1514L172.693 9.20096L171.556 8.66261C171.146 8.47305 170.707 8.28349 170.236 8.1091C169.766 7.9347 169.281 7.77548 168.773 7.63899C168.252 7.5034 167.722 7.39958 167.188 7.32812V4.81836L165.209 4.81836V7.31295C164.455 7.38234 163.716 7.56644 163.018 7.85888C162.366 8.13826 161.77 8.53393 161.259 9.02656C160.733 9.5211 160.313 10.1169 160.023 10.7781C159.712 11.5224 159.555 12.3219 159.561 13.1286C159.545 13.7044 159.627 14.2787 159.803 14.8271C159.963 15.3162 160.221 15.7677 160.561 16.154C160.964 16.5723 161.43 16.9254 161.941 17.2003C162.581 17.5441 163.248 17.8332 163.936 18.0647C164.444 18.2543 164.959 18.4135 165.452 18.55V20.7185C164.857 20.6268 164.273 20.4769 163.708 20.2712C163.191 20.0855 162.684 19.8703 162.192 19.6267C161.701 19.388 161.224 19.1196 160.766 18.823L158.651 23.016C159.604 23.5812 160.623 24.0292 161.684 24.3505C162.785 24.7046 163.921 24.9385 165.073 25.0481V28.081H167.052V25.1011L167.621 25.0481H167.712L168.174 24.9798L168.652 24.8813H168.72L169.251 24.7372C169.94 24.536 170.586 24.2067 171.154 23.7666C171.567 23.4474 171.924 23.0602 172.208 22.6217C172.319 22.4562 172.421 22.284 172.511 22.1061V22.0303C172.583 21.8852 172.647 21.7358 172.701 21.5829C172.701 21.5829 172.701 21.5829 172.701 21.545C172.752 21.3906 172.795 21.2337 172.83 21.0749C172.833 21.0574 172.833 21.0394 172.83 21.0218V20.8778C172.83 20.7565 172.875 20.6276 172.898 20.4911C172.921 20.3546 172.898 20.4304 172.898 20.4001C172.902 20.3597 172.902 20.3191 172.898 20.2788C172.898 20.1271 172.898 19.9679 172.898 19.8087C172.898 19.7632 172.898 19.7177 172.898 19.6722C172.955 19.3537 172.993 19.0322 173.012 18.7092ZM165.543 13.4016C165.264 13.31 165.006 13.163 164.785 12.9694C164.704 12.8909 164.641 12.7963 164.599 12.6919C164.557 12.5874 164.538 12.4753 164.542 12.3628C164.542 11.8851 164.876 11.6046 165.543 11.5363V13.4016ZM167.605 20.5441C167.352 20.6984 167.061 20.7797 166.764 20.7792V18.9594C167.041 19.0686 167.298 19.2251 167.522 19.422C167.615 19.4934 167.69 19.5853 167.741 19.6905C167.792 19.7958 167.819 19.9115 167.818 20.0285C167.821 20.1236 167.804 20.2183 167.768 20.3061C167.731 20.3938 167.676 20.4725 167.605 20.5366V20.5441Z" fill="white"/>
</g>
<defs>
<clipPath id="clip0_1096_151">
<rect width="208.422" height="94.7577" fill="white" transform="translate(0 0.692383)"/>
</clipPath>
</defs>
</svg>
