<svg width="34" height="34" viewBox="0 0 34 34" fill="none" xmlns="http://www.w3.org/2000/svg">
<path fill-rule="evenodd" clip-rule="evenodd" d="M33.3643 7.52238C33.3764 7.56663 33.3826 7.61226 33.3827 7.6581V14.7829C33.3827 14.8744 33.3582 14.9642 33.3117 15.0434C33.2653 15.1225 33.1984 15.1881 33.118 15.2336L27.0543 18.6765V25.5007C27.0543 25.6865 26.9542 25.8579 26.7909 25.9514L14.1333 33.1373C14.1044 33.1535 14.0728 33.1639 14.0411 33.175C14.0293 33.1789 14.0181 33.186 14.0056 33.1892C13.9171 33.2122 13.8241 33.2122 13.7356 33.1892C13.7211 33.1854 13.708 33.1776 13.6941 33.1724C13.6652 33.162 13.6349 33.1529 13.6072 33.1373L0.952322 25.9514C0.871929 25.9059 0.805131 25.8402 0.75866 25.7611C0.712188 25.682 0.687686 25.5922 0.687622 25.5007L0.687622 4.12619C0.687622 4.07943 0.694207 4.03398 0.706059 3.98982C0.71001 3.97489 0.719228 3.96125 0.724496 3.94631C0.734373 3.91904 0.743591 3.89112 0.758077 3.86579C0.767954 3.84891 0.78244 3.83527 0.794292 3.81969C0.809437 3.79891 0.823264 3.77748 0.841043 3.7593C0.856187 3.74436 0.875941 3.73332 0.893061 3.72034C0.912156 3.70475 0.929276 3.68787 0.951005 3.67553L7.27944 0.0825822C7.35957 0.0371139 7.45039 0.0131836 7.54283 0.0131836C7.63527 0.0131836 7.72609 0.0371139 7.80621 0.0825822L14.134 3.67553H14.1353C14.1564 3.68852 14.1742 3.70475 14.1933 3.71969C14.2104 3.73267 14.2295 3.74436 14.2446 3.75865C14.263 3.77748 14.2762 3.79891 14.292 3.81969C14.3032 3.83527 14.3184 3.84891 14.3276 3.86579C14.3427 3.89177 14.3513 3.91904 14.3618 3.94631C14.3671 3.96125 14.3763 3.97489 14.3803 3.99047C14.3924 4.03472 14.3986 4.08035 14.3987 4.12619V17.4765L19.6716 14.4823V7.65745C19.6716 7.61199 19.6782 7.56589 19.6901 7.52238C19.6947 7.50679 19.7032 7.49316 19.7085 7.47822C19.719 7.45095 19.7282 7.42302 19.7427 7.3977C19.7526 7.38082 19.7671 7.36718 19.7783 7.35159C19.7941 7.33081 19.8073 7.30939 19.8257 7.2912C19.8408 7.27627 19.8599 7.26523 19.8771 7.25224C19.8968 7.23666 19.9139 7.21977 19.935 7.20743L26.2641 3.61449C26.3442 3.56896 26.435 3.54499 26.5275 3.54499C26.6199 3.54499 26.7108 3.56896 26.7909 3.61449L33.1186 7.20743C33.141 7.22042 33.1582 7.23666 33.1779 7.25159C33.1944 7.26458 33.2135 7.27627 33.2286 7.29055C33.247 7.30939 33.2602 7.33081 33.276 7.35159C33.2879 7.36718 33.3024 7.38082 33.3116 7.3977C33.3267 7.42302 33.3353 7.45095 33.3458 7.47822C33.3517 7.49316 33.3603 7.50679 33.3643 7.52238ZM32.3278 14.4823V8.55747L30.1134 9.81464L27.0543 11.5517V17.4765L32.3278 14.4823ZM26.0001 25.2001V19.2714L22.9909 20.9662L14.398 25.8027V31.7873L26.0001 25.2001ZM1.74247 5.02556V25.2001L13.3432 31.7866V25.8034L7.28274 22.4208L7.28076 22.4195L7.27813 22.4182C7.25772 22.4065 7.2406 22.3896 7.2215 22.3753C7.20504 22.3624 7.18594 22.352 7.17146 22.3377L7.17014 22.3357C7.15302 22.3195 7.14117 22.2994 7.12668 22.2812C7.11351 22.2637 7.09771 22.2487 7.08717 22.2305L7.08652 22.2286C7.07466 22.2091 7.06742 22.1857 7.05886 22.1637C7.0503 22.1442 7.03911 22.126 7.03384 22.1052C7.02725 22.0805 7.02594 22.0539 7.0233 22.0286C7.02067 22.0091 7.0154 21.9896 7.0154 21.9701V21.9688V8.01979L3.95687 6.28209L1.74247 5.02556ZM7.54349 1.13326L2.27121 4.12619L7.54217 7.11912L12.8138 4.12554L7.54217 1.13326H7.54349ZM10.2853 19.8116L13.3438 18.0752V5.02556L11.1294 6.28274L8.07025 8.01979V21.0695L10.2853 19.8116ZM26.5275 4.66516L21.2559 7.6581L26.5275 10.651L31.7984 7.65745L26.5275 4.66516ZM26.0001 11.5517L22.9409 9.81464L20.7265 8.55747V14.4823L23.785 16.2187L26.0001 17.4765V11.5517ZM13.8699 24.9033L21.6022 20.55L25.4674 18.3746L20.1997 15.3836L14.1347 18.8272L8.6069 21.9656L13.8699 24.9033Z" fill="white"/>
</svg>
