<svg width="25" height="25" viewBox="0 0 48 47" fill="none" xmlns="http://www.w3.org/2000/svg">
<path d="M3.3151 0.396484H44.6849C46.113 0.396484 47.2706 1.55411 47.2706 2.9821V44.3519C47.2706 45.7799 46.113 46.9375 44.6849 46.9375H3.3151C1.8871 46.9375 0.729492 45.7799 0.729492 44.3519V2.9821C0.729492 1.55411 1.8871 0.396484 3.3151 0.396484ZM5.90072 5.56771V41.7663H42.0993V5.56771H5.90072ZM12.3647 15.9102C10.2227 15.9102 8.48633 14.1737 8.48633 12.0317C8.48633 9.88974 10.2227 8.15332 12.3647 8.15332C14.5067 8.15332 16.2432 9.88974 16.2432 12.0317C16.2432 14.1737 14.5067 15.9102 12.3647 15.9102ZM9.77913 18.4958H14.9504V37.8879H9.77913V18.4958ZM24.0001 19.6063C25.5111 18.1476 27.2721 17.203 29.1713 17.203C34.5261 17.203 38.2209 21.5439 38.2209 26.899V37.8879H33.0497V26.899C33.0497 24.4 31.0239 22.3742 28.5249 22.3742C26.0259 22.3742 24.0001 24.4 24.0001 26.899V37.8879H18.8288V18.4958H24.0001V19.6063Z" fill="white"/>
</svg>
