<svg width="121" height="43" viewBox="0 0 121 43" fill="none" xmlns="http://www.w3.org/2000/svg">
<path d="M64.1893 28.101C63.4799 28.101 62.7764 28.036 62.0789 27.9059C61.3931 27.7877 60.8315 27.6221 60.394 27.4093V25.7777C61.5291 26.3097 62.7528 26.5758 64.0652 26.5758C65.9097 26.5758 66.8319 25.955 66.8319 24.7136C66.8319 24.2879 66.7314 23.945 66.5304 23.6849C66.3294 23.4248 66.0397 23.2001 65.6614 23.011C65.283 22.81 64.6682 22.538 63.8169 22.1952C62.6464 21.7222 61.801 21.202 61.2808 20.6344C60.7605 20.0669 60.5004 19.3516 60.5004 18.4885C60.5004 17.8382 60.6778 17.2648 61.0325 16.7682C61.3872 16.2598 61.8838 15.8696 62.5222 15.5976C63.1607 15.3139 63.8938 15.172 64.7214 15.172C65.3953 15.172 66.0043 15.2252 66.5481 15.3316C67.092 15.438 67.6241 15.6095 68.1443 15.8459V17.4066C67.1157 16.9455 66.0752 16.715 65.0229 16.715C64.1716 16.715 63.5213 16.8687 63.072 17.1761C62.6227 17.4835 62.3981 17.921 62.3981 18.4885C62.3981 18.8787 62.4927 19.2097 62.6819 19.4817C62.8828 19.7418 63.1725 19.9782 63.5509 20.1911C63.9411 20.3921 64.5145 20.6463 65.2712 20.9537C66.1107 21.2966 66.7728 21.6217 67.2575 21.9291C67.7423 22.2365 68.1088 22.6149 68.3571 23.0642C68.6172 23.5016 68.7473 24.0514 68.7473 24.7136C68.7473 25.7895 68.363 26.6231 67.5945 27.2142C66.826 27.8054 65.6909 28.101 64.1893 28.101ZM74.2344 28.101C73.3713 28.101 72.7033 27.8527 72.2303 27.3561C71.7692 26.8595 71.5387 26.156 71.5387 25.2456V20.7054H70.244V19.322H71.5387V16.7682H73.3477V19.322H75.4404V20.7054H73.3477V25.1215C73.3477 25.689 73.4541 26.091 73.6669 26.3275C73.8915 26.5639 74.2935 26.6822 74.8729 26.6822C75.2158 26.6822 75.5587 26.6053 75.9015 26.4516V27.8704C75.4522 28.0241 74.8965 28.101 74.2344 28.101ZM81.2642 28.101C80.2356 28.101 79.4079 27.8409 78.7813 27.3206C78.1665 26.7886 77.8591 26.0733 77.8591 25.1747C77.8591 24.2288 78.1547 23.5016 78.7458 22.9932C79.3488 22.473 80.2001 22.2129 81.2997 22.2129C82.4702 22.2129 83.4634 22.4494 84.2792 22.9223V22.4789C84.2792 21.805 84.0723 21.3084 83.6585 20.9892C83.2565 20.6581 82.618 20.4926 81.7431 20.4926C81.2229 20.4926 80.7144 20.5458 80.2179 20.6522C79.7331 20.7468 79.2956 20.8827 78.9054 21.0601V19.6058C79.2602 19.4403 79.7213 19.3102 80.2888 19.2156C80.8563 19.1092 81.4061 19.056 81.9382 19.056C83.3452 19.056 84.3856 19.3693 85.0596 19.996C85.7453 20.6108 86.0882 21.468 86.0882 22.5676V27.835H84.4034V26.8773C84.0368 27.2793 83.5994 27.5867 83.091 27.7995C82.5944 28.0005 81.9855 28.101 81.2642 28.101ZM81.7076 26.7354C82.2751 26.7354 82.7895 26.6231 83.2506 26.3984C83.7117 26.1738 84.0546 25.8604 84.2792 25.4584V24.3056C83.5107 23.8091 82.6535 23.5608 81.7076 23.5608C81.0219 23.5608 80.5075 23.6967 80.1646 23.9687C79.8336 24.2288 79.6681 24.6308 79.6681 25.1747C79.6681 26.2151 80.3479 26.7354 81.7076 26.7354ZM89.1979 19.322H90.9359V20.8473C91.2906 20.327 91.7872 19.9428 92.4257 19.6945C93.076 19.4462 93.8268 19.322 94.678 19.322V20.7231C93.7676 20.7231 92.9873 20.8709 92.337 21.1665C91.6867 21.4621 91.2374 21.9291 90.9891 22.5676V27.835H89.1979V19.322ZM100.449 28.101C99.5862 28.101 98.9182 27.8527 98.4453 27.3561C97.9841 26.8595 97.7536 26.156 97.7536 25.2456V20.7054H96.4589V19.322H97.7536V16.7682H99.5626V19.322H101.655V20.7054H99.5626V25.1215C99.5626 25.689 99.669 26.091 99.8818 26.3275C100.106 26.5639 100.508 26.6822 101.088 26.6822C101.431 26.6822 101.774 26.6053 102.116 26.4516V27.8704C101.667 28.0241 101.111 28.101 100.449 28.101ZM104.688 19.322H106.427V20.8473C106.781 20.327 107.278 19.9428 107.916 19.6945C108.567 19.4462 109.317 19.322 110.169 19.322V20.7231C109.258 20.7231 108.478 20.8709 107.828 21.1665C107.177 21.4621 106.728 21.9291 106.48 22.5676V27.835H104.688V19.322ZM113.705 17.6549C113.41 17.6549 113.161 17.5544 112.96 17.3534C112.759 17.1524 112.659 16.9041 112.659 16.6085C112.659 16.313 112.759 16.0647 112.96 15.8637C113.161 15.6627 113.41 15.5622 113.705 15.5622C114.013 15.5622 114.267 15.6627 114.468 15.8637C114.681 16.0647 114.787 16.313 114.787 16.6085C114.787 16.9041 114.681 17.1524 114.468 17.3534C114.267 17.5544 114.013 17.6549 113.705 17.6549ZM112.801 19.322H114.628V27.835H112.801V19.322ZM117.98 14.7286H119.771V27.835H117.98V14.7286Z" fill="white"/>
<path d="M30.3837 32.3969L38.7186 41.6143V32.3969V1.00004L18.0054 18.7078L1.99298 32.3969H30.3837Z" fill="url(#paint0_linear_192_226)" fill-opacity="0.45"/>
<path d="M42.1891 26.2009L50.8165 32.3969H1.99298L38.7186 1.00004V41.6143L1.99298 1.00004L18.7705 11.6093" stroke="white" stroke-width="0.771098"/>
<defs>
<linearGradient id="paint0_linear_192_226" x1="1.3535" y1="19.1634" x2="46.7375" y2="19.1633" gradientUnits="userSpaceOnUse">
<stop stop-color="white" stop-opacity="0"/>
<stop offset="1" stop-color="white"/>
</linearGradient>
</defs>
</svg>
