<svg width="51" height="49" viewBox="0 0 51 49" fill="none" xmlns="http://www.w3.org/2000/svg">
<path fill-rule="evenodd" clip-rule="evenodd" d="M44.8693 3.24503C44.5012 3.24503 44.1367 3.31753 43.7966 3.4584C43.4565 3.59926 43.1475 3.80573 42.8872 4.06602L22.4791 24.4741L20.9926 29.9248L26.4432 28.4382L46.8513 8.03013C47.1116 7.76984 47.3181 7.46083 47.4589 7.12075C47.5998 6.78068 47.6723 6.41618 47.6723 6.04807C47.6723 5.67997 47.5998 5.31547 47.4589 4.9754C47.3181 4.63532 47.1116 4.32631 46.8513 4.06602C46.591 3.80573 46.282 3.59926 45.9419 3.4584C45.6019 3.31753 45.2374 3.24503 44.8693 3.24503ZM42.6233 0.625715C43.3353 0.330764 44.0985 0.178955 44.8693 0.178955C45.64 0.178955 46.4032 0.330764 47.1153 0.625715C47.8274 0.920666 48.4744 1.35298 49.0194 1.89798C49.5644 2.44298 49.9967 3.08998 50.2916 3.80206C50.5866 4.51414 50.7384 5.27734 50.7384 6.04807C50.7384 6.81881 50.5866 7.58201 50.2916 8.29409C49.9967 9.00616 49.5644 9.65317 49.0194 10.1982L28.3234 30.8942C28.1347 31.0828 27.9001 31.219 27.6427 31.2892L19.211 33.5887C18.6803 33.7335 18.1126 33.5827 17.7236 33.1937C17.3346 32.8047 17.1839 32.2371 17.3286 31.7063L19.6282 23.2746C19.6984 23.0172 19.8345 22.7826 20.0232 22.594L40.7192 1.89798C41.2642 1.35298 41.9112 0.920666 42.6233 0.625715ZM1.45205 47.5769H0.558838V30.2213H3.55884V44.5769H18.8076V47.5769H3.55884H1.45205ZM44.3693 47.5769V48.4701H27.0137V45.4701H41.3693V30.2213H44.3693V45.4701V47.5769ZM1.42434 4.13851V3.24865H18.8076V6.24865H4.42434V21.5218H1.42434V6.24865V4.13851Z" fill="#D9D9D9"/>
<path fill-rule="evenodd" clip-rule="evenodd" d="M44.8693 3.24503C44.5012 3.24503 44.1367 3.31753 43.7966 3.4584C43.4565 3.59926 43.1475 3.80573 42.8872 4.06602L22.4791 24.4741L20.9926 29.9248L26.4432 28.4382L46.8513 8.03013C47.1116 7.76984 47.3181 7.46083 47.4589 7.12075C47.5998 6.78068 47.6723 6.41618 47.6723 6.04807C47.6723 5.67997 47.5998 5.31547 47.4589 4.9754C47.3181 4.63532 47.1116 4.32631 46.8513 4.06602C46.591 3.80573 46.282 3.59926 45.9419 3.4584C45.6019 3.31753 45.2374 3.24503 44.8693 3.24503ZM42.6233 0.625715C43.3353 0.330764 44.0985 0.178955 44.8693 0.178955C45.64 0.178955 46.4032 0.330764 47.1153 0.625715C47.8274 0.920666 48.4744 1.35298 49.0194 1.89798C49.5644 2.44298 49.9967 3.08998 50.2916 3.80206C50.5866 4.51414 50.7384 5.27734 50.7384 6.04807C50.7384 6.81881 50.5866 7.58201 50.2916 8.29409C49.9967 9.00616 49.5644 9.65317 49.0194 10.1982L28.3234 30.8942C28.1347 31.0828 27.9001 31.219 27.6427 31.2892L19.211 33.5887C18.6803 33.7335 18.1126 33.5827 17.7236 33.1937C17.3346 32.8047 17.1839 32.2371 17.3286 31.7063L19.6282 23.2746C19.6984 23.0172 19.8345 22.7826 20.0232 22.594L40.7192 1.89798C41.2642 1.35298 41.9112 0.920666 42.6233 0.625715ZM1.45205 47.5769H0.558838V30.2213H3.55884V44.5769H18.8076V47.5769H3.55884H1.45205ZM44.3693 47.5769V48.4701H27.0137V45.4701H41.3693V30.2213H44.3693V45.4701V47.5769ZM1.42434 4.13851V3.24865H18.8076V6.24865H4.42434V21.5218H1.42434V6.24865V4.13851Z" fill="url(#paint0_linear_333_32)"/>
<defs>
<linearGradient id="paint0_linear_333_32" x1="0.778406" y1="26.3798" x2="46.6184" y2="26.3798" gradientUnits="userSpaceOnUse">
<stop stop-color="#3BA1F0"/>
<stop offset="1" stop-color="#7260DF"/>
</linearGradient>
</defs>
</svg>
