<svg width="34" height="33" viewBox="0 0 34 33" fill="none" xmlns="http://www.w3.org/2000/svg">
<path fill-rule="evenodd" clip-rule="evenodd" d="M17.1974 32.7453C26.2361 32.7453 33.5634 25.418 33.5634 16.3792C33.5634 7.34052 26.2361 0.0131836 17.1974 0.0131836C8.15863 0.0131836 0.831299 7.34052 0.831299 16.3792C0.831299 25.418 8.15863 32.7453 17.1974 32.7453ZM17.1974 31.4002C25.4932 31.4002 32.2183 24.6751 32.2183 16.3793C32.2183 8.08345 25.4932 1.35837 17.1974 1.35837C8.90157 1.35837 2.17648 8.08345 2.17648 16.3793C2.17648 24.6751 8.90157 31.4002 17.1974 31.4002Z" fill="white"/>
<path fill-rule="evenodd" clip-rule="evenodd" d="M23.4832 30.5979L12.7454 12.0677V20.9027C12.7454 21.2631 12.4532 21.5552 12.0928 21.5552C11.7325 21.5552 11.4403 21.2631 11.4403 20.9027V10.1043C11.4403 9.74387 11.7325 9.45172 12.0928 9.45172C12.3003 9.45172 12.4851 9.5485 12.6046 9.69936C12.7911 9.72961 12.963 9.84019 13.0651 10.0164L24.6717 30.0459C24.2843 30.2452 23.8878 30.4294 23.4832 30.5979Z" fill="white"/>
<path fill-rule="evenodd" clip-rule="evenodd" d="M21.502 9.45172C21.1416 9.45172 20.8495 9.74387 20.8495 10.1043V19.1849L22.0164 21.3043C22.103 21.1936 22.1546 21.0542 22.1546 20.9027V10.1043C22.1546 9.74387 21.8624 9.45172 21.502 9.45172Z" fill="white"/>
</svg>
