<svg width="54" height="55" viewBox="0 0 54 55" fill="none" xmlns="http://www.w3.org/2000/svg">
<path fill-rule="evenodd" clip-rule="evenodd" d="M7.66704 8.47369C7.72589 8.47822 7.78441 8.48793 7.84187 8.50284L36.5956 15.4434C36.9741 15.5348 37.2652 15.8375 37.3415 16.2194L39.9515 29.2693L40.6142 28.6066C41.0047 28.2161 41.6378 28.2161 42.0284 28.6066L47.981 34.5593C48.3715 34.9498 48.3715 35.583 47.981 35.9735L34.0915 49.863C33.701 50.2535 33.0678 50.2535 32.6773 49.863L26.7247 43.9104C26.3341 43.5198 26.3341 42.8867 26.7247 42.4961L27.3884 41.8324L14.3385 39.2224C13.9567 39.1461 13.6539 38.855 13.5625 38.4765L6.62196 9.72275C6.60703 9.66518 6.5973 9.60654 6.59278 9.54757C6.57126 9.26668 6.66792 8.97844 6.88274 8.76362C7.05981 8.58655 7.28676 8.48976 7.51836 8.47327C7.56762 8.46973 7.61731 8.46983 7.66704 8.47369ZM21.2982 24.5933L9.39586 12.691L15.3568 37.3865L29.0875 40.1326L38.2517 30.9684L35.5056 17.2377L10.8101 11.2767L22.7125 23.1791C23.4968 22.6611 24.4367 22.3595 25.4471 22.3595C28.191 22.3595 30.4155 24.584 30.4155 27.3279C30.4155 30.0719 28.191 32.2964 25.4471 32.2964C22.7031 32.2964 20.4786 30.0719 20.4786 27.3279C20.4786 26.3176 20.7802 25.3777 21.2982 24.5933ZM23.3134 25.2642C22.7966 25.7984 22.4786 26.526 22.4786 27.3279C22.4786 28.9674 23.8076 30.2964 25.4471 30.2964C27.0865 30.2964 28.4155 28.9674 28.4155 27.3279C28.4155 25.6885 27.0865 24.3595 25.4471 24.3595C24.6451 24.3595 23.9175 24.6775 23.3833 25.1943C23.3723 25.2064 23.3609 25.2184 23.3492 25.2301C23.3375 25.2418 23.3255 25.2532 23.3134 25.2642ZM33.3844 47.7417L28.846 43.2033L41.3213 30.728L45.8597 35.2664L33.3844 47.7417Z" fill="url(#paint0_linear_2444_872)"/>
<defs>
<linearGradient id="paint0_linear_2444_872" x1="6.04387" y1="31.5136" x2="44.7914" y2="31.5136" gradientUnits="userSpaceOnUse">
<stop stop-color="#3BA1F0"/>
<stop offset="1" stop-color="#7260DF"/>
</linearGradient>
</defs>
</svg>
