<svg id="sketch" class="sketch_animation" width="600" height="400" viewBox="0 0 600 400" fill="none" xmlns="http://www.w3.org/2000/svg">
  <rect width="1052" height="400" fill="#0E1119"/>
  <path class="sketch_square" opacity="0.1" d="M24 376V21H576V376H24Z" stroke="white" stroke-width="2"/>
  <path d="M311.084 248.582L334.301 274V248.582V162L276.603 210.832L232 248.582H311.084Z" fill="url(#paint0_linear_333_46)" fill-opacity="0.45"/>
  <path d="M343.968 231.495L368 248.582H232L334.301 162V274L232 162L278.734 191.257" stroke="black" stroke-width="1.10244"/>
  <path d="M343.968 231.495L368 248.582H232L334.301 162V274L232 162L278.734 191.257" stroke="url(#paint1_linear_333_46)" stroke-width="1.10244"/>
  <g opacity="0.7" class="pen">
    <path d="M587 394.583L594.583 387L597.833 390.25L590.25 397.833L587 394.583Z" stroke="white" stroke-width="2" stroke-linecap="round" stroke-linejoin="round"/>
    <path d="M593.5 388.083L591.875 379.958L576.167 376.167L579.958 391.875L588.083 393.5L593.5 388.083Z" stroke="white" stroke-width="2" stroke-linecap="round" stroke-linejoin="round"/>
    <path d="M576.167 376.167L584.385 384.385" stroke="white" stroke-width="2" stroke-linecap="round" stroke-linejoin="round"/>
    <path d="M585.917 388.083C587.113 388.083 588.083 387.113 588.083 385.917C588.083 384.72 587.113 383.75 585.917 383.75C584.72 383.75 583.75 384.72 583.75 385.917C583.75 387.113 584.72 388.083 585.917 388.083Z" stroke="white" stroke-width="2" stroke-linecap="round" stroke-linejoin="round"/>
</g>
<g opacity="0.8" filter="url(#filter0_b_333_46)">
<rect class="login_box" x="182" y="58" width="236" height="283" rx="6" fill="#1B1F2C"/>
</g>
<g class="fixedSecondStepElement" opacity="0.8" filter="url(#filter1_b_333_46)">
<rect x="711" y="58" width="236" height="283" rx="6" fill="#1B1F2C"/>
</g>
<path class="finalCheck" d="M889 229L880.062 239L876 234.455" stroke="url(#paint2_linear_333_46)" stroke-width="3" stroke-linecap="round" stroke-linejoin="round"/>
<path class="secondStepElement" d="M738.536 75.214H739.908L743.814 85H742.358L741.378 82.564H737.052L736.1 85H734.63L738.536 75.214ZM740.986 81.374L739.222 76.796L737.458 81.374H740.986ZM747.341 85.21C746.874 85.21 746.38 85.1493 745.857 85.028C745.334 84.916 744.924 84.762 744.625 84.566V83.362C744.989 83.5767 745.409 83.754 745.885 83.894C746.361 84.0247 746.823 84.09 747.271 84.09C747.775 84.09 748.144 84.0293 748.377 83.908C748.61 83.7867 748.727 83.5907 748.727 83.32C748.727 83.1147 748.671 82.9513 748.559 82.83C748.456 82.6993 748.274 82.5827 748.013 82.48C747.761 82.3773 747.378 82.256 746.865 82.116C746.314 81.9573 745.876 81.7987 745.549 81.64C745.232 81.472 744.989 81.262 744.821 81.01C744.662 80.758 744.583 80.4313 744.583 80.03C744.583 79.386 744.835 78.9007 745.339 78.574C745.852 78.238 746.538 78.07 747.397 78.07C747.845 78.07 748.284 78.112 748.713 78.196C749.142 78.28 749.488 78.3967 749.749 78.546V79.722C749.478 79.5633 749.142 79.4373 748.741 79.344C748.349 79.2507 747.948 79.204 747.537 79.204C747.042 79.204 746.664 79.2647 746.403 79.386C746.142 79.5073 746.011 79.722 746.011 80.03C746.011 80.226 746.067 80.3847 746.179 80.506C746.291 80.6273 746.468 80.7347 746.711 80.828C746.963 80.912 747.36 81.024 747.901 81.164C748.75 81.3973 749.338 81.6727 749.665 81.99C750.001 82.3073 750.169 82.746 750.169 83.306C750.169 83.8847 749.931 84.3467 749.455 84.692C748.979 85.0373 748.274 85.21 747.341 85.21ZM753.835 85.21C753.369 85.21 752.874 85.1493 752.351 85.028C751.829 84.916 751.418 84.762 751.119 84.566V83.362C751.483 83.5767 751.903 83.754 752.379 83.894C752.855 84.0247 753.317 84.09 753.765 84.09C754.269 84.09 754.638 84.0293 754.871 83.908C755.105 83.7867 755.221 83.5907 755.221 83.32C755.221 83.1147 755.165 82.9513 755.053 82.83C754.951 82.6993 754.769 82.5827 754.507 82.48C754.255 82.3773 753.873 82.256 753.359 82.116C752.809 81.9573 752.37 81.7987 752.043 81.64C751.726 81.472 751.483 81.262 751.315 81.01C751.157 80.758 751.077 80.4313 751.077 80.03C751.077 79.386 751.329 78.9007 751.833 78.574C752.347 78.238 753.033 78.07 753.891 78.07C754.339 78.07 754.778 78.112 755.207 78.196C755.637 78.28 755.982 78.3967 756.243 78.546V79.722C755.973 79.5633 755.637 79.4373 755.235 79.344C754.843 79.2507 754.442 79.204 754.031 79.204C753.537 79.204 753.159 79.2647 752.897 79.386C752.636 79.5073 752.505 79.722 752.505 80.03C752.505 80.226 752.561 80.3847 752.673 80.506C752.785 80.6273 752.963 80.7347 753.205 80.828C753.457 80.912 753.854 81.024 754.395 81.164C755.245 81.3973 755.833 81.6727 756.159 81.99C756.495 82.3073 756.663 82.746 756.663 83.306C756.663 83.8847 756.425 84.3467 755.949 84.692C755.473 85.0373 754.769 85.21 753.835 85.21ZM759.033 76.964C758.8 76.964 758.604 76.8847 758.445 76.726C758.286 76.5673 758.207 76.3713 758.207 76.138C758.207 75.9047 758.286 75.7087 758.445 75.55C758.604 75.3913 758.8 75.312 759.033 75.312C759.276 75.312 759.476 75.3913 759.635 75.55C759.803 75.7087 759.887 75.9047 759.887 76.138C759.887 76.3713 759.803 76.5673 759.635 76.726C759.476 76.8847 759.276 76.964 759.033 76.964ZM758.319 78.28H759.761V85H758.319V78.28ZM761.707 78.28H763.079V79.246C763.396 78.8447 763.784 78.5507 764.241 78.364C764.708 78.168 765.193 78.07 765.697 78.07C766.593 78.07 767.26 78.308 767.699 78.784C768.138 79.26 768.357 79.8993 768.357 80.702V85H766.943V80.842C766.943 79.75 766.42 79.204 765.375 79.204C764.927 79.204 764.507 79.3113 764.115 79.526C763.732 79.7313 763.401 80.0487 763.121 80.478V85H761.707V78.28ZM772.304 85.21C771.492 85.21 770.839 85.0047 770.344 84.594C769.859 84.174 769.616 83.6093 769.616 82.9C769.616 82.1533 769.85 81.5793 770.316 81.178C770.792 80.7673 771.464 80.562 772.332 80.562C773.256 80.562 774.04 80.7487 774.684 81.122V80.772C774.684 80.24 774.521 79.848 774.194 79.596C773.877 79.3347 773.373 79.204 772.682 79.204C772.272 79.204 771.87 79.246 771.478 79.33C771.096 79.4047 770.75 79.512 770.442 79.652V78.504C770.722 78.3733 771.086 78.2707 771.534 78.196C771.982 78.112 772.416 78.07 772.836 78.07C773.947 78.07 774.768 78.3173 775.3 78.812C775.842 79.2973 776.112 79.974 776.112 80.842V85H774.782V84.244C774.493 84.5613 774.148 84.804 773.746 84.972C773.354 85.1307 772.874 85.21 772.304 85.21ZM772.654 84.132C773.102 84.132 773.508 84.0433 773.872 83.866C774.236 83.6887 774.507 83.4413 774.684 83.124V82.214C774.078 81.822 773.401 81.626 772.654 81.626C772.113 81.626 771.707 81.7333 771.436 81.948C771.175 82.1533 771.044 82.4707 771.044 82.9C771.044 83.7213 771.581 84.132 772.654 84.132ZM777.867 78.28H779.239V79.484C779.519 79.0733 779.911 78.77 780.415 78.574C780.928 78.378 781.521 78.28 782.193 78.28V79.386C781.474 79.386 780.858 79.5027 780.345 79.736C779.832 79.9693 779.477 80.338 779.281 80.842V85H777.867V78.28Z" fill="white"/>
<path class="secondStepElement" opacity="0.7" d="M748.715 129.311H752.246C752.928 129.311 753.456 129.487 753.83 129.839C754.204 130.191 754.391 130.704 754.391 131.379C754.391 131.76 754.299 132.098 754.116 132.391C753.94 132.677 753.705 132.89 753.412 133.029C754.233 133.271 754.644 133.869 754.644 134.822C754.644 135.269 754.545 135.658 754.347 135.988C754.156 136.311 753.892 136.56 753.555 136.736C753.218 136.912 752.844 137 752.433 137H748.715V129.311ZM752.103 132.611C752.462 132.611 752.745 132.512 752.95 132.314C753.155 132.116 753.258 131.823 753.258 131.434C753.258 130.987 753.155 130.675 752.95 130.499C752.752 130.316 752.444 130.224 752.026 130.224H749.837V132.611H752.103ZM752.18 136.087C752.613 136.087 752.943 135.992 753.17 135.801C753.397 135.61 753.511 135.284 753.511 134.822C753.511 134.36 753.39 134.03 753.148 133.832C752.913 133.634 752.558 133.535 752.081 133.535H749.837V136.087H752.18ZM758.499 129.234H759.676L758.763 131.126H757.751L758.499 129.234ZM757.751 137.165C757.113 137.165 756.599 137.004 756.211 136.681C755.829 136.351 755.639 135.907 755.639 135.35C755.639 134.763 755.822 134.312 756.189 133.997C756.563 133.674 757.091 133.513 757.773 133.513C758.499 133.513 759.115 133.66 759.621 133.953V133.678C759.621 133.26 759.492 132.952 759.236 132.754C758.986 132.549 758.59 132.446 758.048 132.446C757.725 132.446 757.41 132.479 757.102 132.545C756.801 132.604 756.53 132.688 756.288 132.798V131.896C756.508 131.793 756.794 131.713 757.146 131.654C757.498 131.588 757.839 131.555 758.169 131.555C759.041 131.555 759.687 131.749 760.105 132.138C760.53 132.519 760.743 133.051 760.743 133.733V137H759.698V136.406C759.47 136.655 759.199 136.846 758.884 136.978C758.576 137.103 758.198 137.165 757.751 137.165ZM758.026 136.318C758.378 136.318 758.697 136.248 758.983 136.109C759.269 135.97 759.481 135.775 759.621 135.526V134.811C759.144 134.503 758.612 134.349 758.026 134.349C757.6 134.349 757.281 134.433 757.069 134.602C756.863 134.763 756.761 135.013 756.761 135.35C756.761 135.995 757.182 136.318 758.026 136.318ZM763.907 137.165C763.54 137.165 763.152 137.117 762.741 137.022C762.33 136.934 762.008 136.813 761.773 136.659V135.713C762.059 135.882 762.389 136.021 762.763 136.131C763.137 136.234 763.5 136.285 763.852 136.285C764.248 136.285 764.538 136.237 764.721 136.142C764.904 136.047 764.996 135.893 764.996 135.68C764.996 135.519 764.952 135.39 764.864 135.295C764.783 135.192 764.64 135.101 764.435 135.02C764.237 134.939 763.936 134.844 763.533 134.734C763.1 134.609 762.756 134.485 762.499 134.36C762.25 134.228 762.059 134.063 761.927 133.865C761.802 133.667 761.74 133.41 761.74 133.095C761.74 132.589 761.938 132.208 762.334 131.951C762.737 131.687 763.276 131.555 763.951 131.555C764.303 131.555 764.648 131.588 764.985 131.654C765.322 131.72 765.594 131.812 765.799 131.929V132.853C765.586 132.728 765.322 132.629 765.007 132.556C764.699 132.483 764.384 132.446 764.061 132.446C763.672 132.446 763.375 132.494 763.17 132.589C762.965 132.684 762.862 132.853 762.862 133.095C762.862 133.249 762.906 133.374 762.994 133.469C763.082 133.564 763.221 133.649 763.412 133.722C763.61 133.788 763.922 133.876 764.347 133.986C765.014 134.169 765.476 134.386 765.733 134.635C765.997 134.884 766.129 135.229 766.129 135.669C766.129 136.124 765.942 136.487 765.568 136.758C765.194 137.029 764.64 137.165 763.907 137.165ZM767.991 130.686C767.808 130.686 767.654 130.624 767.529 130.499C767.404 130.374 767.342 130.22 767.342 130.037C767.342 129.854 767.404 129.7 767.529 129.575C767.654 129.45 767.808 129.388 767.991 129.388C768.182 129.388 768.339 129.45 768.464 129.575C768.596 129.7 768.662 129.854 768.662 130.037C768.662 130.22 768.596 130.374 768.464 130.499C768.339 130.624 768.182 130.686 767.991 130.686ZM767.43 131.72H768.563V137H767.43V131.72ZM772.875 137.165C772.288 137.165 771.768 137.055 771.313 136.835C770.858 136.615 770.503 136.296 770.246 135.878C769.997 135.453 769.872 134.95 769.872 134.371C769.872 133.792 769.997 133.293 770.246 132.875C770.503 132.45 770.858 132.123 771.313 131.896C771.775 131.669 772.303 131.555 772.897 131.555C773.704 131.555 774.349 131.713 774.833 132.028V132.941C774.356 132.611 773.748 132.446 773.007 132.446C772.406 132.446 771.918 132.611 771.544 132.941C771.177 133.264 770.994 133.74 770.994 134.371C770.994 135.002 771.177 135.478 771.544 135.801C771.911 136.124 772.391 136.285 772.985 136.285C773.726 136.285 774.364 136.109 774.899 135.757V136.659C774.642 136.835 774.349 136.963 774.019 137.044C773.696 137.125 773.315 137.165 772.875 137.165ZM778.729 137.165C778.135 137.165 777.611 137.055 777.156 136.835C776.709 136.608 776.357 136.285 776.1 135.867C775.851 135.442 775.726 134.943 775.726 134.371C775.726 133.806 775.851 133.311 776.1 132.886C776.35 132.461 776.702 132.134 777.156 131.907C777.611 131.672 778.135 131.555 778.729 131.555C779.323 131.555 779.848 131.672 780.302 131.907C780.757 132.134 781.109 132.461 781.358 132.886C781.615 133.311 781.743 133.806 781.743 134.371C781.743 134.943 781.615 135.442 781.358 135.867C781.109 136.285 780.757 136.608 780.302 136.835C779.848 137.055 779.323 137.165 778.729 137.165ZM778.729 136.285C779.301 136.285 779.756 136.109 780.093 135.757C780.431 135.405 780.599 134.943 780.599 134.371C780.599 133.777 780.431 133.308 780.093 132.963C779.756 132.618 779.301 132.446 778.729 132.446C778.157 132.446 777.703 132.618 777.365 132.963C777.028 133.308 776.859 133.777 776.859 134.371C776.859 134.943 777.028 135.405 777.365 135.757C777.703 136.109 778.157 136.285 778.729 136.285Z" fill="white"/>
<path class="secondStepElement" opacity="0.5" d="M748.715 217.311H751.674C752.503 217.311 753.155 217.52 753.632 217.938C754.116 218.349 754.358 218.935 754.358 219.698C754.358 220.475 754.12 221.066 753.643 221.469C753.166 221.865 752.51 222.063 751.674 222.063H749.837V225H748.715V217.311ZM751.553 221.128C752.066 221.128 752.473 221.022 752.774 220.809C753.075 220.596 753.225 220.226 753.225 219.698C753.225 219.17 753.075 218.8 752.774 218.587C752.473 218.367 752.066 218.257 751.553 218.257H749.837V221.128H751.553ZM755.343 219.72H756.421V220.666C756.641 220.343 756.949 220.105 757.345 219.951C757.748 219.797 758.214 219.72 758.742 219.72V220.589C758.177 220.589 757.693 220.681 757.29 220.864C756.887 221.047 756.608 221.337 756.454 221.733V225H755.343V219.72ZM762.358 225.165C761.764 225.165 761.24 225.055 760.785 224.835C760.338 224.608 759.986 224.285 759.729 223.867C759.48 223.442 759.355 222.943 759.355 222.371C759.355 221.806 759.48 221.311 759.729 220.886C759.979 220.461 760.331 220.134 760.785 219.907C761.24 219.672 761.764 219.555 762.358 219.555C762.952 219.555 763.477 219.672 763.931 219.907C764.386 220.134 764.738 220.461 764.987 220.886C765.244 221.311 765.372 221.806 765.372 222.371C765.372 222.943 765.244 223.442 764.987 223.867C764.738 224.285 764.386 224.608 763.931 224.835C763.477 225.055 762.952 225.165 762.358 225.165ZM762.358 224.285C762.93 224.285 763.385 224.109 763.722 223.757C764.06 223.405 764.228 222.943 764.228 222.371C764.228 221.777 764.06 221.308 763.722 220.963C763.385 220.618 762.93 220.446 762.358 220.446C761.786 220.446 761.332 220.618 760.994 220.963C760.657 221.308 760.488 221.777 760.488 222.371C760.488 222.943 760.657 223.405 760.994 223.757C761.332 224.109 761.786 224.285 762.358 224.285ZM766.556 220.578H765.753V219.72H766.556V218.719C766.556 218.11 766.75 217.641 767.139 217.311C767.527 216.981 768.011 216.816 768.591 216.816C768.884 216.816 769.17 216.86 769.449 216.948V217.85C769.243 217.769 769.031 217.729 768.811 217.729C768.437 217.729 768.151 217.821 767.953 218.004C767.762 218.18 767.667 218.44 767.667 218.785V219.72H771.231V225H770.12V220.578H767.667V225H766.556V220.578ZM770.67 218.686C770.479 218.686 770.321 218.624 770.197 218.499C770.072 218.374 770.01 218.22 770.01 218.037C770.01 217.854 770.072 217.7 770.197 217.575C770.329 217.45 770.486 217.388 770.67 217.388C770.853 217.388 771.007 217.45 771.132 217.575C771.264 217.7 771.33 217.854 771.33 218.037C771.33 218.22 771.264 218.374 771.132 218.499C771.007 218.624 770.853 218.686 770.67 218.686ZM774.703 225.165C774.336 225.165 773.948 225.117 773.537 225.022C773.126 224.934 772.804 224.813 772.569 224.659V223.713C772.855 223.882 773.185 224.021 773.559 224.131C773.933 224.234 774.296 224.285 774.648 224.285C775.044 224.285 775.334 224.237 775.517 224.142C775.7 224.047 775.792 223.893 775.792 223.68C775.792 223.519 775.748 223.39 775.66 223.295C775.579 223.192 775.436 223.101 775.231 223.02C775.033 222.939 774.732 222.844 774.329 222.734C773.896 222.609 773.552 222.485 773.295 222.36C773.046 222.228 772.855 222.063 772.723 221.865C772.598 221.667 772.536 221.41 772.536 221.095C772.536 220.589 772.734 220.208 773.13 219.951C773.533 219.687 774.072 219.555 774.747 219.555C775.099 219.555 775.444 219.588 775.781 219.654C776.118 219.72 776.39 219.812 776.595 219.929V220.853C776.382 220.728 776.118 220.629 775.803 220.556C775.495 220.483 775.18 220.446 774.857 220.446C774.468 220.446 774.171 220.494 773.966 220.589C773.761 220.684 773.658 220.853 773.658 221.095C773.658 221.249 773.702 221.374 773.79 221.469C773.878 221.564 774.017 221.649 774.208 221.722C774.406 221.788 774.718 221.876 775.143 221.986C775.81 222.169 776.272 222.386 776.529 222.635C776.793 222.884 776.925 223.229 776.925 223.669C776.925 224.124 776.738 224.487 776.364 224.758C775.99 225.029 775.436 225.165 774.703 225.165ZM779.806 225.165C779.439 225.165 779.05 225.117 778.64 225.022C778.229 224.934 777.906 224.813 777.672 224.659V223.713C777.958 223.882 778.288 224.021 778.662 224.131C779.036 224.234 779.399 224.285 779.751 224.285C780.147 224.285 780.436 224.237 780.62 224.142C780.803 224.047 780.895 223.893 780.895 223.68C780.895 223.519 780.851 223.39 780.763 223.295C780.682 223.192 780.539 223.101 780.334 223.02C780.136 222.939 779.835 222.844 779.432 222.734C778.999 222.609 778.654 222.485 778.398 222.36C778.148 222.228 777.958 222.063 777.826 221.865C777.701 221.667 777.639 221.41 777.639 221.095C777.639 220.589 777.837 220.208 778.233 219.951C778.636 219.687 779.175 219.555 779.85 219.555C780.202 219.555 780.546 219.588 780.884 219.654C781.221 219.72 781.492 219.812 781.698 219.929V220.853C781.485 220.728 781.221 220.629 780.906 220.556C780.598 220.483 780.282 220.446 779.96 220.446C779.571 220.446 779.274 220.494 779.069 220.589C778.863 220.684 778.761 220.853 778.761 221.095C778.761 221.249 778.805 221.374 778.893 221.469C778.981 221.564 779.12 221.649 779.311 221.722C779.509 221.788 779.82 221.876 780.246 221.986C780.913 222.169 781.375 222.386 781.632 222.635C781.896 222.884 782.028 223.229 782.028 223.669C782.028 224.124 781.841 224.487 781.467 224.758C781.093 225.029 780.539 225.165 779.806 225.165ZM783.889 218.686C783.706 218.686 783.552 218.624 783.427 218.499C783.303 218.374 783.24 218.22 783.24 218.037C783.24 217.854 783.303 217.7 783.427 217.575C783.552 217.45 783.706 217.388 783.889 217.388C784.08 217.388 784.238 217.45 784.362 217.575C784.494 217.7 784.56 217.854 784.56 218.037C784.56 218.22 784.494 218.374 784.362 218.499C784.238 218.624 784.08 218.686 783.889 218.686ZM783.328 219.72H784.461V225H783.328V219.72ZM788.773 225.165C788.179 225.165 787.655 225.055 787.2 224.835C786.753 224.608 786.401 224.285 786.144 223.867C785.895 223.442 785.77 222.943 785.77 222.371C785.77 221.806 785.895 221.311 786.144 220.886C786.394 220.461 786.746 220.134 787.2 219.907C787.655 219.672 788.179 219.555 788.773 219.555C789.367 219.555 789.892 219.672 790.346 219.907C790.801 220.134 791.153 220.461 791.402 220.886C791.659 221.311 791.787 221.806 791.787 222.371C791.787 222.943 791.659 223.442 791.402 223.867C791.153 224.285 790.801 224.608 790.346 224.835C789.892 225.055 789.367 225.165 788.773 225.165ZM788.773 224.285C789.345 224.285 789.8 224.109 790.137 223.757C790.475 223.405 790.643 222.943 790.643 222.371C790.643 221.777 790.475 221.308 790.137 220.963C789.8 220.618 789.345 220.446 788.773 220.446C788.201 220.446 787.747 220.618 787.409 220.963C787.072 221.308 786.903 221.777 786.903 222.371C786.903 222.943 787.072 223.405 787.409 223.757C787.747 224.109 788.201 224.285 788.773 224.285ZM792.994 219.72H794.072V220.479C794.322 220.164 794.626 219.933 794.985 219.786C795.352 219.632 795.733 219.555 796.129 219.555C796.833 219.555 797.358 219.742 797.702 220.116C798.047 220.49 798.219 220.992 798.219 221.623V225H797.108V221.733C797.108 220.875 796.698 220.446 795.876 220.446C795.524 220.446 795.194 220.53 794.886 220.699C794.586 220.86 794.325 221.11 794.105 221.447V225H792.994V219.72ZM801.321 225.165C800.683 225.165 800.17 225.004 799.781 224.681C799.4 224.351 799.209 223.907 799.209 223.35C799.209 222.763 799.392 222.312 799.759 221.997C800.133 221.674 800.661 221.513 801.343 221.513C802.069 221.513 802.685 221.66 803.191 221.953V221.678C803.191 221.26 803.063 220.952 802.806 220.754C802.557 220.549 802.161 220.446 801.618 220.446C801.295 220.446 800.98 220.479 800.672 220.545C800.371 220.604 800.1 220.688 799.858 220.798V219.896C800.078 219.793 800.364 219.713 800.716 219.654C801.068 219.588 801.409 219.555 801.739 219.555C802.612 219.555 803.257 219.749 803.675 220.138C804.1 220.519 804.313 221.051 804.313 221.733V225H803.268V224.406C803.041 224.655 802.769 224.846 802.454 224.978C802.146 225.103 801.768 225.165 801.321 225.165ZM801.596 224.318C801.948 224.318 802.267 224.248 802.553 224.109C802.839 223.97 803.052 223.775 803.191 223.526V222.811C802.714 222.503 802.183 222.349 801.596 222.349C801.171 222.349 800.852 222.433 800.639 222.602C800.434 222.763 800.331 223.013 800.331 223.35C800.331 223.995 800.753 224.318 801.596 224.318ZM805.692 216.871H806.803V225H805.692V216.871Z" fill="white"/>
<path class="secondStepElement" opacity="0.7" d="M748.572 150.311H751.905C752.778 150.311 753.456 150.531 753.94 150.971C754.431 151.404 754.677 152.031 754.677 152.852C754.677 153.424 754.545 153.912 754.281 154.315C754.017 154.711 753.643 155.001 753.159 155.184L754.622 158H752.906L751.553 155.393H750.244V158H748.572V150.311ZM751.608 153.996C752.033 153.996 752.367 153.904 752.609 153.721C752.858 153.538 752.983 153.248 752.983 152.852C752.983 152.434 752.862 152.141 752.62 151.972C752.378 151.796 752.041 151.708 751.608 151.708H750.244V153.996H751.608ZM757.588 158.154C757.177 158.139 756.781 158.092 756.4 158.011C756.026 157.93 755.718 157.828 755.476 157.703V156.504C756.129 156.819 756.833 156.995 757.588 157.032V154.59C756.869 154.297 756.349 153.97 756.026 153.611C755.703 153.252 755.542 152.804 755.542 152.269C755.542 151.734 755.725 151.283 756.092 150.916C756.459 150.542 756.957 150.304 757.588 150.201V149.178H758.776V150.168C759.37 150.212 759.924 150.348 760.437 150.575V151.741C759.88 151.47 759.326 151.319 758.776 151.29V153.677C759.267 153.89 759.66 154.099 759.953 154.304C760.246 154.509 760.466 154.748 760.613 155.019C760.76 155.29 760.833 155.62 760.833 156.009C760.833 156.581 760.661 157.047 760.316 157.406C759.971 157.765 759.458 157.996 758.776 158.099V159.133H757.588V158.154ZM757.588 151.444C757.214 151.605 757.027 151.88 757.027 152.269C757.027 152.474 757.071 152.647 757.159 152.786C757.247 152.918 757.39 153.039 757.588 153.149V151.444ZM758.776 156.856C759.143 156.68 759.326 156.394 759.326 155.998C759.326 155.8 759.282 155.635 759.194 155.503C759.106 155.364 758.967 155.239 758.776 155.129V156.856ZM767.818 158.165C767.304 158.165 766.872 158.11 766.52 158V156.614C766.85 156.768 767.238 156.845 767.686 156.845C768.316 156.845 768.826 156.665 769.215 156.306C769.603 155.939 769.838 155.408 769.919 154.711C769.706 154.931 769.438 155.1 769.116 155.217C768.8 155.327 768.448 155.382 768.06 155.382C767.554 155.382 767.106 155.279 766.718 155.074C766.329 154.869 766.025 154.575 765.805 154.194C765.592 153.805 765.486 153.351 765.486 152.83C765.486 152.317 765.603 151.858 765.838 151.455C766.072 151.044 766.417 150.725 766.872 150.498C767.326 150.263 767.876 150.146 768.522 150.146C769.145 150.146 769.691 150.285 770.161 150.564C770.63 150.835 770.993 151.231 771.25 151.752C771.506 152.265 771.635 152.881 771.635 153.6C771.635 154.568 771.477 155.397 771.162 156.086C770.846 156.768 770.403 157.285 769.831 157.637C769.259 157.989 768.588 158.165 767.818 158.165ZM768.522 154.128C768.903 154.128 769.222 154 769.479 153.743C769.735 153.486 769.864 153.164 769.864 152.775C769.864 152.401 769.735 152.082 769.479 151.818C769.229 151.554 768.91 151.422 768.522 151.422C768.133 151.422 767.81 151.55 767.554 151.807C767.304 152.056 767.18 152.379 767.18 152.775C767.18 153.164 767.304 153.486 767.554 153.743C767.81 154 768.133 154.128 768.522 154.128ZM774.671 158.165C774.158 158.165 773.725 158.11 773.373 158V156.614C773.703 156.768 774.092 156.845 774.539 156.845C775.17 156.845 775.68 156.665 776.068 156.306C776.457 155.939 776.692 155.408 776.772 154.711C776.56 154.931 776.292 155.1 775.969 155.217C775.654 155.327 775.302 155.382 774.913 155.382C774.407 155.382 773.96 155.279 773.571 155.074C773.183 154.869 772.878 154.575 772.658 154.194C772.446 153.805 772.339 153.351 772.339 152.83C772.339 152.317 772.457 151.858 772.691 151.455C772.926 151.044 773.271 150.725 773.725 150.498C774.18 150.263 774.73 150.146 775.375 150.146C775.999 150.146 776.545 150.285 777.014 150.564C777.484 150.835 777.847 151.231 778.103 151.752C778.36 152.265 778.488 152.881 778.488 153.6C778.488 154.568 778.331 155.397 778.015 156.086C777.7 156.768 777.256 157.285 776.684 157.637C776.112 157.989 775.441 158.165 774.671 158.165ZM775.375 154.128C775.757 154.128 776.076 154 776.332 153.743C776.589 153.486 776.717 153.164 776.717 152.775C776.717 152.401 776.589 152.082 776.332 151.818C776.083 151.554 775.764 151.422 775.375 151.422C774.987 151.422 774.664 151.55 774.407 151.807C774.158 152.056 774.033 152.379 774.033 152.775C774.033 153.164 774.158 153.486 774.407 153.743C774.664 154 774.987 154.128 775.375 154.128ZM780.106 157.351H781.822L780.711 159.639H779.193L780.106 157.351ZM784.866 158.165C784.352 158.165 783.92 158.11 783.568 158V156.614C783.898 156.768 784.286 156.845 784.734 156.845C785.364 156.845 785.874 156.665 786.263 156.306C786.651 155.939 786.886 155.408 786.967 154.711C786.754 154.931 786.486 155.1 786.164 155.217C785.848 155.327 785.496 155.382 785.108 155.382C784.602 155.382 784.154 155.279 783.766 155.074C783.377 154.869 783.073 154.575 782.853 154.194C782.64 153.805 782.534 153.351 782.534 152.83C782.534 152.317 782.651 151.858 782.886 151.455C783.12 151.044 783.465 150.725 783.92 150.498C784.374 150.263 784.924 150.146 785.57 150.146C786.193 150.146 786.739 150.285 787.209 150.564C787.678 150.835 788.041 151.231 788.298 151.752C788.554 152.265 788.683 152.881 788.683 153.6C788.683 154.568 788.525 155.397 788.21 156.086C787.894 156.768 787.451 157.285 786.879 157.637C786.307 157.989 785.636 158.165 784.866 158.165ZM785.57 154.128C785.951 154.128 786.27 154 786.527 153.743C786.783 153.486 786.912 153.164 786.912 152.775C786.912 152.401 786.783 152.082 786.527 151.818C786.277 151.554 785.958 151.422 785.57 151.422C785.181 151.422 784.858 151.55 784.602 151.807C784.352 152.056 784.228 152.379 784.228 152.775C784.228 153.164 784.352 153.486 784.602 153.743C784.858 154 785.181 154.128 785.57 154.128ZM792.819 158.165C792.122 158.165 791.514 158.007 790.993 157.692C790.48 157.369 790.084 156.907 789.805 156.306C789.526 155.697 789.387 154.982 789.387 154.161C789.387 153.332 789.523 152.617 789.794 152.016C790.073 151.415 790.469 150.953 790.982 150.63C791.503 150.307 792.115 150.146 792.819 150.146C793.523 150.146 794.132 150.307 794.645 150.63C795.158 150.953 795.551 151.415 795.822 152.016C796.101 152.617 796.24 153.332 796.24 154.161C796.24 154.982 796.101 155.697 795.822 156.306C795.543 156.907 795.147 157.369 794.634 157.692C794.121 158.007 793.516 158.165 792.819 158.165ZM792.819 156.625C793.369 156.625 793.794 156.409 794.095 155.976C794.396 155.543 794.546 154.946 794.546 154.183C794.546 153.413 794.396 152.808 794.095 152.368C793.802 151.928 793.376 151.708 792.819 151.708C792.262 151.708 791.833 151.928 791.532 152.368C791.239 152.808 791.092 153.413 791.092 154.183C791.092 154.946 791.242 155.543 791.543 155.976C791.844 156.409 792.269 156.625 792.819 156.625Z" fill="white"/>
<path class="secondStepElement" d="M748.572 238.311H751.905C752.778 238.311 753.456 238.531 753.94 238.971C754.431 239.404 754.677 240.031 754.677 240.852C754.677 241.424 754.545 241.912 754.281 242.315C754.017 242.711 753.643 243.001 753.159 243.184L754.622 246H752.906L751.553 243.393H750.244V246H748.572V238.311ZM751.608 241.996C752.033 241.996 752.367 241.904 752.609 241.721C752.858 241.538 752.983 241.248 752.983 240.852C752.983 240.434 752.862 240.141 752.62 239.972C752.378 239.796 752.041 239.708 751.608 239.708H750.244V241.996H751.608ZM757.588 246.154C757.177 246.139 756.781 246.092 756.4 246.011C756.026 245.93 755.718 245.828 755.476 245.703V244.504C756.129 244.819 756.833 244.995 757.588 245.032V242.59C756.869 242.297 756.349 241.97 756.026 241.611C755.703 241.252 755.542 240.804 755.542 240.269C755.542 239.734 755.725 239.283 756.092 238.916C756.459 238.542 756.957 238.304 757.588 238.201V237.178H758.776V238.168C759.37 238.212 759.924 238.348 760.437 238.575V239.741C759.88 239.47 759.326 239.319 758.776 239.29V241.677C759.267 241.89 759.66 242.099 759.953 242.304C760.246 242.509 760.466 242.748 760.613 243.019C760.76 243.29 760.833 243.62 760.833 244.009C760.833 244.581 760.661 245.047 760.316 245.406C759.971 245.765 759.458 245.996 758.776 246.099V247.133H757.588V246.154ZM757.588 239.444C757.214 239.605 757.027 239.88 757.027 240.269C757.027 240.474 757.071 240.647 757.159 240.786C757.247 240.918 757.39 241.039 757.588 241.149V239.444ZM758.776 244.856C759.143 244.68 759.326 244.394 759.326 243.998C759.326 243.8 759.282 243.635 759.194 243.503C759.106 243.364 758.967 243.239 758.776 243.129V244.856ZM767.081 240.137L765.486 241.292V239.686L767.356 238.311H768.753V246H767.081V240.137ZM773.063 244.295H769.455V243.283L773.129 238.311H774.779V243.008H775.912V244.295H774.779V246H773.063V244.295ZM773.305 243.008V240.302L771.325 243.008H773.305ZM778.743 246.165C778.229 246.165 777.797 246.11 777.445 246V244.614C777.775 244.768 778.163 244.845 778.611 244.845C779.241 244.845 779.751 244.665 780.14 244.306C780.528 243.939 780.763 243.408 780.844 242.711C780.631 242.931 780.363 243.1 780.041 243.217C779.725 243.327 779.373 243.382 778.985 243.382C778.479 243.382 778.031 243.279 777.643 243.074C777.254 242.869 776.95 242.575 776.73 242.194C776.517 241.805 776.411 241.351 776.411 240.83C776.411 240.317 776.528 239.858 776.763 239.455C776.997 239.044 777.342 238.725 777.797 238.498C778.251 238.263 778.801 238.146 779.447 238.146C780.07 238.146 780.616 238.285 781.086 238.564C781.555 238.835 781.918 239.231 782.175 239.752C782.431 240.265 782.56 240.881 782.56 241.6C782.56 242.568 782.402 243.397 782.087 244.086C781.771 244.768 781.328 245.285 780.756 245.637C780.184 245.989 779.513 246.165 778.743 246.165ZM779.447 242.128C779.828 242.128 780.147 242 780.404 241.743C780.66 241.486 780.789 241.164 780.789 240.775C780.789 240.401 780.66 240.082 780.404 239.818C780.154 239.554 779.835 239.422 779.447 239.422C779.058 239.422 778.735 239.55 778.479 239.807C778.229 240.056 778.105 240.379 778.105 240.775C778.105 241.164 778.229 241.486 778.479 241.743C778.735 242 779.058 242.128 779.447 242.128ZM784.177 245.351H785.893L784.782 247.639H783.264L784.177 245.351ZM788.937 246.165C788.424 246.165 787.991 246.11 787.639 246V244.614C787.969 244.768 788.358 244.845 788.805 244.845C789.436 244.845 789.945 244.665 790.334 244.306C790.723 243.939 790.957 243.408 791.038 242.711C790.825 242.931 790.558 243.1 790.235 243.217C789.92 243.327 789.568 243.382 789.179 243.382C788.673 243.382 788.226 243.279 787.837 243.074C787.448 242.869 787.144 242.575 786.924 242.194C786.711 241.805 786.605 241.351 786.605 240.83C786.605 240.317 786.722 239.858 786.957 239.455C787.192 239.044 787.536 238.725 787.991 238.498C788.446 238.263 788.996 238.146 789.641 238.146C790.264 238.146 790.811 238.285 791.28 238.564C791.749 238.835 792.112 239.231 792.369 239.752C792.626 240.265 792.754 240.881 792.754 241.6C792.754 242.568 792.596 243.397 792.281 244.086C791.966 244.768 791.522 245.285 790.95 245.637C790.378 245.989 789.707 246.165 788.937 246.165ZM789.641 242.128C790.022 242.128 790.341 242 790.598 241.743C790.855 241.486 790.983 241.164 790.983 240.775C790.983 240.401 790.855 240.082 790.598 239.818C790.349 239.554 790.03 239.422 789.641 239.422C789.252 239.422 788.93 239.55 788.673 239.807C788.424 240.056 788.299 240.379 788.299 240.775C788.299 241.164 788.424 241.486 788.673 241.743C788.93 242 789.252 242.128 789.641 242.128ZM796.89 246.165C796.194 246.165 795.585 246.007 795.064 245.692C794.551 245.369 794.155 244.907 793.876 244.306C793.598 243.697 793.458 242.982 793.458 242.161C793.458 241.332 793.594 240.617 793.865 240.016C794.144 239.415 794.54 238.953 795.053 238.63C795.574 238.307 796.186 238.146 796.89 238.146C797.594 238.146 798.203 238.307 798.716 238.63C799.23 238.953 799.622 239.415 799.893 240.016C800.172 240.617 800.311 241.332 800.311 242.161C800.311 242.982 800.172 243.697 799.893 244.306C799.615 244.907 799.219 245.369 798.705 245.692C798.192 246.007 797.587 246.165 796.89 246.165ZM796.89 244.625C797.44 244.625 797.866 244.409 798.166 243.976C798.467 243.543 798.617 242.946 798.617 242.183C798.617 241.413 798.467 240.808 798.166 240.368C797.873 239.928 797.448 239.708 796.89 239.708C796.333 239.708 795.904 239.928 795.603 240.368C795.31 240.808 795.163 241.413 795.163 242.183C795.163 242.946 795.314 243.543 795.614 243.976C795.915 244.409 796.34 244.625 796.89 244.625Z" fill="white"/>
<rect class="secondStepElement" opacity="0.2" x="734.5" y="114.5" width="189" height="60" rx="4.5" stroke="white"/>
<rect class="secondStepElement" x="734.5" y="202.5" width="189" height="60" rx="4.5" stroke="url(#paint3_linear_333_46)"/>
<rect class="secondStepElement" x="850" y="105" width="61" height="17" rx="8.5" fill="#B9BDBC"/>
<rect class="secondStepElement" x="850" y="193" width="61" height="17" rx="8.5" fill="url(#paint4_linear_333_46)"/>
<rect class="secondStepElement" x="844" y="136" width="67" height="19" rx="4" fill="#757373"/>
<rect class="secondStepElement" x="734" y="290" width="190" height="37" rx="4" fill="url(#paint5_linear_333_46)"/>
<path class="secondStepElement" d="M809.262 304.214H810.634L814.54 314H813.084L812.104 311.564H807.778L806.826 314H805.356L809.262 304.214ZM811.712 310.374L809.948 305.796L808.184 310.374H811.712ZM818.067 314.21C817.6 314.21 817.105 314.149 816.583 314.028C816.06 313.916 815.649 313.762 815.351 313.566V312.362C815.715 312.577 816.135 312.754 816.611 312.894C817.087 313.025 817.549 313.09 817.997 313.09C818.501 313.09 818.869 313.029 819.103 312.908C819.336 312.787 819.453 312.591 819.453 312.32C819.453 312.115 819.397 311.951 819.285 311.83C819.182 311.699 819 311.583 818.739 311.48C818.487 311.377 818.104 311.256 817.591 311.116C817.04 310.957 816.601 310.799 816.275 310.64C815.957 310.472 815.715 310.262 815.547 310.01C815.388 309.758 815.309 309.431 815.309 309.03C815.309 308.386 815.561 307.901 816.065 307.574C816.578 307.238 817.264 307.07 818.123 307.07C818.571 307.07 819.009 307.112 819.439 307.196C819.868 307.28 820.213 307.397 820.475 307.546V308.722C820.204 308.563 819.868 308.437 819.467 308.344C819.075 308.251 818.673 308.204 818.263 308.204C817.768 308.204 817.39 308.265 817.129 308.386C816.867 308.507 816.737 308.722 816.737 309.03C816.737 309.226 816.793 309.385 816.905 309.506C817.017 309.627 817.194 309.735 817.437 309.828C817.689 309.912 818.085 310.024 818.627 310.164C819.476 310.397 820.064 310.673 820.391 310.99C820.727 311.307 820.895 311.746 820.895 312.306C820.895 312.885 820.657 313.347 820.181 313.692C819.705 314.037 819 314.21 818.067 314.21ZM824.561 314.21C824.094 314.21 823.6 314.149 823.077 314.028C822.554 313.916 822.144 313.762 821.845 313.566V312.362C822.209 312.577 822.629 312.754 823.105 312.894C823.581 313.025 824.043 313.09 824.491 313.09C824.995 313.09 825.364 313.029 825.597 312.908C825.83 312.787 825.947 312.591 825.947 312.32C825.947 312.115 825.891 311.951 825.779 311.83C825.676 311.699 825.494 311.583 825.233 311.48C824.981 311.377 824.598 311.256 824.085 311.116C823.534 310.957 823.096 310.799 822.769 310.64C822.452 310.472 822.209 310.262 822.041 310.01C821.882 309.758 821.803 309.431 821.803 309.03C821.803 308.386 822.055 307.901 822.559 307.574C823.072 307.238 823.758 307.07 824.617 307.07C825.065 307.07 825.504 307.112 825.933 307.196C826.362 307.28 826.708 307.397 826.969 307.546V308.722C826.698 308.563 826.362 308.437 825.961 308.344C825.569 308.251 825.168 308.204 824.757 308.204C824.262 308.204 823.884 308.265 823.623 308.386C823.362 308.507 823.231 308.722 823.231 309.03C823.231 309.226 823.287 309.385 823.399 309.506C823.511 309.627 823.688 309.735 823.931 309.828C824.183 309.912 824.58 310.024 825.121 310.164C825.97 310.397 826.558 310.673 826.885 310.99C827.221 311.307 827.389 311.746 827.389 312.306C827.389 312.885 827.151 313.347 826.675 313.692C826.199 314.037 825.494 314.21 824.561 314.21ZM829.758 305.964C829.525 305.964 829.329 305.885 829.17 305.726C829.012 305.567 828.932 305.371 828.932 305.138C828.932 304.905 829.012 304.709 829.17 304.55C829.329 304.391 829.525 304.312 829.758 304.312C830.001 304.312 830.202 304.391 830.36 304.55C830.528 304.709 830.612 304.905 830.612 305.138C830.612 305.371 830.528 305.567 830.36 305.726C830.202 305.885 830.001 305.964 829.758 305.964ZM829.044 307.28H830.486V314H829.044V307.28ZM832.432 307.28H833.804V308.246C834.122 307.845 834.509 307.551 834.966 307.364C835.433 307.168 835.918 307.07 836.422 307.07C837.318 307.07 837.986 307.308 838.424 307.784C838.863 308.26 839.082 308.899 839.082 309.702V314H837.668V309.842C837.668 308.75 837.146 308.204 836.1 308.204C835.652 308.204 835.232 308.311 834.84 308.526C834.458 308.731 834.126 309.049 833.846 309.478V314H832.432V307.28ZM843.03 314.21C842.218 314.21 841.565 314.005 841.07 313.594C840.585 313.174 840.342 312.609 840.342 311.9C840.342 311.153 840.575 310.579 841.042 310.178C841.518 309.767 842.19 309.562 843.058 309.562C843.982 309.562 844.766 309.749 845.41 310.122V309.772C845.41 309.24 845.247 308.848 844.92 308.596C844.603 308.335 844.099 308.204 843.408 308.204C842.997 308.204 842.596 308.246 842.204 308.33C841.821 308.405 841.476 308.512 841.168 308.652V307.504C841.448 307.373 841.812 307.271 842.26 307.196C842.708 307.112 843.142 307.07 843.562 307.07C844.673 307.07 845.494 307.317 846.026 307.812C846.567 308.297 846.838 308.974 846.838 309.842V314H845.508V313.244C845.219 313.561 844.873 313.804 844.472 313.972C844.08 314.131 843.599 314.21 843.03 314.21ZM843.38 313.132C843.828 313.132 844.234 313.043 844.598 312.866C844.962 312.689 845.233 312.441 845.41 312.124V311.214C844.803 310.822 844.127 310.626 843.38 310.626C842.839 310.626 842.433 310.733 842.162 310.948C841.901 311.153 841.77 311.471 841.77 311.9C841.77 312.721 842.307 313.132 843.38 313.132ZM848.593 307.28H849.965V308.484C850.245 308.073 850.637 307.77 851.141 307.574C851.654 307.378 852.247 307.28 852.919 307.28V308.386C852.2 308.386 851.584 308.503 851.071 308.736C850.557 308.969 850.203 309.338 850.007 309.842V314H848.593V307.28Z" fill="white"/>
<path class="secondStepElement" d="M861.947 111.137L860.352 112.292V110.686L862.222 109.311H863.619V117H861.947V111.137ZM867.973 117.165C867.277 117.165 866.668 117.007 866.147 116.692C865.634 116.369 865.238 115.907 864.959 115.306C864.681 114.697 864.541 113.982 864.541 113.161C864.541 112.332 864.677 111.617 864.948 111.016C865.227 110.415 865.623 109.953 866.136 109.63C866.657 109.307 867.269 109.146 867.973 109.146C868.677 109.146 869.286 109.307 869.799 109.63C870.313 109.953 870.705 110.415 870.976 111.016C871.255 111.617 871.394 112.332 871.394 113.161C871.394 113.982 871.255 114.697 870.976 115.306C870.698 115.907 870.302 116.369 869.788 116.692C869.275 117.007 868.67 117.165 867.973 117.165ZM867.973 115.625C868.523 115.625 868.949 115.409 869.249 114.976C869.55 114.543 869.7 113.946 869.7 113.183C869.7 112.413 869.55 111.808 869.249 111.368C868.956 110.928 868.531 110.708 867.973 110.708C867.416 110.708 866.987 110.928 866.686 111.368C866.393 111.808 866.246 112.413 866.246 113.183C866.246 113.946 866.397 114.543 866.697 114.976C866.998 115.409 867.423 115.625 867.973 115.625ZM874.161 113.183C873.794 113.183 873.457 113.095 873.149 112.919C872.841 112.736 872.595 112.49 872.412 112.182C872.236 111.874 872.148 111.537 872.148 111.17C872.148 110.803 872.236 110.466 872.412 110.158C872.595 109.843 872.841 109.597 873.149 109.421C873.457 109.238 873.794 109.146 874.161 109.146C874.527 109.146 874.865 109.238 875.173 109.421C875.488 109.597 875.734 109.843 875.91 110.158C876.093 110.466 876.185 110.803 876.185 111.17C876.185 111.537 876.093 111.874 875.91 112.182C875.734 112.49 875.488 112.736 875.173 112.919C874.865 113.095 874.527 113.183 874.161 113.183ZM877.989 109.311H879.65L875.393 117H873.732L877.989 109.311ZM874.161 112.105C874.425 112.105 874.641 112.021 874.81 111.852C874.986 111.676 875.074 111.46 875.074 111.203C875.074 110.939 874.986 110.719 874.81 110.543C874.641 110.367 874.425 110.279 874.161 110.279C873.904 110.279 873.688 110.367 873.512 110.543C873.343 110.719 873.259 110.939 873.259 111.203C873.259 111.452 873.347 111.665 873.523 111.841C873.699 112.017 873.911 112.105 874.161 112.105ZM879.188 117.165C878.821 117.165 878.484 117.077 878.176 116.901C877.868 116.718 877.622 116.472 877.439 116.164C877.263 115.856 877.175 115.519 877.175 115.152C877.175 114.785 877.263 114.448 877.439 114.14C877.622 113.825 877.868 113.579 878.176 113.403C878.484 113.22 878.821 113.128 879.188 113.128C879.554 113.128 879.892 113.22 880.2 113.403C880.515 113.579 880.761 113.825 880.937 114.14C881.12 114.448 881.212 114.785 881.212 115.152C881.212 115.519 881.12 115.856 880.937 116.164C880.761 116.472 880.515 116.718 880.2 116.901C879.892 117.077 879.554 117.165 879.188 117.165ZM879.177 116.087C879.441 116.087 879.657 116.003 879.826 115.834C880.002 115.658 880.09 115.442 880.09 115.185C880.09 114.921 880.002 114.701 879.826 114.525C879.657 114.349 879.441 114.261 879.177 114.261C878.92 114.261 878.704 114.349 878.528 114.525C878.359 114.701 878.275 114.921 878.275 115.185C878.275 115.434 878.363 115.647 878.539 115.823C878.715 115.999 878.927 116.087 879.177 116.087ZM888.947 117.165C888.309 117.165 887.748 117.051 887.264 116.824C886.787 116.589 886.417 116.263 886.153 115.845C885.896 115.42 885.768 114.925 885.768 114.36C885.768 113.81 885.896 113.322 886.153 112.897C886.417 112.472 886.787 112.142 887.264 111.907C887.748 111.672 888.309 111.555 888.947 111.555C889.578 111.555 890.131 111.672 890.608 111.907C891.092 112.142 891.462 112.472 891.719 112.897C891.983 113.322 892.115 113.81 892.115 114.36C892.115 114.925 891.983 115.42 891.719 115.845C891.462 116.263 891.096 116.589 890.619 116.824C890.142 117.051 889.585 117.165 888.947 117.165ZM888.947 115.867C889.394 115.867 889.75 115.731 890.014 115.46C890.278 115.181 890.41 114.815 890.41 114.36C890.41 113.891 890.278 113.524 890.014 113.26C889.757 112.989 889.402 112.853 888.947 112.853C888.492 112.853 888.133 112.989 887.869 113.26C887.605 113.524 887.473 113.891 887.473 114.36C887.473 114.815 887.605 115.181 887.869 115.46C888.14 115.731 888.5 115.867 888.947 115.867ZM892.978 112.919H892.219V111.72H892.978V110.939C892.978 110.257 893.187 109.733 893.605 109.366C894.023 108.999 894.566 108.816 895.233 108.816C895.614 108.816 895.944 108.875 896.223 108.992V110.323C896.01 110.228 895.787 110.18 895.552 110.18C895.244 110.18 895.013 110.25 894.859 110.389C894.712 110.528 894.639 110.756 894.639 111.071V111.72H895.893V112.919H894.639V117H892.978V112.919ZM896.759 112.919H896V111.72H896.759V110.939C896.759 110.257 896.968 109.733 897.386 109.366C897.804 108.999 898.347 108.816 899.014 108.816C899.395 108.816 899.725 108.875 900.004 108.992V110.323C899.791 110.228 899.568 110.18 899.333 110.18C899.025 110.18 898.794 110.25 898.64 110.389C898.493 110.528 898.42 110.756 898.42 111.071V111.72H899.674V112.919H898.42V117H896.759V112.919Z" fill="white"/>
<path class="secondStepElement" d="M861.947 199.137L860.352 200.292V198.686L862.222 197.311H863.619V205H861.947V199.137ZM867.016 205.165C866.54 205.165 866.085 205.125 865.652 205.044C865.22 204.971 864.849 204.857 864.541 204.703V203.405C865.253 203.728 865.997 203.889 866.774 203.889C867.346 203.889 867.772 203.794 868.05 203.603C868.336 203.412 868.479 203.141 868.479 202.789C868.479 202.415 868.34 202.151 868.061 201.997C867.783 201.836 867.354 201.755 866.774 201.755H865.762V200.479H866.73C867.207 200.479 867.577 200.395 867.841 200.226C868.113 200.05 868.248 199.793 868.248 199.456C868.248 199.119 868.127 198.862 867.885 198.686C867.643 198.51 867.306 198.422 866.873 198.422C866.463 198.422 866.081 198.473 865.729 198.576C865.385 198.671 865.047 198.825 864.717 199.038V197.718C865.047 197.535 865.418 197.395 865.828 197.3C866.239 197.197 866.664 197.146 867.104 197.146C868.065 197.146 868.78 197.344 869.249 197.74C869.719 198.129 869.953 198.679 869.953 199.39C869.953 199.742 869.862 200.072 869.678 200.38C869.502 200.681 869.238 200.923 868.886 201.106C869.744 201.421 870.173 202.008 870.173 202.866C870.173 204.399 869.121 205.165 867.016 205.165ZM872.936 201.183C872.569 201.183 872.232 201.095 871.924 200.919C871.616 200.736 871.37 200.49 871.187 200.182C871.011 199.874 870.923 199.537 870.923 199.17C870.923 198.803 871.011 198.466 871.187 198.158C871.37 197.843 871.616 197.597 871.924 197.421C872.232 197.238 872.569 197.146 872.936 197.146C873.303 197.146 873.64 197.238 873.948 197.421C874.263 197.597 874.509 197.843 874.685 198.158C874.868 198.466 874.96 198.803 874.96 199.17C874.96 199.537 874.868 199.874 874.685 200.182C874.509 200.49 874.263 200.736 873.948 200.919C873.64 201.095 873.303 201.183 872.936 201.183ZM876.764 197.311H878.425L874.168 205H872.507L876.764 197.311ZM872.936 200.105C873.2 200.105 873.416 200.021 873.585 199.852C873.761 199.676 873.849 199.46 873.849 199.203C873.849 198.939 873.761 198.719 873.585 198.543C873.416 198.367 873.2 198.279 872.936 198.279C872.679 198.279 872.463 198.367 872.287 198.543C872.118 198.719 872.034 198.939 872.034 199.203C872.034 199.452 872.122 199.665 872.298 199.841C872.474 200.017 872.687 200.105 872.936 200.105ZM877.963 205.165C877.596 205.165 877.259 205.077 876.951 204.901C876.643 204.718 876.397 204.472 876.214 204.164C876.038 203.856 875.95 203.519 875.95 203.152C875.95 202.785 876.038 202.448 876.214 202.14C876.397 201.825 876.643 201.579 876.951 201.403C877.259 201.22 877.596 201.128 877.963 201.128C878.33 201.128 878.667 201.22 878.975 201.403C879.29 201.579 879.536 201.825 879.712 202.14C879.895 202.448 879.987 202.785 879.987 203.152C879.987 203.519 879.895 203.856 879.712 204.164C879.536 204.472 879.29 204.718 878.975 204.901C878.667 205.077 878.33 205.165 877.963 205.165ZM877.952 204.087C878.216 204.087 878.432 204.003 878.601 203.834C878.777 203.658 878.865 203.442 878.865 203.185C878.865 202.921 878.777 202.701 878.601 202.525C878.432 202.349 878.216 202.261 877.952 202.261C877.695 202.261 877.479 202.349 877.303 202.525C877.134 202.701 877.05 202.921 877.05 203.185C877.05 203.434 877.138 203.647 877.314 203.823C877.49 203.999 877.703 204.087 877.952 204.087ZM887.722 205.165C887.084 205.165 886.523 205.051 886.039 204.824C885.563 204.589 885.192 204.263 884.928 203.845C884.672 203.42 884.543 202.925 884.543 202.36C884.543 201.81 884.672 201.322 884.928 200.897C885.192 200.472 885.563 200.142 886.039 199.907C886.523 199.672 887.084 199.555 887.722 199.555C888.353 199.555 888.907 199.672 889.383 199.907C889.867 200.142 890.238 200.472 890.494 200.897C890.758 201.322 890.89 201.81 890.89 202.36C890.89 202.925 890.758 203.42 890.494 203.845C890.238 204.263 889.871 204.589 889.394 204.824C888.918 205.051 888.36 205.165 887.722 205.165ZM887.722 203.867C888.17 203.867 888.525 203.731 888.789 203.46C889.053 203.181 889.185 202.815 889.185 202.36C889.185 201.891 889.053 201.524 888.789 201.26C888.533 200.989 888.177 200.853 887.722 200.853C887.268 200.853 886.908 200.989 886.644 201.26C886.38 201.524 886.248 201.891 886.248 202.36C886.248 202.815 886.38 203.181 886.644 203.46C886.916 203.731 887.275 203.867 887.722 203.867ZM891.753 200.919H890.994V199.72H891.753V198.939C891.753 198.257 891.962 197.733 892.38 197.366C892.798 196.999 893.341 196.816 894.008 196.816C894.39 196.816 894.72 196.875 894.998 196.992V198.323C894.786 198.228 894.562 198.18 894.327 198.18C894.019 198.18 893.788 198.25 893.634 198.389C893.488 198.528 893.414 198.756 893.414 199.071V199.72H894.668V200.919H893.414V205H891.753V200.919ZM895.535 200.919H894.776V199.72H895.535V198.939C895.535 198.257 895.744 197.733 896.162 197.366C896.58 196.999 897.122 196.816 897.79 196.816C898.171 196.816 898.501 196.875 898.78 196.992V198.323C898.567 198.228 898.343 198.18 898.109 198.18C897.801 198.18 897.57 198.25 897.416 198.389C897.269 198.528 897.196 198.756 897.196 199.071V199.72H898.45V200.919H897.196V205H895.535V200.919Z" fill="white"/>
<path class="secondStepElement" d="M855.572 141.311H860.907V142.708H857.244V144.49H859.939V145.832H857.244V147.603H860.907V149H855.572V141.311ZM863.722 149.165C863.326 149.165 862.901 149.121 862.446 149.033C861.999 148.952 861.647 148.835 861.39 148.681V147.383C861.684 147.559 862.036 147.702 862.446 147.812C862.857 147.922 863.238 147.977 863.59 147.977C863.891 147.977 864.111 147.951 864.25 147.9C864.39 147.849 864.459 147.753 864.459 147.614C864.459 147.504 864.419 147.416 864.338 147.35C864.258 147.277 864.133 147.214 863.964 147.163C863.803 147.104 863.532 147.02 863.15 146.91C862.703 146.778 862.351 146.646 862.094 146.514C861.845 146.375 861.654 146.202 861.522 145.997C861.398 145.792 861.335 145.528 861.335 145.205C861.335 144.655 861.552 144.244 861.984 143.973C862.424 143.694 863.018 143.555 863.766 143.555C864.133 143.555 864.511 143.595 864.899 143.676C865.295 143.749 865.6 143.848 865.812 143.973V145.238C865.6 145.099 865.321 144.985 864.976 144.897C864.639 144.809 864.309 144.765 863.986 144.765C863.686 144.765 863.451 144.794 863.282 144.853C863.121 144.912 863.04 145.022 863.04 145.183C863.04 145.322 863.117 145.429 863.271 145.502C863.433 145.575 863.73 145.667 864.162 145.777L864.382 145.832C864.844 145.957 865.204 146.096 865.46 146.25C865.717 146.397 865.897 146.576 865.999 146.789C866.109 146.994 866.164 147.255 866.164 147.57C866.164 148.054 865.955 148.443 865.537 148.736C865.119 149.022 864.514 149.165 863.722 149.165ZM869.723 149.165C868.77 149.165 868.011 148.923 867.446 148.439C866.881 147.948 866.599 147.258 866.599 146.371C866.599 145.484 866.881 144.794 867.446 144.303C868.018 143.804 868.781 143.555 869.734 143.555C870.599 143.555 871.289 143.716 871.802 144.039V145.348C871.567 145.179 871.292 145.055 870.977 144.974C870.669 144.893 870.343 144.853 869.998 144.853C869.485 144.853 869.074 144.978 868.766 145.227C868.458 145.476 868.304 145.858 868.304 146.371C868.304 146.884 868.454 147.266 868.755 147.515C869.063 147.757 869.474 147.878 869.987 147.878C870.698 147.878 871.325 147.706 871.868 147.361V148.659C871.325 148.996 870.61 149.165 869.723 149.165ZM875.59 149.165C874.952 149.165 874.391 149.051 873.907 148.824C873.43 148.589 873.06 148.263 872.796 147.845C872.539 147.42 872.411 146.925 872.411 146.36C872.411 145.81 872.539 145.322 872.796 144.897C873.06 144.472 873.43 144.142 873.907 143.907C874.391 143.672 874.952 143.555 875.59 143.555C876.22 143.555 876.774 143.672 877.251 143.907C877.735 144.142 878.105 144.472 878.362 144.897C878.626 145.322 878.758 145.81 878.758 146.36C878.758 146.925 878.626 147.42 878.362 147.845C878.105 148.263 877.738 148.589 877.262 148.824C876.785 149.051 876.228 149.165 875.59 149.165ZM875.59 147.867C876.037 147.867 876.393 147.731 876.657 147.46C876.921 147.181 877.053 146.815 877.053 146.36C877.053 145.891 876.921 145.524 876.657 145.26C876.4 144.989 876.044 144.853 875.59 144.853C875.135 144.853 874.776 144.989 874.512 145.26C874.248 145.524 874.116 145.891 874.116 146.36C874.116 146.815 874.248 147.181 874.512 147.46C874.783 147.731 875.142 147.867 875.59 147.867ZM879.688 140.871H881.349V149H879.688V140.871ZM882.503 140.871H884.164V144.325C884.413 144.068 884.695 143.878 885.011 143.753C885.326 143.621 885.663 143.555 886.023 143.555C886.741 143.555 887.277 143.749 887.629 144.138C887.988 144.519 888.168 145.036 888.168 145.689V149H886.507V145.876C886.507 145.194 886.191 144.853 885.561 144.853C885.282 144.853 885.022 144.923 884.78 145.062C884.538 145.194 884.332 145.392 884.164 145.656V149H882.503V140.871ZM892.306 149.165C891.294 149.165 890.499 148.923 889.919 148.439C889.34 147.948 889.05 147.262 889.05 146.382C889.05 145.509 889.307 144.82 889.82 144.314C890.341 143.808 891.082 143.555 892.042 143.555C892.673 143.555 893.208 143.672 893.648 143.907C894.088 144.142 894.422 144.468 894.649 144.886C894.877 145.297 894.99 145.762 894.99 146.283V146.954H890.634C890.752 147.629 891.382 147.966 892.526 147.966C892.864 147.966 893.212 147.937 893.571 147.878C893.931 147.819 894.242 147.739 894.506 147.636V148.802C894.25 148.912 893.92 149 893.516 149.066C893.113 149.132 892.71 149.165 892.306 149.165ZM893.417 145.876C893.395 145.524 893.263 145.253 893.021 145.062C892.779 144.864 892.446 144.765 892.02 144.765C891.602 144.765 891.272 144.864 891.03 145.062C890.788 145.26 890.656 145.531 890.634 145.876H893.417ZM895.909 143.72H897.515V144.479C897.728 144.222 898.025 144.028 898.406 143.896C898.787 143.757 899.22 143.687 899.704 143.687V144.952C899.198 144.952 898.751 145.029 898.362 145.183C897.981 145.337 897.717 145.572 897.57 145.887V149H895.909V143.72Z" fill="white"/>
<path class="floatElement" d="M212.91 85.214H214.338V93.81H219.294V95H212.91V85.214ZM223.534 95.21C222.778 95.21 222.111 95.07 221.532 94.79C220.963 94.5007 220.515 94.09 220.188 93.558C219.871 93.0167 219.712 92.382 219.712 91.654C219.712 90.9353 219.871 90.3053 220.188 89.764C220.505 89.2227 220.953 88.8073 221.532 88.518C222.111 88.2193 222.778 88.07 223.534 88.07C224.29 88.07 224.957 88.2193 225.536 88.518C226.115 88.8073 226.563 89.2227 226.88 89.764C227.207 90.3053 227.37 90.9353 227.37 91.654C227.37 92.382 227.207 93.0167 226.88 93.558C226.563 94.09 226.115 94.5007 225.536 94.79C224.957 95.07 224.29 95.21 223.534 95.21ZM223.534 94.09C224.262 94.09 224.841 93.866 225.27 93.418C225.699 92.97 225.914 92.382 225.914 91.654C225.914 90.898 225.699 90.3007 225.27 89.862C224.841 89.4233 224.262 89.204 223.534 89.204C222.806 89.204 222.227 89.4233 221.798 89.862C221.369 90.3007 221.154 90.898 221.154 91.654C221.154 92.382 221.369 92.97 221.798 93.418C222.227 93.866 222.806 94.09 223.534 94.09ZM232.42 98.22C231.963 98.22 231.515 98.1827 231.076 98.108C230.647 98.0333 230.283 97.926 229.984 97.786V96.624C230.684 96.9413 231.496 97.1 232.42 97.1C233.288 97.1 233.918 96.9087 234.31 96.526C234.711 96.1527 234.912 95.5833 234.912 94.818V94.104C234.296 94.8413 233.391 95.21 232.196 95.21C231.515 95.21 230.903 95.0607 230.362 94.762C229.821 94.4633 229.396 94.0433 229.088 93.502C228.78 92.9607 228.626 92.34 228.626 91.64C228.626 90.9307 228.775 90.31 229.074 89.778C229.382 89.2367 229.802 88.8167 230.334 88.518C230.875 88.2193 231.482 88.07 232.154 88.07C232.779 88.07 233.307 88.1633 233.736 88.35C234.175 88.5273 234.581 88.826 234.954 89.246V88.28H236.326V94.664C236.326 95.812 236.004 96.6893 235.36 97.296C234.725 97.912 233.745 98.22 232.42 98.22ZM232.476 94.09C233.055 94.09 233.563 93.936 234.002 93.628C234.45 93.32 234.753 92.9093 234.912 92.396V90.884C234.735 90.3613 234.427 89.9507 233.988 89.652C233.559 89.3533 233.055 89.204 232.476 89.204C232.019 89.204 231.603 89.3067 231.23 89.512C230.866 89.708 230.577 89.9927 230.362 90.366C230.157 90.7393 230.054 91.164 230.054 91.64C230.054 92.1253 230.157 92.5547 230.362 92.928C230.577 93.292 230.866 93.5767 231.23 93.782C231.603 93.9873 232.019 94.09 232.476 94.09ZM238.974 86.964C238.741 86.964 238.545 86.8847 238.386 86.726C238.228 86.5673 238.148 86.3713 238.148 86.138C238.148 85.9047 238.228 85.7087 238.386 85.55C238.545 85.3913 238.741 85.312 238.974 85.312C239.217 85.312 239.418 85.3913 239.576 85.55C239.744 85.7087 239.828 85.9047 239.828 86.138C239.828 86.3713 239.744 86.5673 239.576 86.726C239.418 86.8847 239.217 86.964 238.974 86.964ZM238.26 88.28H239.702V95H238.26V88.28ZM241.648 88.28H243.02V89.246C243.338 88.8447 243.725 88.5507 244.182 88.364C244.649 88.168 245.134 88.07 245.638 88.07C246.534 88.07 247.202 88.308 247.64 88.784C248.079 89.26 248.298 89.8993 248.298 90.702V95H246.884V90.842C246.884 89.75 246.362 89.204 245.316 89.204C244.868 89.204 244.448 89.3113 244.056 89.526C243.674 89.7313 243.342 90.0487 243.062 90.478V95H241.648V88.28Z" fill="white"/>
<path class="floatElement" opacity="0.5" d="M212.715 130.311H217.786V131.257H213.837V133.688H216.785V134.623H213.837V137.065H217.786V138H212.715V130.311ZM218.725 134.271H222.234V135.184H218.725V134.271ZM223.446 132.72H224.502V133.479C224.752 133.171 225.034 132.94 225.349 132.786C225.665 132.632 225.991 132.555 226.328 132.555C226.754 132.555 227.091 132.628 227.34 132.775C227.59 132.914 227.773 133.131 227.89 133.424C228.125 133.138 228.411 132.922 228.748 132.775C229.093 132.628 229.438 132.555 229.782 132.555C230.428 132.555 230.893 132.72 231.179 133.05C231.465 133.373 231.608 133.853 231.608 134.491V138H230.53V134.634C230.53 134.201 230.45 133.897 230.288 133.721C230.127 133.538 229.852 133.446 229.463 133.446C228.906 133.446 228.451 133.688 228.099 134.172C228.114 134.282 228.121 134.462 228.121 134.711V138H227.043V134.634C227.043 134.201 226.97 133.897 226.823 133.721C226.677 133.538 226.413 133.446 226.031 133.446C225.474 133.446 224.975 133.761 224.535 134.392V138H223.446V132.72ZM234.716 138.165C234.078 138.165 233.565 138.004 233.176 137.681C232.795 137.351 232.604 136.907 232.604 136.35C232.604 135.763 232.788 135.312 233.154 134.997C233.528 134.674 234.056 134.513 234.738 134.513C235.464 134.513 236.08 134.66 236.586 134.953V134.678C236.586 134.26 236.458 133.952 236.201 133.754C235.952 133.549 235.556 133.446 235.013 133.446C234.691 133.446 234.375 133.479 234.067 133.545C233.767 133.604 233.495 133.688 233.253 133.798V132.896C233.473 132.793 233.759 132.713 234.111 132.654C234.463 132.588 234.804 132.555 235.134 132.555C236.007 132.555 236.652 132.749 237.07 133.138C237.496 133.519 237.708 134.051 237.708 134.733V138H236.663V137.406C236.436 137.655 236.165 137.846 235.849 137.978C235.541 138.103 235.164 138.165 234.716 138.165ZM234.991 137.318C235.343 137.318 235.662 137.248 235.948 137.109C236.234 136.97 236.447 136.775 236.586 136.526V135.811C236.11 135.503 235.578 135.349 234.991 135.349C234.566 135.349 234.247 135.433 234.034 135.602C233.829 135.763 233.726 136.013 233.726 136.35C233.726 136.995 234.148 137.318 234.991 137.318ZM239.736 131.686C239.553 131.686 239.399 131.624 239.274 131.499C239.149 131.374 239.087 131.22 239.087 131.037C239.087 130.854 239.149 130.7 239.274 130.575C239.399 130.45 239.553 130.388 239.736 130.388C239.927 130.388 240.084 130.45 240.209 130.575C240.341 130.7 240.407 130.854 240.407 131.037C240.407 131.22 240.341 131.374 240.209 131.499C240.084 131.624 239.927 131.686 239.736 131.686ZM239.175 132.72H240.308V138H239.175V132.72ZM241.837 129.871H242.948V138H241.837V129.871Z" fill="white"/>
<path class="floatElement" opacity="0.5" d="M214.849 210.165C214.409 210.165 213.973 210.125 213.54 210.044C213.115 209.971 212.766 209.868 212.495 209.736V208.724C213.199 209.054 213.958 209.219 214.772 209.219C215.916 209.219 216.488 208.834 216.488 208.064C216.488 207.8 216.426 207.587 216.301 207.426C216.176 207.265 215.997 207.125 215.762 207.008C215.527 206.883 215.146 206.715 214.618 206.502C213.892 206.209 213.368 205.886 213.045 205.534C212.722 205.182 212.561 204.738 212.561 204.203C212.561 203.8 212.671 203.444 212.891 203.136C213.111 202.821 213.419 202.579 213.815 202.41C214.211 202.234 214.666 202.146 215.179 202.146C215.597 202.146 215.975 202.179 216.312 202.245C216.649 202.311 216.979 202.417 217.302 202.564V203.532C216.664 203.246 216.019 203.103 215.366 203.103C214.838 203.103 214.435 203.198 214.156 203.389C213.877 203.58 213.738 203.851 213.738 204.203C213.738 204.445 213.797 204.65 213.914 204.819C214.039 204.98 214.218 205.127 214.453 205.259C214.695 205.384 215.051 205.541 215.52 205.732C216.041 205.945 216.451 206.146 216.752 206.337C217.053 206.528 217.28 206.762 217.434 207.041C217.595 207.312 217.676 207.653 217.676 208.064C217.676 208.731 217.438 209.248 216.961 209.615C216.484 209.982 215.78 210.165 214.849 210.165ZM221.785 210.165C220.81 210.165 220.043 209.923 219.486 209.439C218.936 208.948 218.661 208.258 218.661 207.371C218.661 206.506 218.907 205.82 219.398 205.314C219.897 204.808 220.604 204.555 221.521 204.555C222.13 204.555 222.647 204.672 223.072 204.907C223.497 205.134 223.816 205.453 224.029 205.864C224.249 206.267 224.359 206.729 224.359 207.25V207.8H219.717C219.754 208.299 219.963 208.673 220.344 208.922C220.733 209.164 221.257 209.285 221.917 209.285C222.254 209.285 222.595 209.256 222.94 209.197C223.285 209.131 223.589 209.047 223.853 208.944V209.835C223.618 209.93 223.307 210.007 222.918 210.066C222.537 210.132 222.159 210.165 221.785 210.165ZM223.314 207.019C223.299 206.52 223.134 206.135 222.819 205.864C222.511 205.585 222.071 205.446 221.499 205.446C220.942 205.446 220.509 205.589 220.201 205.875C219.893 206.161 219.732 206.542 219.717 207.019H223.314ZM225.573 204.72H226.651V205.479C226.901 205.164 227.205 204.933 227.564 204.786C227.931 204.632 228.312 204.555 228.708 204.555C229.412 204.555 229.937 204.742 230.281 205.116C230.626 205.49 230.798 205.992 230.798 206.623V210H229.687V206.733C229.687 205.875 229.277 205.446 228.455 205.446C228.103 205.446 227.773 205.53 227.465 205.699C227.165 205.86 226.904 206.11 226.684 206.447V210H225.573V204.72ZM232.169 201.871H233.28V205.446C233.786 204.852 234.461 204.555 235.304 204.555C236.008 204.555 236.532 204.742 236.877 205.116C237.222 205.49 237.394 205.992 237.394 206.623V210H236.283V206.733C236.283 205.875 235.872 205.446 235.051 205.446C234.699 205.446 234.369 205.53 234.061 205.699C233.76 205.86 233.5 206.11 233.28 206.447V210H232.169V201.871ZM240.496 210.165C239.858 210.165 239.344 210.004 238.956 209.681C238.574 209.351 238.384 208.907 238.384 208.35C238.384 207.763 238.567 207.312 238.934 206.997C239.308 206.674 239.836 206.513 240.518 206.513C241.244 206.513 241.86 206.66 242.366 206.953V206.678C242.366 206.26 242.237 205.952 241.981 205.754C241.731 205.549 241.335 205.446 240.793 205.446C240.47 205.446 240.155 205.479 239.847 205.545C239.546 205.604 239.275 205.688 239.033 205.798V204.896C239.253 204.793 239.539 204.713 239.891 204.654C240.243 204.588 240.584 204.555 240.914 204.555C241.786 204.555 242.432 204.749 242.85 205.138C243.275 205.519 243.488 206.051 243.488 206.733V210H242.443V209.406C242.215 209.655 241.944 209.846 241.629 209.978C241.321 210.103 240.943 210.165 240.496 210.165ZM240.771 209.318C241.123 209.318 241.442 209.248 241.728 209.109C242.014 208.97 242.226 208.775 242.366 208.526V207.811C241.889 207.503 241.357 207.349 240.771 207.349C240.345 207.349 240.026 207.433 239.814 207.602C239.608 207.763 239.506 208.013 239.506 208.35C239.506 208.995 239.927 209.318 240.771 209.318Z" fill="white"/>
<rect class="floatElement" x="212" y="150" width="180" height="38" rx="3" fill="#0E1119"/>
<rect class="floatElement" x="212" y="220" width="180" height="38" rx="3" fill="#0E1119"/>
<rect class="floatElement" x="212" y="281" width="180" height="38" rx="3" fill="url(#paint6_linear_333_46)"/>
<path class="floatElement" d="M282.867 294.214H289.321V295.418H284.295V298.512H288.047V299.702H284.295V302.81H289.321V304H282.867V294.214ZM290.797 297.28H292.169V298.246C292.486 297.845 292.873 297.551 293.331 297.364C293.797 297.168 294.283 297.07 294.787 297.07C295.683 297.07 296.35 297.308 296.789 297.784C297.227 298.26 297.447 298.899 297.447 299.702V304H296.033V299.842C296.033 298.75 295.51 298.204 294.465 298.204C294.017 298.204 293.597 298.311 293.205 298.526C292.822 298.731 292.491 299.049 292.211 299.478V304H290.797V297.28ZM301.781 304.21C301.1 304.21 300.573 304.014 300.199 303.622C299.835 303.23 299.653 302.675 299.653 301.956V298.372H298.631V297.28H299.653V295.264H301.081V297.28H302.733V298.372H301.081V301.858C301.081 302.306 301.165 302.623 301.333 302.81C301.511 302.997 301.828 303.09 302.285 303.09C302.556 303.09 302.827 303.029 303.097 302.908V304.028C302.743 304.149 302.304 304.21 301.781 304.21ZM304.428 297.28H305.8V298.484C306.08 298.073 306.472 297.77 306.976 297.574C307.489 297.378 308.082 297.28 308.754 297.28V298.386C308.035 298.386 307.419 298.503 306.906 298.736C306.392 298.969 306.038 299.338 305.842 299.842V304H304.428V297.28ZM311.798 304.21C310.986 304.21 310.333 304.005 309.838 303.594C309.353 303.174 309.11 302.609 309.11 301.9C309.11 301.153 309.344 300.579 309.81 300.178C310.286 299.767 310.958 299.562 311.826 299.562C312.75 299.562 313.534 299.749 314.178 300.122V299.772C314.178 299.24 314.015 298.848 313.688 298.596C313.371 298.335 312.867 298.204 312.176 298.204C311.766 298.204 311.364 298.246 310.972 298.33C310.59 298.405 310.244 298.512 309.936 298.652V297.504C310.216 297.373 310.58 297.271 311.028 297.196C311.476 297.112 311.91 297.07 312.33 297.07C313.441 297.07 314.262 297.317 314.794 297.812C315.336 298.297 315.606 298.974 315.606 299.842V304H314.276V303.244C313.987 303.561 313.642 303.804 313.24 303.972C312.848 304.131 312.368 304.21 311.798 304.21ZM312.148 303.132C312.596 303.132 313.002 303.043 313.366 302.866C313.73 302.689 314.001 302.441 314.178 302.124V301.214C313.572 300.822 312.895 300.626 312.148 300.626C311.607 300.626 311.201 300.733 310.93 300.948C310.669 301.153 310.538 301.471 310.538 301.9C310.538 302.721 311.075 303.132 312.148 303.132ZM317.361 297.28H318.733V298.484C319.013 298.073 319.405 297.77 319.909 297.574C320.423 297.378 321.015 297.28 321.687 297.28V298.386C320.969 298.386 320.353 298.503 319.839 298.736C319.326 298.969 318.971 299.338 318.775 299.842V304H317.361V297.28Z" fill="white"/>
<g class="cursor">
  <path d="M661 213L668.082 230L670.597 222.597L678 220.082L661 213Z" stroke="white" stroke-width="2" stroke-linecap="round" stroke-linejoin="round"/>
<path d="M671.018 223.018L677.028 229.028" stroke="white" stroke-width="2" stroke-linecap="round" stroke-linejoin="round"/>
</g>
<defs>
<filter id="filter0_b_333_46" x="52" y="-72" width="496" height="543" filterUnits="userSpaceOnUse" color-interpolation-filters="sRGB">
<feFlood flood-opacity="0" result="BackgroundImageFix"/>
<feGaussianBlur in="BackgroundImageFix" stdDeviation="65"/>
<feComposite in2="SourceAlpha" operator="in" result="effect1_backgroundBlur_333_46"/>
<feBlend mode="normal" in="SourceGraphic" in2="effect1_backgroundBlur_333_46" result="shape"/>
</filter>
<filter id="filter1_b_333_46" x="581" y="-72" width="496" height="543" filterUnits="userSpaceOnUse" color-interpolation-filters="sRGB">
<feFlood flood-opacity="0" result="BackgroundImageFix"/>
<feGaussianBlur in="BackgroundImageFix" stdDeviation="65"/>
<feComposite in2="SourceAlpha" operator="in" result="effect1_backgroundBlur_333_46"/>
<feBlend mode="normal" in="SourceGraphic" in2="effect1_backgroundBlur_333_46" result="shape"/>
</filter>
<linearGradient id="paint0_linear_333_46" x1="230.219" y1="212.088" x2="356.638" y2="212.088" gradientUnits="userSpaceOnUse">
<stop stop-color="#3BA1F0"/>
<stop offset="1" stop-color="#7260DF"/>
</linearGradient>
<linearGradient id="paint1_linear_333_46" x1="230.219" y1="212.088" x2="356.638" y2="212.088" gradientUnits="userSpaceOnUse">
<stop stop-color="#3BA1F0"/>
<stop offset="1" stop-color="#7260DF"/>
</linearGradient>
<linearGradient id="paint2_linear_333_46" x1="875.83" y1="234.528" x2="887.914" y2="234.528" gradientUnits="userSpaceOnUse">
<stop stop-color="#3BA1F0"/>
<stop offset="1" stop-color="#7260DF"/>
</linearGradient>
<linearGradient id="paint3_linear_333_46" x1="731.511" y1="235.72" x2="908.126" y2="235.72" gradientUnits="userSpaceOnUse">
<stop stop-color="#3BA1F0"/>
<stop offset="1" stop-color="#7260DF"/>
</linearGradient>
<linearGradient id="paint4_linear_333_46" x1="849.201" y1="202.397" x2="905.904" y2="202.397" gradientUnits="userSpaceOnUse">
<stop stop-color="#3BA1F0"/>
<stop offset="1" stop-color="#7260DF"/>
</linearGradient>
<linearGradient id="paint5_linear_333_46" x1="731.511" y1="310.453" x2="908.126" y2="310.453" gradientUnits="userSpaceOnUse">
<stop stop-color="#3BA1F0"/>
<stop offset="1" stop-color="#7260DF"/>
</linearGradient>
<linearGradient id="paint6_linear_333_46" x1="209.642" y1="302.006" x2="376.962" y2="302.006" gradientUnits="userSpaceOnUse">
<stop stop-color="#3BA1F0"/>
<stop offset="1" stop-color="#7260DF"/>
</linearGradient>
</defs>
</svg>