<?xml version="1.0" encoding="UTF-8" standalone="no"?>
<svg width="100%" height="100%" viewBox="0 0 256 40" fill="none" xmlns="http://www.w3.org/2000/svg" xmlns:xlink="http://www.w3.org/1999/xlink">
<g clip-path="url(#clip0_1096_113)">
<path d="M35.7264 35.5192C34.6855 36.7438 33.4763 37.6775 32.0986 38.3204C30.721 38.9633 29.2362 39.2847 27.6443 39.2847C25.6238 39.2847 23.7257 38.7949 21.9501 37.8153C20.2051 36.8662 18.1999 35.2284 15.9345 32.9017C12.9037 32.7487 10.1638 31.9374 7.71469 30.4679C5.2962 28.9985 3.39814 27.0545 2.02051 24.636C0.673505 22.1869 0 19.4775 0 16.508C0 13.416 0.734733 10.6148 2.2042 8.1045C3.70428 5.59416 5.75541 3.63487 8.35758 2.22664C10.9598 0.787785 13.8834 0.0683594 17.1285 0.0683594C20.3429 0.0683594 23.2512 0.787785 25.8534 2.22664C28.4556 3.63487 30.4914 5.59416 31.9609 8.1045C33.4303 10.5842 34.1651 13.3854 34.1651 16.508C34.1651 19.1408 33.6293 21.5593 32.5578 23.7635C31.517 25.9677 30.0322 27.8198 28.1035 29.3199C26.2055 30.82 24.0166 31.8609 21.5369 32.4425C22.6083 33.5752 23.6339 34.3865 24.6135 34.8763C25.6238 35.3968 26.6494 35.657 27.6902 35.657C29.9557 35.657 31.915 34.7386 33.5681 32.9017L35.7264 35.5192ZM4.59208 16.508C4.59208 18.8347 5.12782 20.947 6.19931 22.8451C7.30141 24.7125 8.80149 26.182 10.6995 27.2535C12.6282 28.325 14.7712 28.8607 17.1285 28.8607C19.4551 28.8607 21.5675 28.325 23.4655 27.2535C25.3636 26.182 26.8484 24.7125 27.9198 22.8451C29.0219 20.947 29.573 18.8347 29.573 16.508C29.573 14.1813 29.0219 12.0843 27.9198 10.2169C26.8484 8.31879 25.3636 6.83402 23.4655 5.76254C21.5675 4.69105 19.4551 4.15531 17.1285 4.15531C14.7712 4.15531 12.6282 4.69105 10.6995 5.76254C8.80149 6.83402 7.30141 8.31879 6.19931 10.2169C5.12782 12.0843 4.59208 14.1813 4.59208 16.508Z" fill="white"/>
<path d="M67.825 8.24226V32.5803L63.6462 32.5803V28.9066C62.7584 30.1618 61.5798 31.1414 60.1103 31.8455C58.6715 32.5191 57.0948 32.8558 55.3805 32.8558C52.1354 32.8558 49.5791 31.968 47.7117 30.1924C45.8443 28.3862 44.9105 25.7381 44.9105 22.2481V8.24226L49.3189 8.24226V21.743C49.3189 24.1002 49.8853 25.8911 51.018 27.1157C52.1507 28.3096 53.7732 28.9066 55.8856 28.9066C58.2123 28.9066 60.0491 28.2025 61.3961 26.7943C62.7431 25.386 63.4166 23.3961 63.4166 20.8246V8.24226H67.825Z" fill="white"/>
<path d="M102.954 20.549C102.954 20.8858 102.924 21.3297 102.863 21.8807L83.1166 21.8807C83.3922 24.0237 84.3259 25.7534 85.9178 27.0698C87.5403 28.3556 89.5455 28.9985 91.9334 28.9985C94.8417 28.9985 97.1837 28.0188 98.9593 26.0595L101.393 28.9066C100.291 30.1924 98.9134 31.172 97.2602 31.8455C95.6377 32.5191 93.8162 32.8558 91.7957 32.8558C89.2241 32.8558 86.9434 32.3354 84.9535 31.2945C82.9636 30.223 81.4176 28.7382 80.3155 26.8402C79.244 24.9421 78.7082 22.7992 78.7082 20.4113C78.7082 18.054 79.2287 15.9263 80.2695 14.0283C81.341 12.1302 82.7952 10.6608 84.632 9.61988C86.4995 8.5484 88.5965 8.01266 90.9232 8.01266C93.2498 8.01266 95.3163 8.5484 97.1225 9.61988C98.9593 10.6608 100.383 12.1302 101.393 14.0283C102.434 15.9263 102.954 18.0999 102.954 20.549ZM90.9232 11.7322C88.8108 11.7322 87.0352 12.3751 85.5964 13.6609C84.1881 14.9467 83.3615 16.6305 83.1166 18.7122L98.7297 18.7122C98.4848 16.6611 97.6429 14.9926 96.2041 13.7068C94.7958 12.3904 93.0355 11.7322 90.9232 11.7322Z" fill="white"/>
<path d="M117.94 12.3292C118.705 10.921 119.838 9.84949 121.338 9.11475C122.838 8.38002 124.66 8.01266 126.803 8.01266V12.2833C126.558 12.2527 126.221 12.2374 125.792 12.2374C123.404 12.2374 121.522 12.9568 120.144 14.3956C118.797 15.8039 118.124 17.8244 118.124 20.4572V32.5803H113.715V8.24226H117.94V12.3292Z" fill="white"/>
<path d="M170.688 0.435724L175.28 0.435724V28.5852H192.684V32.5803L170.688 32.5803V0.435724Z" fill="white"/>
<path d="M224.568 8.24226V32.5803H220.389V28.9066C219.501 30.1618 218.323 31.1414 216.853 31.8455C215.414 32.5191 213.838 32.8558 212.123 32.8558C208.878 32.8558 206.322 31.968 204.455 30.1924C202.587 28.3862 201.654 25.7381 201.654 22.2481V8.24226H206.062V21.743C206.062 24.1002 206.628 25.8911 207.761 27.1157C208.894 28.3096 210.516 28.9066 212.629 28.9066C214.955 28.9066 216.792 28.2025 218.139 26.7943C219.486 25.386 220.16 23.3961 220.16 20.8246V8.24226H224.568Z" fill="white"/>
<path d="M255.442 28.9525V32.5803H235.053V29.7332L249.426 11.87L235.329 11.87V8.24226L255.075 8.24226V11.1353L240.701 28.9525H255.442Z" fill="white"/>
<path fill-rule="evenodd" clip-rule="evenodd" d="M147.335 10.3452V1.96777H148.253V10.3452H147.335Z" fill="white"/>
<path fill-rule="evenodd" clip-rule="evenodd" d="M147.335 39.3169V30.9395H148.253V39.3169H147.335Z" fill="white"/>
<path fill-rule="evenodd" clip-rule="evenodd" d="M166.466 20.9668H158.088V20.0484H166.466V20.9668Z" fill="white"/>
<path fill-rule="evenodd" clip-rule="evenodd" d="M137.496 21.2354H129.118V20.3169H137.496V21.2354Z" fill="white"/>
<path fill-rule="evenodd" clip-rule="evenodd" d="M140.261 13.602L134.403 7.61328L135.06 6.97107L140.918 12.9598L140.261 13.602Z" fill="white"/>
<path fill-rule="evenodd" clip-rule="evenodd" d="M160.52 34.3139L154.662 28.3252L155.319 27.683L161.177 33.6717L160.52 34.3139Z" fill="white"/>
<path fill-rule="evenodd" clip-rule="evenodd" d="M161.366 7.81582L155.377 13.6738L154.735 13.0173L160.724 7.15928L161.366 7.81582Z" fill="white"/>
<path fill-rule="evenodd" clip-rule="evenodd" d="M140.851 28.267L134.862 34.125L134.22 33.4685L140.209 27.6105L140.851 28.267Z" fill="white"/>
<path fill-rule="evenodd" clip-rule="evenodd" d="M143.454 11.292L140.271 3.54297L141.12 3.19399L144.303 10.943L143.454 11.292Z" fill="white"/>
<path fill-rule="evenodd" clip-rule="evenodd" d="M154.466 38.0909L151.283 30.3418L152.133 29.9928L155.316 37.7419L154.466 38.0909Z" fill="white"/>
<path fill-rule="evenodd" clip-rule="evenodd" d="M165.189 13.847L157.44 17.0303L157.091 16.1807L164.84 12.9975L165.189 13.847Z" fill="white"/>
<path fill-rule="evenodd" clip-rule="evenodd" d="M138.497 25.1048L130.748 28.2881L130.399 27.4386L138.148 24.2553L138.497 25.1048Z" fill="white"/>
<path fill-rule="evenodd" clip-rule="evenodd" d="M138.153 16.9913L130.458 13.6777L130.822 12.8342L138.516 16.1478L138.153 16.9913Z" fill="white"/>
<path fill-rule="evenodd" clip-rule="evenodd" d="M164.765 28.4513L157.07 25.1377L157.434 24.2942L165.128 27.6078L164.765 28.4513Z" fill="white"/>
<path fill-rule="evenodd" clip-rule="evenodd" d="M155.475 3.62024L152.161 11.3145L151.318 10.9512L154.631 3.25697L155.475 3.62024Z" fill="white"/>
<path fill-rule="evenodd" clip-rule="evenodd" d="M144.266 30.3341L140.952 38.0283L140.109 37.665L143.422 29.9708L144.266 30.3341Z" fill="white"/>
<path fill-rule="evenodd" clip-rule="evenodd" d="M150.824 7.68021C151.067 7.75386 151.204 8.01029 151.131 8.25298L150.716 9.61782C150.643 9.86051 150.386 9.99755 150.144 9.92391C149.901 9.85026 149.764 9.59383 149.838 9.35114L150.252 7.9863C150.325 7.74361 150.582 7.60657 150.824 7.68021Z" fill="white"/>
<path fill-rule="evenodd" clip-rule="evenodd" d="M141.883 29.4574C142.087 29.6087 142.129 29.8963 141.978 30.0999L141.127 31.2448C140.976 31.4484 140.688 31.4909 140.485 31.3396C140.281 31.1884 140.239 30.9007 140.39 30.6972L141.241 29.5522C141.392 29.3486 141.679 29.3062 141.883 29.4574Z" fill="white"/>
<path fill-rule="evenodd" clip-rule="evenodd" d="M158.98 13.2354C159.137 13.4349 159.102 13.7236 158.902 13.8801L157.78 14.7603C157.58 14.9168 157.292 14.8818 157.135 14.6823C156.979 14.4827 157.014 14.1941 157.213 14.0376L158.335 13.1574C158.535 13.0009 158.824 13.0358 158.98 13.2354Z" fill="white"/>
<path fill-rule="evenodd" clip-rule="evenodd" d="M160.672 23.1423C160.624 23.3913 160.383 23.5543 160.134 23.5063L158.734 23.2364C158.485 23.1884 158.322 22.9476 158.37 22.6986C158.418 22.4496 158.659 22.2866 158.908 22.3346L160.308 22.6045C160.557 22.6525 160.72 22.8933 160.672 23.1423Z" fill="white"/>
<path fill-rule="evenodd" clip-rule="evenodd" d="M160.629 18.0005C160.681 18.2488 160.521 18.4918 160.273 18.5432L158.876 18.8324C158.628 18.8838 158.385 18.7241 158.333 18.4758C158.282 18.2274 158.441 17.9844 158.69 17.933L160.086 17.6439C160.335 17.5925 160.578 17.7521 160.629 18.0005Z" fill="white"/>
<path fill-rule="evenodd" clip-rule="evenodd" d="M155.201 9.72697C155.404 9.8782 155.447 10.1658 155.295 10.3694L154.445 11.5144C154.294 11.718 154.006 11.7604 153.802 11.6092C153.599 11.4579 153.556 11.1703 153.708 10.9667L154.558 9.82175C154.709 9.61816 154.997 9.57573 155.201 9.72697Z" fill="white"/>
<path fill-rule="evenodd" clip-rule="evenodd" d="M145.269 7.63803C145.519 7.59399 145.757 7.76076 145.801 8.01052L146.049 9.41515C146.093 9.66491 145.926 9.90308 145.677 9.94712C145.427 9.99116 145.189 9.82439 145.145 9.57463L144.897 8.17C144.853 7.92024 145.02 7.68207 145.269 7.63803Z" fill="white"/>
<path fill-rule="evenodd" clip-rule="evenodd" d="M140.486 9.55626C140.691 9.40719 140.978 9.45267 141.127 9.65785L141.966 10.8117C142.115 11.0169 142.069 11.3041 141.864 11.4532C141.659 11.6022 141.372 11.5568 141.223 11.3516L140.384 10.1977C140.235 9.9925 140.281 9.70533 140.486 9.55626Z" fill="white"/>
<path fill-rule="evenodd" clip-rule="evenodd" d="M136.818 13.3338C136.945 13.1141 137.226 13.0389 137.445 13.1657L138.68 13.8788C138.9 14.0056 138.975 14.2865 138.849 14.5061C138.722 14.7258 138.441 14.801 138.221 14.6742L136.986 13.961C136.766 13.8342 136.691 13.5534 136.818 13.3338Z" fill="white"/>
<path fill-rule="evenodd" clip-rule="evenodd" d="M138.987 26.8278C139.122 27.0428 139.056 27.3261 138.841 27.4606L137.632 28.2171C137.417 28.3517 137.134 28.2864 137 28.0714C136.865 27.8564 136.93 27.5731 137.145 27.4386L138.354 26.682C138.569 26.5475 138.853 26.6128 138.987 26.8278Z" fill="white"/>
<path fill-rule="evenodd" clip-rule="evenodd" d="M145.742 30.908C145.99 30.9607 146.148 31.2046 146.096 31.4526L145.799 32.8478C145.746 33.0958 145.502 33.2542 145.254 33.2014C145.006 33.1487 144.848 32.9049 144.901 32.6568L145.197 31.2617C145.25 31.0136 145.494 30.8552 145.742 30.908Z" fill="white"/>
<path fill-rule="evenodd" clip-rule="evenodd" d="M149.855 30.9065C150.104 30.8581 150.345 31.0207 150.393 31.2697L150.665 32.6698C150.714 32.9187 150.551 33.1598 150.302 33.2082C150.053 33.2565 149.812 33.094 149.764 32.845L149.491 31.4449C149.443 31.196 149.606 30.9549 149.855 30.9065Z" fill="white"/>
<path fill-rule="evenodd" clip-rule="evenodd" d="M153.664 29.444C153.875 29.3031 154.16 29.3597 154.301 29.5706L155.093 30.7564C155.234 30.9672 155.178 31.2524 154.967 31.3933C154.756 31.5343 154.471 31.4776 154.33 31.2667L153.537 30.081C153.396 29.8701 153.453 29.585 153.664 29.444Z" fill="white"/>
<path fill-rule="evenodd" clip-rule="evenodd" d="M156.623 26.4802C156.78 26.2811 157.069 26.2469 157.268 26.4039L158.388 27.2871C158.587 27.4441 158.621 27.7328 158.464 27.932C158.307 28.1311 158.018 28.1653 157.819 28.0083L156.699 27.1251C156.5 26.9681 156.466 26.6794 156.623 26.4802Z" fill="white"/>
<path fill-rule="evenodd" clip-rule="evenodd" d="M137.397 22.6919C137.448 22.9402 137.289 23.1832 137.04 23.2346L135.644 23.5238C135.395 23.5752 135.152 23.4156 135.101 23.1672C135.049 22.9189 135.209 22.6759 135.457 22.6244L136.854 22.3353C137.102 22.2839 137.345 22.4435 137.397 22.6919Z" fill="white"/>
<path fill-rule="evenodd" clip-rule="evenodd" d="M137.43 18.6635C137.408 18.9162 137.185 19.1031 136.932 19.081L135.511 18.9566C135.259 18.9345 135.072 18.7118 135.094 18.4592C135.116 18.2065 135.339 18.0196 135.591 18.0417L137.012 18.166C137.265 18.1881 137.452 18.4109 137.43 18.6635Z" fill="white"/>
</g>
<defs>
<clipPath id="clip0_1096_113">
<rect width="255.442" height="39.2483" fill="white" transform="translate(0 0.0683594)"/>
</clipPath>
</defs>
</svg>
