<svg width="38" height="33" viewBox="0 0 38 33" fill="none" xmlns="http://www.w3.org/2000/svg">
<path fill-rule="evenodd" clip-rule="evenodd" d="M29.9638 10.2359C30.3616 10.3503 30.7565 10.4747 31.1481 10.609C35.1215 11.9769 37.6891 14.1195 37.6891 16.335C37.6891 18.6455 34.9451 20.9046 30.7275 22.3019C30.5046 22.3758 30.2762 22.4468 30.0434 22.5155C30.1264 22.8496 30.2005 23.1777 30.264 23.4989C31.0966 27.7046 30.4555 31.1614 28.4821 32.3037C26.5715 33.4097 23.4835 32.3232 20.3568 29.6327C20.0169 29.3395 19.6853 29.037 19.3623 28.7253C19.1059 28.9733 18.8497 29.2099 18.5946 29.4329C15.3666 32.2545 12.0517 33.4252 10.0765 32.2863C8.16427 31.1832 7.56331 27.9654 8.33278 23.9129C8.41686 23.4725 8.51323 23.0345 8.62178 22.5995C8.28765 22.5041 7.95594 22.4004 7.62697 22.2885C3.56991 20.902 0.899719 18.6151 0.899719 16.335C0.899719 14.1275 3.38723 11.9992 7.28213 10.6413C7.7175 10.4895 8.17257 10.3469 8.64376 10.2131C8.54282 9.80927 8.45216 9.40297 8.37186 8.99456C7.56478 4.87042 8.13268 1.57452 10.05 0.464601C12.0496 -0.692861 15.3796 0.55008 18.7019 3.49999C18.9086 3.68388 19.1118 3.87159 19.3115 4.06301C19.6097 3.77513 19.9151 3.49483 20.2275 3.22239C23.3975 0.463787 26.5363 -0.690256 28.4554 0.41657C30.4571 1.57061 31.0432 5.07638 30.1468 9.42814C30.0908 9.69849 30.0297 9.96778 29.9638 10.2359ZM29.6153 21.0034C29.8256 20.941 30.0321 20.8767 30.2332 20.8101H30.2333C33.8747 19.6035 36.1175 17.7572 36.1175 16.335C36.1175 14.9999 34.041 13.267 30.6365 12.0952C30.2845 11.9739 29.9191 11.8591 29.5428 11.75C29.0902 13.2146 28.4862 14.7618 27.7523 16.3428C28.5212 17.962 29.1496 19.5294 29.6153 21.0034ZM28.8991 28.6597C29.143 27.3453 29.0904 25.6638 28.7222 23.8042C28.6648 23.5139 28.598 23.217 28.5231 22.9142C26.9993 23.2664 25.319 23.5244 23.5404 23.6822C22.5294 25.1459 21.4933 26.4641 20.4567 27.5979C20.7664 27.8959 21.0752 28.1776 21.3818 28.4413C24.0556 30.7423 26.5351 31.6146 27.6945 30.9435C28.2393 30.6281 28.6799 29.8407 28.8991 28.6597ZM10.8618 30.9246C11.407 31.239 12.3092 31.2276 13.4419 30.8276H13.4421C14.7026 30.3823 16.1329 29.4972 17.5604 28.2494C17.7993 28.04 18.033 27.8248 18.2613 27.604C17.187 26.4511 16.1211 25.1345 15.1033 23.7022C13.3205 23.5577 11.6524 23.3178 10.1455 22.9845C10.0447 23.3891 9.95512 23.7964 9.87688 24.206C9.21894 27.6715 9.7012 30.2554 10.8618 30.9246ZM3.84437 18.5219C4.85985 19.3913 6.34132 20.1882 8.13523 20.8013C8.43559 20.9035 8.73841 20.9983 9.04342 21.0856C9.5081 19.5706 10.1206 17.98 10.8588 16.3732C10.1301 14.79 9.52618 13.2243 9.06573 11.7269C8.63986 11.8473 8.2176 11.9802 7.79951 12.1253C4.46844 13.2867 2.47117 14.9955 2.47117 16.335C2.47117 16.9646 2.93194 17.7404 3.84437 18.5219ZM10.8373 1.82474C9.68183 2.49359 9.22269 5.15906 9.91417 8.69267V8.6925C9.98891 9.07241 10.0732 9.45037 10.167 9.82603C11.6897 9.48102 13.346 9.22345 15.0763 9.06308C16.0852 7.63908 17.1414 6.33248 18.2102 5.18479C18.0257 5.00846 17.8415 4.83799 17.6582 4.67517C14.7897 2.12823 12.0682 1.11226 10.8373 1.82474ZM24.6647 10.7713C25.0508 11.3765 25.4238 11.9899 25.7834 12.6112C26.1489 13.2422 26.5017 13.8805 26.8417 14.5256C27.307 13.4363 27.7022 12.3738 28.0192 11.3576C26.9632 11.1165 25.8386 10.9195 24.6647 10.7713ZM21.4769 8.92142C20.7628 7.97009 20.0368 7.09316 19.3119 6.30789C18.5757 7.10228 17.8435 7.9779 17.1287 8.92045C18.5773 8.85265 20.0283 8.85297 21.4769 8.92142ZM11.7605 14.5244C12.0918 13.8823 12.438 13.2479 12.7989 12.6219C13.1603 11.9953 13.5364 11.3773 13.9268 10.7684C12.7605 10.9141 11.6412 11.1061 10.5915 11.341C10.9113 12.3717 11.3028 13.4389 11.7605 14.5244ZM10.5698 21.4686C11.6192 21.697 12.7555 21.8792 13.9603 22.0137C13.5604 21.3932 13.1752 20.7632 12.8053 20.1243C12.4428 19.4981 12.095 18.8633 11.7623 18.2207C11.2949 19.3295 10.8946 20.4197 10.5698 21.4686ZM17.1419 23.824C17.8676 24.7802 18.6105 25.6692 19.3554 26.473C20.0754 25.6803 20.7988 24.79 21.5152 23.8164C20.7856 23.8489 20.0443 23.8657 19.2943 23.8657C18.5644 23.8657 17.8463 23.8517 17.1419 23.824ZM28.0921 21.4005C27.7629 20.3694 27.3484 19.285 26.8567 18.1642C26.5155 18.8218 26.1598 19.4717 25.7898 20.1134C25.4257 20.7449 25.0492 21.369 24.6603 21.9855C25.8738 21.8399 27.0254 21.6439 28.0921 21.4005ZM22.6633 22.176C23.2824 21.2462 23.871 20.2964 24.4283 19.3283H24.4284C24.9906 18.3548 25.5178 17.3615 26.0092 16.3504C25.5127 15.3495 24.9838 14.365 24.4232 13.3986C23.8658 12.4346 23.2746 11.4906 22.6507 10.5683C21.5568 10.485 20.4336 10.4413 19.2945 10.4413C18.1605 10.4413 17.0387 10.4846 15.9446 10.5673C15.3142 11.491 14.7192 12.4383 14.1607 13.4072V13.4069C13.6021 14.3755 13.0802 15.3648 12.5959 16.3727C13.0814 17.3803 13.6049 18.3691 14.1655 19.337C14.7286 20.31 15.3284 21.2613 15.9635 22.189C17.0359 22.2585 18.1496 22.2942 19.2943 22.2942C20.4438 22.2942 21.5718 22.254 22.6633 22.176ZM28.6075 9.11094C29.3815 5.35363 28.9023 2.48854 27.6704 1.77801C26.5138 1.11095 23.9753 2.04422 21.2592 4.40799C20.9708 4.6596 20.6888 4.91834 20.4132 5.18397C21.4647 6.31685 22.5121 7.62573 23.523 9.06519C25.2583 9.22801 26.9158 9.49014 28.442 9.84231C28.5016 9.59954 28.5567 9.35571 28.6075 9.11094Z" fill="white"/>
<path fill-rule="evenodd" clip-rule="evenodd" d="M19.2801 19.6393C21.0879 19.6393 22.5533 18.1738 22.5533 16.366C22.5533 14.5583 21.0879 13.0928 19.2801 13.0928C17.4724 13.0928 16.0069 14.5583 16.0069 16.366C16.0069 18.1738 17.4724 19.6393 19.2801 19.6393ZM19.2801 18.6321C20.5316 18.6321 21.5461 17.6175 21.5461 16.366C21.5461 15.1145 20.5316 14.0999 19.2801 14.0999C18.0285 14.0999 17.014 15.1145 17.014 16.366C17.014 17.6175 18.0285 18.6321 19.2801 18.6321Z" fill="white"/>
</svg>
