<svg width="100%" height="100%" viewBox="0 0 32 35" fill="none" xmlns="http://www.w3.org/2000/svg">
<path d="M26.8889 16H5.11111C3.39289 16 2 17.3929 2 19.1111V30C2 31.7182 3.39289 33.1111 5.11111 33.1111H26.8889C28.6071 33.1111 30 31.7182 30 30V19.1111C30 17.3929 28.6071 16 26.8889 16Z" stroke="url(#paint0_linear_559_323)" stroke-width="2.42647" stroke-linecap="round" stroke-linejoin="round"/>
<path d="M8.22168 16V9.77778C8.22168 7.71498 9.04112 5.73667 10.4997 4.27806C11.9584 2.81944 13.9367 2 15.9995 2C18.0623 2 20.0406 2.81944 21.4992 4.27806C22.9578 5.73667 23.7772 7.71498 23.7772 9.77778V16" stroke="url(#paint1_linear_559_323)" stroke-width="2.42647" stroke-linecap="round" stroke-linejoin="round"/>
<defs>
<linearGradient id="paint0_linear_559_323" x1="1.63326" y1="25.4588" x2="27.6607" y2="25.4588" gradientUnits="userSpaceOnUse">
<stop stop-color="#3BA1F0"/>
<stop offset="1" stop-color="#7260DF"/>
</linearGradient>
<linearGradient id="paint1_linear_559_323" x1="8.01793" y1="9.73898" x2="22.4776" y2="9.73898" gradientUnits="userSpaceOnUse">
<stop stop-color="#3BA1F0"/>
<stop offset="1" stop-color="#7260DF"/>
</linearGradient>
</defs>
</svg>
