<svg width="169" height="147" viewBox="0 0 169 147" fill="none" xmlns="http://www.w3.org/2000/svg">
<path fill-rule="evenodd" clip-rule="evenodd" d="M22.9193 6.09051C21.1357 5.65999 19.2566 6.1887 17.9592 7.48609C16.6618 8.78349 16.1331 10.6626 16.5637 12.4461L39.0677 105.677C39.5489 107.671 41.1436 109.204 43.1546 109.606L81.787 117.333C80.2129 119.397 80.3692 122.359 82.2557 124.245L101.545 143.534C103.602 145.591 106.936 145.591 108.993 143.534L154.002 98.5263C156.058 96.4694 156.058 93.1346 154.002 91.0778L134.712 71.7886C132.828 69.904 129.87 69.7462 127.806 71.3151L120.079 32.6815C119.677 30.6705 118.144 29.0758 116.151 28.5946L22.9193 6.09051ZM48.5183 99.9365L30.2837 24.3932L66.104 60.2135C64.4256 62.7551 63.4486 65.8005 63.4486 69.0741C63.4486 77.9658 70.6568 85.174 79.5485 85.174C88.4403 85.174 95.6485 77.9658 95.6485 69.0741C95.6485 60.1823 88.4403 52.9742 79.5485 52.9742C76.2742 52.9742 73.2283 53.9516 70.6864 55.6306L34.8663 19.8105L110.41 38.0451L118.842 80.2064L90.6795 108.369L48.5183 99.9365ZM72.6209 62.4007C72.665 62.3611 72.7084 62.3201 72.7508 62.2777C72.7934 62.2351 72.8345 62.1917 72.8742 62.1474C74.6039 60.4803 76.9565 59.455 79.5485 59.455C84.861 59.455 89.1676 63.7616 89.1676 69.0741C89.1676 74.3865 84.861 78.6931 79.5485 78.6931C74.2361 78.6931 69.9295 74.3865 69.9295 69.0741C69.9295 66.4825 70.9544 64.1303 72.6209 62.4007ZM105.269 132.362L93.4283 120.521L130.988 82.9613L142.829 94.802L105.269 132.362Z" fill="url(#paint0_linear_5069_316)"/>
<defs>
<linearGradient id="paint0_linear_5069_316" x1="14.5942" y1="82.8543" x2="143.921" y2="82.8543" gradientUnits="userSpaceOnUse">
<stop stop-color="#3BA1F0"/>
<stop offset="1" stop-color="#7260DF"/>
</linearGradient>
</defs>
</svg>
