<svg width="169" height="147" viewBox="0 0 169 147" fill="none" xmlns="http://www.w3.org/2000/svg">
<path fill-rule="evenodd" clip-rule="evenodd" d="M113.859 12.9917L98.4628 28.1714L98.4471 28.1865C89.0045 37.2919 74.4581 51.5574 61.5162 64.752C55.0434 71.3511 48.9918 77.6623 44.1874 82.9165C39.2947 88.2673 35.9335 92.2687 34.6206 94.3538C31.9175 98.6468 30.0085 104.582 28.7568 110.498C27.9671 114.23 27.467 117.818 27.1807 120.757C33.5635 119.968 40.3184 117.521 46.5626 114.438C54.049 110.742 60.436 106.315 64.0149 103.386C84.9124 82.6241 127.776 40.0294 133.161 34.6442C135.107 32.6982 135.492 30.953 135.447 29.6606C135.399 28.3129 134.864 27.1811 134.45 26.5994C131.482 23.5852 125.029 17.0463 121.546 13.563C120.789 12.8057 119.528 12.3567 117.715 12.3654C116.283 12.3722 114.867 12.6717 113.859 12.9917ZM117.678 4.55098C120.588 4.53717 124.263 5.22909 127.072 8.03738C130.649 11.6152 137.314 18.3693 140.194 21.2945L140.339 21.4414L140.467 21.6027C141.801 23.2785 143.139 26.0583 143.256 29.385C143.379 32.876 142.143 36.7133 138.687 40.1698C133.279 45.5782 90.2316 88.355 69.3915 109.06L69.2628 109.188L69.1228 109.303C65.1339 112.591 58.1751 117.42 50.022 121.445C41.921 125.445 32.2612 128.841 22.9801 128.841H18.9419L19.075 124.805C19.1948 121.17 19.7727 115.209 21.1115 108.881C22.4389 102.607 24.5843 95.6272 28.0078 90.19C29.7582 87.41 33.6162 82.8973 38.4204 77.6432C43.3129 72.2927 49.4359 65.9084 55.9374 59.28C68.9369 46.0266 83.5288 31.7165 93.0074 22.5762L109.543 6.27279L110.271 5.98032C112.004 5.28432 114.746 4.5649 117.678 4.55098Z" fill="url(#paint0_linear_5069_338)"/>
<path fill-rule="evenodd" clip-rule="evenodd" d="M76.3414 21.6124C77.1506 21.0516 78.4895 20.3976 79.8803 20.2072C81.2401 20.021 82.4719 20.2732 83.5936 21.3949L117.022 54.8229L122.547 49.2973L89.1192 15.8693C85.919 12.6691 82.0636 12.0209 78.8202 12.465C75.724 12.8889 73.051 14.2992 71.4422 15.5134L71.2253 15.6771L41.4546 45.4482L46.9803 50.9739L76.3414 21.6124Z" fill="url(#paint1_linear_5069_338)"/>
<path fill-rule="evenodd" clip-rule="evenodd" d="M148.724 141.859H19.3149V134.045H148.724V141.859Z" fill="url(#paint2_linear_5069_338)"/>
<defs>
<linearGradient id="paint0_linear_5069_338" x1="17.3135" y1="73.2566" x2="132.878" y2="73.2566" gradientUnits="userSpaceOnUse">
<stop stop-color="#3BA1F0"/>
<stop offset="1" stop-color="#7260DF"/>
</linearGradient>
<linearGradient id="paint1_linear_5069_338" x1="40.3924" y1="35.8238" x2="115.772" y2="35.8238" gradientUnits="userSpaceOnUse">
<stop stop-color="#3BA1F0"/>
<stop offset="1" stop-color="#7260DF"/>
</linearGradient>
<linearGradient id="paint2_linear_5069_338" x1="17.62" y1="138.365" x2="137.912" y2="138.365" gradientUnits="userSpaceOnUse">
<stop stop-color="#3BA1F0"/>
<stop offset="1" stop-color="#7260DF"/>
</linearGradient>
</defs>
</svg>
