<svg width="169" height="147" viewBox="0 0 169 147" fill="none" xmlns="http://www.w3.org/2000/svg">
<path fill-rule="evenodd" clip-rule="evenodd" d="M39.3178 14.8164L15.9097 38.225V43.1992H32.8379L61.2211 14.8164H39.3178ZM89.3995 14.8164L62.1144 43.1992H83.166L111.549 14.8164H89.3995ZM134.074 43.1992H112.443L139.728 14.8164H155.256V22.0163L134.074 43.1992ZM15.9097 134.752L15.9097 53.1992H155.256V134.752H15.9097ZM15.9097 4.81641C10.3868 4.81641 5.90967 9.29356 5.90967 14.8164V134.752C5.90967 140.275 10.3868 144.752 15.9097 144.752H155.256C160.779 144.752 165.256 140.275 165.256 134.752V14.8164C165.256 9.29356 160.779 4.81641 155.256 4.81641H15.9097ZM112.893 98.074C114.893 96.9193 114.893 94.0325 112.893 92.8778L75.5106 71.2951C73.5106 70.1404 71.0106 71.5837 71.0106 73.8931V117.059C71.0106 119.368 73.5106 120.811 75.5106 119.657L112.893 98.074Z" fill="url(#paint0_linear_5069_315)"/>
<defs>
<linearGradient id="paint0_linear_5069_315" x1="3.82256" y1="82.1706" x2="151.944" y2="82.1706" gradientUnits="userSpaceOnUse">
<stop stop-color="#3BA1F0"/>
<stop offset="1" stop-color="#7260DF"/>
</linearGradient>
</defs>
</svg>
