<svg width="169" height="147" viewBox="0 0 169 147" fill="none" xmlns="http://www.w3.org/2000/svg">
<path fill-rule="evenodd" clip-rule="evenodd" d="M12.7719 26.0846V76.4046C12.7719 77.8791 13.4799 78.9148 14.8907 79.7922C16.3642 80.7088 18.2586 81.1791 19.56 81.3007H35.7124V92.0448L51.8958 81.3007H91.144C91.7557 81.3007 92.9826 80.7875 94.3101 79.3295C94.9078 78.673 95.3829 77.9718 95.6911 77.3597C95.9865 76.7732 96.0248 76.4787 96.0298 76.4792C96.0304 76.4793 96.0305 76.4844 96.0305 76.4946V26.6107C96.0304 26.6117 96.0303 26.6121 96.03 26.6122C96.0244 26.613 95.978 26.3265 95.6361 25.7494C95.2608 25.1156 94.6735 24.3808 93.9241 23.6818C92.306 22.1725 90.6438 21.4603 89.6299 21.4603H18.7743C16.795 21.4603 15.454 22.2429 14.4809 23.2558C13.5793 24.1941 13.0264 25.3126 12.7719 26.0846ZM9.02081 18.01C11.2058 15.7358 14.4423 13.8887 18.7743 13.8887H89.6299C93.3714 13.8887 96.8023 16.0123 99.0886 18.1448C100.291 19.2667 101.359 20.5542 102.151 21.8906C102.9 23.1563 103.602 24.8028 103.602 26.5698V76.5017C103.602 78.0562 103.058 79.5644 102.454 80.7656C101.815 82.0342 100.936 83.2985 99.909 84.4268C97.9865 86.5385 94.8772 88.8723 91.144 88.8723H54.1804L28.1407 106.16V88.8723H19.2532L19.1071 88.861C16.9387 88.6929 13.7064 87.9724 10.8917 86.2218C7.96344 84.4005 5.2002 81.2298 5.2002 76.4046V25.1142L5.30535 24.6774C5.75863 22.7945 6.91942 20.1973 9.02081 18.01Z" fill="url(#paint0_linear_5069_345)"/>
<mask id="mask0_5069_345" style="mask-type:alpha" maskUnits="userSpaceOnUse" x="66" y="44" width="99" height="93">
<path fill-rule="evenodd" clip-rule="evenodd" d="M156.982 56.5611V106.881C156.982 108.356 156.274 109.391 154.863 110.269C153.39 111.185 151.495 111.656 150.194 111.777H134.042V122.521L117.858 111.777H78.6099C77.9982 111.777 76.7713 111.264 75.4438 109.806C74.8461 109.15 74.371 108.448 74.0628 107.836C73.7674 107.25 73.7291 106.955 73.7241 106.956C73.7235 106.956 73.7234 106.961 73.7234 106.971V57.0873C73.7235 57.0882 73.7236 57.0887 73.7239 57.0887C73.7295 57.0895 73.7759 56.8031 74.1178 56.2259C74.4931 55.5922 75.0804 54.8573 75.8298 54.1584C77.4479 52.6491 79.1101 51.9369 80.124 51.9369H150.98C152.959 51.9369 154.3 52.7195 155.273 53.7323C156.175 54.6707 156.727 55.7892 156.982 56.5611ZM160.733 48.4866C158.548 46.2124 155.312 44.3652 150.98 44.3652H80.124C76.3826 44.3652 72.9516 46.4889 70.6653 48.6214C69.4625 49.7433 68.3947 51.0308 67.6032 52.3671C66.8534 53.6329 66.1517 55.2793 66.1517 57.0464V106.978C66.1517 108.533 66.6954 110.041 67.3004 111.242C67.9393 112.511 68.8176 113.775 69.8449 114.903C71.7674 117.015 74.8767 119.349 78.6099 119.349H115.574L141.613 136.637V119.349H150.501L150.647 119.338C152.815 119.169 156.047 118.449 158.862 116.698C161.79 114.877 164.554 111.706 164.554 106.881V55.5908L164.449 55.154C163.995 53.2711 162.834 50.6738 160.733 48.4866Z" fill="url(#paint1_linear_5069_345)"/>
</mask>
<g mask="url(#mask0_5069_345)">
<path d="M60.9546 93.8019H109.833V29.7773L178.371 36.0904V142.139H60.9546V93.8019Z" fill="url(#paint2_linear_5069_345)"/>
</g>
<path d="M53.8118 71.429V30.1289H56.4576V71.429H53.8118ZM61.4426 43.3417C61.2921 41.9328 60.6575 40.8357 59.539 40.0506C58.4312 39.2655 56.99 38.8729 55.2154 38.8729C53.9678 38.8729 52.8976 39.0611 52.0049 39.4376C51.1123 39.814 50.4293 40.3249 49.9561 40.9702C49.4828 41.6155 49.2408 42.3522 49.2301 43.1804C49.2301 43.8687 49.386 44.4656 49.6979 44.9711C50.0206 45.4766 50.4562 45.9068 51.0047 46.2617C51.5532 46.6059 52.1609 46.8963 52.8277 47.1329C53.4945 47.3695 54.1667 47.5685 54.8443 47.7298L57.9418 48.5042C59.1894 48.7946 60.3886 49.1872 61.5394 49.6819C62.701 50.1766 63.7389 50.8004 64.6531 51.5533C65.578 52.3062 66.3094 53.215 66.8471 54.2798C67.3849 55.3445 67.6538 56.5921 67.6538 58.0226C67.6538 59.9585 67.159 61.6632 66.1696 63.1367C65.1801 64.5994 63.7496 65.7448 61.8782 66.573C60.0176 67.3904 57.7644 67.7991 55.1186 67.7991C52.5481 67.7991 50.3164 67.4011 48.4234 66.6052C46.5413 65.8094 45.0678 64.6478 44.003 63.1206C42.949 61.5933 42.379 59.7327 42.293 57.5386H48.1815C48.2675 58.6894 48.6224 59.6466 49.2462 60.4102C49.87 61.1739 50.682 61.7439 51.6823 62.1203C52.6933 62.4968 53.8226 62.685 55.0702 62.685C56.3716 62.685 57.5116 62.4914 58.4903 62.1042C59.4798 61.7062 60.2542 61.1577 60.8135 60.4586C61.3727 59.7488 61.6577 58.9206 61.6685 57.9742C61.6577 57.1138 61.405 56.4039 60.9103 55.8446C60.4155 55.2746 59.7218 54.8014 58.8291 54.425C57.9472 54.0378 56.9147 53.6936 55.7316 53.3925L51.9727 52.4245C49.2516 51.7254 47.1006 50.666 45.5195 49.2463C43.9493 47.8159 43.1641 45.9176 43.1641 43.5514C43.1641 41.6047 43.6911 39.9 44.7452 38.4373C45.8099 36.9746 47.2565 35.8399 49.0849 35.0333C50.9133 34.2159 52.9837 33.8072 55.296 33.8072C57.6407 33.8072 59.6949 34.2159 61.4588 35.0333C63.2334 35.8399 64.6262 36.9639 65.6372 38.4051C66.6482 39.8355 67.1698 41.481 67.2021 43.3417H61.4426Z" fill="url(#paint3_linear_5069_345)"/>
<defs>
<linearGradient id="paint0_linear_5069_345" x1="3.91134" y1="64.8949" x2="95.3812" y2="64.8949" gradientUnits="userSpaceOnUse">
<stop stop-color="#3BA1F0"/>
<stop offset="1" stop-color="#7260DF"/>
</linearGradient>
<linearGradient id="paint1_linear_5069_345" x1="165.843" y1="95.3714" x2="74.3727" y2="95.3714" gradientUnits="userSpaceOnUse">
<stop stop-color="#3BA1F0"/>
<stop offset="1" stop-color="#7260DF"/>
</linearGradient>
<linearGradient id="paint2_linear_5069_345" x1="59.4167" y1="91.8893" x2="168.561" y2="91.8893" gradientUnits="userSpaceOnUse">
<stop stop-color="#3BA1F0"/>
<stop offset="1" stop-color="#7260DF"/>
</linearGradient>
<linearGradient id="paint3_linear_5069_345" x1="41.9608" y1="52.9589" x2="65.535" y2="52.9589" gradientUnits="userSpaceOnUse">
<stop stop-color="#3BA1F0"/>
<stop offset="1" stop-color="#7260DF"/>
</linearGradient>
</defs>
</svg>
