<svg width="169" height="147" viewBox="0 0 169 147" fill="none" xmlns="http://www.w3.org/2000/svg">
<path d="M121.12 127.79V82.7285H124.007V127.79H121.12ZM129.446 97.1448C129.281 95.6075 128.589 94.4106 127.369 93.5539C126.16 92.6973 124.587 92.269 122.651 92.269C121.29 92.269 120.122 92.4743 119.148 92.885C118.174 93.2958 117.429 93.8532 116.913 94.5572C116.397 95.2613 116.132 96.0652 116.121 96.9688C116.121 97.7198 116.291 98.3711 116.631 98.9226C116.983 99.4742 117.459 99.9435 118.057 100.331C118.655 100.706 119.318 101.023 120.046 101.281C120.774 101.539 121.507 101.757 122.246 101.933L125.626 102.778C126.987 103.094 128.296 103.523 129.551 104.062C130.819 104.602 131.951 105.283 132.949 106.104C133.958 106.926 134.756 107.917 135.342 109.079C135.929 110.241 136.223 111.602 136.223 113.163C136.223 115.275 135.683 117.135 134.603 118.743C133.524 120.339 131.963 121.588 129.921 122.492C127.891 123.384 125.432 123.83 122.546 123.83C119.741 123.83 117.306 123.396 115.241 122.527C113.187 121.659 111.579 120.392 110.418 118.725C109.268 117.059 108.646 115.029 108.552 112.635H114.977C115.07 113.89 115.458 114.935 116.138 115.768C116.819 116.601 117.705 117.223 118.796 117.634C119.899 118.045 121.132 118.25 122.493 118.25C123.913 118.25 125.157 118.039 126.224 117.616C127.304 117.182 128.149 116.584 128.759 115.821C129.369 115.046 129.68 114.143 129.692 113.11C129.68 112.171 129.405 111.397 128.865 110.787C128.325 110.165 127.568 109.648 126.594 109.238C125.632 108.815 124.505 108.44 123.214 108.111L119.113 107.055C116.144 106.292 113.797 105.136 112.072 103.587C110.359 102.026 109.502 99.9553 109.502 97.3736C109.502 95.2496 110.077 93.3896 111.227 91.7937C112.389 90.1978 113.967 88.9597 115.962 88.0796C117.957 87.1878 120.216 86.7418 122.739 86.7418C125.297 86.7418 127.539 87.1878 129.463 88.0796C131.4 88.9597 132.919 90.186 134.022 91.7585C135.125 93.3192 135.694 95.1147 135.73 97.1448H129.446Z" fill="url(#paint0_linear_5069_325)"/>
<path fill-rule="evenodd" clip-rule="evenodd" d="M136.802 18.3512H117.641V10.0898H151.651V45.1273H143.39V23.5273L98.1946 64.6137L60.7404 36.3703L16.5341 68.5427L11.6729 61.863L60.8277 26.0892L97.7028 53.8959L136.802 18.3512Z" fill="url(#paint1_linear_5069_325)"/>
<path fill-rule="evenodd" clip-rule="evenodd" d="M23.8409 101.617V125.559H30.9502V101.617H23.8409ZM21.3625 93.3555C18.1687 93.3555 15.5796 95.9446 15.5796 99.1384V128.037C15.5796 131.231 18.1687 133.82 21.3625 133.82H33.4286C36.6224 133.82 39.2115 131.231 39.2115 128.037V99.1384C39.2115 95.9446 36.6224 93.3555 33.4286 93.3555H21.3625Z" fill="url(#paint2_linear_5069_325)"/>
<path fill-rule="evenodd" clip-rule="evenodd" d="M57.0231 76.527V125.558H64.1323V76.527H57.0231ZM54.5447 68.2656C51.3508 68.2656 48.7617 70.8547 48.7617 74.0486V128.036C48.7617 131.23 51.3508 133.819 54.5447 133.819H66.6107C69.8046 133.819 72.3937 131.23 72.3937 128.036V74.0486C72.3937 70.8547 69.8045 68.2656 66.6107 68.2656H54.5447Z" fill="url(#paint3_linear_5069_325)"/>
<path fill-rule="evenodd" clip-rule="evenodd" d="M122.942 133.597C138.633 133.597 151.352 120.878 151.352 105.187C151.352 89.4967 138.633 76.777 122.942 76.777C107.252 76.777 94.5318 89.4967 94.5318 105.187C94.5318 120.878 107.252 133.597 122.942 133.597ZM122.942 141.859C143.195 141.859 159.614 125.44 159.614 105.187C159.614 84.9341 143.195 68.5156 122.942 68.5156C102.689 68.5156 86.2705 84.9341 86.2705 105.187C86.2705 125.44 102.689 141.859 122.942 141.859Z" fill="url(#paint4_linear_5069_325)"/>
<defs>
<linearGradient id="paint0_linear_5069_325" x1="108.189" y1="107.638" x2="133.911" y2="107.638" gradientUnits="userSpaceOnUse">
<stop stop-color="#3BA1F0"/>
<stop offset="1" stop-color="#7260DF"/>
</linearGradient>
<linearGradient id="paint1_linear_5069_325" x1="9.83943" y1="42.4017" x2="139.956" y2="42.4017" gradientUnits="userSpaceOnUse">
<stop stop-color="#3BA1F0"/>
<stop offset="1" stop-color="#7260DF"/>
</linearGradient>
<linearGradient id="paint2_linear_5069_325" x1="15.2701" y1="115.724" x2="37.2372" y2="115.724" gradientUnits="userSpaceOnUse">
<stop stop-color="#3BA1F0"/>
<stop offset="1" stop-color="#7260DF"/>
</linearGradient>
<linearGradient id="paint3_linear_5069_325" x1="48.4522" y1="104.503" x2="70.4193" y2="104.503" gradientUnits="userSpaceOnUse">
<stop stop-color="#3BA1F0"/>
<stop offset="1" stop-color="#7260DF"/>
</linearGradient>
<linearGradient id="paint4_linear_5069_325" x1="85.3099" y1="109.059" x2="153.486" y2="109.059" gradientUnits="userSpaceOnUse">
<stop stop-color="#3BA1F0"/>
<stop offset="1" stop-color="#7260DF"/>
</linearGradient>
</defs>
</svg>
