<svg width="100%" height="100%" viewBox="0 0 482 339" fill="none" xmlns="http://www.w3.org/2000/svg">
<!-- width="22em" height="20em" -->
<g clip-path="url(#clip0_932_2)">
<rect width="482" height="339"/>
<rect class="trace" x="340.682" y="353.864" width="79.8376" height="1.5" rx="0.75" transform="rotate(-90 340.682 353.864)" fill="url(#paint0_linear_932_2)"/>
<rect class="trace" x="357.824" y="365.114" width="79.8376" height="1.5" rx="0.75" transform="rotate(-90 357.824 365.114)" fill="url(#paint1_linear_932_2)"/>
<rect class="trace" x="374.966" y="353.864" width="79.8376" height="1.5" rx="0.75" transform="rotate(-90 374.966 353.864)" fill="url(#paint2_linear_932_2)"/>
<g opacity="0.8" filter="url(#filter0_b_932_2)">
<rect class="site_sketch" x="24.375" y="27.5" width="430.25" height="283" rx="6" fill="#1B1F2C"/>
</g>
<path class="logo" d="M133.589 82.8695C132.925 82.8695 132.267 82.8087 131.614 82.687C130.973 82.5764 130.447 82.4215 130.038 82.2224V80.6957C131.1 81.1935 132.245 81.4425 133.473 81.4425C135.199 81.4425 136.061 80.8617 136.061 79.7001C136.061 79.3019 135.967 78.9811 135.779 78.7377C135.591 78.4943 135.32 78.2841 134.966 78.1071C134.612 77.9191 134.037 77.6646 133.241 77.3438C132.145 76.9013 131.354 76.4146 130.868 75.8836C130.381 75.3526 130.137 74.6833 130.137 73.8757C130.137 73.2673 130.303 72.7308 130.635 72.2661C130.967 71.7905 131.432 71.4254 132.029 71.171C132.627 70.9055 133.312 70.7727 134.087 70.7727C134.717 70.7727 135.287 70.8225 135.796 70.9221C136.305 71.0216 136.803 71.182 137.289 71.4033V72.8635C136.327 72.4321 135.353 72.2164 134.369 72.2164C133.572 72.2164 132.964 72.3602 132.544 72.6478C132.123 72.9354 131.913 73.3447 131.913 73.8757C131.913 74.2408 132.002 74.5505 132.179 74.805C132.367 75.0484 132.638 75.2696 132.992 75.4687C133.357 75.6568 133.893 75.8946 134.601 76.1823C135.387 76.5031 136.006 76.8073 136.46 77.0949C136.913 77.3825 137.256 77.7365 137.488 78.1569C137.732 78.5662 137.854 79.0806 137.854 79.7001C137.854 80.7068 137.494 81.4867 136.775 82.0398C136.056 82.5929 134.994 82.8695 133.589 82.8695ZM142.987 82.8695C142.18 82.8695 141.555 82.6372 141.112 82.1726C140.681 81.708 140.465 81.0497 140.465 80.1979V75.9499H139.254V74.6556H140.465V72.2661H142.158V74.6556H144.116V75.9499H142.158V80.0818C142.158 80.6128 142.257 80.9889 142.456 81.2101C142.667 81.4314 143.043 81.542 143.585 81.542C143.906 81.542 144.226 81.4701 144.547 81.3263V82.6538C144.127 82.7976 143.607 82.8695 142.987 82.8695ZM149.565 82.8695C148.602 82.8695 147.828 82.6261 147.242 82.1394C146.666 81.6416 146.379 80.9723 146.379 80.1316C146.379 79.2466 146.655 78.5662 147.209 78.0905C147.773 77.6038 148.569 77.3604 149.598 77.3604C150.693 77.3604 151.622 77.5817 152.386 78.0242V77.6093C152.386 76.9788 152.192 76.5141 151.805 76.2154C151.429 75.9057 150.831 75.7508 150.013 75.7508C149.526 75.7508 149.05 75.8006 148.586 75.9002C148.132 75.9887 147.723 76.1159 147.358 76.2818V74.9211C147.69 74.7663 148.121 74.6446 148.652 74.5561C149.183 74.4565 149.698 74.4067 150.195 74.4067C151.512 74.4067 152.485 74.6999 153.116 75.2862C153.757 75.8614 154.078 76.6635 154.078 77.6923V82.6206H152.502V81.7245C152.159 82.1007 151.75 82.3883 151.274 82.5874C150.809 82.7755 150.24 82.8695 149.565 82.8695ZM149.98 81.5918C150.511 81.5918 150.992 81.4867 151.423 81.2765C151.855 81.0663 152.176 80.7732 152.386 80.3971V79.3185C151.667 78.8538 150.865 78.6215 149.98 78.6215C149.338 78.6215 148.857 78.7487 148.536 79.0032C148.226 79.2466 148.071 79.6227 148.071 80.1316C148.071 81.105 148.707 81.5918 149.98 81.5918ZM156.988 74.6556H158.614V76.0827C158.946 75.5959 159.41 75.2364 160.008 75.0041C160.616 74.7718 161.319 74.6556 162.115 74.6556V75.9665C161.263 75.9665 160.533 76.1048 159.925 76.3814C159.316 76.6579 158.896 77.0949 158.664 77.6923V82.6206H156.988V74.6556ZM167.515 82.8695C166.707 82.8695 166.082 82.6372 165.64 82.1726C165.208 81.708 164.993 81.0497 164.993 80.1979V75.9499H163.781V74.6556H164.993V72.2661H166.685V74.6556H168.643V75.9499H166.685V80.0818C166.685 80.6128 166.785 80.9889 166.984 81.2101C167.194 81.4314 167.57 81.542 168.112 81.542C168.433 81.542 168.754 81.4701 169.075 81.3263V82.6538C168.654 82.7976 168.135 82.8695 167.515 82.8695ZM171.481 74.6556H173.107V76.0827C173.439 75.5959 173.904 75.2364 174.501 75.0041C175.11 74.7718 175.812 74.6556 176.609 74.6556V75.9665C175.757 75.9665 175.027 76.1048 174.418 76.3814C173.81 76.6579 173.39 77.0949 173.157 77.6923V82.6206H171.481V74.6556ZM179.918 73.0958C179.641 73.0958 179.409 73.0018 179.221 72.8137C179.033 72.6257 178.939 72.3934 178.939 72.1168C178.939 71.8402 179.033 71.6079 179.221 71.4199C179.409 71.2318 179.641 71.1378 179.918 71.1378C180.205 71.1378 180.443 71.2318 180.631 71.4199C180.83 71.6079 180.93 71.8402 180.93 72.1168C180.93 72.3934 180.83 72.6257 180.631 72.8137C180.443 73.0018 180.205 73.0958 179.918 73.0958ZM179.071 74.6556H180.781V82.6206H179.071V74.6556ZM183.917 70.3579H185.593V82.6206H183.917V70.3579Z" fill="white"/>
<path class="logo" opacity="0.65" d="M135.556 89.946H136.168L137.069 93.0108L137.957 89.946H138.419L139.302 93.0108L140.203 89.946H140.814L139.637 93.9805H139.077L138.182 90.933L137.294 93.9805H136.734L135.556 89.946ZM142.142 89.946H144.803V90.4424H142.73V91.718H144.277V92.2086H142.73V93.4899H144.803V93.9805H142.142V89.946ZM146.103 89.946H147.956C148.314 89.946 148.591 90.0384 148.787 90.2231C148.984 90.4078 149.082 90.6771 149.082 91.0311C149.082 91.2312 149.034 91.4082 148.937 91.5621C148.845 91.7122 148.722 91.8238 148.568 91.8969C148.999 92.0239 149.214 92.3375 149.214 92.8377C149.214 93.0724 149.162 93.2763 149.059 93.4495C148.959 93.6188 148.82 93.7496 148.643 93.8419C148.466 93.9343 148.27 93.9805 148.054 93.9805H146.103V89.946ZM147.881 91.6776C148.07 91.6776 148.218 91.6256 148.326 91.5217C148.433 91.4178 148.487 91.2639 148.487 91.06C148.487 90.8253 148.433 90.6617 148.326 90.5694C148.222 90.4732 148.06 90.4251 147.841 90.4251H146.692V91.6776H147.881ZM147.922 93.5014C148.149 93.5014 148.322 93.4514 148.441 93.3514C148.56 93.2513 148.62 93.0801 148.62 92.8377C148.62 92.5953 148.556 92.4221 148.429 92.3182C148.306 92.2143 148.12 92.1624 147.87 92.1624H146.692V93.5014H147.922ZM155.393 94.067C154.978 94.067 154.608 93.9805 154.285 93.8073C153.962 93.6342 153.71 93.3898 153.529 93.0743C153.348 92.7549 153.258 92.3856 153.258 91.9661C153.258 91.5467 153.348 91.1773 153.529 90.858C153.71 90.5386 153.962 90.2923 154.285 90.1192C154.608 89.946 154.978 89.8595 155.393 89.8595C155.947 89.8595 156.411 89.9999 156.784 90.2808V90.8464C156.449 90.5501 156.003 90.402 155.445 90.402C155.134 90.402 154.856 90.4655 154.614 90.5925C154.375 90.7194 154.189 90.9022 154.054 91.1408C153.92 91.3755 153.852 91.6506 153.852 91.9661C153.852 92.2817 153.92 92.5587 154.054 92.7973C154.193 93.0358 154.381 93.2186 154.62 93.3456C154.862 93.4726 155.137 93.536 155.445 93.536C155.73 93.536 155.984 93.4995 156.207 93.4264C156.434 93.3494 156.644 93.2282 156.836 93.0628V93.6342C156.49 93.9228 156.009 94.067 155.393 94.067ZM158.163 89.946H159.785C160.216 89.946 160.547 90.0499 160.778 90.2577C161.009 90.4655 161.124 90.7695 161.124 91.1696C161.124 91.4659 161.045 91.718 160.888 91.9257C160.73 92.1297 160.507 92.2682 160.218 92.3413L161.107 93.9805H160.495L159.635 92.3875H158.752V93.9805H158.163V89.946ZM159.687 91.8911C159.945 91.8911 160.149 91.8315 160.299 91.7122C160.453 91.5891 160.53 91.4082 160.53 91.1696C160.53 90.908 160.455 90.7214 160.305 90.6098C160.159 90.4982 159.953 90.4424 159.687 90.4424H158.752V91.8911H159.687ZM162.452 89.946H165.113V90.4424H163.041V91.718H164.588V92.2086H163.041V93.4899H165.113V93.9805H162.452V89.946ZM167.909 89.946H168.474L170.085 93.9805H169.484L169.08 92.9762H167.297L166.904 93.9805H166.298L167.909 89.946ZM168.919 92.4856L168.192 90.5982L167.464 92.4856H168.919ZM171.713 90.4424H170.46V89.946H173.56V90.4424H172.307V93.9805H171.713V90.4424ZM174.771 89.946H175.366V93.9805H174.771V89.946ZM178.82 94.067C178.419 94.067 178.058 93.9805 177.735 93.8073C177.411 93.6303 177.157 93.3821 176.973 93.0628C176.788 92.7434 176.696 92.3779 176.696 91.9661C176.696 91.5544 176.788 91.1889 176.973 90.8695C177.157 90.5501 177.411 90.302 177.735 90.125C178.058 89.948 178.419 89.8595 178.82 89.8595C179.22 89.8595 179.581 89.948 179.905 90.125C180.228 90.302 180.482 90.5501 180.667 90.8695C180.851 91.1889 180.944 91.5544 180.944 91.9661C180.944 92.3779 180.851 92.7434 180.667 93.0628C180.482 93.3821 180.228 93.6303 179.905 93.8073C179.581 93.9805 179.22 94.067 178.82 94.067ZM178.82 93.536C179.104 93.536 179.362 93.4726 179.593 93.3456C179.828 93.2148 180.012 93.032 180.147 92.7973C180.282 92.5587 180.349 92.2817 180.349 91.9661C180.349 91.6545 180.282 91.3813 180.147 91.1466C180.016 90.908 179.835 90.7252 179.605 90.5982C179.374 90.4674 179.116 90.402 178.831 90.402C178.543 90.402 178.281 90.4655 178.046 90.5925C177.815 90.7194 177.631 90.9022 177.492 91.1408C177.357 91.3793 177.29 91.6545 177.29 91.9661C177.29 92.2817 177.357 92.5587 177.492 92.7973C177.627 93.032 177.81 93.2148 178.04 93.3456C178.275 93.4726 178.535 93.536 178.82 93.536ZM182.272 89.946H182.832L184.887 92.9877V89.946H185.481V93.9805H184.916L182.861 90.9388V93.9805H182.272V89.946Z" fill="white"/>
<path class="logo" d="M101.959 88.6108L109.758 97.2349V88.6108V59.2349L90.3777 75.8029L75.396 88.6108H101.959Z" fill="url(#paint3_linear_932_2)" fill-opacity="0.45"/>
<path class="logo" d="M113.005 82.8136L121.077 88.6108H75.396L109.758 59.2349V97.2349L75.396 59.2349L91.0936 69.1612" stroke="black" stroke-width="0.721464"/>
<path class="logo" d="M113.005 82.8136L121.077 88.6108H75.396L109.758 59.2349V97.2349L75.396 59.2349L91.0936 69.1612" stroke="url(#paint4_linear_932_2)" stroke-width="0.721464"/>
<path class="loader" d="M419.985 266.974C418.078 263.712 414.542 261.522 410.495 261.522C404.426 261.522 399.506 266.448 399.506 272.526C399.506 278.603 404.426 283.529 410.495 283.529C414.542 283.529 418.078 281.339 419.985 278.078" stroke="url(#paint5_linear_932_2)"/>
<rect class="load_bar_black" opacity="0.2" x="75.396" y="272.526" width="301.07" height="1.5" rx="0.75" fill="black"/>
<rect class="load_bar" x="75.396" y="272.526" width="301.07" height="1.5" rx="0.75" fill="url(#paint6_linear_932_2)"/>
</g>
<defs>
<filter id="filter0_b_932_2" x="-105.625" y="-102.5" width="690.25" height="543" filterUnits="userSpaceOnUse" color-interpolation-filters="sRGB">
<feFlood flood-opacity="0" result="BackgroundImageFix"/>
<feGaussianBlur in="BackgroundImageFix" stdDeviation="65"/>
<feComposite in2="SourceAlpha" operator="in" result="effect1_backgroundBlur_932_2"/>
<feBlend mode="normal" in="SourceGraphic" in2="effect1_backgroundBlur_932_2" result="shape"/>
</filter>
<linearGradient id="paint0_linear_932_2" x1="339.636" y1="354.693" x2="413.849" y2="354.693" gradientUnits="userSpaceOnUse">
<stop stop-color="#3BA1F0"/>
<stop offset="1" stop-color="#7260DF"/>
</linearGradient>
<linearGradient id="paint1_linear_932_2" x1="356.778" y1="365.943" x2="430.992" y2="365.943" gradientUnits="userSpaceOnUse">
<stop stop-color="#3BA1F0"/>
<stop offset="1" stop-color="#7260DF"/>
</linearGradient>
<linearGradient id="paint2_linear_932_2" x1="373.92" y1="354.693" x2="448.134" y2="354.693" gradientUnits="userSpaceOnUse">
<stop stop-color="#3BA1F0"/>
<stop offset="1" stop-color="#7260DF"/>
</linearGradient>
<linearGradient id="paint3_linear_932_2" x1="74.7977" y1="76.2291" x2="117.26" y2="76.2291" gradientUnits="userSpaceOnUse">
<stop stop-color="#3BA1F0"/>
<stop offset="1" stop-color="#7260DF"/>
</linearGradient>
<linearGradient id="paint4_linear_932_2" x1="74.7977" y1="76.2291" x2="117.26" y2="76.2291" gradientUnits="userSpaceOnUse">
<stop stop-color="#3BA1F0"/>
<stop offset="1" stop-color="#7260DF"/>
</linearGradient>
<linearGradient id="paint5_linear_932_2" x1="399.218" y1="273.687" x2="419.648" y2="273.687" gradientUnits="userSpaceOnUse">
<stop stop-color="#3BA1F0"/>
<stop offset="1" stop-color="#7260DF"/>
</linearGradient>
<linearGradient id="paint6_linear_932_2" x1="71.4526" y1="273.355" x2="351.313" y2="273.356" gradientUnits="userSpaceOnUse">
<stop stop-color="#3BA1F0"/>
<stop offset="1" stop-color="#7260DF"/>
</linearGradient>
<clipPath id="clip0_932_2">
<rect width="482" height="339" fill="white"/>
</clipPath>
</defs>
</svg>