<svg width="100%" height="100%" viewBox="0 0 304 113" fill="none" xmlns="http://www.w3.org/2000/svg">
<g clip-path="url(#clip0_1096_83)">
<line x1="113.127" y1="38.9404" x2="113.127" y2="83.6372" stroke="white" stroke-width="1.47137"/>
<path d="M23.1292 0.692383H25.9707V5.71711H23.1292V0.692383Z" fill="white"/>
<path d="M66.0449 107.668H68.8864V112.693H66.0449V107.668Z" fill="white"/>
<path d="M23.1292 13.9086C24.3446 13.7077 24.9317 13.7488 25.9707 13.8155V34.3088L23.1292 33.268V13.9086Z" fill="white"/>
<path d="M25.9707 68.85C24.7553 69.0509 24.2408 69.21 23.1292 69.21L23.1292 48.2853L25.9707 49.3261L25.9707 68.85Z" fill="white"/>
<path d="M73.5396 25.1973L74.7935 27.1547L17.8197 76.0794L11.5143 75.907L73.5396 25.1973Z" fill="white"/>
<path d="M25.1594 34.0111V13.8228V13.7725C25.2528 13.7725 25.738 13.806 25.969 13.8228V34.3064L25.1594 34.0111Z" fill="white"/>
<path d="M23.1294 48.2836L23.939 48.5415L23.939 65.7493C23.7843 65.8723 23.5959 66.03 23.1294 66.4023L23.1294 48.2836Z" fill="white"/>
<path d="M65.1824 37.0814L72.3693 37.0817L9.33556 88.3242L8.22012 86.5122L65.1824 37.0814Z" fill="white"/>
<path d="M66.0386 43.9809C67.254 43.78 67.8412 43.8211 68.8801 43.8877V64.3811L66.0386 63.3402V43.9809Z" fill="white"/>
<path d="M68.8804 98.6016C67.8166 98.9157 67.1744 99.1331 66.0388 99.2783L66.0388 78.3537L68.8804 79.3945L68.8804 98.6016Z" fill="white"/>
<path d="M68.0688 64.0804V43.8922V43.8418C68.1622 43.8418 68.6474 43.8754 68.8784 43.8922V64.3758L68.0688 64.0804Z" fill="white"/>
<path d="M66.8481 78.6559L66.8481 99.2282L66.8481 99.2407C66.7548 99.2407 66.2696 99.2909 66.0386 99.2738L66.0386 78.3549L66.8481 78.6559Z" fill="white"/>
<path fill-rule="evenodd" clip-rule="evenodd" d="M45.2811 59.099C45.9154 62.0559 47.1182 64.4747 48.8896 66.3555C51.6491 69.2855 56.6037 72.311 63.7533 75.4321C68.9587 77.7251 72.9099 79.9226 75.6067 82.0245C78.3035 84.1265 79.6519 86.6106 79.6519 89.4769C79.6519 93.235 78.1467 96.0057 75.1363 97.7892C72.1259 99.509 68.1748 100.369 63.2829 100.369C59.7708 100.369 56.6978 99.9548 54.0637 99.1268L49.2659 84.7953H44.9385V103.617C49.6422 105.019 54.001 105.879 58.0148 106.197C62.0913 106.515 65.0076 106.675 66.7637 106.675C73.2862 106.738 78.7111 105.178 83.0385 101.993C87.6795 98.5535 90 93.649 90 87.2794C90 84.2857 89.4356 81.5787 88.3067 79.1582C87.2405 76.7378 85.6099 74.6677 83.4148 72.9479C81.2198 71.2282 79.1501 69.8587 77.2059 68.8396C75.3244 67.7568 72.9099 66.6102 69.9622 65.4C64.4432 63.0433 60.5548 61.005 58.297 59.2853C56.1019 57.5018 55.0044 55.3043 55.0044 52.6928C55.0044 52.1348 55.0452 51.599 55.1266 51.0856L45.2811 59.099ZM64.742 43.2595C66.0271 43.0514 67.4222 42.9474 68.9274 42.9474C71.6242 42.9474 74.2896 43.2022 76.9237 43.7117L81.6274 57.4699H85.8607L86.3311 39.1256C81.9972 38.0371 77.3344 37.3529 72.3425 37.0732L64.742 43.2595Z" fill="white"/>
<path d="M79.7641 89.4523C79.7641 75.2466 54.021 65.6974 55.0307 52.2373C54.727 59.9402 67.3554 64.2018 68.4141 64.7258C72.5436 66.3218 76.5205 68.4384 77.9927 69.2972C86.5275 73.5808 89.2002 79.3449 89.8698 84.803C90.8429 95.7873 85.5324 99.8818 82.9467 102.084C78.4982 105.049 73.9107 107.111 63.401 106.574C54.7709 106.326 47.4961 104.495 44.9375 103.611V84.7933L49.2627 84.7798C50.3221 87.9264 52.7599 95.2084 54.0361 99.1632C58.1264 100.451 65.53 101.24 72.7699 98.914C78.5618 97.0529 79.846 91.8307 79.7641 89.4523Z" fill="white"/>
<path fill-rule="evenodd" clip-rule="evenodd" d="M6.62638 11.2544C2.48711 14.1844 0.41748 18.2927 0.41748 23.5794C0.41748 29.1209 1.79724 33.3567 4.55674 36.2867C7.31625 39.2167 12.2708 42.2422 19.4205 45.3633C24.6259 47.6563 28.577 49.8538 31.2738 51.9558C33.1303 53.4028 34.3478 55.0309 34.9262 56.8401L44.1023 49.3716C44.0603 49.2771 44.0175 49.1831 43.9738 49.0895C42.9077 46.669 41.277 44.5989 39.082 42.8792C36.8869 41.1594 34.8173 39.7899 32.8731 38.7708C30.9916 37.688 28.577 36.5415 25.6294 35.3313C20.1103 32.9745 16.2219 30.9363 13.9642 29.2165C11.7691 27.433 10.6716 25.2355 10.6716 22.624C10.6716 19.5666 11.8945 17.178 14.3405 15.4583C16.8491 13.7385 20.2671 12.8786 24.5945 12.8786C27.2913 12.8786 29.9568 13.1334 32.5908 13.6429L37.2946 27.4012H41.5279L41.9983 9.05687C36.1657 7.59187 29.7373 6.85938 22.7131 6.85938C16.1279 6.85938 10.7656 8.32437 6.62638 11.2544ZM11.5012 75.9061L18.3933 70.2965C15.1123 70.2548 12.2248 69.842 9.73083 69.058L4.93304 54.7265H0.605629V73.5485C4.47036 74.6999 8.10222 75.4858 11.5012 75.9061Z" fill="white"/>
<path d="M38.6853 27.3861C37.6751 20.2275 37.0241 14.2545 32.3013 13.6211C35.1119 21.5931 37.0146 27.3861 37.0146 27.3861L38.6853 27.3861Z" fill="white"/>
<path fill-rule="evenodd" clip-rule="evenodd" d="M35.1215 56.6828L44.1111 49.366C42.5036 45.6793 39.414 42.118 33.6595 39.2298C32.1872 38.371 28.2104 36.2544 24.0808 34.6585C23.9759 34.6065 23.7575 34.5179 23.4492 34.3929C20.6467 33.2562 10.4239 29.1097 10.6975 22.1699C10.1909 28.9223 16.4171 34.6905 22.7484 40.5561C28.2209 45.626 33.7719 50.7688 35.1215 56.6828ZM11.5194 75.893C6.37363 75.2122 2.36818 74.1528 0.604248 73.5431V54.7259L4.92945 54.7124C5.98883 57.859 8.42664 65.141 9.70283 69.0958C11.8438 69.7699 14.8926 70.3074 18.3505 70.333L11.5194 75.893Z" fill="white"/>
<path d="M3.25741 54.7209C4.2676 61.8794 5.02526 68.3861 9.74805 69.0195C5.16626 55.3605 4.94505 54.7209 4.94505 54.7209L3.25741 54.7209Z" fill="white"/>
<path d="M47.5904 84.7951C48.6006 91.9537 49.3583 98.4603 54.0811 99.0938C49.4993 85.4348 49.2781 84.7951 49.2781 84.7951L47.5904 84.7951Z" fill="white"/>
<path d="M83.2575 57.473C82.2473 50.3144 81.5963 44.3415 76.8735 43.708C79.6841 51.68 81.5868 57.473 81.5868 57.473L83.2575 57.473Z" fill="white"/>
<path d="M135.759 47.3684C135.759 46.5344 136.091 45.8863 136.754 45.4241C137.417 44.9619 138.276 44.7308 139.331 44.7308C140.457 44.7308 141.487 44.8464 142.421 45.0775L142.346 47.9713H141.668L140.914 45.8009C140.492 45.7205 140.065 45.6803 139.633 45.6803C138.94 45.6803 138.392 45.816 137.99 46.0873C137.598 46.3586 137.402 46.7354 137.402 47.2177C137.402 47.6297 137.578 47.9763 137.93 48.2577C138.292 48.529 138.915 48.8505 139.799 49.2223C140.271 49.4132 140.658 49.5941 140.959 49.7649C141.271 49.9257 141.602 50.1417 141.954 50.413C142.306 50.6843 142.567 51.0109 142.738 51.3927C142.919 51.7745 143.009 52.2016 143.009 52.6738C143.009 53.6786 142.637 54.4523 141.894 54.9949C141.2 55.4973 140.331 55.7435 139.286 55.7335C139.005 55.7335 138.538 55.7083 137.885 55.6581C137.241 55.6079 136.543 55.4722 135.79 55.2512V52.2819H136.483L137.252 54.5428C137.674 54.6734 138.166 54.7387 138.729 54.7387C139.512 54.7387 140.145 54.6031 140.628 54.3318C141.11 54.0504 141.351 53.6133 141.351 53.0205C141.351 52.5683 141.135 52.1764 140.703 51.8449C140.271 51.5133 139.638 51.1666 138.804 50.8049C137.658 50.3125 136.865 49.8352 136.423 49.373C135.98 48.9108 135.759 48.2426 135.759 47.3684Z" fill="white"/>
<path d="M152.744 44.7308C153.558 44.7308 154.276 44.8665 154.899 45.1377C155.522 45.409 156.05 45.7859 156.482 46.2682C156.914 46.7505 157.24 47.3282 157.461 48.0015C157.682 48.6747 157.793 49.4132 157.793 50.2171C157.793 51.031 157.682 51.7745 157.461 52.4477C157.25 53.121 156.929 53.7038 156.497 54.1961C156.075 54.6784 155.547 55.0552 154.914 55.3265C154.291 55.5978 153.568 55.7335 152.744 55.7335C151.87 55.7335 151.111 55.5878 150.468 55.2964C149.835 55.005 149.312 54.6131 148.9 54.1207C148.488 53.6183 148.182 53.0305 147.981 52.3573C147.79 51.6841 147.695 50.9606 147.695 50.1869C147.695 49.4333 147.795 48.7299 147.996 48.0768C148.197 47.4136 148.503 46.8359 148.915 46.3435C149.327 45.8411 149.85 45.4492 150.483 45.1679C151.126 44.8765 151.88 44.7308 152.744 44.7308ZM152.744 45.6201C151.719 45.6201 150.94 46.0521 150.408 46.9163C149.885 47.7704 149.624 48.8756 149.624 50.2321C149.624 51.669 149.9 52.7994 150.453 53.6234C151.015 54.4373 151.779 54.8442 152.744 54.8442C153.708 54.8442 154.467 54.4373 155.02 53.6234C155.582 52.7994 155.864 51.669 155.864 50.2321C155.864 48.8756 155.597 47.7704 155.065 46.9163C154.542 46.0521 153.769 45.6201 152.744 45.6201Z" fill="white"/>
<path d="M162.236 55.5074V54.8141L163.623 54.4825V45.9818L162.236 45.6502V44.9569H166.863V45.6502L165.476 45.9818V54.4976H169.018L169.832 52.2518H170.526L170.375 55.5074H162.236Z" fill="white"/>
<path d="M174.182 45.6502V44.9569H178.809V45.6502L177.422 45.9818V51.5585C177.422 52.5633 177.668 53.3169 178.161 53.8193C178.663 54.3217 179.336 54.5729 180.18 54.5729C181.014 54.5729 181.688 54.3217 182.2 53.8193C182.712 53.3069 182.969 52.5532 182.969 51.5585V45.9818L181.567 45.6502V44.9569H185.425V45.6502L184.039 45.9818V51.5585C184.039 52.2217 183.933 52.8145 183.722 53.337C183.521 53.8595 183.235 54.2966 182.863 54.6483C182.491 55 182.044 55.2713 181.522 55.4622C181.009 55.643 180.447 55.7335 179.834 55.7335C179.211 55.7335 178.638 55.643 178.115 55.4622C177.593 55.2813 177.141 55.015 176.759 54.6633C176.387 54.3016 176.096 53.8645 175.885 53.3521C175.674 52.8296 175.568 52.2317 175.568 51.5585V45.9818L174.182 45.6502Z" fill="white"/>
<path d="M193.146 58.4163C193.528 58.4967 193.839 58.5369 194.08 58.5369C194.372 58.5369 194.598 58.4615 194.758 58.3108C194.929 58.1701 195.015 57.9742 195.015 57.723C195.015 57.1904 194.648 56.899 193.914 56.8488L194.216 55.7033C192.799 55.6129 191.704 55.1507 190.93 54.3167C190.056 53.3722 189.619 52.0106 189.619 50.2321C189.619 48.4536 190.071 47.0921 190.975 46.1476C191.89 45.2031 193.256 44.7308 195.075 44.7308C196.241 44.7308 197.22 44.9066 198.014 45.2583V48.107H197.321L196.627 45.8763C196.236 45.7859 195.783 45.7406 195.271 45.7406C192.769 45.7406 191.518 47.2378 191.518 50.2321C191.518 53.2265 192.668 54.7236 194.969 54.7236C195.311 54.7236 195.618 54.7136 195.889 54.6935C196.16 54.6734 196.406 54.6432 196.627 54.6031L197.502 52.2217H198.195L198.089 55.0703C197.949 55.1507 197.748 55.2311 197.487 55.3114C197.225 55.3918 196.939 55.4622 196.627 55.5225C196.326 55.5827 196.009 55.633 195.678 55.6732C195.437 55.7033 195.216 55.7234 195.015 55.7335L194.864 56.3213C195.366 56.3414 195.753 56.477 196.025 56.7282C196.306 56.9794 196.447 57.306 196.447 57.7079C196.447 58.2405 196.256 58.6575 195.874 58.9589C195.502 59.2704 194.98 59.4261 194.306 59.4261C194.065 59.4261 193.678 59.3709 193.146 59.2603V58.4163Z" fill="white"/>
<path d="M207.99 44.7308C208.804 44.7308 209.523 44.8665 210.146 45.1377C210.769 45.409 211.296 45.7859 211.728 46.2682C212.16 46.7505 212.487 47.3282 212.708 48.0015C212.929 48.6747 213.039 49.4132 213.039 50.2171C213.039 51.031 212.929 51.7745 212.708 52.4477C212.497 53.121 212.175 53.7038 211.743 54.1961C211.321 54.6784 210.794 55.0552 210.161 55.3265C209.538 55.5978 208.814 55.7335 207.99 55.7335C207.116 55.7335 206.357 55.5878 205.714 55.2964C205.081 55.005 204.559 54.6131 204.147 54.1207C203.735 53.6183 203.428 53.0305 203.227 52.3573C203.037 51.6841 202.941 50.9606 202.941 50.1869C202.941 49.4333 203.042 48.7299 203.243 48.0768C203.444 47.4136 203.75 46.8359 204.162 46.3435C204.574 45.8411 205.096 45.4492 205.729 45.1679C206.373 44.8765 207.126 44.7308 207.99 44.7308ZM207.99 45.6201C206.965 45.6201 206.187 46.0521 205.654 46.9163C205.132 47.7704 204.87 48.8756 204.87 50.2321C204.87 51.669 205.147 52.7994 205.699 53.6234C206.262 54.4373 207.026 54.8442 207.99 54.8442C208.955 54.8442 209.714 54.4373 210.266 53.6234C210.829 52.7994 211.11 51.669 211.11 50.2321C211.11 48.8756 210.844 47.7704 210.311 46.9163C209.789 46.0521 209.015 45.6201 207.99 45.6201ZM205.202 43.103C205.483 42.6609 205.76 42.3293 206.031 42.1082C206.312 41.8872 206.659 41.7616 207.071 41.7314C207.433 41.7314 207.799 41.8771 208.171 42.1685C208.553 42.4499 208.875 42.5906 209.136 42.5906C209.447 42.5906 209.844 42.3795 210.326 41.9575L210.779 42.3946C210.618 42.7463 210.372 43.0678 210.04 43.3592C209.709 43.6506 209.337 43.7963 208.925 43.7963C208.633 43.7963 208.302 43.6557 207.93 43.3743C207.568 43.0829 207.207 42.9372 206.845 42.9372C206.584 42.9372 206.192 43.1482 205.669 43.5702L205.202 43.103Z" fill="white"/>
<path d="M217.483 55.5074V54.8141L218.869 54.4825V45.9818L217.483 45.6502V44.9569H225.335V48.0467H224.627L223.979 45.9667L220.723 45.8461V49.7197L223.979 49.4333V50.7747L220.723 50.5034V54.6181L224.265 54.4976L225.034 52.2518H225.742L225.622 55.5074H217.483Z" fill="white"/>
<path d="M230.605 47.3684C230.605 46.5344 230.936 45.8863 231.6 45.4241C232.263 44.9619 233.122 44.7308 234.177 44.7308C235.302 44.7308 236.332 44.8464 237.267 45.0775L237.191 47.9713H236.513L235.759 45.8009C235.337 45.7205 234.91 45.6803 234.478 45.6803C233.785 45.6803 233.237 45.816 232.835 46.0873C232.444 46.3586 232.248 46.7354 232.248 47.2177C232.248 47.6297 232.423 47.9763 232.775 48.2577C233.137 48.529 233.76 48.8505 234.644 49.2223C235.116 49.4132 235.503 49.5941 235.805 49.7649C236.116 49.9257 236.448 50.1417 236.799 50.413C237.151 50.6843 237.412 51.0109 237.583 51.3927C237.764 51.7745 237.854 52.2016 237.854 52.6738C237.854 53.6786 237.483 54.4523 236.739 54.9949C236.046 55.4973 235.177 55.7435 234.132 55.7335C233.85 55.7335 233.383 55.7083 232.73 55.6581C232.087 55.6079 231.389 55.4722 230.635 55.2512V52.2819H231.328L232.097 54.5428C232.519 54.6734 233.011 54.7387 233.574 54.7387C234.358 54.7387 234.991 54.6031 235.473 54.3318C235.955 54.0504 236.197 53.6133 236.197 53.0205C236.197 52.5683 235.98 52.1764 235.548 51.8449C235.116 51.5133 234.483 51.1666 233.649 50.8049C232.504 50.3125 231.71 49.8352 231.268 49.373C230.826 48.9108 230.605 48.2426 230.605 47.3684Z" fill="white"/>
<path d="M249.239 53.0054C249.239 51.7896 250.027 50.7647 251.605 49.9307C250.65 48.8957 250.173 47.9412 250.173 47.067C250.173 46.2933 250.454 45.7105 251.017 45.3186C251.59 44.9267 252.293 44.7308 253.127 44.7308C253.941 44.7308 254.634 44.9318 255.207 45.3337C255.78 45.7356 256.066 46.2983 256.066 47.0218C256.066 48.1572 255.293 49.1218 253.745 49.9156L256.202 52.3573C256.443 51.8248 256.614 51.252 256.714 50.6391L255.81 50.3075V49.6292H258.9V50.3075L257.604 50.6391C257.493 51.4932 257.257 52.2819 256.895 53.0054L258.418 54.4674L259.925 54.8291V55.5074H257.363L256.066 54.2715C255.192 55.2461 254.087 55.7335 252.75 55.7335C251.756 55.7335 250.922 55.5024 250.248 55.0401C249.575 54.5679 249.239 53.8896 249.239 53.0054ZM250.942 53.0054C250.942 53.4978 251.103 53.9248 251.424 54.2865C251.746 54.6483 252.213 54.8291 252.826 54.8291C253.861 54.8291 254.72 54.4272 255.403 53.6234L252.283 50.6391C251.389 51.3525 250.942 52.1413 250.942 53.0054ZM251.801 47.0519C251.801 47.2931 251.861 47.5493 251.982 47.8206C252.112 48.0919 252.328 48.3883 252.63 48.7098C252.931 49.0314 253.092 49.2022 253.112 49.2223C253.494 48.9912 253.805 48.6797 254.047 48.2878C254.298 47.896 254.423 47.479 254.423 47.0368C254.423 46.5847 254.298 46.233 254.047 45.9818C253.795 45.7205 253.479 45.5899 253.097 45.5899C252.745 45.5899 252.439 45.7205 252.178 45.9818C251.926 46.233 251.801 46.5897 251.801 47.0519Z" fill="white"/>
<path d="M135.503 77.8365V77.1432L136.905 76.8116V68.3109L135.503 67.9793V67.286H140.13V67.9793L138.744 68.3109V76.8116L140.13 77.1432V77.8365H135.503Z" fill="white"/>
<path d="M144.66 77.8365V77.1432L146.047 76.8116V68.3109L144.66 67.9793V67.286H147.102L153.387 74.7467V68.3109L152 67.9793V67.286H155.874V67.9793L154.487 68.3109V77.8365H153.583L147.102 70.1949V76.8116L148.488 77.1432V77.8365H144.66Z" fill="white"/>
<path d="M159.495 67.9793V67.286H164.062V67.9793L162.826 68.2355L165.388 75.4702L167.8 68.3109L166.609 67.9793V67.286H170.241V67.9793L168.855 68.3109L165.539 77.942H164.348L160.836 68.3109L159.495 67.9793Z" fill="white"/>
<path d="M174.057 77.8365V77.1432L175.444 76.8116V68.3109L174.057 67.9793V67.286H181.909V70.3758H181.201L180.553 68.2958L177.297 68.1752V72.0488L180.553 71.7624V73.1038L177.297 72.8325V76.9472L180.839 76.8266L181.608 74.5809H182.316L182.196 77.8365H174.057Z" fill="white"/>
<path d="M187.179 69.6975C187.179 68.8635 187.511 68.2154 188.174 67.7532C188.837 67.291 189.696 67.0599 190.751 67.0599C191.877 67.0599 192.906 67.1755 193.841 67.4066L193.766 70.3004H193.087L192.334 68.13C191.912 68.0496 191.485 68.0094 191.053 68.0094C190.359 68.0094 189.812 68.1451 189.41 68.4164C189.018 68.6877 188.822 69.0645 188.822 69.5468C188.822 69.9588 188.998 70.3054 189.349 70.5868C189.711 70.8581 190.334 71.1796 191.218 71.5514C191.691 71.7423 192.078 71.9232 192.379 72.094C192.69 72.2548 193.022 72.4708 193.374 72.7421C193.725 73.0134 193.987 73.34 194.157 73.7218C194.338 74.1036 194.429 74.5307 194.429 75.0029C194.429 76.0077 194.057 76.7814 193.313 77.324C192.62 77.8264 191.751 78.0726 190.706 78.0626C190.425 78.0626 189.957 78.0374 189.304 77.9872C188.661 77.937 187.963 77.8013 187.209 77.5803V74.611H187.903L188.671 76.8719C189.093 77.0025 189.586 77.0678 190.148 77.0678C190.932 77.0678 191.565 76.9322 192.047 76.6609C192.53 76.3795 192.771 75.9424 192.771 75.3496C192.771 74.8974 192.555 74.5055 192.123 74.174C191.691 73.8424 191.058 73.4957 190.224 73.134C189.078 72.6416 188.284 72.1643 187.842 71.7021C187.4 71.2399 187.179 70.5717 187.179 69.6975Z" fill="white"/>
<path d="M198.798 70.4813V67.286H207.766V70.4813H207.057L206.379 68.2958L204.209 68.1752V76.8116L205.595 77.1432V77.8365H200.968V77.1432L202.355 76.8116V68.1752L200.169 68.2958L199.506 70.4813H198.798Z" fill="white"/>
<path d="M212.095 77.8365V77.1432L213.497 76.8116V68.3109L212.095 67.9793V67.286H216.723V67.9793L215.336 68.3109V76.8116L216.723 77.1432V77.8365H212.095Z" fill="white"/>
<path d="M221.041 77.8365V77.1432L222.473 76.7965L222.955 68.2958L221.629 67.9793L221.644 67.286H224.87L228.261 75.1536L231.682 67.286H234.787V67.9793L233.431 68.2958L233.943 76.8116L235.39 77.1432V77.8365H230.808V77.1432L232.134 76.8266L231.727 69.6825L228.155 77.9118H227.492L223.875 69.6674L223.498 76.8266L224.839 77.1432V77.8365H221.041Z" fill="white"/>
<path d="M239.682 77.8365V77.1432L241.069 76.8116V68.3109L239.682 67.9793V67.286H247.535V70.3758H246.826L246.178 68.2958L242.922 68.1752V72.0488L246.178 71.7624V73.1038L242.922 72.8325V76.9472L246.464 76.8266L247.233 74.5809H247.941L247.821 77.8365H239.682Z" fill="white"/>
<path d="M252.548 77.8365V77.1432L253.935 76.8116V68.3109L252.548 67.9793V67.286H254.99L261.275 74.7467V68.3109L259.888 67.9793V67.286H263.762V67.9793L262.375 68.3109V77.8365H261.471L254.99 70.1949V76.8116L256.376 77.1432V77.8365H252.548Z" fill="white"/>
<path d="M267.941 70.4813V67.286H276.908V70.4813H276.2L275.522 68.2958L273.351 68.1752V76.8116L274.738 77.1432V77.8365H270.111V77.1432L271.498 76.8116V68.1752L269.312 68.2958L268.649 70.4813H267.941Z" fill="white"/>
<path d="M286.393 67.0599C287.207 67.0599 287.925 67.1956 288.548 67.4669C289.171 67.7381 289.699 68.115 290.131 68.5973C290.563 69.0796 290.89 69.6573 291.111 70.3306C291.332 71.0038 291.442 71.7423 291.442 72.5462C291.442 73.3601 291.332 74.1036 291.111 74.7768C290.9 75.4501 290.578 76.0328 290.146 76.5252C289.724 77.0075 289.196 77.3843 288.563 77.6556C287.94 77.9269 287.217 78.0626 286.393 78.0626C285.519 78.0626 284.76 77.9169 284.117 77.6255C283.484 77.3341 282.962 76.9422 282.55 76.4498C282.138 75.9474 281.831 75.3596 281.63 74.6864C281.439 74.0132 281.344 73.2897 281.344 72.516C281.344 71.7624 281.444 71.059 281.645 70.4059C281.846 69.7427 282.153 69.165 282.565 68.6726C282.977 68.1702 283.499 67.7783 284.132 67.497C284.775 67.2056 285.529 67.0599 286.393 67.0599ZM286.393 67.9492C285.368 67.9492 284.589 68.3812 284.057 69.2454C283.534 70.0994 283.273 71.2047 283.273 72.5612C283.273 73.9981 283.549 75.1285 284.102 75.9525C284.665 76.7664 285.428 77.1733 286.393 77.1733C287.358 77.1733 288.116 76.7664 288.669 75.9525C289.232 75.1285 289.513 73.9981 289.513 72.5612C289.513 71.2047 289.247 70.0994 288.714 69.2454C288.192 68.3812 287.418 67.9492 286.393 67.9492Z" fill="white"/>
<path d="M296.333 69.6975C296.333 68.8635 296.664 68.2154 297.328 67.7532C297.991 67.291 298.85 67.0599 299.905 67.0599C301.03 67.0599 302.06 67.1755 302.995 67.4066L302.919 70.3004H302.241L301.488 68.13C301.065 68.0496 300.638 68.0094 300.206 68.0094C299.513 68.0094 298.965 68.1451 298.564 68.4164C298.172 68.6877 297.976 69.0645 297.976 69.5468C297.976 69.9588 298.152 70.3054 298.503 70.5868C298.865 70.8581 299.488 71.1796 300.372 71.5514C300.844 71.7423 301.231 71.9232 301.533 72.094C301.844 72.2548 302.176 72.4708 302.527 72.7421C302.879 73.0134 303.14 73.34 303.311 73.7218C303.492 74.1036 303.583 74.5307 303.583 75.0029C303.583 76.0077 303.211 76.7814 302.467 77.324C301.774 77.8264 300.905 78.0726 299.86 78.0626C299.578 78.0626 299.111 78.0374 298.458 77.9872C297.815 77.937 297.117 77.8013 296.363 77.5803V74.611H297.056L297.825 76.8719C298.247 77.0025 298.739 77.0678 299.302 77.0678C300.086 77.0678 300.719 76.9322 301.201 76.6609C301.683 76.3795 301.925 75.9424 301.925 75.3496C301.925 74.8974 301.709 74.5055 301.277 74.174C300.844 73.8424 300.211 73.4957 299.377 73.134C298.232 72.6416 297.438 72.1643 296.996 71.7021C296.554 71.2399 296.333 70.5717 296.333 69.6975Z" fill="white"/>
</g>
<defs>
<clipPath id="clip0_1096_83">
<rect width="303.165" height="112" fill="white" transform="translate(0.41748 0.692383)"/>
</clipPath>
</defs>
</svg>
