<svg width="312" height="111" viewBox="0 0 312 111" fill="none" xmlns="http://www.w3.org/2000/svg">
<path d="M164.617 68.5015C162.777 68.5015 160.952 68.3329 159.143 67.9955C157.364 67.6889 155.907 67.2595 154.773 66.7075V62.4755C157.717 63.8555 160.891 64.5455 164.295 64.5455C169.079 64.5455 171.471 62.9355 171.471 59.7155C171.471 58.6115 171.21 57.7222 170.689 57.0475C170.167 56.3729 169.416 55.7902 168.435 55.2995C167.453 54.7782 165.859 54.0729 163.651 53.1835C160.615 51.9569 158.422 50.6075 157.073 49.1355C155.723 47.6635 155.049 45.8082 155.049 43.5695C155.049 41.8829 155.509 40.3955 156.429 39.1075C157.349 37.7889 158.637 36.7769 160.293 36.0715C161.949 35.3355 163.85 34.9675 165.997 34.9675C167.745 34.9675 169.324 35.1055 170.735 35.3815C172.145 35.6575 173.525 36.1022 174.875 36.7155V40.7635C172.207 39.5675 169.508 38.9695 166.779 38.9695C164.571 38.9695 162.884 39.3682 161.719 40.1655C160.553 40.9629 159.971 42.0975 159.971 43.5695C159.971 44.5815 160.216 45.4402 160.707 46.1455C161.228 46.8202 161.979 47.4335 162.961 47.9855C163.973 48.5069 165.46 49.1662 167.423 49.9635C169.6 50.8529 171.317 51.6962 172.575 52.4935C173.832 53.2909 174.783 54.2722 175.427 55.4375C176.101 56.5722 176.439 57.9982 176.439 59.7155C176.439 62.5062 175.442 64.6682 173.449 66.2015C171.455 67.7349 168.511 68.5015 164.617 68.5015ZM190.671 68.5015C188.432 68.5015 186.699 67.8575 185.473 66.5695C184.277 65.2815 183.679 63.4569 183.679 61.0955V49.3195H180.321V45.7315H183.679V39.1075H188.371V45.7315H193.799V49.3195H188.371V60.7735C188.371 62.2455 188.647 63.2882 189.199 63.9015C189.781 64.5149 190.824 64.8215 192.327 64.8215C193.216 64.8215 194.105 64.6222 194.995 64.2235V67.9035C193.829 68.3022 192.388 68.5015 190.671 68.5015ZM208.904 68.5015C206.236 68.5015 204.089 67.8269 202.464 66.4775C200.869 65.0975 200.072 63.2422 200.072 60.9115C200.072 58.4582 200.839 56.5722 202.372 55.2535C203.936 53.9042 206.144 53.2295 208.996 53.2295C212.032 53.2295 214.608 53.8429 216.724 55.0695V53.9195C216.724 52.1715 216.187 50.8835 215.114 50.0555C214.071 49.1969 212.415 48.7675 210.146 48.7675C208.797 48.7675 207.478 48.9055 206.19 49.1815C204.933 49.4269 203.798 49.7795 202.786 50.2395V46.4675C203.706 46.0382 204.902 45.7009 206.374 45.4555C207.846 45.1795 209.272 45.0415 210.652 45.0415C214.301 45.0415 217 45.8542 218.748 47.4795C220.527 49.0742 221.416 51.2975 221.416 54.1495V67.8115H217.046V65.3275C216.095 66.3702 214.961 67.1675 213.642 67.7195C212.354 68.2409 210.775 68.5015 208.904 68.5015ZM210.054 64.9595C211.526 64.9595 212.86 64.6682 214.056 64.0855C215.252 63.5029 216.141 62.6902 216.724 61.6475V58.6575C214.731 57.3695 212.507 56.7255 210.054 56.7255C208.275 56.7255 206.941 57.0782 206.052 57.7835C205.193 58.4582 204.764 59.5009 204.764 60.9115C204.764 63.6102 206.527 64.9595 210.054 64.9595ZM229.481 45.7315H233.989V49.6875C234.909 48.3382 236.197 47.3415 237.853 46.6975C239.54 46.0535 241.487 45.7315 243.695 45.7315V49.3655C241.334 49.3655 239.31 49.7489 237.623 50.5155C235.937 51.2822 234.771 52.4935 234.127 54.1495V67.8115H229.481V45.7315ZM258.665 68.5015C256.426 68.5015 254.693 67.8575 253.467 66.5695C252.271 65.2815 251.673 63.4569 251.673 61.0955V49.3195H248.315V45.7315H251.673V39.1075H256.365V45.7315H261.793V49.3195H256.365V60.7735C256.365 62.2455 256.641 63.2882 257.193 63.9015C257.775 64.5149 258.818 64.8215 260.321 64.8215C261.21 64.8215 262.099 64.6222 262.989 64.2235V67.9035C261.823 68.3022 260.382 68.5015 258.665 68.5015ZM269.66 45.7315H274.168V49.6875C275.088 48.3382 276.376 47.3415 278.032 46.6975C279.718 46.0535 281.666 45.7315 283.874 45.7315V49.3655C281.512 49.3655 279.488 49.7489 277.802 50.5155C276.115 51.2822 274.95 52.4935 274.306 54.1495V67.8115H269.66V45.7315ZM293.047 41.4075C292.28 41.4075 291.636 41.1469 291.115 40.6255C290.593 40.1042 290.333 39.4602 290.333 38.6935C290.333 37.9269 290.593 37.2829 291.115 36.7615C291.636 36.2402 292.28 35.9795 293.047 35.9795C293.844 35.9795 294.503 36.2402 295.025 36.7615C295.577 37.2829 295.853 37.9269 295.853 38.6935C295.853 39.4602 295.577 40.1042 295.025 40.6255C294.503 41.1469 293.844 41.4075 293.047 41.4075ZM290.701 45.7315H295.439V67.8115H290.701V45.7315ZM304.133 33.8175H308.779V67.8115H304.133V33.8175Z" fill="url(#paint0_linear_921_14)"/>
<path opacity="0.65" d="M170.071 88.3844H171.767L174.263 96.8804L176.727 88.3844H178.007L180.455 96.8804L182.951 88.3844H184.647L181.383 99.5684H179.831L177.351 91.1204L174.887 99.5684H173.335L170.071 88.3844ZM188.326 88.3844H195.702V89.7604H189.958V93.2964H194.246V94.6564H189.958V98.2084H195.702V99.5684H188.326V88.3844ZM199.309 88.3844H204.445C205.437 88.3844 206.205 88.6404 206.749 89.1524C207.293 89.6644 207.565 90.411 207.565 91.3924C207.565 91.947 207.432 92.4377 207.165 92.8644C206.909 93.2804 206.567 93.5897 206.141 93.7924C207.336 94.1444 207.933 95.0137 207.933 96.4004C207.933 97.051 207.789 97.6164 207.501 98.0964C207.223 98.5657 206.839 98.9284 206.349 99.1844C205.858 99.4404 205.314 99.5684 204.717 99.5684H199.309V88.3844ZM204.237 93.1844C204.76 93.1844 205.17 93.0404 205.469 92.7524C205.768 92.4644 205.917 92.0377 205.917 91.4724C205.917 90.8217 205.768 90.3684 205.469 90.1124C205.181 89.8457 204.733 89.7124 204.125 89.7124H200.941V93.1844H204.237ZM204.349 98.2404C204.978 98.2404 205.458 98.1017 205.789 97.8244C206.12 97.547 206.285 97.0724 206.285 96.4004C206.285 95.7284 206.109 95.2484 205.757 94.9604C205.416 94.6724 204.898 94.5284 204.205 94.5284H200.941V98.2404H204.349ZM225.061 99.8084C223.909 99.8084 222.885 99.5684 221.989 99.0884C221.093 98.6084 220.395 97.931 219.893 97.0564C219.392 96.171 219.141 95.147 219.141 93.9844C219.141 92.8217 219.392 91.7977 219.893 90.9124C220.395 90.027 221.093 89.3444 221.989 88.8644C222.885 88.3844 223.909 88.1444 225.061 88.1444C226.597 88.1444 227.883 88.5337 228.917 89.3124V90.8804C227.989 90.059 226.752 89.6484 225.205 89.6484C224.341 89.6484 223.573 89.8244 222.901 90.1764C222.24 90.5284 221.723 91.035 221.349 91.6964C220.976 92.347 220.789 93.1097 220.789 93.9844C220.789 94.859 220.976 95.627 221.349 96.2884C221.733 96.9497 222.256 97.4564 222.917 97.8084C223.589 98.1604 224.352 98.3364 225.205 98.3364C225.995 98.3364 226.699 98.235 227.317 98.0324C227.947 97.819 228.528 97.483 229.061 97.0244V98.6084C228.101 99.4084 226.768 99.8084 225.061 99.8084ZM232.741 88.3844H237.237C238.431 88.3844 239.349 88.6724 239.989 89.2484C240.629 89.8244 240.949 90.667 240.949 91.7764C240.949 92.5977 240.73 93.2964 240.293 93.8724C239.855 94.4377 239.237 94.8217 238.437 95.0244L240.901 99.5684H239.205L236.821 95.1524H234.373V99.5684H232.741V88.3844ZM236.965 93.7764C237.679 93.7764 238.245 93.611 238.661 93.2804C239.087 92.939 239.301 92.4377 239.301 91.7764C239.301 91.051 239.093 90.5337 238.677 90.2244C238.271 89.915 237.701 89.7604 236.965 89.7604H234.373V93.7764H236.965ZM244.629 88.3844H252.005V89.7604H246.261V93.2964H250.549V94.6564H246.261V98.2084H252.005V99.5684H244.629V88.3844ZM259.756 88.3844H261.324L265.788 99.5684H264.124L263.004 96.7844H258.06L256.972 99.5684H255.292L259.756 88.3844ZM262.556 95.4244L260.54 90.1924L258.524 95.4244H262.556ZM270.301 89.7604H266.829V88.3844H275.421V89.7604H271.949V99.5684H270.301V89.7604ZM278.78 88.3844H280.428V99.5684H278.78V88.3844ZM290.002 99.8084C288.893 99.8084 287.89 99.5684 286.994 99.0884C286.098 98.5977 285.394 97.9097 284.882 97.0244C284.37 96.139 284.114 95.1257 284.114 93.9844C284.114 92.843 284.37 91.8297 284.882 90.9444C285.394 90.059 286.098 89.371 286.994 88.8804C287.89 88.3897 288.893 88.1444 290.002 88.1444C291.112 88.1444 292.114 88.3897 293.01 88.8804C293.906 89.371 294.61 90.059 295.122 90.9444C295.634 91.8297 295.89 92.843 295.89 93.9844C295.89 95.1257 295.634 96.139 295.122 97.0244C294.61 97.9097 293.906 98.5977 293.01 99.0884C292.114 99.5684 291.112 99.8084 290.002 99.8084ZM290.002 98.3364C290.792 98.3364 291.506 98.1604 292.146 97.8084C292.797 97.4457 293.309 96.939 293.682 96.2884C294.056 95.627 294.242 94.859 294.242 93.9844C294.242 93.1204 294.056 92.363 293.682 91.7124C293.32 91.051 292.818 90.5444 292.178 90.1924C291.538 89.8297 290.824 89.6484 290.034 89.6484C289.234 89.6484 288.509 89.8244 287.858 90.1764C287.218 90.5284 286.706 91.035 286.322 91.6964C285.949 92.3577 285.762 93.1204 285.762 93.9844C285.762 94.859 285.949 95.627 286.322 96.2884C286.696 96.939 287.202 97.4457 287.842 97.8084C288.493 98.1604 289.213 98.3364 290.002 98.3364ZM299.573 88.3844H301.125L306.821 96.8164V88.3844H308.469V99.5684H306.901L301.205 91.1364V99.5684H299.573V88.3844Z" fill="url(#paint1_linear_921_14)"/>
<path d="M76.9352 84.315L98.5535 108.222V84.315V2.88087L44.8294 48.8097L3.29797 84.315H76.9352Z" fill="url(#paint2_linear_921_14)" fill-opacity="0.45"/>
<path d="M107.555 68.2445L129.932 84.315H3.29797L98.5535 2.88087V108.222L3.29797 2.88087L46.8138 30.3981" stroke="black" stroke-width="2"/>
<path d="M107.555 68.2445L129.932 84.315H3.29797L98.5535 2.88087V108.222L3.29797 2.88087L46.8138 30.3981" stroke="url(#paint3_linear_921_14)" stroke-width="2"/>
<defs>
<linearGradient id="paint0_linear_921_14" x1="138.556" y1="54.352" x2="297.503" y2="54.352" gradientUnits="userSpaceOnUse">
<stop stop-color="#3BA1F0"/>
<stop offset="1" stop-color="#7260DF"/>
</linearGradient>
<linearGradient id="paint1_linear_921_14" x1="148.204" y1="95.033" x2="296.201" y2="95.033" gradientUnits="userSpaceOnUse">
<stop stop-color="#3BA1F0"/>
<stop offset="1" stop-color="#7260DF"/>
</linearGradient>
<linearGradient id="paint2_linear_921_14" x1="1.63934" y1="49.9911" x2="119.352" y2="49.9911" gradientUnits="userSpaceOnUse">
<stop stop-color="#3BA1F0"/>
<stop offset="1" stop-color="#7260DF"/>
</linearGradient>
<linearGradient id="paint3_linear_921_14" x1="1.63934" y1="49.9911" x2="119.352" y2="49.9911" gradientUnits="userSpaceOnUse">
<stop stop-color="#3BA1F0"/>
<stop offset="1" stop-color="#7260DF"/>
</linearGradient>
</defs>
</svg>
