<svg width="173" height="63" viewBox="0 0 173 63" fill="none" xmlns="http://www.w3.org/2000/svg">
<path d="M90.9084 37.4841C89.8942 37.4841 88.8884 37.3911 87.891 37.2052C86.9106 37.0361 86.1076 36.7995 85.4822 36.4952V34.1624C87.105 34.9231 88.8546 35.3035 90.7309 35.3035C93.368 35.3035 94.6865 34.416 94.6865 32.6411C94.6865 32.0325 94.5428 31.5423 94.2554 31.1704C93.9681 30.7985 93.5539 30.4773 93.013 30.2069C92.472 29.9195 91.593 29.5307 90.3759 29.0405C88.7024 28.3643 87.4938 27.6206 86.75 26.8092C86.0062 25.9978 85.6343 24.9751 85.6343 23.7411C85.6343 22.8113 85.8879 21.9915 86.395 21.2815C86.9021 20.5546 87.6121 19.9968 88.5249 19.608C89.4378 19.2023 90.4858 18.9995 91.6691 18.9995C92.6326 18.9995 93.5032 19.0755 94.2808 19.2277C95.0584 19.3798 95.8191 19.6249 96.5628 19.963V22.1943C95.0922 21.5351 93.6046 21.2054 92.1002 21.2054C90.8831 21.2054 89.9533 21.4252 89.311 21.8647C88.6686 22.3042 88.3474 22.9297 88.3474 23.7411C88.3474 24.2989 88.4827 24.7722 88.7531 25.161C89.0405 25.5329 89.4547 25.871 89.9956 26.1752C90.5534 26.4626 91.3733 26.8261 92.4551 27.2656C93.6553 27.7558 94.602 28.2206 95.295 28.6602C95.9881 29.0997 96.5121 29.6406 96.8671 30.2829C97.239 30.9084 97.4249 31.6944 97.4249 32.6411C97.4249 34.1793 96.8756 35.3711 95.7768 36.2163C94.678 37.0615 93.0552 37.4841 90.9084 37.4841ZM105.27 37.4841C104.036 37.4841 103.081 37.1291 102.405 36.4191C101.745 35.7092 101.416 34.7034 101.416 33.4018V26.9106H99.5648V24.9328H101.416V21.2815H104.002V24.9328H106.994V26.9106H104.002V33.2243C104.002 34.0357 104.154 34.6104 104.459 34.9485C104.78 35.2866 105.354 35.4556 106.183 35.4556C106.673 35.4556 107.163 35.3457 107.653 35.126V37.1545C107.011 37.3742 106.217 37.4841 105.27 37.4841ZM115.32 37.4841C113.85 37.4841 112.667 37.1122 111.771 36.3684C110.892 35.6077 110.452 34.585 110.452 33.3003C110.452 31.948 110.875 30.9084 111.72 30.1815C112.582 29.4377 113.799 29.0659 115.371 29.0659C117.045 29.0659 118.465 29.4039 119.631 30.0801V29.4462C119.631 28.4827 119.335 27.7727 118.744 27.3163C118.169 26.843 117.256 26.6063 116.005 26.6063C115.261 26.6063 114.534 26.6824 113.824 26.8345C113.131 26.9697 112.506 27.1641 111.948 27.4177V25.3385C112.455 25.1018 113.114 24.9159 113.926 24.7807C114.737 24.6285 115.523 24.5525 116.284 24.5525C118.296 24.5525 119.783 25.0004 120.747 25.8963C121.727 26.7753 122.217 28.0009 122.217 29.573V37.1038H119.809V35.7345C119.284 36.3093 118.659 36.7488 117.932 37.053C117.222 37.3404 116.352 37.4841 115.32 37.4841ZM115.954 35.5317C116.766 35.5317 117.501 35.3711 118.16 35.0499C118.82 34.7287 119.31 34.2808 119.631 33.706V32.0579C118.532 31.3479 117.307 30.9929 115.954 30.9929C114.974 30.9929 114.239 31.1873 113.748 31.5761C113.275 31.948 113.038 32.5227 113.038 33.3003C113.038 34.7879 114.01 35.5317 115.954 35.5317ZM126.663 24.9328H129.148V27.1134C129.655 26.3696 130.365 25.8203 131.278 25.4653C132.208 25.1103 133.281 24.9328 134.498 24.9328V26.9359C133.197 26.9359 132.081 27.1472 131.151 27.5698C130.222 27.9924 129.579 28.6602 129.224 29.573V37.1038H126.663V24.9328ZM142.75 37.4841C141.516 37.4841 140.56 37.1291 139.884 36.4191C139.225 35.7092 138.895 34.7034 138.895 33.4018V26.9106H137.044V24.9328H138.895V21.2815H141.482V24.9328H144.474V26.9106H141.482V33.2243C141.482 34.0357 141.634 34.6104 141.938 34.9485C142.259 35.2866 142.834 35.4556 143.662 35.4556C144.153 35.4556 144.643 35.3457 145.133 35.126V37.1545C144.491 37.3742 143.696 37.4841 142.75 37.4841ZM148.81 24.9328H151.295V27.1134C151.802 26.3696 152.512 25.8203 153.425 25.4653C154.355 25.1103 155.428 24.9328 156.645 24.9328V26.9359C155.344 26.9359 154.228 27.1472 153.298 27.5698C152.369 27.9924 151.726 28.6602 151.371 29.573V37.1038H148.81V24.9328ZM161.702 22.5493C161.279 22.5493 160.924 22.4056 160.637 22.1183C160.349 21.8309 160.206 21.4759 160.206 21.0533C160.206 20.6307 160.349 20.2757 160.637 19.9883C160.924 19.701 161.279 19.5573 161.702 19.5573C162.141 19.5573 162.505 19.701 162.792 19.9883C163.096 20.2757 163.248 20.6307 163.248 21.0533C163.248 21.4759 163.096 21.8309 162.792 22.1183C162.505 22.4056 162.141 22.5493 161.702 22.5493ZM160.408 24.9328H163.02V37.1038H160.408V24.9328ZM167.812 18.3655H170.373V37.1038H167.812V18.3655Z" fill="white"/>
<path opacity="0.65" d="M101.854 44.775H103.14L105.031 51.2143L106.899 44.775H107.869L109.725 51.2143L111.616 44.775H112.902L110.428 53.2516H109.252L107.372 46.8486L105.504 53.2516H104.328L101.854 44.775ZM116.525 53.4335C115.45 53.4335 114.605 53.1667 113.991 52.6332C113.384 52.0915 113.081 51.3315 113.081 50.3533C113.081 49.3993 113.352 48.6434 113.894 48.0856C114.443 47.5278 115.223 47.2488 116.234 47.2488C116.905 47.2488 117.475 47.3782 117.944 47.6369C118.413 47.8875 118.765 48.2392 118.999 48.6919C119.242 49.1366 119.363 49.6459 119.363 50.2199V50.8263H114.245C114.286 51.376 114.516 51.7883 114.936 52.0632C115.365 52.33 115.943 52.4634 116.671 52.4634C117.043 52.4634 117.418 52.431 117.798 52.3664C118.178 52.2936 118.514 52.2006 118.805 52.0875V53.0697C118.546 53.1748 118.203 53.2597 117.774 53.3244C117.354 53.3972 116.937 53.4335 116.525 53.4335ZM118.211 49.9653C118.195 49.4155 118.013 48.9911 117.665 48.6919C117.325 48.3847 116.84 48.2311 116.21 48.2311C115.595 48.2311 115.118 48.3888 114.779 48.7041C114.439 49.0194 114.261 49.4398 114.245 49.9653H118.211ZM124.315 53.4335C123.79 53.4335 123.333 53.3527 122.945 53.191C122.565 53.0212 122.213 52.7585 121.89 52.4028V53.2516H120.702V44.2899H121.926V48.2069C122.193 47.8916 122.537 47.6531 122.957 47.4914C123.378 47.3297 123.83 47.2488 124.315 47.2488C124.897 47.2488 125.419 47.3822 125.88 47.649C126.349 47.9077 126.712 48.2715 126.971 48.7404C127.238 49.2093 127.371 49.747 127.371 50.3533C127.371 50.9677 127.238 51.5094 126.971 51.9783C126.712 52.4391 126.349 52.7989 125.88 53.0576C125.419 53.3082 124.897 53.4335 124.315 53.4335ZM124.036 52.4634C124.433 52.4634 124.788 52.3785 125.104 52.2087C125.427 52.0309 125.678 51.7802 125.855 51.4569C126.041 51.1335 126.134 50.7656 126.134 50.3533C126.134 49.941 126.041 49.5731 125.855 49.2498C125.678 48.9264 125.427 48.6758 125.104 48.4979C124.788 48.32 124.433 48.2311 124.036 48.2311C123.543 48.2311 123.103 48.3645 122.715 48.6313C122.327 48.8981 122.064 49.2538 121.926 49.6985V51.0082C122.08 51.4528 122.343 51.8085 122.715 52.0753C123.095 52.334 123.535 52.4634 124.036 52.4634ZM136.009 53.4335C135.427 53.4335 134.901 53.3082 134.432 53.0576C133.972 52.7989 133.608 52.4391 133.341 51.9783C133.082 51.5094 132.953 50.9677 132.953 50.3533C132.953 49.747 133.082 49.2093 133.341 48.7404C133.608 48.2715 133.972 47.9077 134.432 47.649C134.901 47.3822 135.427 47.2488 136.009 47.2488C137.06 47.2488 137.856 47.5682 138.398 48.2069V44.2899H139.623V53.2516H138.434V52.4028C138.111 52.7585 137.755 53.0212 137.367 53.191C136.987 53.3527 136.534 53.4335 136.009 53.4335ZM136.288 52.4634C136.789 52.4634 137.226 52.334 137.598 52.0753C137.978 51.8085 138.244 51.4528 138.398 51.0082V49.6985C138.261 49.2538 137.998 48.8981 137.61 48.6313C137.23 48.3645 136.789 48.2311 136.288 48.2311C135.892 48.2311 135.532 48.32 135.209 48.4979C134.893 48.6758 134.643 48.9264 134.457 49.2498C134.279 49.5731 134.19 49.941 134.19 50.3533C134.19 50.7656 134.279 51.1335 134.457 51.4569C134.643 51.7802 134.893 52.0309 135.209 52.2087C135.532 52.3785 135.892 52.4634 136.288 52.4634ZM144.403 53.4335C143.327 53.4335 142.483 53.1667 141.868 52.6332C141.262 52.0915 140.959 51.3315 140.959 50.3533C140.959 49.3993 141.229 48.6434 141.771 48.0856C142.321 47.5278 143.101 47.2488 144.112 47.2488C144.783 47.2488 145.353 47.3782 145.822 47.6369C146.29 47.8875 146.642 48.2392 146.877 48.6919C147.119 49.1366 147.24 49.6459 147.24 50.2199V50.8263H142.123C142.163 51.376 142.394 51.7883 142.814 52.0632C143.243 52.33 143.821 52.4634 144.548 52.4634C144.92 52.4634 145.296 52.431 145.676 52.3664C146.056 52.2936 146.391 52.2006 146.683 52.0875V53.0697C146.424 53.1748 146.08 53.2597 145.652 53.3244C145.231 53.3972 144.815 53.4335 144.403 53.4335ZM146.088 49.9653C146.072 49.4155 145.89 48.9911 145.543 48.6919C145.203 48.3847 144.718 48.2311 144.087 48.2311C143.473 48.2311 142.996 48.3888 142.656 48.7041C142.317 49.0194 142.139 49.4398 142.123 49.9653H146.088ZM150.726 53.4335C150.321 53.4335 149.893 53.381 149.44 53.2759C148.987 53.1789 148.632 53.0455 148.373 52.8757V51.8328C148.688 52.0187 149.052 52.1723 149.464 52.2936C149.877 52.4068 150.277 52.4634 150.665 52.4634C151.102 52.4634 151.421 52.4108 151.623 52.3057C151.825 52.2006 151.926 52.0309 151.926 51.7964C151.926 51.6185 151.878 51.4771 151.781 51.372C151.692 51.2588 151.534 51.1577 151.308 51.0688C151.089 50.9799 150.758 50.8748 150.313 50.7535C149.836 50.6161 149.456 50.4786 149.173 50.3412C148.898 50.1957 148.688 50.0138 148.543 49.7955C148.405 49.5772 148.337 49.2942 148.337 48.9466C148.337 48.3888 148.555 47.9684 148.991 47.6854C149.436 47.3944 150.03 47.2488 150.774 47.2488C151.162 47.2488 151.542 47.2852 151.914 47.358C152.286 47.4307 152.585 47.5318 152.811 47.6611V48.6798C152.577 48.5424 152.286 48.4332 151.938 48.3524C151.599 48.2715 151.251 48.2311 150.895 48.2311C150.467 48.2311 150.139 48.2837 149.913 48.3888C149.687 48.4939 149.574 48.6798 149.574 48.9466C149.574 49.1164 149.622 49.2538 149.719 49.3589C149.816 49.464 149.97 49.557 150.18 49.6378C150.398 49.7106 150.742 49.8076 151.211 49.9289C151.946 50.131 152.456 50.3695 152.739 50.6444C153.03 50.9192 153.175 51.2992 153.175 51.7843C153.175 52.2855 152.969 52.6857 152.557 52.9848C152.144 53.284 151.534 53.4335 150.726 53.4335ZM155.228 46.2908C155.026 46.2908 154.856 46.2221 154.718 46.0847C154.581 45.9472 154.512 45.7774 154.512 45.5753C154.512 45.3732 154.581 45.2034 154.718 45.066C154.856 44.9286 155.026 44.8598 155.228 44.8598C155.438 44.8598 155.612 44.9286 155.749 45.066C155.895 45.2034 155.968 45.3732 155.968 45.5753C155.968 45.7774 155.895 45.9472 155.749 46.0847C155.612 46.2221 155.438 46.2908 155.228 46.2908ZM154.609 47.4307H155.858V53.2516H154.609V47.4307ZM160.588 56.0408C160.192 56.0408 159.804 56.0085 159.424 55.9438C159.052 55.8791 158.736 55.7861 158.478 55.6649V54.6583C159.084 54.9332 159.787 55.0707 160.588 55.0707C161.34 55.0707 161.885 54.9049 162.225 54.5735C162.573 54.2501 162.746 53.7569 162.746 53.094V52.4755C162.213 53.1142 161.429 53.4335 160.394 53.4335C159.804 53.4335 159.274 53.3042 158.805 53.0455C158.336 52.7868 157.968 52.423 157.702 51.9541C157.435 51.4852 157.301 50.9475 157.301 50.3412C157.301 49.7268 157.431 49.1891 157.69 48.7283C157.956 48.2594 158.32 47.8956 158.781 47.6369C159.25 47.3782 159.775 47.2488 160.357 47.2488C160.899 47.2488 161.356 47.3297 161.728 47.4914C162.108 47.645 162.459 47.9037 162.783 48.2675V47.4307H163.971V52.9606C163.971 53.955 163.692 54.7149 163.135 55.2404C162.585 55.774 161.736 56.0408 160.588 56.0408ZM160.636 52.4634C161.138 52.4634 161.578 52.33 161.958 52.0632C162.346 51.7964 162.609 51.4407 162.746 50.996V49.6863C162.593 49.2336 162.326 48.8779 161.946 48.6192C161.574 48.3605 161.138 48.2311 160.636 48.2311C160.24 48.2311 159.88 48.32 159.557 48.4979C159.242 48.6677 158.991 48.9143 158.805 49.2376C158.627 49.561 158.538 49.9289 158.538 50.3412C158.538 50.7616 158.627 51.1335 158.805 51.4569C158.991 51.7722 159.242 52.0187 159.557 52.1966C159.88 52.3745 160.24 52.4634 160.636 52.4634ZM165.55 47.4307H166.738V48.2675C167.013 47.9199 167.348 47.6652 167.745 47.5035C168.149 47.3337 168.569 47.2488 169.006 47.2488C169.782 47.2488 170.36 47.455 170.74 47.8673C171.12 48.2796 171.31 48.8334 171.31 49.5287V53.2516H170.085V49.65C170.085 48.7041 169.632 48.2311 168.727 48.2311C168.339 48.2311 167.975 48.3241 167.635 48.51C167.304 48.6879 167.017 48.9628 166.774 49.3347V53.2516H165.55V47.4307Z" fill="white"/>
<path d="M42.5764 46.7619L54.4928 59.94V46.7619V1.87366L24.879 27.1906L1.98596 46.7619H42.5764Z" fill="url(#paint0_linear_27_95)" fill-opacity="0.45"/>
<path d="M59.4546 37.9035L71.7892 46.7619H1.98596L54.4928 1.87367V59.94L1.98596 1.87367L25.9728 17.0417" stroke="black" stroke-width="1.10244"/>
<path d="M59.4546 37.9035L71.7892 46.7619H1.98596L54.4928 1.87367V59.94L1.98596 1.87367L25.9728 17.0417" stroke="url(#paint1_linear_27_95)" stroke-width="1.10244"/>
<defs>
<linearGradient id="paint0_linear_27_95" x1="1.07169" y1="27.8418" x2="65.9574" y2="27.8418" gradientUnits="userSpaceOnUse">
<stop stop-color="#3BA1F0"/>
<stop offset="1" stop-color="#7260DF"/>
</linearGradient>
<linearGradient id="paint1_linear_27_95" x1="1.07169" y1="27.8418" x2="65.9574" y2="27.8418" gradientUnits="userSpaceOnUse">
<stop stop-color="#3BA1F0"/>
<stop offset="1" stop-color="#7260DF"/>
</linearGradient>
</defs>
</svg>
