<svg width="25" height="25" viewBox="0 0 39 45" fill="none" xmlns="http://www.w3.org/2000/svg">
<path d="M28.1298 14.3727V30.0585C28.1298 37.8205 21.8376 44.1126 14.0756 44.1126C6.31374 44.1126 0.0214844 37.8205 0.0214844 30.0585C0.0214844 22.2965 6.31374 16.0044 14.0756 16.0044C15.1919 16.0044 16.2778 16.1345 17.3189 16.3804V23.2191C16.336 22.7521 15.2363 22.4909 14.0756 22.4909C9.89614 22.4909 6.50801 25.879 6.50801 30.0585C6.50801 34.238 9.89614 37.6261 14.0756 37.6261C18.2551 37.6261 21.6432 34.238 21.6432 30.0585V0.869141H28.1298C28.1298 6.83981 32.97 11.68 38.9406 11.68V18.1665C34.85 18.1665 31.0911 16.7466 28.1298 14.3727Z" fill="white"/>
</svg>
