<svg width="450" height="450" viewBox="0 0 595 652" fill="none" xmlns="http://www.w3.org/2000/svg">
<g clip-path="url(#clip0_2667_379)">
<g filter="url(#filter0_b_2667_379)">
<rect x="147" y="79" width="321.6" height="536" rx="18.1801" fill="url(#paint0_linear_2667_379)" fill-opacity="0.3"/>
<rect x="148.567" y="80.5673" width="318.466" height="532.865" rx="16.6129" stroke="url(#paint1_linear_2667_379)" stroke-width="3.1345"/>
</g>
<path d="M235.989 245.753C235.989 251.688 234.537 256.108 231.632 259.012C228.727 261.896 224.715 263.338 219.596 263.338C214.497 263.338 210.495 261.896 207.59 259.012C204.707 256.108 203.265 251.688 203.265 245.753C203.265 244.876 203.265 243.946 203.265 242.964C203.265 241.961 203.265 240.916 203.265 239.829V216.446H210.067V240.581C210.067 241.584 210.067 242.514 210.067 243.371C210.067 244.228 210.067 245.012 210.067 245.722C210.067 249.901 210.861 252.921 212.449 254.781C214.037 256.62 216.419 257.539 219.596 257.539C222.793 257.539 225.185 256.62 226.774 254.781C228.383 252.921 229.187 249.901 229.187 245.722V216.446H235.989V245.753ZM244.592 262.68V216.446H251.3V262.68H244.592ZM289.734 263.307C286.704 263.307 283.988 262.836 281.585 261.896C279.203 260.956 277.311 259.587 275.911 257.79C274.532 255.972 273.843 253.788 273.843 251.239C273.843 249.024 274.417 247.059 275.567 245.346C276.716 243.611 278.356 241.971 280.488 240.425C282.64 238.857 285.2 237.248 288.167 235.598C290.967 234.03 293.036 232.442 294.374 230.833C295.711 229.224 296.38 227.511 296.38 225.693C296.38 224.522 296.118 223.561 295.596 222.809C295.094 222.036 294.426 221.461 293.59 221.085C292.775 220.709 291.887 220.521 290.926 220.521C290.006 220.521 289.097 220.709 288.199 221.085C287.321 221.44 286.6 222.004 286.036 222.777C285.492 223.53 285.221 224.491 285.221 225.661C285.221 227.187 285.68 228.743 286.6 230.332C287.54 231.92 288.805 233.727 290.393 235.754L306.629 255.972C307.403 256.933 308.092 257.55 308.698 257.821C309.304 258.093 309.816 258.229 310.234 258.229C310.631 258.229 311.018 258.187 311.394 258.103C311.791 258.02 312.063 257.936 312.209 257.853V262.648C312.125 262.69 311.822 262.774 311.3 262.899C310.777 263.045 310.109 263.119 309.294 263.119C308.353 263.119 307.35 262.889 306.285 262.429C305.24 261.948 304.258 261.154 303.338 260.047L286.098 238.763C285.054 237.447 284.019 236.078 282.995 234.657C281.992 233.236 281.156 231.753 280.488 230.206C279.84 228.66 279.516 227.04 279.516 225.348C279.516 223.53 280.017 221.921 281.021 220.521C282.044 219.1 283.413 217.992 285.127 217.198C286.84 216.404 288.752 216.007 290.863 216.007C293.015 216.007 294.906 216.404 296.536 217.198C298.187 217.971 299.483 219.058 300.423 220.458C301.363 221.858 301.834 223.488 301.834 225.348C301.834 227.354 301.395 229.182 300.517 230.833C299.639 232.463 298.386 233.989 296.756 235.41C295.147 236.81 293.203 238.157 290.926 239.453C287.478 241.438 284.813 243.277 282.933 244.97C281.052 246.662 280.112 248.648 280.112 250.925C280.112 252.388 280.54 253.684 281.397 254.812C282.274 255.941 283.445 256.829 284.907 257.476C286.37 258.103 287.99 258.417 289.766 258.417C292.691 258.417 295.115 257.999 297.038 257.163C298.981 256.327 300.611 255.22 301.928 253.84C303.39 252.273 304.488 250.466 305.219 248.418C305.95 246.349 306.316 244.029 306.316 241.459H311.927C311.927 243.862 311.655 246.046 311.112 248.01C310.568 249.975 309.837 251.751 308.918 253.339C307.998 254.906 306.932 256.296 305.72 257.508C304.049 259.2 301.886 260.59 299.232 261.677C296.599 262.763 293.433 263.307 289.734 263.307ZM368.96 245.753C368.96 251.688 367.508 256.108 364.604 259.012C361.699 261.896 357.687 263.338 352.567 263.338C347.468 263.338 343.467 261.896 340.562 259.012C337.678 256.108 336.236 251.688 336.236 245.753C336.236 244.876 336.236 243.946 336.236 242.964C336.236 241.961 336.236 240.916 336.236 239.829V216.446H343.038V240.581C343.038 241.584 343.038 242.514 343.038 243.371C343.038 244.228 343.038 245.012 343.038 245.722C343.038 249.901 343.832 252.921 345.42 254.781C347.009 256.62 349.391 257.539 352.567 257.539C355.764 257.539 358.157 256.62 359.745 254.781C361.354 252.921 362.159 249.901 362.159 245.722V216.446H368.96V245.753ZM390.101 237.039L390.039 242.588L375.244 216.446H382.861L394.364 237.98H390.697L402.106 216.446H409.723L395.054 242.588L395.022 237.039L410.193 262.68H402.545L390.571 241.647H394.49L382.484 262.68H374.868L390.101 237.039Z" fill="white"/>
<path d="M193.681 297.908C193.681 299.347 193.345 300.415 192.673 301.112C192.001 301.804 191.066 302.15 189.867 302.15C188.674 302.15 187.741 301.804 187.069 301.112C186.397 300.415 186.061 299.347 186.061 297.908C186.061 297.687 186.061 297.454 186.061 297.208C186.061 296.957 186.061 296.694 186.061 296.418V290.904H187.347V296.531C187.347 296.792 187.347 297.035 187.347 297.261C187.347 297.486 187.347 297.694 187.347 297.885C187.347 298.998 187.56 299.796 187.987 300.277C188.413 300.754 189.04 300.992 189.867 300.992C190.7 300.992 191.329 300.754 191.755 300.277C192.187 299.796 192.402 298.998 192.402 297.885V290.904H193.681V297.908ZM198.947 302.15C198.465 302.15 198.019 302.1 197.608 302C197.201 301.895 196.845 301.744 196.539 301.549C196.238 301.348 196.003 301.102 195.832 300.811C195.667 300.521 195.584 300.187 195.584 299.811C195.584 299.771 195.584 299.731 195.584 299.69C195.584 299.645 195.584 299.608 195.584 299.578H196.87C196.87 299.608 196.87 299.633 196.87 299.653C196.87 299.673 196.87 299.703 196.87 299.743C196.87 300.149 197.058 300.46 197.435 300.676C197.811 300.887 198.325 300.992 198.977 300.992C199.378 300.992 199.737 300.952 200.053 300.872C200.369 300.791 200.617 300.668 200.797 300.503C200.983 300.337 201.076 300.129 201.076 299.879C201.076 299.462 200.88 299.166 200.489 298.991C200.103 298.81 199.523 298.655 198.751 298.524C198.345 298.454 197.959 298.364 197.593 298.254C197.226 298.138 196.9 297.99 196.615 297.81C196.334 297.629 196.111 297.406 195.945 297.14C195.785 296.869 195.704 296.546 195.704 296.17C195.704 295.683 195.847 295.272 196.133 294.936C196.424 294.595 196.815 294.337 197.307 294.161C197.798 293.981 198.345 293.89 198.947 293.89C199.528 293.89 200.065 293.983 200.557 294.169C201.048 294.354 201.442 294.625 201.738 294.981C202.039 295.332 202.189 295.766 202.189 296.283C202.189 296.303 202.189 296.328 202.189 296.358C202.189 296.383 202.189 296.408 202.189 296.433H200.91C200.91 296.408 200.91 296.388 200.91 296.373C200.91 296.358 200.91 296.34 200.91 296.32C200.91 296.029 200.817 295.791 200.632 295.606C200.446 295.415 200.206 295.275 199.91 295.184C199.614 295.089 199.298 295.041 198.962 295.041C198.646 295.041 198.335 295.077 198.029 295.147C197.723 295.212 197.47 295.322 197.269 295.478C197.069 295.633 196.968 295.846 196.968 296.117C196.968 296.388 197.061 296.606 197.247 296.772C197.437 296.932 197.703 297.065 198.044 297.17C198.39 297.271 198.796 297.363 199.263 297.449C199.679 297.524 200.073 297.619 200.444 297.735C200.815 297.845 201.141 297.988 201.422 298.163C201.708 298.339 201.931 298.562 202.091 298.833C202.257 299.099 202.339 299.425 202.339 299.811C202.339 300.202 202.249 300.543 202.069 300.834C201.893 301.125 201.647 301.368 201.331 301.564C201.02 301.759 200.659 301.905 200.248 302C199.842 302.1 199.408 302.15 198.947 302.15ZM204.74 298.517V297.373H210.916L210.691 297.75C210.691 297.72 210.691 297.692 210.691 297.667C210.691 297.637 210.691 297.609 210.691 297.584C210.691 297.123 210.593 296.701 210.397 296.32C210.207 295.934 209.921 295.626 209.54 295.395C209.158 295.164 208.687 295.049 208.125 295.049C207.559 295.049 207.059 295.169 206.628 295.41C206.197 295.651 205.861 295.992 205.62 296.433C205.379 296.869 205.259 297.391 205.259 297.998C205.259 298.615 205.374 299.146 205.605 299.593C205.841 300.039 206.174 300.383 206.606 300.623C207.037 300.864 207.548 300.984 208.14 300.984C208.562 300.984 208.928 300.942 209.239 300.857C209.55 300.766 209.805 300.648 210.006 300.503C210.212 300.353 210.367 300.19 210.472 300.014C210.578 299.838 210.64 299.663 210.66 299.487H211.939C211.914 299.808 211.814 300.127 211.638 300.443C211.463 300.759 211.215 301.047 210.894 301.308C210.573 301.564 210.179 301.769 209.713 301.925C209.246 302.08 208.709 302.158 208.103 302.158C207.3 302.158 206.593 301.982 205.981 301.631C205.369 301.28 204.888 300.794 204.537 300.172C204.191 299.55 204.018 298.835 204.018 298.028C204.018 297.21 204.193 296.493 204.544 295.876C204.895 295.255 205.379 294.768 205.996 294.417C206.613 294.066 207.318 293.89 208.11 293.89C208.918 293.89 209.617 294.066 210.209 294.417C210.801 294.768 211.257 295.25 211.578 295.861C211.899 296.468 212.06 297.16 212.06 297.938C212.06 298.018 212.057 298.123 212.052 298.254C212.047 298.384 212.04 298.472 212.03 298.517H204.74ZM214.053 302V294.011H215.332V296.463L214.911 296.313C214.941 296.017 215.016 295.726 215.136 295.44C215.257 295.149 215.422 294.888 215.633 294.658C215.848 294.422 216.117 294.236 216.438 294.101C216.759 293.961 217.135 293.89 217.566 293.89C217.887 293.89 218.148 293.918 218.348 293.973C218.554 294.023 218.682 294.063 218.732 294.094L218.401 295.35C218.351 295.315 218.248 295.27 218.093 295.214C217.942 295.159 217.727 295.132 217.446 295.132C217.029 295.132 216.683 295.207 216.408 295.357C216.137 295.508 215.921 295.708 215.761 295.959C215.605 296.205 215.495 296.473 215.43 296.764C215.364 297.055 215.332 297.343 215.332 297.629V302H214.053ZM223.83 302V290.904H225.094V302H223.83ZM233.082 302V298.171C233.082 297.94 233.082 297.752 233.082 297.607C233.082 297.456 233.082 297.313 233.082 297.178C233.082 296.762 233.012 296.398 232.872 296.087C232.731 295.776 232.51 295.535 232.209 295.365C231.909 295.194 231.515 295.109 231.028 295.109C230.602 295.109 230.206 295.219 229.84 295.44C229.479 295.656 229.188 295.949 228.967 296.32C228.752 296.686 228.644 297.098 228.644 297.554L227.914 297.276C227.914 296.649 228.067 296.08 228.373 295.568C228.684 295.056 229.095 294.65 229.607 294.349C230.123 294.043 230.685 293.89 231.292 293.89C231.909 293.89 232.448 294.008 232.909 294.244C233.371 294.48 233.727 294.818 233.977 295.26C234.233 295.696 234.361 296.222 234.361 296.839C234.361 297.06 234.361 297.301 234.361 297.562C234.361 297.822 234.361 298.066 234.361 298.291V302H233.082ZM227.365 302V294.011H228.644V302H227.365ZM239.531 302.12C239.285 302.12 239.045 302.093 238.809 302.038C238.573 301.982 238.36 301.885 238.17 301.744C237.984 301.599 237.836 301.396 237.726 301.135C237.615 300.869 237.56 300.528 237.56 300.112C237.56 300.006 237.56 299.899 237.56 299.788C237.56 299.673 237.56 299.553 237.56 299.427V295.139H235.612V294.011H236.861C237.031 294.011 237.164 294.006 237.259 293.996C237.355 293.981 237.422 293.948 237.462 293.898C237.508 293.843 237.535 293.76 237.545 293.65C237.555 293.534 237.56 293.376 237.56 293.176V291.363H238.847V294.011H241.344V295.139H238.847V299.013C238.847 299.124 238.847 299.232 238.847 299.337C238.847 299.442 238.847 299.54 238.847 299.63C238.847 300.057 238.897 300.39 238.997 300.631C239.102 300.872 239.336 300.992 239.697 300.992C239.842 300.992 239.98 300.979 240.11 300.954C240.241 300.929 240.339 300.904 240.404 300.879V301.992C240.319 302.023 240.198 302.05 240.043 302.075C239.892 302.105 239.722 302.12 239.531 302.12ZM243.133 298.517V297.373H249.309L249.083 297.75C249.083 297.72 249.083 297.692 249.083 297.667C249.083 297.637 249.083 297.609 249.083 297.584C249.083 297.123 248.985 296.701 248.79 296.32C248.599 295.934 248.313 295.626 247.932 295.395C247.551 295.164 247.08 295.049 246.518 295.049C245.951 295.049 245.452 295.169 245.021 295.41C244.59 295.651 244.254 295.992 244.013 296.433C243.772 296.869 243.652 297.391 243.652 297.998C243.652 298.615 243.767 299.146 243.998 299.593C244.234 300.039 244.567 300.383 244.998 300.623C245.43 300.864 245.941 300.984 246.533 300.984C246.954 300.984 247.32 300.942 247.631 300.857C247.942 300.766 248.198 300.648 248.399 300.503C248.604 300.353 248.76 300.19 248.865 300.014C248.97 299.838 249.033 299.663 249.053 299.487H250.332C250.307 299.808 250.207 300.127 250.031 300.443C249.856 300.759 249.607 301.047 249.286 301.308C248.965 301.564 248.572 301.769 248.105 301.925C247.639 302.08 247.102 302.158 246.495 302.158C245.693 302.158 244.986 301.982 244.374 301.631C243.762 301.28 243.281 300.794 242.93 300.172C242.584 299.55 242.411 298.835 242.411 298.028C242.411 297.21 242.586 296.493 242.937 295.876C243.288 295.255 243.772 294.768 244.389 294.417C245.006 294.066 245.711 293.89 246.503 293.89C247.31 293.89 248.01 294.066 248.602 294.417C249.194 294.768 249.65 295.25 249.971 295.861C250.292 296.468 250.452 297.16 250.452 297.938C250.452 298.018 250.45 298.123 250.445 298.254C250.44 298.384 250.432 298.472 250.422 298.517H243.133ZM252.446 302V294.011H253.725V296.463L253.303 296.313C253.333 296.017 253.409 295.726 253.529 295.44C253.649 295.149 253.815 294.888 254.026 294.658C254.241 294.422 254.509 294.236 254.83 294.101C255.151 293.961 255.528 293.89 255.959 293.89C256.28 293.89 256.541 293.918 256.741 293.973C256.947 294.023 257.075 294.063 257.125 294.094L256.794 295.35C256.744 295.315 256.641 295.27 256.485 295.214C256.335 295.159 256.119 295.132 255.839 295.132C255.422 295.132 255.076 295.207 254.8 295.357C254.53 295.508 254.314 295.708 254.153 295.959C253.998 296.205 253.888 296.473 253.822 296.764C253.757 297.055 253.725 297.343 253.725 297.629V302H252.446ZM259.485 302V295.139H257.739V294.011H259.485V292.98C259.485 292.624 259.525 292.298 259.605 292.002C259.69 291.701 259.811 291.435 259.966 291.205C260.127 290.974 260.32 290.778 260.545 290.618C260.771 290.458 261.027 290.337 261.313 290.257C261.604 290.172 261.92 290.129 262.261 290.129C262.506 290.129 262.702 290.144 262.847 290.174C262.993 290.204 263.091 290.232 263.141 290.257V291.385C263.081 291.365 262.98 291.343 262.84 291.318C262.699 291.293 262.549 291.28 262.389 291.28C262.047 291.28 261.769 291.333 261.553 291.438C261.343 291.543 261.18 291.689 261.065 291.874C260.949 292.055 260.869 292.26 260.824 292.491C260.784 292.722 260.764 292.963 260.764 293.213V294.011H263.096V295.139H260.764V302H259.485ZM266.962 302.15C266.355 302.15 265.823 302.055 265.367 301.865C264.915 301.674 264.564 301.401 264.314 301.045C264.063 300.684 263.938 300.252 263.938 299.751C263.938 299.229 264.073 298.795 264.344 298.449C264.615 298.098 264.996 297.825 265.487 297.629C265.979 297.434 266.55 297.303 267.202 297.238C268.185 297.138 268.885 297.04 269.301 296.945C269.718 296.844 269.926 296.684 269.926 296.463C269.926 296.458 269.926 296.456 269.926 296.456C269.926 296.451 269.926 296.446 269.926 296.441C269.926 295.979 269.738 295.636 269.361 295.41C268.985 295.179 268.441 295.064 267.729 295.064C266.987 295.064 266.41 295.194 265.999 295.455C265.588 295.711 265.382 296.127 265.382 296.704H264.118C264.118 296.107 264.271 295.601 264.577 295.184C264.883 294.763 265.307 294.442 265.848 294.221C266.395 294.001 267.024 293.89 267.737 293.89C268.389 293.89 268.975 293.991 269.497 294.191C270.023 294.387 270.44 294.68 270.746 295.071C271.057 295.458 271.212 295.937 271.212 296.508C271.212 296.614 271.212 296.719 271.212 296.824C271.212 296.925 271.212 297.027 271.212 297.133V300.495C271.212 300.671 271.22 300.841 271.235 301.007C271.25 301.172 271.275 301.318 271.31 301.443C271.355 301.594 271.405 301.717 271.46 301.812C271.515 301.902 271.561 301.965 271.596 302H270.309C270.284 301.975 270.247 301.917 270.196 301.827C270.146 301.732 270.099 301.621 270.054 301.496C270.018 301.396 269.991 301.27 269.971 301.12C269.951 300.964 269.941 300.804 269.941 300.638L270.151 300.781C269.996 301.052 269.768 301.29 269.467 301.496C269.171 301.702 268.812 301.862 268.391 301.977C267.97 302.093 267.493 302.15 266.962 302.15ZM267.165 300.999C267.681 300.999 268.148 300.922 268.564 300.766C268.98 300.606 269.311 300.37 269.557 300.059C269.803 299.748 269.926 299.362 269.926 298.901V297.313L270.212 297.795C269.891 297.92 269.489 298.023 269.008 298.103C268.531 298.178 268.032 298.241 267.511 298.291C266.754 298.361 266.182 298.494 265.796 298.69C265.414 298.886 265.224 299.214 265.224 299.675C265.224 300.112 265.382 300.443 265.698 300.668C266.014 300.889 266.503 300.999 267.165 300.999ZM277.131 302.15C276.368 302.15 275.676 301.985 275.054 301.654C274.432 301.318 273.938 300.839 273.572 300.217C273.211 299.595 273.031 298.855 273.031 297.998C273.031 297.14 273.211 296.406 273.572 295.794C273.938 295.177 274.432 294.705 275.054 294.379C275.676 294.053 276.368 293.89 277.131 293.89C277.712 293.89 278.231 293.981 278.688 294.161C279.144 294.337 279.53 294.572 279.846 294.868C280.162 295.164 280.403 295.49 280.569 295.846C280.739 296.197 280.824 296.548 280.824 296.9C280.824 296.905 280.824 296.912 280.824 296.922C280.824 296.932 280.824 296.942 280.824 296.952H279.553C279.553 296.927 279.55 296.9 279.545 296.869C279.54 296.834 279.535 296.799 279.53 296.764C279.49 296.428 279.362 296.135 279.147 295.884C278.931 295.628 278.65 295.428 278.304 295.282C277.958 295.137 277.564 295.064 277.123 295.064C276.627 295.064 276.165 295.172 275.739 295.387C275.318 295.598 274.977 295.922 274.716 296.358C274.46 296.789 274.332 297.336 274.332 297.998C274.332 298.655 274.46 299.204 274.716 299.645C274.972 300.087 275.31 300.42 275.731 300.646C276.158 300.867 276.622 300.977 277.123 300.977C277.665 300.977 278.111 300.892 278.462 300.721C278.813 300.551 279.077 300.325 279.252 300.044C279.433 299.758 279.533 299.452 279.553 299.126H280.824C280.824 299.487 280.744 299.848 280.584 300.21C280.423 300.566 280.187 300.892 279.876 301.188C279.566 301.478 279.179 301.712 278.718 301.887C278.262 302.063 277.732 302.15 277.131 302.15ZM283.23 298.517V297.373H289.406L289.18 297.75C289.18 297.72 289.18 297.692 289.18 297.667C289.18 297.637 289.18 297.609 289.18 297.584C289.18 297.123 289.083 296.701 288.887 296.32C288.696 295.934 288.411 295.626 288.029 295.395C287.648 295.164 287.177 295.049 286.615 295.049C286.048 295.049 285.549 295.169 285.118 295.41C284.687 295.651 284.351 295.992 284.11 296.433C283.869 296.869 283.749 297.391 283.749 297.998C283.749 298.615 283.864 299.146 284.095 299.593C284.331 300.039 284.664 300.383 285.096 300.623C285.527 300.864 286.038 300.984 286.63 300.984C287.051 300.984 287.418 300.942 287.729 300.857C288.039 300.766 288.295 300.648 288.496 300.503C288.701 300.353 288.857 300.19 288.962 300.014C289.068 299.838 289.13 299.663 289.15 299.487H290.429C290.404 299.808 290.304 300.127 290.128 300.443C289.953 300.759 289.705 301.047 289.384 301.308C289.063 301.564 288.669 301.769 288.202 301.925C287.736 302.08 287.199 302.158 286.593 302.158C285.79 302.158 285.083 301.982 284.471 301.631C283.859 301.28 283.378 300.794 283.027 300.172C282.681 299.55 282.508 298.835 282.508 298.028C282.508 297.21 282.683 296.493 283.034 295.876C283.385 295.255 283.869 294.768 284.486 294.417C285.103 294.066 285.808 293.89 286.6 293.89C287.408 293.89 288.107 294.066 288.699 294.417C289.291 294.768 289.747 295.25 290.068 295.861C290.389 296.468 290.55 297.16 290.55 297.938C290.55 298.018 290.547 298.123 290.542 298.254C290.537 298.384 290.53 298.472 290.519 298.517H283.23ZM296.718 298.517V297.373H302.894L302.669 297.75C302.669 297.72 302.669 297.692 302.669 297.667C302.669 297.637 302.669 297.609 302.669 297.584C302.669 297.123 302.571 296.701 302.375 296.32C302.185 295.934 301.899 295.626 301.518 295.395C301.136 295.164 300.665 295.049 300.103 295.049C299.537 295.049 299.038 295.169 298.606 295.41C298.175 295.651 297.839 295.992 297.598 296.433C297.357 296.869 297.237 297.391 297.237 297.998C297.237 298.615 297.352 299.146 297.583 299.593C297.819 300.039 298.152 300.383 298.584 300.623C299.015 300.864 299.527 300.984 300.118 300.984C300.54 300.984 300.906 300.942 301.217 300.857C301.528 300.766 301.783 300.648 301.984 300.503C302.19 300.353 302.345 300.19 302.45 300.014C302.556 299.838 302.618 299.663 302.638 299.487H303.917C303.892 299.808 303.792 300.127 303.616 300.443C303.441 300.759 303.193 301.047 302.872 301.308C302.551 301.564 302.157 301.769 301.691 301.925C301.224 302.08 300.688 302.158 300.081 302.158C299.278 302.158 298.571 301.982 297.959 301.631C297.347 301.28 296.866 300.794 296.515 300.172C296.169 299.55 295.996 298.835 295.996 298.028C295.996 297.21 296.171 296.493 296.522 295.876C296.874 295.255 297.357 294.768 297.974 294.417C298.591 294.066 299.296 293.89 300.088 293.89C300.896 293.89 301.595 294.066 302.187 294.417C302.779 294.768 303.235 295.25 303.556 295.861C303.877 296.468 304.038 297.16 304.038 297.938C304.038 298.018 304.035 298.123 304.03 298.254C304.025 298.384 304.018 298.472 304.008 298.517H296.718ZM317.323 297.908C317.323 299.347 316.987 300.415 316.315 301.112C315.643 301.804 314.707 302.15 313.509 302.15C312.315 302.15 311.382 301.804 310.71 301.112C310.038 300.415 309.702 299.347 309.702 297.908C309.702 297.687 309.702 297.454 309.702 297.208C309.702 296.957 309.702 296.694 309.702 296.418V290.904H310.989V296.531C310.989 296.792 310.989 297.035 310.989 297.261C310.989 297.486 310.989 297.694 310.989 297.885C310.989 298.998 311.202 299.796 311.628 300.277C312.054 300.754 312.681 300.992 313.509 300.992C314.341 300.992 314.971 300.754 315.397 300.277C315.828 299.796 316.044 298.998 316.044 297.885V290.904H317.323V297.908ZM322.588 302.15C322.107 302.15 321.66 302.1 321.249 302C320.843 301.895 320.487 301.744 320.181 301.549C319.88 301.348 319.644 301.102 319.474 300.811C319.308 300.521 319.225 300.187 319.225 299.811C319.225 299.771 319.225 299.731 319.225 299.69C319.225 299.645 319.225 299.608 319.225 299.578H320.512C320.512 299.608 320.512 299.633 320.512 299.653C320.512 299.673 320.512 299.703 320.512 299.743C320.512 300.149 320.7 300.46 321.076 300.676C321.452 300.887 321.966 300.992 322.618 300.992C323.019 300.992 323.378 300.952 323.694 300.872C324.01 300.791 324.258 300.668 324.439 300.503C324.624 300.337 324.717 300.129 324.717 299.879C324.717 299.462 324.521 299.166 324.13 298.991C323.744 298.81 323.165 298.655 322.393 298.524C321.986 298.454 321.6 298.364 321.234 298.254C320.868 298.138 320.542 297.99 320.256 297.81C319.975 297.629 319.752 297.406 319.587 297.14C319.426 296.869 319.346 296.546 319.346 296.17C319.346 295.683 319.489 295.272 319.775 294.936C320.065 294.595 320.457 294.337 320.948 294.161C321.44 293.981 321.986 293.89 322.588 293.89C323.17 293.89 323.707 293.983 324.198 294.169C324.69 294.354 325.083 294.625 325.379 294.981C325.68 295.332 325.83 295.766 325.83 296.283C325.83 296.303 325.83 296.328 325.83 296.358C325.83 296.383 325.83 296.408 325.83 296.433H324.552C324.552 296.408 324.552 296.388 324.552 296.373C324.552 296.358 324.552 296.34 324.552 296.32C324.552 296.029 324.459 295.791 324.273 295.606C324.088 295.415 323.847 295.275 323.551 295.184C323.255 295.089 322.939 295.041 322.603 295.041C322.287 295.041 321.976 295.077 321.67 295.147C321.364 295.212 321.111 295.322 320.911 295.478C320.71 295.633 320.61 295.846 320.61 296.117C320.61 296.388 320.702 296.606 320.888 296.772C321.079 296.932 321.344 297.065 321.685 297.17C322.031 297.271 322.438 297.363 322.904 297.449C323.32 297.524 323.714 297.619 324.085 297.735C324.456 297.845 324.782 297.988 325.063 298.163C325.349 298.339 325.572 298.562 325.733 298.833C325.898 299.099 325.981 299.425 325.981 299.811C325.981 300.202 325.891 300.543 325.71 300.834C325.535 301.125 325.289 301.368 324.973 301.564C324.662 301.759 324.301 301.905 323.89 302C323.483 302.1 323.05 302.15 322.588 302.15ZM328.381 298.517V297.373H334.558L334.332 297.75C334.332 297.72 334.332 297.692 334.332 297.667C334.332 297.637 334.332 297.609 334.332 297.584C334.332 297.123 334.234 296.701 334.039 296.32C333.848 295.934 333.562 295.626 333.181 295.395C332.8 295.164 332.328 295.049 331.767 295.049C331.2 295.049 330.701 295.169 330.27 295.41C329.838 295.651 329.502 295.992 329.262 296.433C329.021 296.869 328.9 297.391 328.9 297.998C328.9 298.615 329.016 299.146 329.247 299.593C329.482 300.039 329.816 300.383 330.247 300.623C330.678 300.864 331.19 300.984 331.782 300.984C332.203 300.984 332.569 300.942 332.88 300.857C333.191 300.766 333.447 300.648 333.647 300.503C333.853 300.353 334.008 300.19 334.114 300.014C334.219 299.838 334.282 299.663 334.302 299.487H335.581C335.556 299.808 335.455 300.127 335.28 300.443C335.104 300.759 334.856 301.047 334.535 301.308C334.214 301.564 333.82 301.769 333.354 301.925C332.888 302.08 332.351 302.158 331.744 302.158C330.942 302.158 330.235 301.982 329.623 301.631C329.011 301.28 328.529 300.794 328.178 300.172C327.832 299.55 327.659 298.835 327.659 298.028C327.659 297.21 327.835 296.493 328.186 295.876C328.537 295.255 329.021 294.768 329.638 294.417C330.255 294.066 330.959 293.89 331.752 293.89C332.559 293.89 333.259 294.066 333.85 294.417C334.442 294.768 334.899 295.25 335.22 295.861C335.541 296.468 335.701 297.16 335.701 297.938C335.701 298.018 335.699 298.123 335.694 298.254C335.689 298.384 335.681 298.472 335.671 298.517H328.381ZM337.694 302V294.011H338.973V296.463L338.552 296.313C338.582 296.017 338.657 295.726 338.778 295.44C338.898 295.149 339.064 294.888 339.274 294.658C339.49 294.422 339.758 294.236 340.079 294.101C340.4 293.961 340.776 293.89 341.208 293.89C341.529 293.89 341.789 293.918 341.99 293.973C342.196 294.023 342.323 294.063 342.374 294.094L342.043 295.35C341.992 295.315 341.89 295.27 341.734 295.214C341.584 295.159 341.368 295.132 341.087 295.132C340.671 295.132 340.325 295.207 340.049 295.357C339.778 295.508 339.563 295.708 339.402 295.959C339.247 296.205 339.136 296.473 339.071 296.764C339.006 297.055 338.973 297.343 338.973 297.629V302H337.694ZM348.126 292.032L348.705 291.303V296.313L348.389 295.869H352.647V296.997H348.389L348.705 296.553V301.601L348.126 300.872H353.482V302H347.419V290.904H353.482V292.032H348.126ZM357.816 297.75L357.801 298.359L354.694 294.011H356.094L358.689 297.599L357.922 297.577L360.427 294.011H361.803L358.794 298.163L358.877 297.795L361.864 302H360.457L357.877 298.464L358.719 298.269L355.966 302H354.589L357.816 297.75ZM363.481 305.287V294.011H364.759V305.287H363.481ZM367.385 302.15C366.768 302.15 366.191 302 365.655 301.699C365.118 301.393 364.682 300.974 364.346 300.443C364.015 299.911 363.849 299.304 363.849 298.622C363.849 298.607 363.849 298.595 363.849 298.585C363.849 298.575 363.849 298.562 363.849 298.547L364.767 298.524C364.767 298.534 364.767 298.547 364.767 298.562C364.767 298.572 364.767 298.582 364.767 298.592C364.767 299.023 364.88 299.417 365.106 299.773C365.336 300.129 365.637 300.413 366.008 300.623C366.379 300.834 366.778 300.939 367.204 300.939C367.912 300.939 368.498 300.699 368.965 300.217C369.436 299.731 369.672 298.991 369.672 297.998C369.672 297 369.439 296.263 368.972 295.786C368.506 295.305 367.917 295.064 367.204 295.064C366.778 295.064 366.379 295.169 366.008 295.38C365.637 295.586 365.336 295.864 365.106 296.215C364.88 296.566 364.767 296.96 364.767 297.396L363.849 297.366C363.849 296.679 364.015 296.075 364.346 295.553C364.682 295.031 365.118 294.625 365.655 294.334C366.191 294.038 366.768 293.89 367.385 293.89C368.032 293.89 368.629 294.051 369.175 294.372C369.722 294.688 370.161 295.152 370.492 295.764C370.823 296.375 370.988 297.12 370.988 297.998C370.988 298.891 370.825 299.648 370.499 300.27C370.173 300.887 369.737 301.356 369.19 301.677C368.644 301.992 368.042 302.15 367.385 302.15ZM373.401 298.517V297.373H379.577L379.351 297.75C379.351 297.72 379.351 297.692 379.351 297.667C379.351 297.637 379.351 297.609 379.351 297.584C379.351 297.123 379.253 296.701 379.058 296.32C378.867 295.934 378.581 295.626 378.2 295.395C377.819 295.164 377.348 295.049 376.786 295.049C376.219 295.049 375.72 295.169 375.289 295.41C374.858 295.651 374.522 295.992 374.281 296.433C374.04 296.869 373.92 297.391 373.92 297.998C373.92 298.615 374.035 299.146 374.266 299.593C374.502 300.039 374.835 300.383 375.266 300.623C375.698 300.864 376.209 300.984 376.801 300.984C377.222 300.984 377.588 300.942 377.899 300.857C378.21 300.766 378.466 300.648 378.667 300.503C378.872 300.353 379.028 300.19 379.133 300.014C379.238 299.838 379.301 299.663 379.321 299.487H380.6C380.575 299.808 380.475 300.127 380.299 300.443C380.124 300.759 379.875 301.047 379.554 301.308C379.233 301.564 378.84 301.769 378.373 301.925C377.907 302.08 377.37 302.158 376.763 302.158C375.961 302.158 375.254 301.982 374.642 301.631C374.03 301.28 373.549 300.794 373.198 300.172C372.852 299.55 372.679 298.835 372.679 298.028C372.679 297.21 372.854 296.493 373.205 295.876C373.556 295.255 374.04 294.768 374.657 294.417C375.274 294.066 375.979 293.89 376.771 293.89C377.578 293.89 378.278 294.066 378.87 294.417C379.462 294.768 379.918 295.25 380.239 295.861C380.56 296.468 380.72 297.16 380.72 297.938C380.72 298.018 380.718 298.123 380.713 298.254C380.708 298.384 380.7 298.472 380.69 298.517H373.401ZM382.714 302V294.011H383.993V296.463L383.571 296.313C383.601 296.017 383.677 295.726 383.797 295.44C383.917 295.149 384.083 294.888 384.293 294.658C384.509 294.422 384.777 294.236 385.098 294.101C385.419 293.961 385.796 293.89 386.227 293.89C386.548 293.89 386.809 293.918 387.009 293.973C387.215 294.023 387.343 294.063 387.393 294.094L387.062 295.35C387.012 295.315 386.909 295.27 386.753 295.214C386.603 295.159 386.387 295.132 386.106 295.132C385.69 295.132 385.344 295.207 385.068 295.357C384.798 295.508 384.582 295.708 384.421 295.959C384.266 296.205 384.156 296.473 384.09 296.764C384.025 297.055 383.993 297.343 383.993 297.629V302H382.714ZM388.842 302V294.011H390.106V302H388.842ZM389.482 292.175C389.246 292.175 389.041 292.11 388.865 291.98C388.694 291.844 388.609 291.661 388.609 291.43C388.609 291.205 388.694 291.027 388.865 290.896C389.041 290.761 389.246 290.693 389.482 290.693C389.718 290.693 389.921 290.761 390.091 290.896C390.262 291.027 390.347 291.205 390.347 291.43C390.347 291.661 390.262 291.844 390.091 291.98C389.921 292.11 389.718 292.175 389.482 292.175ZM392.898 298.517V297.373H399.075L398.849 297.75C398.849 297.72 398.849 297.692 398.849 297.667C398.849 297.637 398.849 297.609 398.849 297.584C398.849 297.123 398.751 296.701 398.555 296.32C398.365 295.934 398.079 295.626 397.698 295.395C397.317 295.164 396.845 295.049 396.284 295.049C395.717 295.049 395.218 295.169 394.787 295.41C394.355 295.651 394.019 295.992 393.778 296.433C393.538 296.869 393.417 297.391 393.417 297.998C393.417 298.615 393.533 299.146 393.763 299.593C393.999 300.039 394.333 300.383 394.764 300.623C395.195 300.864 395.707 300.984 396.299 300.984C396.72 300.984 397.086 300.942 397.397 300.857C397.708 300.766 397.964 300.648 398.164 300.503C398.37 300.353 398.525 300.19 398.631 300.014C398.736 299.838 398.799 299.663 398.819 299.487H400.098C400.073 299.808 399.972 300.127 399.797 300.443C399.621 300.759 399.373 301.047 399.052 301.308C398.731 301.564 398.337 301.769 397.871 301.925C397.404 302.08 396.868 302.158 396.261 302.158C395.459 302.158 394.751 301.982 394.14 301.631C393.528 301.28 393.046 300.794 392.695 300.172C392.349 299.55 392.176 298.835 392.176 298.028C392.176 297.21 392.352 296.493 392.703 295.876C393.054 295.255 393.538 294.768 394.155 294.417C394.771 294.066 395.476 293.89 396.269 293.89C397.076 293.89 397.776 294.066 398.367 294.417C398.959 294.768 399.416 295.25 399.737 295.861C400.058 296.468 400.218 297.16 400.218 297.938C400.218 298.018 400.215 298.123 400.21 298.254C400.205 298.384 400.198 298.472 400.188 298.517H392.898ZM407.929 302V298.171C407.929 297.94 407.929 297.752 407.929 297.607C407.929 297.456 407.929 297.313 407.929 297.178C407.929 296.762 407.858 296.398 407.718 296.087C407.578 295.776 407.357 295.535 407.056 295.365C406.755 295.194 406.361 295.109 405.875 295.109C405.449 295.109 405.052 295.219 404.686 295.44C404.325 295.656 404.034 295.949 403.814 296.32C403.598 296.686 403.49 297.098 403.49 297.554L402.76 297.276C402.76 296.649 402.913 296.08 403.219 295.568C403.53 295.056 403.942 294.65 404.453 294.349C404.97 294.043 405.531 293.89 406.138 293.89C406.755 293.89 407.294 294.008 407.756 294.244C408.217 294.48 408.573 294.818 408.824 295.26C409.08 295.696 409.208 296.222 409.208 296.839C409.208 297.06 409.208 297.301 409.208 297.562C409.208 297.822 409.208 298.066 409.208 298.291V302H407.929ZM402.211 302V294.011H403.49V302H402.211ZM415.23 302.15C414.468 302.15 413.776 301.985 413.154 301.654C412.532 301.318 412.038 300.839 411.672 300.217C411.311 299.595 411.13 298.855 411.13 297.998C411.13 297.14 411.311 296.406 411.672 295.794C412.038 295.177 412.532 294.705 413.154 294.379C413.776 294.053 414.468 293.89 415.23 293.89C415.812 293.89 416.331 293.981 416.787 294.161C417.244 294.337 417.63 294.572 417.946 294.868C418.262 295.164 418.502 295.49 418.668 295.846C418.838 296.197 418.924 296.548 418.924 296.9C418.924 296.905 418.924 296.912 418.924 296.922C418.924 296.932 418.924 296.942 418.924 296.952H417.652C417.652 296.927 417.65 296.9 417.645 296.869C417.64 296.834 417.635 296.799 417.63 296.764C417.59 296.428 417.462 296.135 417.246 295.884C417.03 295.628 416.75 295.428 416.404 295.282C416.057 295.137 415.664 295.064 415.222 295.064C414.726 295.064 414.265 295.172 413.838 295.387C413.417 295.598 413.076 295.922 412.815 296.358C412.559 296.789 412.432 297.336 412.432 297.998C412.432 298.655 412.559 299.204 412.815 299.645C413.071 300.087 413.409 300.42 413.831 300.646C414.257 300.867 414.721 300.977 415.222 300.977C415.764 300.977 416.21 300.892 416.562 300.721C416.913 300.551 417.176 300.325 417.351 300.044C417.532 299.758 417.632 299.452 417.652 299.126H418.924C418.924 299.487 418.843 299.848 418.683 300.21C418.522 300.566 418.287 300.892 417.976 301.188C417.665 301.478 417.279 301.712 416.817 301.887C416.361 302.063 415.832 302.15 415.23 302.15ZM421.329 298.517V297.373H427.505L427.28 297.75C427.28 297.72 427.28 297.692 427.28 297.667C427.28 297.637 427.28 297.609 427.28 297.584C427.28 297.123 427.182 296.701 426.986 296.32C426.796 295.934 426.51 295.626 426.129 295.395C425.748 295.164 425.276 295.049 424.714 295.049C424.148 295.049 423.649 295.169 423.217 295.41C422.786 295.651 422.45 295.992 422.209 296.433C421.969 296.869 421.848 297.391 421.848 297.998C421.848 298.615 421.964 299.146 422.194 299.593C422.43 300.039 422.764 300.383 423.195 300.623C423.626 300.864 424.138 300.984 424.73 300.984C425.151 300.984 425.517 300.942 425.828 300.857C426.139 300.766 426.395 300.648 426.595 300.503C426.801 300.353 426.956 300.19 427.062 300.014C427.167 299.838 427.23 299.663 427.25 299.487H428.529C428.503 299.808 428.403 300.127 428.228 300.443C428.052 300.759 427.804 301.047 427.483 301.308C427.162 301.564 426.768 301.769 426.302 301.925C425.835 302.08 425.299 302.158 424.692 302.158C423.889 302.158 423.182 301.982 422.57 301.631C421.959 301.28 421.477 300.794 421.126 300.172C420.78 299.55 420.607 298.835 420.607 298.028C420.607 297.21 420.783 296.493 421.134 295.876C421.485 295.255 421.969 294.768 422.586 294.417C423.202 294.066 423.907 293.89 424.699 293.89C425.507 293.89 426.207 294.066 426.798 294.417C427.39 294.768 427.846 295.25 428.167 295.861C428.488 296.468 428.649 297.16 428.649 297.938C428.649 298.018 428.646 298.123 428.641 298.254C428.636 298.384 428.629 298.472 428.619 298.517H421.329Z" fill="white"/>
</g>
<rect x="147.313" y="79.3135" width="320.973" height="535.373" stroke="#3BA1F0" stroke-width="0.626901"/>
<g filter="url(#filter1_b_2667_379)">
<g clip-path="url(#clip1_2667_379)">
<rect x="377" y="311" width="217.505" height="251" rx="12.2956" fill="url(#paint2_linear_2667_379)" fill-opacity="0.3"/>
<path d="M430.751 428H428.903V417.675H432.221C433.014 417.675 433.684 417.827 434.23 418.13C434.781 418.429 435.198 418.837 435.483 419.355C435.772 419.868 435.917 420.442 435.917 421.077C435.917 421.716 435.772 422.302 435.483 422.834C435.194 423.366 434.771 423.793 434.216 424.115C433.665 424.432 433 424.591 432.221 424.591H430.751V428ZM430.751 424.003L429.918 423.128H432.018C432.447 423.128 432.814 423.046 433.117 422.883C433.42 422.715 433.651 422.479 433.81 422.176C433.973 421.868 434.055 421.502 434.055 421.077C434.055 420.652 433.976 420.298 433.817 420.013C433.663 419.724 433.434 419.507 433.131 419.362C432.828 419.217 432.457 419.145 432.018 419.145H429.918L430.751 418.228V424.003ZM437.704 424.878V423.569H442.905L442.695 423.919C442.695 423.891 442.695 423.861 442.695 423.828C442.695 423.791 442.695 423.76 442.695 423.737C442.695 423.415 442.622 423.114 442.478 422.834C442.333 422.549 442.114 422.321 441.82 422.148C441.526 421.971 441.152 421.882 440.7 421.882C440.252 421.882 439.862 421.978 439.531 422.169C439.204 422.356 438.95 422.626 438.768 422.981C438.59 423.336 438.502 423.76 438.502 424.255C438.502 424.764 438.588 425.202 438.761 425.571C438.933 425.935 439.185 426.215 439.517 426.411C439.853 426.602 440.261 426.698 440.742 426.698C441.068 426.698 441.351 426.668 441.589 426.607C441.827 426.546 442.02 426.465 442.17 426.362C442.324 426.255 442.438 426.14 442.513 426.019C442.592 425.898 442.639 425.776 442.653 425.655H444.487C444.459 425.968 444.354 426.273 444.172 426.572C443.994 426.866 443.745 427.134 443.423 427.377C443.101 427.615 442.709 427.806 442.247 427.951C441.789 428.091 441.267 428.161 440.679 428.161C439.881 428.161 439.183 427.998 438.586 427.671C437.988 427.344 437.522 426.889 437.186 426.306C436.854 425.723 436.689 425.055 436.689 424.304C436.689 423.534 436.857 422.86 437.193 422.281C437.533 421.702 438.005 421.252 438.607 420.93C439.209 420.603 439.899 420.44 440.679 420.44C441.481 420.44 442.174 420.603 442.758 420.93C443.346 421.257 443.798 421.712 444.116 422.295C444.433 422.874 444.592 423.548 444.592 424.318C444.592 424.416 444.589 424.521 444.585 424.633C444.58 424.745 444.573 424.827 444.564 424.878H437.704ZM446.11 428V420.566H447.951V423.037L447.524 422.799C447.57 422.477 447.657 422.174 447.783 421.889C447.909 421.6 448.077 421.348 448.287 421.133C448.497 420.914 448.751 420.743 449.05 420.622C449.348 420.501 449.689 420.44 450.072 420.44C450.375 420.44 450.613 420.463 450.786 420.51C450.963 420.552 451.073 420.587 451.115 420.615L450.779 422.302C450.732 422.269 450.636 422.23 450.492 422.183C450.352 422.132 450.163 422.106 449.925 422.106C449.547 422.106 449.229 422.171 448.973 422.302C448.721 422.428 448.52 422.601 448.371 422.82C448.221 423.035 448.114 423.273 448.049 423.534C447.983 423.791 447.951 424.047 447.951 424.304V428H446.11ZM453.179 428V422.036H451.604V420.566H453.179V419.901C453.179 419.467 453.237 419.087 453.354 418.76C453.47 418.429 453.629 418.149 453.83 417.92C454.03 417.691 454.259 417.507 454.516 417.367C454.777 417.222 455.055 417.117 455.349 417.052C455.647 416.987 455.944 416.954 456.238 416.954C456.518 416.954 456.73 416.97 456.875 417.003C457.024 417.036 457.124 417.064 457.176 417.087V418.571C457.12 418.552 457.022 418.531 456.882 418.508C456.746 418.48 456.599 418.466 456.441 418.466C456.156 418.466 455.92 418.508 455.734 418.592C455.547 418.671 455.402 418.783 455.3 418.928C455.197 419.073 455.125 419.241 455.083 419.432C455.041 419.619 455.02 419.824 455.02 420.048V420.566H457.078V422.036H455.02V428H453.179ZM458.24 428V420.566H460.06V428H458.24ZM459.157 419.194C458.858 419.194 458.597 419.115 458.373 418.956C458.153 418.793 458.044 418.566 458.044 418.277C458.044 417.992 458.153 417.771 458.373 417.612C458.597 417.453 458.858 417.374 459.157 417.374C459.451 417.374 459.707 417.453 459.927 417.612C460.146 417.771 460.256 417.992 460.256 418.277C460.256 418.566 460.146 418.793 459.927 418.956C459.707 419.115 459.451 419.194 459.157 419.194ZM463.791 417.059V428H461.978V417.059H463.791ZM472.288 428.154C471.677 428.154 471.11 428.007 470.587 427.713C470.069 427.414 469.654 426.976 469.341 426.397C469.029 425.818 468.872 425.107 468.872 424.262C468.872 423.441 469.031 422.745 469.348 422.176C469.67 421.607 470.09 421.175 470.608 420.881C471.131 420.587 471.691 420.44 472.288 420.44C472.872 420.44 473.411 420.585 473.905 420.874C474.4 421.159 474.797 421.555 475.095 422.064C475.394 422.573 475.543 423.156 475.543 423.814C475.543 423.833 475.543 423.851 475.543 423.87C475.543 423.889 475.543 423.907 475.543 423.926L474.633 423.947C474.633 423.933 474.633 423.919 474.633 423.905C474.633 423.886 474.633 423.87 474.633 423.856C474.633 423.487 474.54 423.165 474.353 422.89C474.171 422.615 473.933 422.4 473.639 422.246C473.35 422.087 473.042 422.008 472.715 422.008C472.179 422.008 471.721 422.19 471.343 422.554C470.965 422.913 470.776 423.483 470.776 424.262C470.776 425.037 470.965 425.608 471.343 425.977C471.721 426.346 472.179 426.53 472.715 426.53C473.056 426.53 473.371 426.448 473.66 426.285C473.95 426.122 474.183 425.898 474.36 425.613C474.542 425.324 474.633 424.992 474.633 424.619L475.543 424.661C475.543 425.314 475.396 425.907 475.102 426.439C474.813 426.966 474.423 427.384 473.933 427.692C473.443 428 472.895 428.154 472.288 428.154ZM474.633 428V417.059H476.481V428H474.633ZM481.947 428.147C481.163 428.147 480.472 427.984 479.875 427.657C479.278 427.326 478.809 426.868 478.468 426.285C478.132 425.702 477.964 425.034 477.964 424.283C477.964 423.527 478.132 422.862 478.468 422.288C478.809 421.709 479.278 421.257 479.875 420.93C480.472 420.603 481.163 420.44 481.947 420.44C482.731 420.44 483.422 420.603 484.019 420.93C484.616 421.257 485.083 421.709 485.419 422.288C485.76 422.862 485.93 423.527 485.93 424.283C485.93 425.034 485.76 425.702 485.419 426.285C485.083 426.868 484.616 427.326 484.019 427.657C483.422 427.984 482.731 428.147 481.947 428.147ZM481.947 426.642C482.372 426.642 482.743 426.544 483.06 426.348C483.377 426.152 483.625 425.879 483.802 425.529C483.979 425.174 484.068 424.759 484.068 424.283C484.068 423.807 483.979 423.396 483.802 423.051C483.625 422.701 483.377 422.43 483.06 422.239C482.743 422.048 482.372 421.952 481.947 421.952C481.527 421.952 481.156 422.048 480.834 422.239C480.517 422.43 480.269 422.701 480.092 423.051C479.915 423.396 479.826 423.807 479.826 424.283C479.826 424.759 479.915 425.174 480.092 425.529C480.269 425.879 480.517 426.152 480.834 426.348C481.156 426.544 481.527 426.642 481.947 426.642ZM493.627 428.14C493.1 428.14 492.661 428.051 492.311 427.874C491.966 427.697 491.693 427.463 491.492 427.174C491.296 426.885 491.156 426.565 491.072 426.215C490.993 425.865 490.953 425.515 490.953 425.165C490.953 424.992 490.953 424.813 490.953 424.626C490.953 424.439 490.953 424.25 490.953 424.059V420.566H492.801V423.772C492.801 423.94 492.801 424.101 492.801 424.255C492.801 424.409 492.801 424.554 492.801 424.689C492.801 425.02 492.841 425.328 492.92 425.613C493 425.893 493.144 426.119 493.354 426.292C493.569 426.465 493.87 426.551 494.257 426.551C494.626 426.551 494.943 426.444 495.209 426.229C495.475 426.01 495.681 425.734 495.825 425.403C495.975 425.072 496.049 424.736 496.049 424.395L496.679 424.815C496.679 425.268 496.609 425.695 496.469 426.096C496.329 426.493 496.126 426.845 495.86 427.153C495.594 427.461 495.272 427.704 494.894 427.881C494.521 428.054 494.099 428.14 493.627 428.14ZM496.049 428V420.566H497.89V428H496.049ZM502.665 428.154C502.222 428.154 501.8 428.105 501.398 428.007C501.002 427.909 500.647 427.762 500.334 427.566C500.026 427.37 499.781 427.127 499.599 426.838C499.422 426.544 499.333 426.206 499.333 425.823C499.333 425.795 499.333 425.767 499.333 425.739C499.333 425.711 499.333 425.685 499.333 425.662H501.167C501.167 425.685 501.167 425.706 501.167 425.725C501.167 425.739 501.167 425.76 501.167 425.788C501.167 426.091 501.305 426.32 501.58 426.474C501.86 426.623 502.241 426.698 502.721 426.698C502.983 426.698 503.228 426.67 503.456 426.614C503.69 426.558 503.876 426.472 504.016 426.355C504.161 426.238 504.233 426.089 504.233 425.907C504.233 425.613 504.082 425.403 503.778 425.277C503.48 425.151 503.008 425.037 502.364 424.934C502.01 424.873 501.66 424.792 501.314 424.689C500.969 424.586 500.654 424.449 500.369 424.276C500.089 424.103 499.863 423.889 499.69 423.632C499.522 423.375 499.438 423.063 499.438 422.694C499.438 422.204 499.583 421.793 499.872 421.462C500.166 421.126 500.558 420.872 501.048 420.699C501.543 420.526 502.087 420.44 502.679 420.44C503.249 420.44 503.778 420.533 504.268 420.72C504.758 420.907 505.153 421.175 505.451 421.525C505.755 421.875 505.906 422.297 505.906 422.792C505.906 422.811 505.906 422.832 505.906 422.855C505.906 422.874 505.906 422.89 505.906 422.904H504.086C504.086 422.89 504.086 422.876 504.086 422.862C504.086 422.848 504.086 422.832 504.086 422.813C504.086 422.598 504.019 422.423 503.883 422.288C503.748 422.153 503.573 422.052 503.358 421.987C503.144 421.922 502.917 421.889 502.679 421.889C502.469 421.889 502.252 421.912 502.028 421.959C501.804 422.001 501.618 422.078 501.468 422.19C501.319 422.297 501.244 422.449 501.244 422.645C501.244 422.832 501.321 422.983 501.475 423.1C501.629 423.217 501.844 423.315 502.119 423.394C502.395 423.469 502.712 423.536 503.071 423.597C503.412 423.653 503.755 423.73 504.1 423.828C504.45 423.926 504.77 424.057 505.059 424.22C505.349 424.383 505.582 424.598 505.759 424.864C505.941 425.125 506.032 425.45 506.032 425.837C506.032 426.248 505.939 426.598 505.752 426.887C505.566 427.176 505.311 427.417 504.989 427.608C504.672 427.795 504.313 427.932 503.911 428.021C503.51 428.11 503.095 428.154 502.665 428.154ZM510.225 428.14C509.698 428.14 509.259 428.051 508.909 427.874C508.564 427.697 508.291 427.463 508.09 427.174C507.894 426.885 507.754 426.565 507.67 426.215C507.591 425.865 507.551 425.515 507.551 425.165C507.551 424.992 507.551 424.813 507.551 424.626C507.551 424.439 507.551 424.25 507.551 424.059V420.566H509.399V423.772C509.399 423.94 509.399 424.101 509.399 424.255C509.399 424.409 509.399 424.554 509.399 424.689C509.399 425.02 509.439 425.328 509.518 425.613C509.597 425.893 509.742 426.119 509.952 426.292C510.167 426.465 510.468 426.551 510.855 426.551C511.224 426.551 511.541 426.444 511.807 426.229C512.073 426.01 512.278 425.734 512.423 425.403C512.572 425.072 512.647 424.736 512.647 424.395L513.277 424.815C513.277 425.268 513.207 425.695 513.067 426.096C512.927 426.493 512.724 426.845 512.458 427.153C512.192 427.461 511.87 427.704 511.492 427.881C511.119 428.054 510.696 428.14 510.225 428.14ZM512.647 428V420.566H514.488V428H512.647ZM518.808 428.154C518.253 428.154 517.765 428.068 517.345 427.895C516.925 427.718 516.596 427.463 516.358 427.132C516.12 426.801 516.001 426.402 516.001 425.935C516.001 425.426 516.139 425.009 516.414 424.682C516.694 424.351 517.07 424.096 517.541 423.919C518.012 423.737 518.535 423.62 519.109 423.569C519.958 423.485 520.551 423.406 520.887 423.331C521.228 423.252 521.398 423.126 521.398 422.953C521.398 422.948 521.398 422.946 521.398 422.946C521.398 422.941 521.398 422.939 521.398 422.939C521.398 422.612 521.251 422.36 520.957 422.183C520.663 422.006 520.248 421.917 519.711 421.917C519.146 421.917 518.712 422.017 518.409 422.218C518.11 422.414 517.961 422.727 517.961 423.156H516.141C516.141 422.573 516.295 422.08 516.603 421.679C516.916 421.273 517.343 420.965 517.884 420.755C518.425 420.545 519.039 420.44 519.725 420.44C520.364 420.44 520.95 420.536 521.482 420.727C522.014 420.918 522.441 421.208 522.763 421.595C523.085 421.982 523.246 422.465 523.246 423.044C523.246 423.142 523.246 423.24 523.246 423.338C523.246 423.436 523.246 423.534 523.246 423.632V426.432C523.246 426.609 523.251 426.784 523.26 426.957C523.274 427.125 523.3 427.277 523.337 427.412C523.384 427.561 523.44 427.687 523.505 427.79C523.57 427.893 523.622 427.963 523.659 428H521.839C521.806 427.967 521.76 427.904 521.699 427.811C521.643 427.713 521.592 427.601 521.545 427.475C521.498 427.335 521.463 427.186 521.44 427.027C521.417 426.864 521.405 426.684 521.405 426.488L521.769 426.74C521.629 427.025 521.414 427.274 521.125 427.489C520.84 427.699 520.5 427.862 520.103 427.979C519.706 428.096 519.275 428.154 518.808 428.154ZM519.256 426.705C519.639 426.705 519.993 426.64 520.32 426.509C520.647 426.378 520.91 426.178 521.111 425.907C521.312 425.632 521.412 425.279 521.412 424.85V423.856L521.86 424.36C521.561 424.472 521.202 424.565 520.782 424.64C520.362 424.71 519.937 424.766 519.508 424.808C518.957 424.859 518.542 424.955 518.262 425.095C517.987 425.235 517.849 425.464 517.849 425.781C517.849 426.089 517.966 426.32 518.199 426.474C518.432 426.628 518.785 426.705 519.256 426.705ZM518.78 419.509L520.446 417.675H521.923L520.047 419.509H518.78ZM524.955 428V420.566H526.796V423.037L526.369 422.799C526.416 422.477 526.502 422.174 526.628 421.889C526.754 421.6 526.922 421.348 527.132 421.133C527.342 420.914 527.597 420.743 527.895 420.622C528.194 420.501 528.535 420.44 528.917 420.44C529.221 420.44 529.459 420.463 529.631 420.51C529.809 420.552 529.918 420.587 529.96 420.615L529.624 422.302C529.578 422.269 529.482 422.23 529.337 422.183C529.197 422.132 529.008 422.106 528.77 422.106C528.392 422.106 528.075 422.171 527.818 422.302C527.566 422.428 527.366 422.601 527.216 422.82C527.067 423.035 526.96 423.273 526.894 423.534C526.829 423.791 526.796 424.047 526.796 424.304V428H524.955ZM531.086 428V420.566H532.906V428H531.086ZM532.003 419.194C531.705 419.194 531.443 419.115 531.219 418.956C531 418.793 530.89 418.566 530.89 418.277C530.89 417.992 531 417.771 531.219 417.612C531.443 417.453 531.705 417.374 532.003 417.374C532.297 417.374 532.554 417.453 532.773 417.612C532.993 417.771 533.102 417.992 533.102 418.277C533.102 418.566 532.993 418.793 532.773 418.956C532.554 419.115 532.297 419.194 532.003 419.194ZM538.385 428.147C537.601 428.147 536.91 427.984 536.313 427.657C535.715 427.326 535.246 426.868 534.906 426.285C534.57 425.702 534.402 425.034 534.402 424.283C534.402 423.527 534.57 422.862 534.906 422.288C535.246 421.709 535.715 421.257 536.313 420.93C536.91 420.603 537.601 420.44 538.385 420.44C539.169 420.44 539.859 420.603 540.457 420.93C541.054 421.257 541.521 421.709 541.857 422.288C542.197 422.862 542.368 423.527 542.368 424.283C542.368 425.034 542.197 425.702 541.857 426.285C541.521 426.868 541.054 427.326 540.457 427.657C539.859 427.984 539.169 428.147 538.385 428.147ZM538.385 426.642C538.809 426.642 539.18 426.544 539.498 426.348C539.815 426.152 540.062 425.879 540.24 425.529C540.417 425.174 540.506 424.759 540.506 424.283C540.506 423.807 540.417 423.396 540.24 423.051C540.062 422.701 539.815 422.43 539.498 422.239C539.18 422.048 538.809 421.952 538.385 421.952C537.965 421.952 537.594 422.048 537.272 422.239C536.954 422.43 536.707 422.701 536.53 423.051C536.352 423.396 536.264 423.807 536.264 424.283C536.264 424.759 536.352 425.174 536.53 425.529C536.707 425.879 536.954 426.152 537.272 426.348C537.594 426.544 537.965 426.642 538.385 426.642Z" fill="white"/>
<path d="M500.252 384.58V380.985C500.252 379.079 499.495 377.25 498.147 375.902C496.799 374.554 494.97 373.797 493.064 373.797H478.687C476.78 373.797 474.952 374.554 473.604 375.902C472.255 377.25 471.498 379.079 471.498 380.985V384.58" stroke="white" stroke-width="3.59427" stroke-linecap="round" stroke-linejoin="round"/>
<path d="M485.875 366.608C489.845 366.608 493.064 363.389 493.064 359.419C493.064 355.449 489.845 352.23 485.875 352.23C481.905 352.23 478.687 355.449 478.687 359.419C478.687 363.389 481.905 366.608 485.875 366.608Z" stroke="white" stroke-width="3.59427" stroke-linecap="round" stroke-linejoin="round"/>
<path fill-rule="evenodd" clip-rule="evenodd" d="M405.407 450.068H570.338V458.972H405.407V450.068ZM405.407 463.637H570.338V472.54L405.407 472.54V463.637ZM570.338 477.203H405.407V486.107H570.338V477.203ZM405.407 490.771H570.338V499.675H405.407V490.771ZM570.338 504.338H405.407V513.242H570.338V504.338ZM405.407 517.906H570.338V526.81H405.407V517.906ZM570.338 531.473H405.407V540.376H570.338V531.473Z" fill="url(#paint3_linear_2667_379)"/>
</g>
<rect x="378.06" y="312.06" width="215.385" height="248.88" rx="11.2356" stroke="url(#paint4_linear_2667_379)" stroke-width="2.11993"/>
</g>
<g filter="url(#filter2_b_2667_379)">
<rect x="10" y="27" width="230.211" height="162" rx="13.0139" fill="url(#paint5_linear_2667_379)" fill-opacity="0.3"/>
<path d="M101.073 150.035L98.441 139.675H100.478L102.494 148.824H102.403L104.398 139.675H106.435L103.824 150.035H101.073ZM107.762 150V142.566H109.582V150H107.762ZM107.629 141.509L109.295 139.675H110.772L108.896 141.509H107.629ZM114.48 150.154C113.868 150.154 113.301 150.007 112.779 149.713C112.261 149.414 111.845 148.976 111.533 148.397C111.22 147.818 111.064 147.107 111.064 146.262C111.064 145.441 111.222 144.745 111.54 144.176C111.862 143.607 112.282 143.175 112.8 142.881C113.322 142.587 113.882 142.44 114.48 142.44C115.063 142.44 115.602 142.585 116.097 142.874C116.591 143.159 116.988 143.555 117.287 144.064C117.585 144.573 117.735 145.156 117.735 145.814C117.735 145.833 117.735 145.851 117.735 145.87C117.735 145.889 117.735 145.907 117.735 145.926L116.825 145.947C116.825 145.933 116.825 145.919 116.825 145.905C116.825 145.886 116.825 145.87 116.825 145.856C116.825 145.487 116.731 145.165 116.545 144.89C116.363 144.615 116.125 144.4 115.831 144.246C115.541 144.087 115.233 144.008 114.907 144.008C114.37 144.008 113.913 144.19 113.535 144.554C113.157 144.913 112.968 145.483 112.968 146.262C112.968 147.037 113.157 147.608 113.535 147.977C113.913 148.346 114.37 148.53 114.907 148.53C115.247 148.53 115.562 148.448 115.852 148.285C116.141 148.122 116.374 147.898 116.552 147.613C116.734 147.324 116.825 146.992 116.825 146.619L117.735 146.661C117.735 147.314 117.588 147.907 117.294 148.439C117.004 148.966 116.615 149.384 116.125 149.692C115.635 150 115.086 150.154 114.48 150.154ZM116.825 150V139.059H118.673V150H116.825ZM121.171 146.878V145.569H126.372L126.162 145.919C126.162 145.891 126.162 145.861 126.162 145.828C126.162 145.791 126.162 145.76 126.162 145.737C126.162 145.415 126.089 145.114 125.945 144.834C125.8 144.549 125.581 144.321 125.287 144.148C124.993 143.971 124.619 143.882 124.167 143.882C123.719 143.882 123.329 143.978 122.998 144.169C122.671 144.356 122.417 144.626 122.235 144.981C122.057 145.336 121.969 145.76 121.969 146.255C121.969 146.764 122.055 147.202 122.228 147.571C122.4 147.935 122.652 148.215 122.984 148.411C123.32 148.602 123.728 148.698 124.209 148.698C124.535 148.698 124.818 148.668 125.056 148.607C125.294 148.546 125.487 148.465 125.637 148.362C125.791 148.255 125.905 148.14 125.98 148.019C126.059 147.898 126.106 147.776 126.12 147.655H127.954C127.926 147.968 127.821 148.273 127.639 148.572C127.461 148.866 127.212 149.134 126.89 149.377C126.568 149.615 126.176 149.806 125.714 149.951C125.256 150.091 124.734 150.161 124.146 150.161C123.348 150.161 122.65 149.998 122.053 149.671C121.455 149.344 120.989 148.889 120.653 148.306C120.321 147.723 120.156 147.055 120.156 146.304C120.156 145.534 120.324 144.86 120.66 144.281C121 143.702 121.472 143.252 122.074 142.93C122.676 142.603 123.366 142.44 124.146 142.44C124.948 142.44 125.641 142.603 126.225 142.93C126.813 143.257 127.265 143.712 127.583 144.295C127.9 144.874 128.059 145.548 128.059 146.318C128.059 146.416 128.056 146.521 128.052 146.633C128.047 146.745 128.04 146.827 128.031 146.878H121.171ZM133.23 150.147C132.446 150.147 131.756 149.984 131.158 149.657C130.561 149.326 130.092 148.868 129.751 148.285C129.415 147.702 129.247 147.034 129.247 146.283C129.247 145.527 129.415 144.862 129.751 144.288C130.092 143.709 130.561 143.257 131.158 142.93C131.756 142.603 132.446 142.44 133.23 142.44C134.014 142.44 134.705 142.603 135.302 142.93C135.9 143.257 136.366 143.709 136.702 144.288C137.043 144.862 137.213 145.527 137.213 146.283C137.213 147.034 137.043 147.702 136.702 148.285C136.366 148.868 135.9 149.326 135.302 149.657C134.705 149.984 134.014 150.147 133.23 150.147ZM133.23 148.642C133.655 148.642 134.026 148.544 134.343 148.348C134.661 148.152 134.908 147.879 135.085 147.529C135.263 147.174 135.351 146.759 135.351 146.283C135.351 145.807 135.263 145.396 135.085 145.051C134.908 144.701 134.661 144.43 134.343 144.239C134.026 144.048 133.655 143.952 133.23 143.952C132.81 143.952 132.439 144.048 132.117 144.239C131.8 144.43 131.553 144.701 131.375 145.051C131.198 145.396 131.109 145.807 131.109 146.283C131.109 146.759 131.198 147.174 131.375 147.529C131.553 147.879 131.8 148.152 132.117 148.348C132.439 148.544 132.81 148.642 133.23 148.642ZM141.74 150.154C141.296 150.154 140.874 150.105 140.473 150.007C140.076 149.909 139.721 149.762 139.409 149.566C139.101 149.37 138.856 149.127 138.674 148.838C138.496 148.544 138.408 148.206 138.408 147.823C138.408 147.795 138.408 147.767 138.408 147.739C138.408 147.711 138.408 147.685 138.408 147.662H140.242C140.242 147.685 140.242 147.706 140.242 147.725C140.242 147.739 140.242 147.76 140.242 147.788C140.242 148.091 140.379 148.32 140.655 148.474C140.935 148.623 141.315 148.698 141.796 148.698C142.057 148.698 142.302 148.67 142.531 148.614C142.764 148.558 142.951 148.472 143.091 148.355C143.235 148.238 143.308 148.089 143.308 147.907C143.308 147.613 143.156 147.403 142.853 147.277C142.554 147.151 142.083 147.037 141.439 146.934C141.084 146.873 140.734 146.792 140.389 146.689C140.043 146.586 139.728 146.449 139.444 146.276C139.164 146.103 138.937 145.889 138.765 145.632C138.597 145.375 138.513 145.063 138.513 144.694C138.513 144.204 138.657 143.793 138.947 143.462C139.241 143.126 139.633 142.872 140.123 142.699C140.617 142.526 141.161 142.44 141.754 142.44C142.323 142.44 142.853 142.533 143.343 142.72C143.833 142.907 144.227 143.175 144.526 143.525C144.829 143.875 144.981 144.297 144.981 144.792C144.981 144.811 144.981 144.832 144.981 144.855C144.981 144.874 144.981 144.89 144.981 144.904H143.161C143.161 144.89 143.161 144.876 143.161 144.862C143.161 144.848 143.161 144.832 143.161 144.813C143.161 144.598 143.093 144.423 142.958 144.288C142.822 144.153 142.647 144.052 142.433 143.987C142.218 143.922 141.992 143.889 141.754 143.889C141.544 143.889 141.327 143.912 141.103 143.959C140.879 144.001 140.692 144.078 140.543 144.19C140.393 144.297 140.319 144.449 140.319 144.645C140.319 144.832 140.396 144.983 140.55 145.1C140.704 145.217 140.918 145.315 141.194 145.394C141.469 145.469 141.786 145.536 142.146 145.597C142.486 145.653 142.829 145.73 143.175 145.828C143.525 145.926 143.844 146.057 144.134 146.22C144.423 146.383 144.656 146.598 144.834 146.864C145.016 147.125 145.107 147.45 145.107 147.837C145.107 148.248 145.013 148.598 144.827 148.887C144.64 149.176 144.386 149.417 144.064 149.608C143.746 149.795 143.387 149.932 142.986 150.021C142.584 150.11 142.169 150.154 141.74 150.154Z" fill="white"/>
<path d="M142.949 81.3586C142.748 80.5552 142.339 79.819 141.762 79.2245C141.185 78.63 140.462 78.1982 139.665 77.9728C136.753 77.2617 125.106 77.2617 125.106 77.2617C125.106 77.2617 113.458 77.2617 110.546 78.0405C109.749 78.2659 109.026 78.6977 108.449 79.2922C107.873 79.8867 107.463 80.6229 107.262 81.4263C106.729 84.3815 106.469 87.3792 106.483 90.382C106.464 93.4073 106.725 96.428 107.262 99.4053C107.484 100.184 107.903 100.892 108.478 101.461C109.053 102.031 109.766 102.442 110.546 102.656C113.458 103.435 125.106 103.435 125.106 103.435C125.106 103.435 136.753 103.435 139.665 102.656C140.462 102.43 141.185 101.998 141.762 101.404C142.339 100.809 142.748 100.073 142.949 99.2699C143.478 96.337 143.739 93.3621 143.728 90.382C143.747 87.3566 143.486 84.336 142.949 81.3586Z" stroke="white" stroke-width="3.38587" stroke-linecap="round" stroke-linejoin="round"/>
<path d="M121.297 95.9195L131.031 90.3836L121.297 84.8477V95.9195Z" stroke="white" stroke-width="3.38587" stroke-linecap="round" stroke-linejoin="round"/>
<rect x="11.1219" y="28.1219" width="227.967" height="159.756" rx="11.892" stroke="url(#paint6_linear_2667_379)" stroke-width="2.24377"/>
</g>
<g filter="url(#filter3_b_2667_379)">
<rect y="461" width="271" height="190.704" rx="15.3197" fill="url(#paint7_linear_2667_379)" fill-opacity="0.3"/>
<path d="M90.925 594.145L91.758 593.228V597.638L91.324 597.085H95.188V598.555H91.324L91.758 598.009V602.447L90.925 601.53H95.965V603H89.903V592.675H95.965V594.145H90.925ZM97.4213 599.605V598.464H102.44V599.605H97.4213ZM107.982 603.154C107.198 603.154 106.505 602.993 105.903 602.671C105.301 602.349 104.829 601.896 104.489 601.313C104.148 600.73 103.978 600.046 103.978 599.262C103.978 598.483 104.148 597.806 104.489 597.232C104.829 596.658 105.301 596.217 105.903 595.909C106.505 595.596 107.198 595.44 107.982 595.44C108.57 595.44 109.09 595.526 109.543 595.699C109.995 595.872 110.376 596.103 110.684 596.392C110.996 596.677 111.234 596.992 111.398 597.337C111.561 597.678 111.643 598.018 111.643 598.359C111.643 598.368 111.643 598.378 111.643 598.387C111.643 598.396 111.643 598.406 111.643 598.415H109.816C109.816 598.392 109.813 598.366 109.809 598.338C109.804 598.31 109.799 598.282 109.795 598.254C109.757 598.016 109.662 597.801 109.508 597.61C109.354 597.414 109.148 597.258 108.892 597.141C108.635 597.024 108.325 596.966 107.961 596.966C107.573 596.966 107.219 597.052 106.897 597.225C106.579 597.393 106.325 597.647 106.134 597.988C105.947 598.329 105.854 598.753 105.854 599.262C105.854 599.766 105.947 600.195 106.134 600.55C106.32 600.9 106.572 601.168 106.89 601.355C107.212 601.537 107.569 601.628 107.961 601.628C108.376 601.628 108.714 601.565 108.976 601.439C109.242 601.308 109.442 601.136 109.578 600.921C109.713 600.702 109.79 600.464 109.809 600.207H111.643C111.643 600.552 111.563 600.9 111.405 601.25C111.246 601.595 111.013 601.913 110.705 602.202C110.397 602.491 110.014 602.722 109.557 602.895C109.104 603.068 108.579 603.154 107.982 603.154ZM116.82 603.147C116.036 603.147 115.346 602.984 114.748 602.657C114.151 602.326 113.682 601.868 113.341 601.285C113.005 600.702 112.837 600.034 112.837 599.283C112.837 598.527 113.005 597.862 113.341 597.288C113.682 596.709 114.151 596.257 114.748 595.93C115.346 595.603 116.036 595.44 116.82 595.44C117.604 595.44 118.295 595.603 118.892 595.93C119.49 596.257 119.956 596.709 120.292 597.288C120.633 597.862 120.803 598.527 120.803 599.283C120.803 600.034 120.633 600.702 120.292 601.285C119.956 601.868 119.49 602.326 118.892 602.657C118.295 602.984 117.604 603.147 116.82 603.147ZM116.82 601.642C117.245 601.642 117.616 601.544 117.933 601.348C118.251 601.152 118.498 600.879 118.675 600.529C118.853 600.174 118.941 599.759 118.941 599.283C118.941 598.807 118.853 598.396 118.675 598.051C118.498 597.701 118.251 597.43 117.933 597.239C117.616 597.048 117.245 596.952 116.82 596.952C116.4 596.952 116.029 597.048 115.707 597.239C115.39 597.43 115.143 597.701 114.965 598.051C114.788 598.396 114.699 598.807 114.699 599.283C114.699 599.759 114.788 600.174 114.965 600.529C115.143 600.879 115.39 601.152 115.707 601.348C116.029 601.544 116.4 601.642 116.82 601.642ZM126.946 603V599.983C126.946 599.708 126.946 599.467 126.946 599.262C126.946 599.052 126.946 598.877 126.946 598.737C126.946 598.555 126.935 598.366 126.911 598.17C126.888 597.969 126.837 597.785 126.757 597.617C126.678 597.449 126.554 597.314 126.386 597.211C126.223 597.104 125.997 597.05 125.707 597.05C125.427 597.05 125.189 597.108 124.993 597.225C124.802 597.337 124.643 597.489 124.517 597.68C124.396 597.867 124.307 598.081 124.251 598.324C124.195 598.562 124.167 598.807 124.167 599.059L123.551 598.646C123.551 598.035 123.666 597.489 123.894 597.008C124.123 596.527 124.447 596.147 124.867 595.867C125.292 595.582 125.794 595.44 126.372 595.44C126.97 595.44 127.443 595.566 127.793 595.818C128.143 596.065 128.393 596.401 128.542 596.826C128.696 597.251 128.773 597.727 128.773 598.254C128.773 598.45 128.773 598.711 128.773 599.038C128.773 599.36 128.773 599.74 128.773 600.179V603H126.946ZM122.326 603V595.566H124.167V603H122.326ZM131.538 603V599.99C131.538 599.696 131.538 599.446 131.538 599.241C131.538 599.036 131.538 598.863 131.538 598.723C131.538 598.527 131.527 598.331 131.503 598.135C131.48 597.934 131.429 597.755 131.349 597.596C131.27 597.433 131.146 597.302 130.978 597.204C130.81 597.101 130.582 597.05 130.292 597.05C130.008 597.05 129.767 597.106 129.571 597.218C129.38 597.33 129.226 597.479 129.109 597.666C128.993 597.853 128.906 598.063 128.85 598.296C128.799 598.529 128.773 598.763 128.773 598.996L128.157 598.59C128.157 597.997 128.269 597.463 128.493 596.987C128.717 596.511 129.039 596.135 129.459 595.86C129.879 595.58 130.379 595.44 130.957 595.44C131.541 595.44 132.01 595.559 132.364 595.797C132.719 596.035 132.976 596.362 133.134 596.777C133.298 597.188 133.379 597.657 133.379 598.184C133.379 598.389 133.379 598.651 133.379 598.968C133.379 599.285 133.379 599.661 133.379 600.095V603H131.538ZM139.771 603V599.983C139.771 599.708 139.771 599.467 139.771 599.262C139.771 599.052 139.771 598.877 139.771 598.737C139.771 598.555 139.759 598.366 139.736 598.17C139.712 597.969 139.661 597.785 139.582 597.617C139.502 597.449 139.379 597.314 139.211 597.211C139.047 597.104 138.821 597.05 138.532 597.05C138.252 597.05 138.014 597.108 137.818 597.225C137.626 597.337 137.468 597.489 137.342 597.68C137.22 597.867 137.132 598.081 137.076 598.324C137.02 598.562 136.992 598.807 136.992 599.059L136.376 598.646C136.376 598.035 136.49 597.489 136.719 597.008C136.947 596.527 137.272 596.147 137.692 595.867C138.116 595.582 138.618 595.44 139.197 595.44C139.794 595.44 140.268 595.566 140.618 595.818C140.968 596.065 141.217 596.401 141.367 596.826C141.521 597.251 141.598 597.727 141.598 598.254C141.598 598.45 141.598 598.711 141.598 599.038C141.598 599.36 141.598 599.74 141.598 600.179V603H139.771ZM135.151 603V595.566H136.992V603H135.151ZM144.363 603V599.99C144.363 599.696 144.363 599.446 144.363 599.241C144.363 599.036 144.363 598.863 144.363 598.723C144.363 598.527 144.351 598.331 144.328 598.135C144.304 597.934 144.253 597.755 144.174 597.596C144.094 597.433 143.971 597.302 143.803 597.204C143.635 597.101 143.406 597.05 143.117 597.05C142.832 597.05 142.592 597.106 142.396 597.218C142.204 597.33 142.05 597.479 141.934 597.666C141.817 597.853 141.731 598.063 141.675 598.296C141.623 598.529 141.598 598.763 141.598 598.996L140.982 598.59C140.982 597.997 141.094 597.463 141.318 596.987C141.542 596.511 141.864 596.135 142.284 595.86C142.704 595.58 143.203 595.44 143.782 595.44C144.365 595.44 144.834 595.559 145.189 595.797C145.543 596.035 145.8 596.362 145.959 596.777C146.122 597.188 146.204 597.657 146.204 598.184C146.204 598.389 146.204 598.651 146.204 598.968C146.204 599.285 146.204 599.661 146.204 600.095V603H144.363ZM148.661 599.878V598.569H153.862L153.652 598.919C153.652 598.891 153.652 598.861 153.652 598.828C153.652 598.791 153.652 598.76 153.652 598.737C153.652 598.415 153.579 598.114 153.435 597.834C153.29 597.549 153.071 597.321 152.777 597.148C152.483 596.971 152.109 596.882 151.657 596.882C151.209 596.882 150.819 596.978 150.488 597.169C150.161 597.356 149.907 597.626 149.725 597.981C149.547 598.336 149.459 598.76 149.459 599.255C149.459 599.764 149.545 600.202 149.718 600.571C149.89 600.935 150.142 601.215 150.474 601.411C150.81 601.602 151.218 601.698 151.699 601.698C152.025 601.698 152.308 601.668 152.546 601.607C152.784 601.546 152.977 601.465 153.127 601.362C153.281 601.255 153.395 601.14 153.47 601.019C153.549 600.898 153.596 600.776 153.61 600.655H155.444C155.416 600.968 155.311 601.273 155.129 601.572C154.951 601.866 154.702 602.134 154.38 602.377C154.058 602.615 153.666 602.806 153.204 602.951C152.746 603.091 152.224 603.161 151.636 603.161C150.838 603.161 150.14 602.998 149.543 602.671C148.945 602.344 148.479 601.889 148.143 601.306C147.811 600.723 147.646 600.055 147.646 599.304C147.646 598.534 147.814 597.86 148.15 597.281C148.49 596.702 148.962 596.252 149.564 595.93C150.166 595.603 150.856 595.44 151.636 595.44C152.438 595.44 153.131 595.603 153.715 595.93C154.303 596.257 154.755 596.712 155.073 597.295C155.39 597.874 155.549 598.548 155.549 599.318C155.549 599.416 155.546 599.521 155.542 599.633C155.537 599.745 155.53 599.827 155.521 599.878H148.661ZM157.067 603V595.566H158.908V598.037L158.481 597.799C158.527 597.477 158.614 597.174 158.74 596.889C158.866 596.6 159.034 596.348 159.244 596.133C159.454 595.914 159.708 595.743 160.007 595.622C160.305 595.501 160.646 595.44 161.029 595.44C161.332 595.44 161.57 595.463 161.743 595.51C161.92 595.552 162.03 595.587 162.072 595.615L161.736 597.302C161.689 597.269 161.593 597.23 161.449 597.183C161.309 597.132 161.12 597.106 160.882 597.106C160.504 597.106 160.186 597.171 159.93 597.302C159.678 597.428 159.477 597.601 159.328 597.82C159.178 598.035 159.071 598.273 159.006 598.534C158.94 598.791 158.908 599.047 158.908 599.304V603H157.067ZM166.771 603.154C165.987 603.154 165.294 602.993 164.692 602.671C164.09 602.349 163.619 601.896 163.278 601.313C162.937 600.73 162.767 600.046 162.767 599.262C162.767 598.483 162.937 597.806 163.278 597.232C163.619 596.658 164.09 596.217 164.692 595.909C165.294 595.596 165.987 595.44 166.771 595.44C167.359 595.44 167.879 595.526 168.332 595.699C168.785 595.872 169.165 596.103 169.473 596.392C169.786 596.677 170.024 596.992 170.187 597.337C170.35 597.678 170.432 598.018 170.432 598.359C170.432 598.368 170.432 598.378 170.432 598.387C170.432 598.396 170.432 598.406 170.432 598.415H168.605C168.605 598.392 168.603 598.366 168.598 598.338C168.593 598.31 168.589 598.282 168.584 598.254C168.547 598.016 168.451 597.801 168.297 597.61C168.143 597.414 167.938 597.258 167.681 597.141C167.424 597.024 167.114 596.966 166.75 596.966C166.363 596.966 166.008 597.052 165.686 597.225C165.369 597.393 165.114 597.647 164.923 597.988C164.736 598.329 164.643 598.753 164.643 599.262C164.643 599.766 164.736 600.195 164.923 600.55C165.11 600.9 165.362 601.168 165.679 601.355C166.001 601.537 166.358 601.628 166.75 601.628C167.165 601.628 167.504 601.565 167.765 601.439C168.031 601.308 168.232 601.136 168.367 600.921C168.502 600.702 168.579 600.464 168.598 600.207H170.432C170.432 600.552 170.353 600.9 170.194 601.25C170.035 601.595 169.802 601.913 169.494 602.202C169.186 602.491 168.803 602.722 168.346 602.895C167.893 603.068 167.368 603.154 166.771 603.154ZM172.641 599.878V598.569H177.842L177.632 598.919C177.632 598.891 177.632 598.861 177.632 598.828C177.632 598.791 177.632 598.76 177.632 598.737C177.632 598.415 177.56 598.114 177.415 597.834C177.271 597.549 177.051 597.321 176.757 597.148C176.463 596.971 176.09 596.882 175.637 596.882C175.189 596.882 174.8 596.978 174.468 597.169C174.142 597.356 173.887 597.626 173.705 597.981C173.528 598.336 173.439 598.76 173.439 599.255C173.439 599.764 173.526 600.202 173.698 600.571C173.871 600.935 174.123 601.215 174.454 601.411C174.79 601.602 175.199 601.698 175.679 601.698C176.006 601.698 176.288 601.668 176.526 601.607C176.764 601.546 176.958 601.465 177.107 601.362C177.261 601.255 177.376 601.14 177.45 601.019C177.53 600.898 177.576 600.776 177.59 600.655H179.424C179.396 600.968 179.291 601.273 179.109 601.572C178.932 601.866 178.682 602.134 178.36 602.377C178.038 602.615 177.646 602.806 177.184 602.951C176.727 603.091 176.204 603.161 175.616 603.161C174.818 603.161 174.121 602.998 173.523 602.671C172.926 602.344 172.459 601.889 172.123 601.306C171.792 600.723 171.626 600.055 171.626 599.304C171.626 598.534 171.794 597.86 172.13 597.281C172.471 596.702 172.942 596.252 173.544 595.93C174.146 595.603 174.837 595.44 175.616 595.44C176.419 595.44 177.112 595.603 177.695 595.93C178.283 596.257 178.736 596.712 179.053 597.295C179.371 597.874 179.529 598.548 179.529 599.318C179.529 599.416 179.527 599.521 179.522 599.633C179.518 599.745 179.511 599.827 179.501 599.878H172.641Z" fill="white"/>
<path d="M124.406 517.523L118.859 524.919V550.804C118.859 551.785 119.249 552.725 119.942 553.419C120.636 554.112 121.576 554.502 122.557 554.502H148.442C149.423 554.502 150.364 554.112 151.057 553.419C151.75 552.725 152.14 551.785 152.14 550.804V524.919L146.593 517.523H124.406Z" stroke="white" stroke-width="3.69786" stroke-linecap="round" stroke-linejoin="round"/>
<path d="M118.859 524.92H152.14" stroke="white" stroke-width="3.69786" stroke-linecap="round" stroke-linejoin="round"/>
<path d="M142.895 532.314C142.895 534.276 142.116 536.157 140.729 537.544C139.342 538.931 137.461 539.71 135.499 539.71C133.538 539.71 131.657 538.931 130.27 537.544C128.883 536.157 128.104 534.276 128.104 532.314" stroke="white" stroke-width="3.69786" stroke-linecap="round" stroke-linejoin="round"/>
<rect x="1.32066" y="462.321" width="268.359" height="188.062" rx="13.999" stroke="url(#paint8_linear_2667_379)" stroke-width="2.64133"/>
</g>
<g filter="url(#filter4_b_2667_379)">
<rect x="332" width="245.842" height="173" rx="13.8975" fill="url(#paint9_linear_2667_379)" fill-opacity="0.3"/>
<path d="M425.578 137.244C424.845 137.244 424.206 137.127 423.66 136.894C423.114 136.661 422.689 136.311 422.386 135.844C422.082 135.373 421.931 134.789 421.931 134.094C421.931 134.015 421.931 133.945 421.931 133.884C421.931 133.819 421.931 133.746 421.931 133.667H423.772C423.772 133.737 423.772 133.802 423.772 133.863C423.772 133.919 423.772 133.984 423.772 134.059C423.772 134.619 423.923 135.039 424.227 135.319C424.535 135.594 424.987 135.732 425.585 135.732C426.187 135.732 426.646 135.632 426.964 135.431C427.286 135.23 427.447 134.908 427.447 134.465C427.447 134.143 427.337 133.87 427.118 133.646C426.903 133.417 426.607 133.217 426.229 133.044C425.851 132.871 425.421 132.71 424.941 132.561C424.399 132.393 423.907 132.176 423.464 131.91C423.02 131.644 422.666 131.308 422.4 130.902C422.134 130.496 422.001 129.997 422.001 129.404C422.001 128.811 422.152 128.307 422.456 127.892C422.764 127.477 423.184 127.162 423.716 126.947C424.252 126.728 424.861 126.618 425.543 126.618C426.257 126.618 426.884 126.73 427.426 126.954C427.972 127.178 428.399 127.512 428.707 127.955C429.015 128.398 429.169 128.951 429.169 129.614C429.169 129.703 429.169 129.78 429.169 129.845C429.169 129.91 429.169 129.985 429.169 130.069H427.321C427.321 130.008 427.321 129.948 427.321 129.887C427.321 129.822 427.321 129.759 427.321 129.698C427.321 129.166 427.176 128.774 426.887 128.522C426.597 128.265 426.159 128.137 425.571 128.137C424.997 128.137 424.556 128.237 424.248 128.438C423.94 128.639 423.786 128.958 423.786 129.397C423.786 129.724 423.891 129.997 424.101 130.216C424.311 130.435 424.598 130.627 424.962 130.79C425.33 130.949 425.748 131.11 426.215 131.273C426.835 131.478 427.372 131.712 427.825 131.973C428.277 132.23 428.627 132.552 428.875 132.939C429.122 133.322 429.246 133.809 429.246 134.402C429.246 135.009 429.092 135.524 428.784 135.949C428.48 136.369 428.053 136.691 427.503 136.915C426.957 137.134 426.315 137.244 425.578 137.244ZM430.755 137.09V129.656H432.575V137.09H430.755ZM431.672 128.284C431.374 128.284 431.112 128.205 430.888 128.046C430.669 127.883 430.559 127.656 430.559 127.367C430.559 127.082 430.669 126.861 430.888 126.702C431.112 126.543 431.374 126.464 431.672 126.464C431.966 126.464 432.223 126.543 432.442 126.702C432.662 126.861 432.771 127.082 432.771 127.367C432.771 127.656 432.662 127.883 432.442 128.046C432.223 128.205 431.966 128.284 431.672 128.284ZM437.403 137.244C436.959 137.244 436.537 137.195 436.136 137.097C435.739 136.999 435.384 136.852 435.072 136.656C434.764 136.46 434.519 136.217 434.337 135.928C434.159 135.634 434.071 135.296 434.071 134.913C434.071 134.885 434.071 134.857 434.071 134.829C434.071 134.801 434.071 134.775 434.071 134.752H435.905C435.905 134.775 435.905 134.796 435.905 134.815C435.905 134.829 435.905 134.85 435.905 134.878C435.905 135.181 436.042 135.41 436.318 135.564C436.598 135.713 436.978 135.788 437.459 135.788C437.72 135.788 437.965 135.76 438.194 135.704C438.427 135.648 438.614 135.562 438.754 135.445C438.898 135.328 438.971 135.179 438.971 134.997C438.971 134.703 438.819 134.493 438.516 134.367C438.217 134.241 437.746 134.127 437.102 134.024C436.747 133.963 436.397 133.882 436.052 133.779C435.706 133.676 435.391 133.539 435.107 133.366C434.827 133.193 434.6 132.979 434.428 132.722C434.26 132.465 434.176 132.153 434.176 131.784C434.176 131.294 434.32 130.883 434.61 130.552C434.904 130.216 435.296 129.962 435.786 129.789C436.28 129.616 436.824 129.53 437.417 129.53C437.986 129.53 438.516 129.623 439.006 129.81C439.496 129.997 439.89 130.265 440.189 130.615C440.492 130.965 440.644 131.387 440.644 131.882C440.644 131.901 440.644 131.922 440.644 131.945C440.644 131.964 440.644 131.98 440.644 131.994H438.824C438.824 131.98 438.824 131.966 438.824 131.952C438.824 131.938 438.824 131.922 438.824 131.903C438.824 131.688 438.756 131.513 438.621 131.378C438.485 131.243 438.31 131.142 438.096 131.077C437.881 131.012 437.655 130.979 437.417 130.979C437.207 130.979 436.99 131.002 436.766 131.049C436.542 131.091 436.355 131.168 436.206 131.28C436.056 131.387 435.982 131.539 435.982 131.735C435.982 131.922 436.059 132.073 436.213 132.19C436.367 132.307 436.581 132.405 436.857 132.484C437.132 132.559 437.449 132.626 437.809 132.687C438.149 132.743 438.492 132.82 438.838 132.918C439.188 133.016 439.507 133.147 439.797 133.31C440.086 133.473 440.319 133.688 440.497 133.954C440.679 134.215 440.77 134.54 440.77 134.927C440.77 135.338 440.676 135.688 440.49 135.977C440.303 136.266 440.049 136.507 439.727 136.698C439.409 136.885 439.05 137.022 438.649 137.111C438.247 137.2 437.832 137.244 437.403 137.244ZM445.622 137.23C445.356 137.23 445.086 137.204 444.81 137.153C444.535 137.102 444.283 137.006 444.054 136.866C443.826 136.726 443.641 136.521 443.501 136.25C443.361 135.979 443.291 135.622 443.291 135.179C443.291 135.076 443.291 134.974 443.291 134.871C443.291 134.764 443.291 134.654 443.291 134.542V131.126H441.534V129.656H442.248C442.491 129.656 442.682 129.647 442.822 129.628C442.962 129.605 443.065 129.553 443.13 129.474C443.196 129.395 443.238 129.271 443.256 129.103C443.28 128.93 443.291 128.692 443.291 128.389V127.206H445.139V129.656H447.351V131.126H445.139V134.108C445.139 134.197 445.139 134.285 445.139 134.374C445.139 134.458 445.139 134.54 445.139 134.619C445.139 134.964 445.181 135.242 445.265 135.452C445.349 135.662 445.548 135.767 445.86 135.767C446.01 135.767 446.15 135.753 446.28 135.725C446.416 135.697 446.516 135.669 446.581 135.641V137.083C446.493 137.116 446.364 137.148 446.196 137.181C446.028 137.214 445.837 137.23 445.622 137.23ZM449.222 133.968V132.659H454.423L454.213 133.009C454.213 132.981 454.213 132.951 454.213 132.918C454.213 132.881 454.213 132.85 454.213 132.827C454.213 132.505 454.141 132.204 453.996 131.924C453.852 131.639 453.632 131.411 453.338 131.238C453.044 131.061 452.671 130.972 452.218 130.972C451.77 130.972 451.381 131.068 451.049 131.259C450.723 131.446 450.468 131.716 450.286 132.071C450.109 132.426 450.02 132.85 450.02 133.345C450.02 133.854 450.107 134.292 450.279 134.661C450.452 135.025 450.704 135.305 451.035 135.501C451.371 135.692 451.78 135.788 452.26 135.788C452.587 135.788 452.869 135.758 453.107 135.697C453.345 135.636 453.539 135.555 453.688 135.452C453.842 135.345 453.957 135.23 454.031 135.109C454.111 134.988 454.157 134.866 454.171 134.745H456.005C455.977 135.058 455.872 135.363 455.69 135.662C455.513 135.956 455.263 136.224 454.941 136.467C454.619 136.705 454.227 136.896 453.765 137.041C453.308 137.181 452.785 137.251 452.197 137.251C451.399 137.251 450.702 137.088 450.104 136.761C449.507 136.434 449.04 135.979 448.704 135.396C448.373 134.813 448.207 134.145 448.207 133.394C448.207 132.624 448.375 131.95 448.711 131.371C449.052 130.792 449.523 130.342 450.125 130.02C450.727 129.693 451.418 129.53 452.197 129.53C453 129.53 453.693 129.693 454.276 130.02C454.864 130.347 455.317 130.802 455.634 131.385C455.952 131.964 456.11 132.638 456.11 133.408C456.11 133.506 456.108 133.611 456.103 133.723C456.099 133.835 456.092 133.917 456.082 133.968H449.222ZM462.248 137.09V134.073C462.248 133.798 462.248 133.557 462.248 133.352C462.248 133.142 462.248 132.967 462.248 132.827C462.248 132.645 462.236 132.456 462.213 132.26C462.19 132.059 462.138 131.875 462.059 131.707C461.98 131.539 461.856 131.404 461.688 131.301C461.525 131.194 461.298 131.14 461.009 131.14C460.729 131.14 460.491 131.198 460.295 131.315C460.104 131.427 459.945 131.579 459.819 131.77C459.698 131.957 459.609 132.171 459.553 132.414C459.497 132.652 459.469 132.897 459.469 133.149L458.853 132.736C458.853 132.125 458.967 131.579 459.196 131.098C459.425 130.617 459.749 130.237 460.169 129.957C460.594 129.672 461.095 129.53 461.674 129.53C462.271 129.53 462.745 129.656 463.095 129.908C463.445 130.155 463.695 130.491 463.844 130.916C463.998 131.341 464.075 131.817 464.075 132.344C464.075 132.54 464.075 132.801 464.075 133.128C464.075 133.45 464.075 133.83 464.075 134.269V137.09H462.248ZM457.628 137.09V129.656H459.469V137.09H457.628ZM466.84 137.09V134.08C466.84 133.786 466.84 133.536 466.84 133.331C466.84 133.126 466.84 132.953 466.84 132.813C466.84 132.617 466.828 132.421 466.805 132.225C466.782 132.024 466.73 131.845 466.651 131.686C466.572 131.523 466.448 131.392 466.28 131.294C466.112 131.191 465.883 131.14 465.594 131.14C465.309 131.14 465.069 131.196 464.873 131.308C464.682 131.42 464.528 131.569 464.411 131.756C464.294 131.943 464.208 132.153 464.152 132.386C464.101 132.619 464.075 132.853 464.075 133.086L463.459 132.68C463.459 132.087 463.571 131.553 463.795 131.077C464.019 130.601 464.341 130.225 464.761 129.95C465.181 129.67 465.68 129.53 466.259 129.53C466.842 129.53 467.311 129.649 467.666 129.887C468.021 130.125 468.277 130.452 468.436 130.867C468.599 131.278 468.681 131.747 468.681 132.274C468.681 132.479 468.681 132.741 468.681 133.058C468.681 133.375 468.681 133.751 468.681 134.185V137.09H466.84ZM473 137.244C472.445 137.244 471.957 137.158 471.537 136.985C471.117 136.808 470.788 136.553 470.55 136.222C470.312 135.891 470.193 135.492 470.193 135.025C470.193 134.516 470.331 134.099 470.606 133.772C470.886 133.441 471.262 133.186 471.733 133.009C472.205 132.827 472.727 132.71 473.301 132.659C474.151 132.575 474.743 132.496 475.079 132.421C475.42 132.342 475.59 132.216 475.59 132.043C475.59 132.038 475.59 132.036 475.59 132.036C475.59 132.031 475.59 132.029 475.59 132.029C475.59 131.702 475.443 131.45 475.149 131.273C474.855 131.096 474.44 131.007 473.903 131.007C473.339 131.007 472.905 131.107 472.601 131.308C472.303 131.504 472.153 131.817 472.153 132.246H470.333C470.333 131.663 470.487 131.17 470.795 130.769C471.108 130.363 471.535 130.055 472.076 129.845C472.618 129.635 473.231 129.53 473.917 129.53C474.557 129.53 475.142 129.626 475.674 129.817C476.206 130.008 476.633 130.298 476.955 130.685C477.277 131.072 477.438 131.555 477.438 132.134C477.438 132.232 477.438 132.33 477.438 132.428C477.438 132.526 477.438 132.624 477.438 132.722V135.522C477.438 135.699 477.443 135.874 477.452 136.047C477.466 136.215 477.492 136.367 477.529 136.502C477.576 136.651 477.632 136.777 477.697 136.88C477.763 136.983 477.814 137.053 477.851 137.09H476.031C475.999 137.057 475.952 136.994 475.891 136.901C475.835 136.803 475.784 136.691 475.737 136.565C475.691 136.425 475.656 136.276 475.632 136.117C475.609 135.954 475.597 135.774 475.597 135.578L475.961 135.83C475.821 136.115 475.607 136.364 475.317 136.579C475.033 136.789 474.692 136.952 474.295 137.069C473.899 137.186 473.467 137.244 473 137.244ZM473.448 135.795C473.831 135.795 474.186 135.73 474.512 135.599C474.839 135.468 475.103 135.268 475.303 134.997C475.504 134.722 475.604 134.369 475.604 133.94V132.946L476.052 133.45C475.754 133.562 475.394 133.655 474.974 133.73C474.554 133.8 474.13 133.856 473.7 133.898C473.15 133.949 472.734 134.045 472.454 134.185C472.179 134.325 472.041 134.554 472.041 134.871C472.041 135.179 472.158 135.41 472.391 135.564C472.625 135.718 472.977 135.795 473.448 135.795ZM482.151 137.244C481.707 137.244 481.285 137.195 480.884 137.097C480.487 136.999 480.132 136.852 479.82 136.656C479.512 136.46 479.267 136.217 479.085 135.928C478.907 135.634 478.819 135.296 478.819 134.913C478.819 134.885 478.819 134.857 478.819 134.829C478.819 134.801 478.819 134.775 478.819 134.752H480.653C480.653 134.775 480.653 134.796 480.653 134.815C480.653 134.829 480.653 134.85 480.653 134.878C480.653 135.181 480.79 135.41 481.066 135.564C481.346 135.713 481.726 135.788 482.207 135.788C482.468 135.788 482.713 135.76 482.942 135.704C483.175 135.648 483.362 135.562 483.502 135.445C483.646 135.328 483.719 135.179 483.719 134.997C483.719 134.703 483.567 134.493 483.264 134.367C482.965 134.241 482.494 134.127 481.85 134.024C481.495 133.963 481.145 133.882 480.8 133.779C480.454 133.676 480.139 133.539 479.855 133.366C479.575 133.193 479.348 132.979 479.176 132.722C479.008 132.465 478.924 132.153 478.924 131.784C478.924 131.294 479.068 130.883 479.358 130.552C479.652 130.216 480.044 129.962 480.534 129.789C481.028 129.616 481.572 129.53 482.165 129.53C482.734 129.53 483.264 129.623 483.754 129.81C484.244 129.997 484.638 130.265 484.937 130.615C485.24 130.965 485.392 131.387 485.392 131.882C485.392 131.901 485.392 131.922 485.392 131.945C485.392 131.964 485.392 131.98 485.392 131.994H483.572C483.572 131.98 483.572 131.966 483.572 131.952C483.572 131.938 483.572 131.922 483.572 131.903C483.572 131.688 483.504 131.513 483.369 131.378C483.233 131.243 483.058 131.142 482.844 131.077C482.629 131.012 482.403 130.979 482.165 130.979C481.955 130.979 481.738 131.002 481.514 131.049C481.29 131.091 481.103 131.168 480.954 131.28C480.804 131.387 480.73 131.539 480.73 131.735C480.73 131.922 480.807 132.073 480.961 132.19C481.115 132.307 481.329 132.405 481.605 132.484C481.88 132.559 482.197 132.626 482.557 132.687C482.897 132.743 483.24 132.82 483.586 132.918C483.936 133.016 484.255 133.147 484.545 133.31C484.834 133.473 485.067 133.688 485.245 133.954C485.427 134.215 485.518 134.54 485.518 134.927C485.518 135.338 485.424 135.688 485.238 135.977C485.051 136.266 484.797 136.507 484.475 136.698C484.157 136.885 483.798 137.022 483.397 137.111C482.995 137.2 482.58 137.244 482.151 137.244Z" fill="white"/>
<path d="M453.743 76.7667C456.991 76.7667 459.624 74.1335 459.624 70.8853C459.624 67.6371 456.991 65.0039 453.743 65.0039C450.495 65.0039 447.861 67.6371 447.861 70.8853C447.861 74.1335 450.495 76.7667 453.743 76.7667Z" stroke="white" stroke-width="3.92093" stroke-linecap="round" stroke-linejoin="round"/>
<path d="M468.25 76.7668C467.989 77.3581 467.911 78.014 468.027 78.65C468.142 79.286 468.445 79.8728 468.897 80.3348L469.015 80.4525C469.379 80.8166 469.669 81.2491 469.866 81.725C470.063 82.201 470.165 82.7113 470.165 83.2265C470.165 83.7418 470.063 84.252 469.866 84.728C469.669 85.204 469.379 85.6364 469.015 86.0006C468.651 86.3651 468.218 86.6543 467.742 86.8517C467.266 87.049 466.756 87.1505 466.241 87.1505C465.726 87.1505 465.215 87.049 464.739 86.8517C464.263 86.6543 463.831 86.3651 463.467 86.0006L463.349 85.883C462.887 85.431 462.3 85.1278 461.664 85.0125C461.028 84.8972 460.372 84.975 459.781 85.236C459.201 85.4845 458.707 85.8972 458.358 86.4231C458.01 86.9491 457.823 87.5655 457.821 88.1963V88.5296C457.821 89.5695 457.407 90.5668 456.672 91.3021C455.937 92.0374 454.94 92.4505 453.9 92.4505C452.86 92.4505 451.862 92.0374 451.127 91.3021C450.392 90.5668 449.979 89.5695 449.979 88.5296V88.3531C449.964 87.7042 449.754 87.0749 449.376 86.547C448.998 86.019 448.471 85.6169 447.861 85.3928C447.27 85.1319 446.614 85.054 445.978 85.1693C445.342 85.2846 444.755 85.5878 444.293 86.0398L444.176 86.1574C443.812 86.522 443.379 86.8112 442.903 87.0085C442.427 87.2058 441.917 87.3074 441.402 87.3074C440.886 87.3074 440.376 87.2058 439.9 87.0085C439.424 86.8112 438.992 86.522 438.628 86.1574C438.263 85.7933 437.974 85.3608 437.777 84.8848C437.579 84.4089 437.478 83.8986 437.478 83.3834C437.478 82.8681 437.579 82.3579 437.777 81.8819C437.974 81.4059 438.263 80.9735 438.628 80.6093L438.745 80.4917C439.197 80.0296 439.5 79.4428 439.616 78.8068C439.731 78.1709 439.653 77.5149 439.392 76.9236C439.144 76.3438 438.731 75.8493 438.205 75.5009C437.679 75.1526 437.063 74.9657 436.432 74.9632H436.099C435.059 74.9632 434.061 74.5501 433.326 73.8148C432.591 73.0794 432.178 72.0821 432.178 71.0422C432.178 70.0024 432.591 69.0051 433.326 68.2697C434.061 67.5344 435.059 67.1213 436.099 67.1213H436.275C436.924 67.1061 437.553 66.8961 438.081 66.5185C438.609 66.1409 439.011 65.6132 439.235 65.004C439.496 64.4127 439.574 63.7568 439.459 63.1208C439.344 62.4849 439.04 61.898 438.588 61.436L438.471 61.3183C438.106 60.9542 437.817 60.5218 437.62 60.0458C437.422 59.5698 437.321 59.0596 437.321 58.5443C437.321 58.029 437.422 57.5188 437.62 57.0428C437.817 56.5668 438.106 56.1344 438.471 55.7702C438.835 55.4057 439.267 55.1165 439.743 54.9192C440.219 54.7218 440.73 54.6203 441.245 54.6203C441.76 54.6203 442.27 54.7218 442.746 54.9192C443.222 55.1165 443.655 55.4057 444.019 55.7702L444.137 55.8879C444.599 56.3398 445.185 56.643 445.821 56.7583C446.457 56.8736 447.113 56.7958 447.705 56.5348H447.861C448.441 56.2863 448.936 55.8737 449.284 55.3477C449.632 54.8217 449.819 54.2054 449.822 53.5745V53.2412C449.822 52.2013 450.235 51.204 450.97 50.4687C451.706 49.7334 452.703 49.3203 453.743 49.3203C454.783 49.3203 455.78 49.7334 456.515 50.4687C457.251 51.204 457.664 52.2013 457.664 53.2412V53.4177C457.666 54.0485 457.853 54.6649 458.202 55.1909C458.55 55.7168 459.044 56.1295 459.624 56.378C460.216 56.6389 460.871 56.7168 461.507 56.6015C462.143 56.4862 462.73 56.183 463.192 55.731L463.31 55.6134C463.674 55.2488 464.106 54.9596 464.582 54.7623C465.058 54.565 465.569 54.4634 466.084 54.4634C466.599 54.4634 467.109 54.565 467.585 54.7623C468.061 54.9596 468.494 55.2488 468.858 55.6134C469.223 55.9775 469.512 56.41 469.709 56.886C469.906 57.362 470.008 57.8722 470.008 58.3875C470.008 58.9027 469.906 59.4129 469.709 59.8889C469.512 60.3649 469.223 60.7974 468.858 61.1615L468.74 61.2791C468.288 61.7412 467.985 62.328 467.87 62.964C467.755 63.5999 467.832 64.2559 468.093 64.8472V65.004C468.342 65.5839 468.755 66.0784 469.281 66.4267C469.807 66.775 470.423 66.962 471.054 66.9645H471.387C472.427 66.9645 473.424 67.3776 474.16 68.1129C474.895 68.8482 475.308 69.8455 475.308 70.8854C475.308 71.9253 474.895 72.9226 474.16 73.6579C473.424 74.3932 472.427 74.8063 471.387 74.8063H471.211C470.58 74.8089 469.963 74.9958 469.437 75.3441C468.911 75.6924 468.499 76.187 468.25 76.7668Z" stroke="white" stroke-width="3.92093" stroke-linecap="round" stroke-linejoin="round"/>
<rect x="333.198" y="1.19806" width="243.446" height="170.604" rx="12.6994" stroke="url(#paint10_linear_2667_379)" stroke-width="2.39612"/>
</g>
<defs>
<filter id="filter0_b_2667_379" x="123.178" y="55.1778" width="369.244" height="583.644" filterUnits="userSpaceOnUse" color-interpolation-filters="sRGB">
<feFlood flood-opacity="0" result="BackgroundImageFix"/>
<feGaussianBlur in="BackgroundImageFix" stdDeviation="11.9111"/>
<feComposite in2="SourceAlpha" operator="in" result="effect1_backgroundBlur_2667_379"/>
<feBlend mode="normal" in="SourceGraphic" in2="effect1_backgroundBlur_2667_379" result="shape"/>
</filter>
<filter id="filter1_b_2667_379" x="371" y="305" width="229.505" height="263" filterUnits="userSpaceOnUse" color-interpolation-filters="sRGB">
<feFlood flood-opacity="0" result="BackgroundImageFix"/>
<feGaussianBlur in="BackgroundImageFix" stdDeviation="3"/>
<feComposite in2="SourceAlpha" operator="in" result="effect1_backgroundBlur_2667_379"/>
<feBlend mode="normal" in="SourceGraphic" in2="effect1_backgroundBlur_2667_379" result="shape"/>
</filter>
<filter id="filter2_b_2667_379" x="3" y="20" width="244.211" height="176" filterUnits="userSpaceOnUse" color-interpolation-filters="sRGB">
<feFlood flood-opacity="0" result="BackgroundImageFix"/>
<feGaussianBlur in="BackgroundImageFix" stdDeviation="3.5"/>
<feComposite in2="SourceAlpha" operator="in" result="effect1_backgroundBlur_2667_379"/>
<feBlend mode="normal" in="SourceGraphic" in2="effect1_backgroundBlur_2667_379" result="shape"/>
</filter>
<filter id="filter3_b_2667_379" x="-6" y="455" width="283" height="202.703" filterUnits="userSpaceOnUse" color-interpolation-filters="sRGB">
<feFlood flood-opacity="0" result="BackgroundImageFix"/>
<feGaussianBlur in="BackgroundImageFix" stdDeviation="3"/>
<feComposite in2="SourceAlpha" operator="in" result="effect1_backgroundBlur_2667_379"/>
<feBlend mode="normal" in="SourceGraphic" in2="effect1_backgroundBlur_2667_379" result="shape"/>
</filter>
<filter id="filter4_b_2667_379" x="326" y="-6" width="257.842" height="185" filterUnits="userSpaceOnUse" color-interpolation-filters="sRGB">
<feFlood flood-opacity="0" result="BackgroundImageFix"/>
<feGaussianBlur in="BackgroundImageFix" stdDeviation="3"/>
<feComposite in2="SourceAlpha" operator="in" result="effect1_backgroundBlur_2667_379"/>
<feBlend mode="normal" in="SourceGraphic" in2="effect1_backgroundBlur_2667_379" result="shape"/>
</filter>
<linearGradient id="paint0_linear_2667_379" x1="156.494" y1="175.967" x2="563.51" y2="327.571" gradientUnits="userSpaceOnUse">
<stop stop-color="#7260DF"/>
<stop offset="1" stop-color="#3BA1F0"/>
</linearGradient>
<linearGradient id="paint1_linear_2667_379" x1="142.788" y1="375.292" x2="441.732" y2="375.292" gradientUnits="userSpaceOnUse">
<stop stop-color="#3BA1F0"/>
<stop offset="1" stop-color="#7260DF"/>
</linearGradient>
<linearGradient id="paint2_linear_2667_379" x1="383.421" y1="356.408" x2="626.532" y2="487.19" gradientUnits="userSpaceOnUse">
<stop stop-color="#7260DF"/>
<stop offset="1" stop-color="#3BA1F0"/>
</linearGradient>
<linearGradient id="paint3_linear_2667_379" x1="403.247" y1="499.989" x2="556.559" y2="499.989" gradientUnits="userSpaceOnUse">
<stop stop-color="#3BA1F0" stop-opacity="0.14"/>
<stop offset="1" stop-color="#7260DF"/>
</linearGradient>
<linearGradient id="paint4_linear_2667_379" x1="374.151" y1="449.749" x2="576.334" y2="449.749" gradientUnits="userSpaceOnUse">
<stop stop-color="#3BA1F0"/>
<stop offset="1" stop-color="#7260DF"/>
</linearGradient>
<linearGradient id="paint5_linear_2667_379" x1="16.7959" y1="56.3072" x2="203.371" y2="220.9" gradientUnits="userSpaceOnUse">
<stop stop-color="#7260DF"/>
<stop offset="1" stop-color="#3BA1F0"/>
</linearGradient>
<linearGradient id="paint6_linear_2667_379" x1="6.98472" y1="116.551" x2="220.978" y2="116.551" gradientUnits="userSpaceOnUse">
<stop stop-color="#3BA1F0"/>
<stop offset="1" stop-color="#7260DF"/>
</linearGradient>
<linearGradient id="paint7_linear_2667_379" x1="8" y1="495.5" x2="227.634" y2="689.256" gradientUnits="userSpaceOnUse">
<stop stop-color="#7260DF"/>
<stop offset="1" stop-color="#3BA1F0"/>
</linearGradient>
<linearGradient id="paint8_linear_2667_379" x1="-3.54953" y1="566.418" x2="248.359" y2="566.418" gradientUnits="userSpaceOnUse">
<stop stop-color="#3BA1F0"/>
<stop offset="1" stop-color="#7260DF"/>
</linearGradient>
<linearGradient id="paint9_linear_2667_379" x1="339.257" y1="31.2972" x2="538.502" y2="207.066" gradientUnits="userSpaceOnUse">
<stop stop-color="#7260DF"/>
<stop offset="1" stop-color="#3BA1F0"/>
</linearGradient>
<linearGradient id="paint10_linear_2667_379" x1="328.78" y1="95.6317" x2="557.303" y2="95.6317" gradientUnits="userSpaceOnUse">
<stop stop-color="#3BA1F0"/>
<stop offset="1" stop-color="#7260DF"/>
</linearGradient>
<clipPath id="clip0_2667_379">
<rect x="147" y="79" width="321.6" height="536" fill="white"/>
</clipPath>
<clipPath id="clip1_2667_379">
<rect x="377" y="311" width="217.505" height="251" rx="12.2956" fill="white"/>
</clipPath>
</defs>
</svg>
