<svg width="100%" height="100%" viewBox="0 0 52 38" fill="none" xmlns="http://www.w3.org/2000/svg">
<path fill-rule="evenodd" clip-rule="evenodd" d="M2.29034 2.93457H49.2571V35.85H2.29034V2.93457ZM0.290344 0.93457H2.29034H49.2571H51.2571V2.93457V35.85V37.85H49.2571H2.29034H0.290344V35.85V2.93457V0.93457ZM34.7796 8.12832L34.0968 7.40075L33.3677 8.082L17.162 23.2248L16.9725 23.4019L16.893 23.6488L14.9669 29.6263L14.3953 31.4003L16.1894 30.8957L22.5655 29.1023L22.8038 29.0353L22.9833 28.8648L38.7904 13.8546L39.5114 13.1701L38.831 12.4451L34.7796 8.12832ZM17.4421 28.4657L18.717 24.5091L34.0041 10.2246L36.6923 13.0889L21.7856 27.244L17.4421 28.4657Z" fill="black"/>
<path fill-rule="evenodd" clip-rule="evenodd" d="M2.29034 2.93457H49.2571V35.85H2.29034V2.93457ZM0.290344 0.93457H2.29034H49.2571H51.2571V2.93457V35.85V37.85H49.2571H2.29034H0.290344V35.85V2.93457V0.93457ZM34.7796 8.12832L34.0968 7.40075L33.3677 8.082L17.162 23.2248L16.9725 23.4019L16.893 23.6488L14.9669 29.6263L14.3953 31.4003L16.1894 30.8957L22.5655 29.1023L22.8038 29.0353L22.9833 28.8648L38.7904 13.8546L39.5114 13.1701L38.831 12.4451L34.7796 8.12832ZM17.4421 28.4657L18.717 24.5091L34.0041 10.2246L36.6923 13.0889L21.7856 27.244L17.4421 28.4657Z" fill="white"/>
</svg>
