<svg width="65" height="50" viewBox="0 0 65 50" fill="none" xmlns="http://www.w3.org/2000/svg">
<path fill-rule="evenodd" clip-rule="evenodd" d="M57.2059 3.74099C57.546 3.60012 57.9105 3.52762 58.2786 3.52762C58.6467 3.52762 59.0112 3.60012 59.3513 3.74099C59.6914 3.88186 60.0004 4.08833 60.2607 4.34861C60.3122 4.4002 60.3617 4.45371 60.409 4.50899H59.6147H56.1362L56.2966 4.34861C56.5568 4.08833 56.8658 3.88186 57.2059 3.74099ZM51.8001 4.50899L54.1285 2.18057C54.6735 1.63557 55.3205 1.20326 56.0326 0.908308C56.7447 0.613357 57.5079 0.461548 58.2786 0.461548C59.0493 0.461548 59.8125 0.613357 60.5246 0.908308C61.2367 1.20326 61.8837 1.63557 62.4287 2.18057C62.9737 2.72557 63.406 3.37258 63.701 4.08465C63.9959 4.79673 64.1477 5.55993 64.1477 6.33067C64.1477 7.10141 63.9959 7.8646 63.701 8.57668C63.4404 9.20574 63.0726 9.78401 62.6147 10.286V46.5701V49.5701H59.6147H3.40173H0.401733V46.5701V7.50899V4.50899H3.40173H51.8001ZM59.6147 8.95869V7.50899H53.1362L49.4258 11.2194C49.3135 12.1056 48.6112 12.8079 47.725 12.9202L46.5273 14.1179H54.4555L59.6147 8.95869ZM58.7916 14.1179L59.6147 13.2948V14.1179H58.7916ZM51.4555 17.1179H43.5273L37.5047 23.1405V23.2185V29.3612L39.8525 28.7208L51.4555 17.1179ZM37.5047 32.5392L41.0521 31.5718C41.3094 31.5016 41.5441 31.3654 41.7327 31.1768L55.7916 17.1179H59.6147V46.5701H3.40173V17.1179H39.1912L35.0906 21.2185H18.1572V19.1193H11.1911V25.035H13.4605V37.6296H11.1911V43.5452H18.1572V41.6368H34.0216V43.5452H40.9877V37.6296H37.5047V32.5392ZM35.5047 29.9066V26.1638L34.4019 30.2074L35.5047 29.9066ZM33.1751 23.2185C33.1161 23.325 33.0698 23.4387 33.0375 23.5572L30.738 31.9889C30.5932 32.5197 30.744 33.0873 31.133 33.4763C31.522 33.8653 32.0896 34.0161 32.6203 33.8713L35.5047 33.0847V37.6296H34.0216V39.6368H18.1572V37.6296H15.4605V25.035H18.1572V23.2185H33.1751ZM42.1912 14.1179H3.40173V7.50899H48.8001L47.2975 9.01155C46.3536 9.09617 45.6018 9.84796 45.5171 10.7919L42.1912 14.1179ZM56.5196 10.9697C56.5196 12.0556 55.6393 12.9359 54.5535 12.9359C53.4676 12.9359 52.5873 12.0556 52.5873 10.9697C52.5873 9.88388 53.4676 9.00362 54.5535 9.00362C55.6393 9.00362 56.5196 9.88388 56.5196 10.9697ZM42.3632 10.9697C42.3632 12.0556 41.483 12.9359 40.3971 12.9359C39.3112 12.9359 38.431 12.0556 38.431 10.9697C38.431 9.88388 39.3112 9.00362 40.3971 9.00362C41.483 9.00362 42.3632 9.88388 42.3632 10.9697Z" fill="black"/>
<path fill-rule="evenodd" clip-rule="evenodd" d="M57.2059 3.74099C57.546 3.60012 57.9105 3.52762 58.2786 3.52762C58.6467 3.52762 59.0112 3.60012 59.3513 3.74099C59.6914 3.88186 60.0004 4.08833 60.2607 4.34861C60.3122 4.4002 60.3617 4.45371 60.409 4.50899H59.6147H56.1362L56.2966 4.34861C56.5568 4.08833 56.8658 3.88186 57.2059 3.74099ZM51.8001 4.50899L54.1285 2.18057C54.6735 1.63557 55.3205 1.20326 56.0326 0.908308C56.7447 0.613357 57.5079 0.461548 58.2786 0.461548C59.0493 0.461548 59.8125 0.613357 60.5246 0.908308C61.2367 1.20326 61.8837 1.63557 62.4287 2.18057C62.9737 2.72557 63.406 3.37258 63.701 4.08465C63.9959 4.79673 64.1477 5.55993 64.1477 6.33067C64.1477 7.10141 63.9959 7.8646 63.701 8.57668C63.4404 9.20574 63.0726 9.78401 62.6147 10.286V46.5701V49.5701H59.6147H3.40173H0.401733V46.5701V7.50899V4.50899H3.40173H51.8001ZM59.6147 8.95869V7.50899H53.1362L49.4258 11.2194C49.3135 12.1056 48.6112 12.8079 47.725 12.9202L46.5273 14.1179H54.4555L59.6147 8.95869ZM58.7916 14.1179L59.6147 13.2948V14.1179H58.7916ZM51.4555 17.1179H43.5273L37.5047 23.1405V23.2185V29.3612L39.8525 28.7208L51.4555 17.1179ZM37.5047 32.5392L41.0521 31.5718C41.3094 31.5016 41.5441 31.3654 41.7327 31.1768L55.7916 17.1179H59.6147V46.5701H3.40173V17.1179H39.1912L35.0906 21.2185H18.1572V19.1193H11.1911V25.035H13.4605V37.6296H11.1911V43.5452H18.1572V41.6368H34.0216V43.5452H40.9877V37.6296H37.5047V32.5392ZM35.5047 29.9066V26.1638L34.4019 30.2074L35.5047 29.9066ZM33.1751 23.2185C33.1161 23.325 33.0698 23.4387 33.0375 23.5572L30.738 31.9889C30.5932 32.5197 30.744 33.0873 31.133 33.4763C31.522 33.8653 32.0896 34.0161 32.6203 33.8713L35.5047 33.0847V37.6296H34.0216V39.6368H18.1572V37.6296H15.4605V25.035H18.1572V23.2185H33.1751ZM42.1912 14.1179H3.40173V7.50899H48.8001L47.2975 9.01155C46.3536 9.09617 45.6018 9.84796 45.5171 10.7919L42.1912 14.1179ZM56.5196 10.9697C56.5196 12.0556 55.6393 12.9359 54.5535 12.9359C53.4676 12.9359 52.5873 12.0556 52.5873 10.9697C52.5873 9.88388 53.4676 9.00362 54.5535 9.00362C55.6393 9.00362 56.5196 9.88388 56.5196 10.9697ZM42.3632 10.9697C42.3632 12.0556 41.483 12.9359 40.3971 12.9359C39.3112 12.9359 38.431 12.0556 38.431 10.9697C38.431 9.88388 39.3112 9.00362 40.3971 9.00362C41.483 9.00362 42.3632 9.88388 42.3632 10.9697Z" fill="url(#paint0_linear_41_57)"/>
<defs>
<linearGradient id="paint0_linear_41_57" x1="0.680663" y1="27.106" x2="58.9139" y2="27.106" gradientUnits="userSpaceOnUse">
<stop stop-color="#3BA1F0"/>
<stop offset="1" stop-color="#7260DF"/>
</linearGradient>
</defs>
</svg>
