<svg width="auto" height="auto" viewBox="0 0 52 38" fill="none" xmlns="http://www.w3.org/2000/svg">
<path fill-rule="evenodd" clip-rule="evenodd" d="M2.40173 2.56152H49.3685V35.477H2.40173V2.56152ZM0.401733 0.561523H2.40173H49.3685H51.3685V2.56152V35.477V37.477H49.3685H2.40173H0.401733V35.477V2.56152V0.561523ZM34.891 7.75528L34.2082 7.0277L33.4791 7.70895L17.2734 22.8518L17.0839 23.0289L17.0043 23.2758L15.0783 29.2533L14.5066 31.0273L16.3008 30.5226L22.6769 28.7292L22.9152 28.6622L23.0947 28.4917L38.9018 13.4816L39.6228 12.797L38.9424 12.0721L34.891 7.75528ZM17.5535 28.0927L18.8284 24.136L34.1155 9.85152L36.8037 12.7159L21.897 26.871L17.5535 28.0927Z" fill="url(#paint0_linear_356_99)"/>
<defs>
<linearGradient id="paint0_linear_356_99" x1="16.3949" y1="33.7031" x2="56.5746" y2="33.7031" gradientUnits="userSpaceOnUse">
<stop stop-color="#3BA1F0"/>
<stop offset="1" stop-color="#7260DF"/>
</linearGradient>
</defs>
</svg>
