<svg width="auto" height="auto" viewBox="0 0 21 21" fill="none" xmlns="http://www.w3.org/2000/svg">
<path d="M17.6785 3.70102C15.8276 1.84565 13.3626 0.825195 10.743 0.825195C5.33587 0.825195 0.935984 5.22508 0.935984 10.6322C0.935984 12.3594 1.38658 14.0469 2.24358 15.5357L1.54904 18.0713C1.23936 19.2019 2.27006 20.2436 3.40388 19.9459L6.05151 19.2508C7.4828 20.0327 9.09521 20.4436 10.7385 20.4436H10.743C16.1456 20.4436 20.6427 16.0437 20.6427 10.6366C20.6427 8.01698 19.5295 5.5564 17.6785 3.70102ZM10.743 18.7914C9.27633 18.7914 7.84062 18.3982 6.59046 17.6561L6.29448 17.4794L3.21103 18.2878L4.03269 15.2794L3.83832 14.9702C3.02107 13.6714 2.59257 12.1739 2.59257 10.6322C2.59257 6.13952 6.2503 2.48178 10.7474 2.48178C12.9252 2.48178 14.9706 3.32995 16.5079 4.87168C18.0452 6.4134 18.9905 8.45873 18.9861 10.6366C18.9861 15.1337 15.2356 18.7914 10.743 18.7914ZM15.2135 12.6863C14.9706 12.5626 13.7646 11.9707 13.5393 11.8912C13.314 11.8072 13.1505 11.7675 12.9871 12.0149C12.8236 12.2622 12.3554 12.81 12.2096 12.9779C12.0682 13.1413 11.9224 13.1634 11.6795 13.0397C10.2394 12.3197 9.294 11.7542 8.34423 10.1242C8.09242 9.69123 8.59603 9.72215 9.06429 8.78563C9.1438 8.62218 9.10404 8.48082 9.0422 8.35713C8.98035 8.23344 8.49 7.02744 8.2868 6.53709C8.08801 6.06 7.8848 6.12626 7.7346 6.11743C7.59324 6.10859 7.42979 6.10859 7.26634 6.10859C7.10289 6.10859 6.83784 6.17044 6.61254 6.4134C6.38725 6.66079 5.75554 7.25274 5.75554 8.45873C5.75554 9.66472 6.63463 10.831 6.75391 10.9944C6.8776 11.1579 8.48117 13.6317 10.9417 14.6963C12.4967 15.3678 13.1064 15.4252 13.8838 15.3104C14.3565 15.2397 15.3328 14.7184 15.536 14.1441C15.7392 13.5698 15.7392 13.0795 15.6774 12.9779C15.6199 12.8675 15.4565 12.8056 15.2135 12.6863Z" fill="white"/>
</svg>
