<svg width="28" height="25" viewBox="0 0 55 44" fill="none" xmlns="http://www.w3.org/2000/svg">
<path d="M48.1706 8.78748C47.9646 7.98243 47.3822 7.37502 46.7152 7.18764C45.53 6.85721 39.7762 6.09878 27.614 6.09878C15.4518 6.09878 9.6992 6.85751 8.50928 7.18859C7.8485 7.37237 7.26617 7.97967 7.05752 8.78748C6.76347 9.93454 5.99233 14.7365 5.99233 22.315C5.99233 29.8934 6.76347 34.6956 7.05833 35.8459C7.26336 36.6478 7.84579 37.2551 8.50998 37.4415C9.6992 37.7726 15.4518 38.5313 27.614 38.5313C39.7762 38.5313 45.53 37.7729 46.7187 37.4415C47.3795 37.2578 47.9619 36.6505 48.1706 35.8426C48.4646 34.6956 49.2357 29.8826 49.2357 22.315C49.2357 14.7474 48.4646 9.93454 48.1706 8.78748ZM53.4065 7.44521C54.6411 12.2609 54.6411 22.315 54.6411 22.315C54.6411 22.315 54.6411 32.3691 53.4065 37.1848C52.7187 39.8483 50.7114 41.9415 48.1671 42.6491C43.5495 43.9367 27.614 43.9367 27.614 43.9367C27.614 43.9367 11.688 43.9367 7.06095 42.6491C4.50714 41.9318 2.49992 39.8383 1.8214 37.1848C0.586915 32.3691 0.586914 22.315 0.586914 22.315C0.586914 22.315 0.586915 12.2609 1.8214 7.44521C2.50932 4.78183 4.51657 2.68844 7.06095 1.98082C11.688 0.693359 27.614 0.693359 27.614 0.693359C27.614 0.693359 43.5495 0.693359 48.1671 1.98082C50.7208 2.69828 52.7282 4.79164 53.4065 7.44521ZM22.2086 31.7745V12.8555L38.4249 22.315L22.2086 31.7745Z" fill="white"/>
</svg>
